<svg width="32" height="32" viewBox="71 67 80 88" fill="none" xmlns="http://www.w3.org/2000/svg">
  <path d="M81.2954 129.019C77.503 134.78 75.5 141.486 75.5 148.41V151H146.5V148.41C146.5 128.892 130.574 113.012 111 113.012C100.818 113.012 92.5285 104.752 92.5285 94.5931C92.5285 84.4341 100.812 76.1745 111 76.1745C120.253 76.1745 127.936 82.9951 129.264 91.8591L121.182 87.2602L118.608 91.7612L129.229 97.8106C130.176 98.3516 131.203 98.6049 132.225 98.6049C134.332 98.6049 136.381 97.5113 137.501 95.56L143.568 84.9694L139.054 82.4023L134.326 90.6618C132.439 79.5128 122.701 71 111 71C97.9545 71 87.3333 81.5849 87.3333 94.5988C87.3333 107.613 97.9487 118.198 111 118.198C126.834 118.198 139.873 130.371 141.195 145.826H80.8048C81.232 140.841 82.8828 136.058 85.642 131.862L81.2954 129.019Z" fill="#F0A800"/>
</svg>
