<svg width="32" height="32" viewBox="62 67 98 88" fill="none" xmlns="http://www.w3.org/2000/svg">
  <path d="M73.292 142.447C73.4891 142.645 73.6861 142.842 73.8832 143.039C78.7445 147.908 85.4453 150.934 92.8029 150.934C92.8029 150.868 129.197 151 129.197 151H129.328C136.423 151 143.058 148.237 148.117 143.237C153.175 138.237 156 131.526 156 124.355C156 112.645 148.708 102.513 137.803 98.9605V97.8421C137.803 90.7368 135.109 83.9605 130.051 78.8947C125.058 73.8289 118.358 71 111.197 71V76.9211C122.628 76.9211 131.891 86.3289 131.825 97.7763C131.825 98.6974 131.759 99.6842 131.628 100.671L131.234 103.368L133.861 103.961C143.255 106.132 150.022 114.684 149.956 124.289C149.956 129.816 147.788 135.079 143.847 138.961C139.905 142.842 134.715 145.013 129.197 145.013C123.679 145.013 129.197 145.013 129.131 145.013L92.6058 144.882C85.8394 144.882 79.7956 141.592 76.0511 136.526C75.9197 136.329 75.7883 136.197 75.6569 136C75.6569 135.934 75.5255 135.868 75.5255 135.803C73.292 132.513 71.9781 128.5 71.9781 124.224C71.9781 112.776 81.3066 103.434 92.7372 103.434C104.168 103.434 111.46 110.868 113.168 120.605L105.876 113.303L101.672 117.513L111.526 127.382C112.839 128.697 114.613 129.421 116.387 129.421C118.161 129.421 119.934 128.763 121.248 127.382L131.102 117.513L126.898 113.303L119.146 121.066C117.635 107.776 106.336 97.4474 92.6715 97.4474C79.0073 97.4474 88.7299 97.6447 86.8905 98.1053C74.6058 100.737 66.0657 111.395 66 124.026C66 130.803 68.4307 137.184 72.9635 142.118C72.9635 142.184 73.0949 142.25 73.1606 142.316L73.292 142.447Z" fill="#00CBFF"/>
</svg>
