<svg width="32" height="32" viewBox="67 67 88 88" fill="none" xmlns="http://www.w3.org/2000/svg">
  <path d="M71.5 137.397H91.5635C93.7579 137.397 95.8479 138.388 97.2064 140.107L104.312 149.072C105.305 150.322 106.716 151 108.231 151C108.806 151 109.38 150.896 109.903 150.739C111.94 150.01 113.299 148.186 113.299 145.997V114.049L119.203 119.938L122.547 116.603L114.71 108.785C113.665 107.743 112.306 107.169 110.843 107.169C109.38 107.169 108.022 107.743 106.977 108.785L99.1396 116.603L102.483 119.938L108.649 113.788V145.945C108.649 146.049 108.649 146.153 108.44 146.257C108.231 146.309 108.126 146.257 108.074 146.153L100.968 137.189C98.7216 134.322 95.3254 132.655 91.668 132.655H79.8598L111.052 80.1726L142.245 132.655H125.786V137.345H150.5L111.052 71L71.6045 137.345L71.5 137.397Z" fill="#9C7BFF"/>
</svg>
