<svg width="32" height="32" viewBox="65 66 92 89" fill="none" xmlns="http://www.w3.org/2000/svg">
  <path d="M147.369 93.9663L118.929 73.5518C114.218 70.1494 107.84 70.1494 103.129 73.5518L74.5732 94.3123C71.0684 96.8497 69 100.944 69 105.333V148.353H74.171V105.333C74.171 102.622 75.4925 100.085 77.6183 98.5278L106.174 77.7616C109.104 75.6279 113.011 75.6279 115.941 77.7616L144.382 98.1761C146.565 99.7331 147.886 102.27 147.886 104.981V145.752H101.347V115.765C101.347 114.496 102.382 113.458 103.646 113.458H117.607C118.871 113.458 119.906 114.496 119.906 115.765V129.086L113.126 122.281L109.449 125.972L118.067 134.622C119.216 135.776 120.71 136.41 122.319 136.41C123.927 136.41 125.421 135.776 126.57 134.622L135.189 125.972L131.512 122.281L125.019 128.798V115.822C125.019 111.67 121.687 108.326 117.55 108.326H103.588C99.4514 108.326 96.119 111.67 96.119 115.822V151H153V105.039C153 100.656 150.874 96.5614 147.312 93.9663H147.369Z" fill="#E1611C"/>
</svg>
