<?xml version="1.0" standalone="no"?>
<!DOCTYPE svg PUBLIC "-//W3C//DTD SVG 20010904//EN"
 "http://www.w3.org/TR/2001/REC-SVG-20010904/DTD/svg10.dtd">
<svg version="1.0" xmlns="http://www.w3.org/2000/svg"
 width="521.000000pt" height="635.000000pt" viewBox="0 0 521.000000 635.000000"
 preserveAspectRatio="xMidYMid meet">

<g transform="translate(0.000000,635.000000) scale(0.100000,-0.100000)"
fill="#000000" stroke="none">
<path d="M1375 5730 c-200 -41 -359 -191 -410 -387 -12 -45 -15 -126 -15 -379
0 -277 -2 -323 -15 -328 -12 -4 -15 -28 -15 -125 0 -96 3 -120 15 -125 12 -4
15 -27 15 -120 0 -66 -4 -117 -10 -121 -14 -8 -14 -502 0 -510 13 -8 13 -145
0 -145 -6 0 -10 -92 -10 -255 0 -183 3 -255 11 -255 9 0 10 -156 6 -597 -4
-329 -8 -935 -9 -1348 -1 -412 -4 -663 -5 -557 -3 191 -4 192 -26 192 -18 0
-19 2 -7 10 13 9 13 10 0 10 -13 0 -13 1 0 10 11 7 6 10 -20 10 -26 0 -31 3
-20 10 12 8 10 10 -10 10 -20 0 -22 2 -10 10 13 8 12 10 -3 10 -25 0 -52 26
-34 33 6 3 -4 6 -23 6 -26 1 -31 4 -20 11 13 9 13 10 0 10 -13 0 -13 1 0 10
11 7 6 10 -20 10 -26 0 -31 3 -20 10 12 8 10 10 -10 10 -20 0 -22 2 -10 10 11
7 6 10 -20 10 -26 0 -31 3 -20 10 13 9 13 10 0 10 -13 0 -13 1 0 10 11 7 6 10
-20 10 -26 0 -31 3 -20 10 12 8 10 10 -10 10 -20 0 -22 2 -10 10 11 7 6 10
-20 10 -26 0 -31 3 -20 10 13 9 13 10 0 10 -13 0 -13 1 0 10 11 7 6 10 -20 10
-26 0 -31 3 -20 10 13 9 13 10 0 10 -13 0 -13 1 0 10 11 7 6 10 -20 10 -26 0
-31 3 -20 10 12 8 10 10 -10 10 -20 0 -22 2 -10 10 12 8 10 10 -10 10 -20 0
-22 2 -10 10 12 8 10 10 -10 10 -20 0 -22 2 -10 10 11 7 6 10 -20 10 -26 0
-31 3 -20 10 12 8 10 10 -10 10 -20 0 -22 2 -10 10 12 8 10 10 -10 10 -20 0
-22 2 -10 10 12 8 10 10 -10 10 -20 0 -22 2 -10 10 11 7 6 10 -20 10 -26 0
-31 3 -20 10 13 9 13 10 0 10 -13 0 -13 1 0 10 11 7 6 10 -20 10 -26 0 -31 3
-20 10 13 9 13 10 0 10 -13 0 -13 1 0 10 11 7 6 10 -20 10 -26 0 -31 3 -20 10
12 8 10 10 -10 10 -20 0 -22 2 -10 10 11 7 6 10 -20 10 -26 0 -31 3 -20 10 12
8 10 10 -10 10 -20 0 -22 2 -10 10 12 8 10 10 -10 10 -20 0 -22 2 -10 10 12 8
10 10 -10 10 -20 0 -22 2 -10 10 11 7 6 10 -20 10 -26 0 -31 3 -20 10 13 9 13
10 0 10 -13 0 -13 1 0 10 12 8 9 10 -12 10 l-28 0 0 -715 0 -715 2145 0 2145
0 0 1585 c0 1050 3 1585 10 1585 7 0 10 142 10 405 0 263 -3 405 -10 405 -7 0
-10 223 -10 648 0 546 -2 657 -15 707 -45 178 -166 310 -343 378 l-57 22
-1230 2 c-676 0 -1248 -3 -1270 -7z m83 -242 c26 -26 3 -87 -29 -76 -13 4 -22
54 -14 76 6 15 27 16 43 0z m122 -39 c0 -44 1 -44 -33 -26 l-25 13 20 32 c25
40 38 33 38 -19z m70 41 c0 -5 -7 -10 -16 -10 -12 0 -11 -4 7 -19 20 -16 21
-21 10 -35 -7 -9 -22 -16 -32 -16 -16 0 -19 8 -19 45 0 41 2 45 25 45 14 0 25
-4 25 -10z m2000 -35 c0 -25 -4 -45 -10 -45 -5 0 -10 20 -10 45 0 25 5 45 10
45 6 0 10 -20 10 -45z m131 35 c22 -12 26 -35 5 -27 -9 4 -13 1 -10 -7 3 -8
-7 -12 -31 -13 -27 -1 -35 3 -31 12 3 9 0 12 -10 8 -20 -7 -18 14 4 26 22 13
48 14 73 1z m-2276 -20 c3 -5 1 -10 -4 -10 -6 0 -11 5 -11 10 0 6 2 10 4 10 3
0 8 -4 11 -10z m2105 -25 c0 -19 -4 -35 -10 -35 -11 0 -14 53 -3 63 11 12 13
8 13 -28z m330 5 c0 -29 -1 -30 -50 -30 -52 0 -69 13 -56 45 4 11 20 15 56 15
49 0 50 -1 50 -30z m-360 -10 c0 -16 -4 -30 -10 -30 -5 0 -10 14 -10 30 0 17
5 30 10 30 6 0 10 -13 10 -30z m390 10 c0 -11 -2 -20 -4 -20 -2 0 -6 9 -9 20
-3 11 -1 20 4 20 5 0 9 -9 9 -20z m-430 -20 c0 -11 -4 -20 -10 -20 -5 0 -10 9
-10 20 0 11 5 20 10 20 6 0 10 -9 10 -20z m220 0 c0 -5 -7 -10 -16 -10 -8 0
-12 5 -9 10 3 6 10 10 16 10 5 0 9 -4 9 -10z m-2255 -10 c3 -5 1 -10 -4 -10
-6 0 -11 5 -11 10 0 6 2 10 4 10 3 0 8 -4 11 -10z m2463 -263 c2 -12 -3 -17
-17 -17 -12 0 -21 6 -21 13 0 31 32 34 38 4z m-2701 -15 c-26 -28 -21 -32 33
-32 28 0 50 -4 50 -10 0 -5 -22 -10 -50 -10 -48 0 -67 -14 -35 -26 8 -4 15
-13 15 -22 0 -12 -11 -5 -37 20 l-37 38 34 35 c34 35 58 41 27 7z m601 -22
c-3 -54 -21 -69 -26 -23 -2 15 -9 31 -15 35 -14 8 9 38 30 38 11 0 13 -12 11
-50z m100 27 c2 -10 -4 -27 -14 -38 -16 -17 -16 -19 -1 -19 10 0 17 -7 17 -15
0 -10 -11 -15 -35 -15 -42 0 -45 17 -10 50 25 23 25 51 0 30 -15 -13 -30 3
-20 21 11 17 59 6 63 -14z m79 -23 c3 -50 -15 -71 -46 -54 -24 13 -28 30 -6
30 8 0 15 -5 15 -12 0 -9 3 -9 12 0 10 10 10 14 0 21 -7 4 -10 15 -7 24 5 12
2 14 -17 10 -21 -6 -22 -5 -9 11 8 9 24 16 35 14 17 -2 21 -11 23 -44z m85 4
c6 -57 -4 -70 -42 -51 -17 8 -30 16 -30 19 0 13 47 74 56 74 7 0 14 -19 16
-42z m88 32 c0 -5 -8 -10 -17 -10 -15 0 -14 -4 6 -19 37 -28 10 -81 -34 -65
-8 4 -15 12 -15 20 0 17 12 18 28 2 9 -9 12 -7 12 11 0 18 -4 21 -20 16 -16
-5 -20 -2 -20 18 0 13 3 27 7 30 10 11 53 8 53 -3z m84 -6 c5 -13 2 -15 -14
-11 -11 3 -22 1 -25 -3 -3 -5 5 -10 17 -12 27 -4 36 -39 14 -57 -25 -21 -56 3
-56 42 0 18 5 38 12 45 17 17 45 15 52 -4z m1663 -40 c8 -21 -13 -42 -28 -27
-13 13 -5 43 11 43 6 0 13 -7 17 -16z m1 -67 c2 -12 -3 -17 -17 -17 -12 0 -21
6 -21 13 0 31 32 34 38 4z m-972 -521 c10 -8 16 -18 12 -22 -4 -4 -14 -1 -23
6 -12 10 -18 10 -30 0 -19 -16 -19 -44 0 -60 13 -10 19 -10 33 4 10 9 22 13
25 9 4 -3 7 3 7 14 0 12 8 23 20 26 20 5 39 -8 20 -15 -6 -2 -12 -16 -14 -31
-3 -34 -14 -45 -22 -24 -5 15 -8 15 -30 0 -22 -14 -26 -14 -49 1 -33 21 -34
68 -3 90 27 19 29 20 54 2z m-1611 -61 c0 -83 -19 -80 -23 3 -2 46 0 62 10 62
9 0 13 -18 13 -65z m93 47 c3 -11 1 -11 -17 -1 -16 11 -23 11 -32 2 -10 -10
-8 -14 7 -18 37 -12 49 -22 49 -41 0 -15 -7 -19 -34 -19 -22 0 -36 5 -39 15
-4 12 -2 13 9 3 18 -18 49 -16 49 2 0 8 -6 15 -13 15 -25 0 -51 26 -44 44 8
20 58 19 65 -2z m69 -70 c23 -3 26 3 36 68 3 15 5 10 5 -15 2 -52 -9 -67 -44
-63 -27 3 -29 6 -30 53 l-2 50 7 -45 c5 -36 10 -46 28 -48z m134 42 c12 -25
18 -48 15 -51 -3 -3 -8 2 -12 11 -8 20 -50 21 -58 1 -3 -8 -10 -15 -15 -15 -5
0 0 23 12 50 11 28 25 50 30 50 4 0 17 -21 28 -46z m102 4 l14 -43 13 43 c18
58 40 55 41 -5 l1 -48 20 48 c11 26 25 47 30 47 5 0 18 -21 28 -46 23 -53 23
-54 10 -54 -5 0 -10 7 -10 15 0 9 -9 15 -24 15 -13 0 -26 -7 -30 -15 -3 -8
-15 -15 -26 -15 -16 0 -20 7 -21 38 l-1 37 -11 -32 c-18 -47 -25 -49 -41 -12
l-15 34 -1 -32 c0 -18 -4 -33 -10 -33 -5 0 -10 23 -10 50 0 64 22 68 43 8z
m260 30 c2 -7 0 -21 -5 -30 -5 -11 -5 -26 2 -38 7 -13 7 -20 1 -20 -6 0 -15 9
-21 20 -6 11 -17 20 -25 20 -8 0 -15 -9 -15 -20 0 -11 -4 -20 -10 -20 -5 0
-10 23 -10 50 l0 50 39 0 c22 0 41 -5 44 -12z m105 -6 c3 -11 0 -11 -16 -1
-17 10 -23 10 -36 0 -35 -29 -3 -87 35 -63 26 16 34 15 19 -3 -19 -23 -57 -18
-76 10 -15 23 -15 27 0 51 13 18 24 24 43 22 15 -2 28 -9 31 -16z m92 -29 c19
-44 19 -76 -1 -40 -13 22 -45 22 -58 0 -10 -17 -10 -17 -11 -1 0 22 31 88 41
88 5 0 17 -21 29 -47z m60 -18 c0 -45 -4 -65 -12 -65 -9 0 -13 20 -13 65 0 45
4 65 13 65 8 0 12 -20 12 -65z m138 45 c5 -13 3 -13 -11 -2 -25 21 -57 6 -57
-28 0 -29 28 -49 50 -35 15 10 12 23 -7 28 -11 3 -7 5 10 6 24 1 28 -3 25 -21
-2 -19 -10 -24 -40 -26 -32 -3 -40 1 -50 22 -18 42 3 78 44 74 17 -2 34 -10
36 -18z m346 -35 c1 -26 -3 -44 -9 -42 -12 4 -19 62 -10 84 9 26 18 6 19 -42z
m340 41 c-7 -18 23 -29 45 -16 10 5 21 6 25 3 3 -3 6 1 6 10 0 10 7 17 16 17
12 0 14 -10 12 -52 -3 -52 -3 -53 -33 -50 -16 1 -37 3 -45 4 -8 0 -22 -2 -31
-6 -18 -8 -49 17 -49 39 0 7 7 20 15 29 8 8 15 19 15 25 0 6 7 11 15 11 8 0
12 -6 9 -14z m175 -24 c-13 -5 -11 -39 2 -48 8 -4 8 -9 0 -17 -14 -14 -22 -5
-31 35 l-8 33 -1 -32 c-2 -51 -21 -50 -21 1 0 34 3 44 14 40 7 -3 16 3 20 12
6 16 8 16 21 -2 7 -10 9 -20 4 -22z m-441 6 c7 -7 12 -27 12 -44 0 -34 -3 -35
-62 -25 -14 2 -4 62 11 71 21 12 25 12 39 -2z m516 -4 c21 -21 20 -37 -3 -58
-38 -34 -85 26 -49 62 16 16 33 15 52 -4z m-846 -32 c3 -32 2 -33 -30 -30 -38
3 -46 31 -10 36 12 2 22 8 22 14 0 6 -9 8 -20 5 -11 -3 -20 -1 -20 5 0 5 12 8
28 6 23 -2 28 -8 30 -36z m50 26 c-9 -7 -19 -24 -21 -38 -3 -18 -5 -14 -6 13
-1 32 2 37 21 37 19 0 20 -1 6 -12z m82 -23 c0 -32 -2 -35 -30 -35 -35 0 -43
29 -10 37 11 3 20 10 20 15 0 6 -9 8 -20 5 -11 -3 -18 -1 -14 4 3 5 16 9 30 9
21 0 24 -5 24 -35z m79 -2 c-1 -37 -2 -37 -8 -8 -3 17 -13 30 -21 30 -8 0 -18
-13 -21 -30 -6 -29 -7 -29 -8 8 -1 35 1 37 29 37 28 0 30 -2 29 -37z m-1305
-109 c27 -10 18 -21 -13 -16 -22 3 -30 -1 -35 -16 -4 -10 -4 -27 0 -36 7 -19
50 -22 57 -3 4 7 6 6 6 -4 1 -16 -18 -29 -40 -29 -14 0 -49 39 -49 55 0 16 35
55 49 55 5 0 16 -3 25 -6z m1826 -55 c0 -36 -4 -49 -12 -47 -7 3 -14 17 -16
31 -5 38 -32 35 -32 -3 0 -16 -4 -30 -10 -30 -5 0 -10 18 -10 40 0 36 3 40 24
40 13 0 27 7 30 16 11 29 26 3 26 -47z m200 6 c0 -51 -2 -55 -24 -55 -48 0
-65 72 -18 78 12 2 22 10 22 18 0 8 5 14 10 14 6 0 10 -25 10 -55z m-1412 -41
c-3 -2 -15 -5 -27 -6 -51 -6 -53 63 -2 70 11 2 22 9 23 15 1 7 3 -8 5 -32 3
-23 3 -45 1 -47z m477 32 c1 -25 -2 -43 -6 -41 -9 6 -18 67 -11 83 8 22 15 5
17 -42z m-997 22 c28 -28 1 -75 -38 -63 -14 4 -20 15 -20 35 0 37 33 53 58 28z
m85 3 c11 -2 8 -61 -3 -61 -5 0 -10 11 -10 25 0 16 -6 25 -15 25 -10 0 -15
-10 -15 -31 0 -17 -4 -28 -10 -24 -5 3 -10 21 -10 40 0 35 1 35 63 26z m72 -1
c3 -6 -4 -10 -17 -11 l-23 0 23 -9 c12 -5 22 -16 22 -24 0 -17 -24 -28 -45
-20 -25 10 -17 21 13 17 24 -3 25 -2 6 6 -40 18 -43 51 -4 51 10 0 22 -4 25
-10z m32 -42 c-2 -13 -4 -5 -4 17 -1 22 1 32 4 23 2 -10 2 -28 0 -40z m93 13
c0 -23 -7 -46 -16 -55 -18 -18 -17 -18 -38 -10 -26 10 -18 25 9 18 16 -4 25
-2 25 6 0 6 -5 8 -10 5 -16 -10 -40 14 -40 40 0 25 11 33 48 34 19 1 22 -4 22
-38z m66 -1 c1 -26 1 -28 -3 -7 -5 34 -33 36 -33 3 0 -14 -4 -28 -10 -31 -6
-4 -10 9 -10 33 0 36 2 39 28 38 24 -1 27 -5 28 -36z m88 24 c3 -9 6 -26 6
-38 0 -21 -16 -25 -62 -17 -17 3 -7 21 20 36 23 14 24 16 5 12 -13 -3 -23 -2
-23 2 0 25 45 29 54 5z m166 -3 c20 -38 -13 -71 -51 -51 -21 12 -25 40 -7 58
18 18 46 14 58 -7z m117 3 c2 -7 -6 -10 -22 -7 -21 4 -25 2 -25 -17 0 -19 4
-21 25 -16 27 7 35 -8 10 -18 -26 -9 -45 5 -45 33 0 15 3 31 7 35 10 10 46 3
50 -10z m67 10 c21 -8 21 -48 0 -65 -31 -26 -70 25 -44 56 14 17 21 18 44 9z
m134 -31 c2 -19 -1 -33 -7 -33 -6 0 -11 12 -11 26 0 35 -23 26 -31 -12 l-7
-29 -1 33 c-1 43 -31 45 -31 1 0 -17 -4 -28 -10 -24 -5 3 -10 21 -10 39 l0 33
53 -1 c51 -1 52 -2 55 -33z m160 -3 c3 -33 1 -36 -25 -35 -39 0 -43 30 -6 44
l28 11 -27 -4 c-27 -3 -35 3 -21 18 4 4 16 6 28 4 15 -2 21 -12 23 -38z m69
31 c15 13 15 12 4 -10 -9 -17 -10 -26 -2 -34 17 -17 13 -31 -4 -17 -12 10 -18
10 -30 0 -18 -15 -20 1 -3 18 9 9 9 15 0 24 -17 17 -15 33 3 18 12 -10 18 -10
32 1z m77 3 c25 -9 21 -60 -5 -67 -49 -13 -68 22 -21 40 25 10 26 11 4 12 -13
1 -20 6 -17 11 7 12 17 12 39 4z m81 -4 c3 -6 -4 -10 -17 -10 l-23 0 24 -13
c27 -14 29 -28 7 -42 -11 -7 -20 -5 -32 6 -15 15 -14 16 13 13 15 -2 21 -1 13
2 -28 12 -39 25 -33 40 6 16 39 19 48 4z m125 -28 c0 -34 -3 -38 -29 -40 -48
-4 -48 31 -1 52 8 3 5 4 -7 2 -22 -4 -30 4 -16 17 3 4 17 7 30 7 20 0 23 -5
23 -38z m125 12 c9 -19 12 -19 40 -7 l30 14 -28 -6 c-21 -4 -28 -2 -25 7 3 7
18 13 34 13 26 0 29 -3 32 -37 3 -36 2 -38 -25 -38 -16 0 -34 5 -39 10 -13 13
-64 -9 -64 -27 0 -7 -4 -13 -10 -13 -5 0 -10 25 -10 56 0 54 0 55 27 52 16 -2
32 -12 38 -24z m205 -14 c0 -22 -4 -40 -10 -40 -5 0 -10 18 -10 40 0 22 5 40
10 40 6 0 10 -18 10 -40z m60 30 c0 -5 -4 -10 -9 -10 -5 0 -11 -12 -13 -27 -4
-41 -23 -34 -26 10 -3 34 -1 37 22 37 14 0 26 -4 26 -10z m194 -12 c14 -23 -3
-52 -32 -56 -29 -4 -51 40 -32 63 16 20 49 16 64 -7z m-2124 -173 c0 -24 -4
-47 -10 -50 -6 -4 -10 10 -10 34 0 34 -3 39 -17 34 -16 -6 -16 -4 1 15 25 29
36 19 36 -33z m73 34 c14 -20 16 -20 27 -2 10 16 10 16 5 -3 -4 -16 0 -23 16
-27 15 -4 20 -12 17 -29 -4 -32 -32 -29 -36 4 -3 23 -7 26 -33 21 -31 -5 -46
13 -35 42 8 21 22 19 39 -6z m936 -54 c14 -17 14 -18 0 -7 -9 6 -19 9 -22 5
-4 -3 -7 7 -6 23 0 16 3 22 6 14 3 -8 13 -24 22 -35z m190 42 c-2 -1 -13 -9
-24 -17 -19 -14 -19 -14 -6 3 7 9 18 17 24 17 6 0 8 -1 6 -3z m96 -15 c-3 -3
-11 0 -18 7 -9 10 -8 11 6 5 10 -3 15 -9 12 -12z m43 -28 c-3 -27 -4 -26 -9 8
-3 22 -1 34 4 29 5 -5 7 -21 5 -37z m-723 8 c-3 -3 -11 0 -18 7 -9 10 -8 11 6
5 10 -3 15 -9 12 -12z m103 1 c-10 -2 -26 -2 -35 0 -10 3 -2 5 17 5 19 0 27
-2 18 -5z m-646 -25 c-7 -7 -12 -8 -12 -2 0 14 12 26 19 19 2 -3 -1 -11 -7
-17z m351 7 c-3 -9 -8 -14 -10 -11 -3 3 -2 9 2 15 9 16 15 13 8 -4z m751 -1
c3 -8 2 -12 -4 -9 -6 3 -10 10 -10 16 0 14 7 11 14 -7z m1312 -1766 c188 -99
236 -344 97 -498 -25 -28 -69 -63 -97 -78 l-51 -27 -1235 0 -1235 0 -50 27
c-116 61 -178 163 -178 288 0 56 5 88 22 125 36 83 123 159 211 186 14 4 574
7 1245 6 l1220 -2 51 -27z m-2969 -2120 c-3 -8 -6 -5 -6 6 -1 11 2 17 5 13 3
-3 4 -12 1 -19z"/>
<path d="M1610 5440 c0 -5 5 -10 10 -10 6 0 10 5 10 10 0 6 -4 10 -10 10 -5 0
-10 -4 -10 -10z"/>
<path d="M3738 5473 c7 -3 16 -2 19 1 4 3 -2 6 -13 5 -11 0 -14 -3 -6 -6z"/>
<path d="M2260 5101 c0 -6 5 -13 10 -16 6 -3 10 1 10 9 0 9 -4 16 -10 16 -5 0
-10 -4 -10 -9z"/>
<path d="M1645 4497 c-4 -10 -5 -21 -1 -24 10 -10 18 4 13 24 -4 17 -4 17 -12
0z"/>
<path d="M1895 4490 c-3 -5 -1 -10 4 -10 6 0 11 5 11 10 0 6 -2 10 -4 10 -3 0
-8 -4 -11 -10z"/>
<path d="M1980 4506 c0 -11 9 -16 26 -16 31 0 28 23 -4 28 -15 2 -22 -2 -22
-12z"/>
<path d="M2200 4491 c0 -6 5 -13 10 -16 6 -3 10 1 10 9 0 9 -4 16 -10 16 -5 0
-10 -4 -10 -9z"/>
<path d="M3174 4475 c-3 -8 -3 -19 1 -25 11 -18 25 -11 25 15 0 27 -17 34 -26
10z"/>
<path d="M3098 4448 c9 -9 15 -9 24 0 9 9 7 12 -12 12 -19 0 -21 -3 -12 -12z"/>
<path d="M2815 4480 c-3 -5 1 -10 9 -10 9 0 16 5 16 10 0 6 -4 10 -9 10 -6 0
-13 -4 -16 -10z"/>
<path d="M2830 4450 c-9 -6 -10 -10 -3 -10 6 0 15 5 18 10 8 12 4 12 -15 0z"/>
<path d="M3333 4474 c-8 -22 15 -44 26 -25 10 16 4 41 -10 41 -5 0 -12 -7 -16
-16z"/>
<path d="M2485 4450 c-3 -5 -2 -10 4 -10 5 0 13 5 16 10 3 6 2 10 -4 10 -5 0
-13 -4 -16 -10z"/>
<path d="M2615 4450 c-3 -5 1 -10 9 -10 9 0 16 5 16 10 0 6 -4 10 -9 10 -6 0
-13 -4 -16 -10z"/>
<path d="M3412 4293 c5 -25 28 -28 28 -4 0 12 -6 21 -16 21 -9 0 -14 -7 -12
-17z"/>
<path d="M1997 4303 c-3 -5 -2 -15 3 -22 10 -17 43 -6 38 12 -6 15 -34 22 -41
10z"/>
<path d="M1482 4293 c5 -26 38 -29 38 -4 0 15 -6 21 -21 21 -14 0 -19 -5 -17
-17z"/>
<path d="M1755 4300 c-8 -14 3 -30 21 -30 8 0 14 9 14 20 0 21 -24 28 -35 10z"/>
<path d="M1928 4273 c7 -3 16 -2 19 1 4 3 -2 6 -13 5 -11 0 -14 -3 -6 -6z"/>
<path d="M2080 4290 c0 -13 7 -20 20 -20 13 0 20 7 20 20 0 13 -7 20 -20 20
-13 0 -20 -7 -20 -20z"/>
<path d="M2280 4290 c0 -15 5 -20 18 -18 9 2 17 10 17 18 0 8 -8 16 -17 18
-13 2 -18 -3 -18 -18z"/>
<path d="M2568 4273 c7 -3 16 -2 19 1 4 3 -2 6 -13 5 -11 0 -14 -3 -6 -6z"/>
<path d="M2728 4273 c7 -3 16 -2 19 1 4 3 -2 6 -13 5 -11 0 -14 -3 -6 -6z"/>
<path d="M2918 4273 c7 -3 16 -2 19 1 4 3 -2 6 -13 5 -11 0 -14 -3 -6 -6z"/>
<path d="M3040 4290 c0 -13 5 -20 13 -17 6 2 12 10 12 17 0 7 -6 15 -12 18 -8
2 -13 -5 -13 -18z"/>
<path d="M3508 4303 c7 -3 16 -2 19 1 4 3 -2 6 -13 5 -11 0 -14 -3 -6 -6z"/>
<path d="M3508 4273 c7 -3 16 -2 19 1 4 3 -2 6 -13 5 -11 0 -14 -3 -6 -6z"/>
<path d="M1464 4169 c-3 -6 -1 -16 5 -22 8 -8 11 -5 11 11 0 24 -5 28 -16 11z"/>
<path d="M1530 4115 c0 -8 5 -15 10 -15 6 0 10 7 10 15 0 8 -4 15 -10 15 -5 0
-10 -7 -10 -15z"/>
<path d="M3400 2115 c0 -3 9 -14 20 -25 26 -26 25 -55 -1 -81 -24 -24 -19 -35
9 -20 38 20 41 81 6 115 -15 15 -34 21 -34 11z"/>
<path d="M3695 2110 c-4 -6 -3 -16 3 -22 6 -6 12 -6 17 2 4 6 3 16 -3 22 -6 6
-12 6 -17 -2z"/>
<path d="M1500 2050 l0 -60 43 27 c23 15 44 29 46 30 5 4 -21 24 -61 48 l-28
16 0 -61z"/>
<path d="M3360 2095 c-7 -8 -21 -15 -31 -15 -14 0 -19 -7 -19 -30 0 -21 5 -30
17 -30 9 0 25 -7 35 -17 17 -15 18 -14 18 45 0 34 -2 62 -4 62 -2 0 -9 -7 -16
-15z"/>
<path d="M1761 2086 c-7 -8 -11 -30 -9 -48 2 -28 7 -33 28 -33 23 0 25 4 25
45 0 48 -20 65 -44 36z m34 -37 c0 -24 -5 -34 -15 -34 -16 0 -25 37 -16 62 10
26 31 8 31 -28z"/>
<path d="M1875 2085 c-3 -8 -7 -21 -9 -27 -6 -23 13 -58 33 -58 20 0 31 18 31
54 0 39 -45 64 -55 31z m43 -26 c3 -29 -12 -54 -27 -45 -12 8 -15 59 -4 70 12
12 28 0 31 -25z"/>
<path d="M1950 2079 c-15 -27 -9 -59 13 -73 15 -9 21 -7 33 8 17 24 18 58 2
74 -18 18 -36 15 -48 -9z m44 -13 c7 -30 -2 -58 -18 -53 -13 4 -20 42 -12 63
8 22 23 17 30 -10z"/>
<path d="M2072 2054 c-17 -63 -10 -66 10 -4 9 28 13 50 9 50 -4 0 -12 -21 -19
-46z"/>
<path d="M2151 2086 c-7 -8 -11 -30 -9 -48 2 -28 7 -33 28 -33 23 0 25 4 25
45 0 48 -20 65 -44 36z m34 -37 c0 -24 -5 -34 -15 -34 -16 0 -25 37 -16 62 10
26 31 8 31 -28z"/>
<path d="M2276 2085 c-17 -13 -17 -15 -4 -15 12 0 18 -11 21 -37 3 -31 4 -29
5 15 1 28 1 52 0 52 -2 0 -12 -7 -22 -15z"/>
<path d="M2340 2079 c-15 -27 -9 -59 13 -73 15 -9 21 -7 33 8 17 24 18 58 2
74 -18 18 -36 15 -48 -9z m43 -9 c7 -27 -3 -62 -17 -57 -6 2 -12 14 -14 26 -7
45 20 72 31 31z"/>
<path d="M3400 2050 c0 -18 4 -29 10 -25 6 3 10 15 10 25 0 10 -4 22 -10 25
-6 4 -10 -7 -10 -25z"/>
<path d="M2570 2050 c0 -20 5 -21 88 -18 69 2 87 6 87 18 0 12 -18 16 -87 18
-83 3 -88 2 -88 -18z"/>
<path d="M3695 2060 c-4 -6 -3 -16 3 -22 6 -6 12 -6 17 2 4 6 3 16 -3 22 -6 6
-12 6 -17 -2z"/>
<path d="M3695 2010 c-4 -6 -3 -16 3 -22 6 -6 12 -6 17 2 4 6 3 16 -3 22 -6 6
-12 6 -17 -2z"/>
</g>
</svg>
