<?xml version="1.0" standalone="no"?>
<!DOCTYPE svg PUBLIC "-//W3C//DTD SVG 20010904//EN"
 "http://www.w3.org/TR/2001/REC-SVG-20010904/DTD/svg10.dtd">
<svg version="1.0" xmlns="http://www.w3.org/2000/svg"
 width="507.000000pt" height="639.000000pt" viewBox="0 0 507.000000 639.000000"
 preserveAspectRatio="xMidYMid meet">

<g transform="translate(0.000000,639.000000) scale(0.100000,-0.100000)"
fill="#000000" stroke="none">
<path d="M1355 5730 c-200 -41 -359 -191 -410 -387 -12 -45 -15 -126 -15 -379
0 -277 -2 -323 -15 -328 -12 -4 -15 -28 -15 -125 0 -96 3 -120 15 -125 12 -4
15 -27 15 -120 0 -66 -4 -117 -10 -121 -14 -8 -14 -502 0 -510 13 -8 13 -145
0 -145 -6 0 -10 -92 -10 -255 0 -185 3 -255 11 -255 9 0 10 -155 6 -607 -4
-335 -8 -923 -9 -1308 -1 -385 -4 -651 -5 -590 -3 72 -8 112 -16 117 -9 6 -9
8 1 8 7 0 12 14 12 35 0 19 -4 35 -9 35 -5 0 -7 -14 -5 -30 4 -24 2 -30 -13
-30 -15 0 -16 2 -3 10 12 8 11 10 -7 10 -18 0 -23 6 -23 24 0 14 5 28 10 31
18 11 11 25 -12 25 -19 0 -20 2 -8 10 12 8 10 10 -10 10 -20 0 -22 2 -10 10
13 8 12 10 -3 10 -25 0 -52 26 -34 33 6 3 -4 6 -23 6 -26 1 -31 4 -20 11 13 9
13 10 0 10 -13 0 -13 1 0 10 11 7 6 10 -20 10 -26 0 -31 3 -20 10 12 8 10 10
-10 10 -20 0 -22 2 -10 10 11 7 6 10 -20 10 -26 0 -31 3 -20 10 13 9 13 10 0
10 -13 0 -13 1 0 10 11 7 6 10 -20 10 -26 0 -31 3 -20 10 12 8 10 10 -10 10
-20 0 -22 2 -10 10 11 7 6 10 -20 10 -26 0 -31 3 -20 10 13 9 13 10 0 10 -13
0 -13 1 0 10 11 7 6 10 -20 10 -26 0 -31 3 -20 10 13 9 13 10 0 10 -13 0 -13
1 0 10 11 7 6 10 -20 10 -26 0 -31 3 -20 10 12 8 10 10 -10 10 -20 0 -22 2
-10 10 12 8 10 10 -10 10 -20 0 -22 2 -10 10 12 8 10 10 -10 10 -20 0 -22 2
-10 10 11 7 6 10 -20 10 -26 0 -31 3 -20 10 12 8 10 10 -10 10 -20 0 -22 2
-10 10 12 8 10 10 -10 10 -20 0 -22 2 -10 10 12 8 10 10 -10 10 -20 0 -22 2
-10 10 11 7 6 10 -20 10 -26 0 -31 3 -20 10 13 9 13 10 0 10 -13 0 -13 1 0 10
11 7 6 10 -20 10 -26 0 -31 3 -20 10 13 9 13 10 0 10 -13 0 -13 1 0 10 11 7 6
10 -20 10 -26 0 -31 3 -20 10 12 8 10 10 -10 10 -20 0 -22 2 -10 10 11 7 6 10
-20 10 -26 0 -31 3 -20 10 12 8 10 10 -10 10 -20 0 -22 2 -10 10 12 8 10 10
-10 10 -20 0 -22 2 -10 10 12 8 10 10 -10 10 -20 0 -22 2 -10 10 11 7 6 10
-20 10 -26 0 -31 3 -20 10 13 9 13 10 0 10 -13 0 -13 1 0 10 13 8 12 10 -2 10
-17 0 -18 -41 -18 -715 l0 -715 2135 0 2135 0 0 1585 c0 1050 3 1585 10 1585
7 0 10 142 10 405 0 254 -4 405 -10 405 -6 0 -10 248 -12 673 -3 670 -3 672
-26 732 -58 154 -172 268 -328 328 l-59 22 -1230 2 c-676 0 -1248 -3 -1270 -7z
m83 -242 c26 -26 3 -87 -29 -76 -13 4 -22 54 -14 76 6 15 27 16 43 0z m122
-39 c0 -44 1 -44 -33 -26 l-25 13 20 32 c25 40 38 33 38 -19z m70 41 c0 -5 -7
-10 -16 -10 -12 0 -11 -4 7 -19 20 -16 21 -21 10 -35 -7 -9 -22 -16 -32 -16
-16 0 -19 8 -19 45 0 41 2 45 25 45 14 0 25 -4 25 -10z m2000 -35 c0 -25 -4
-45 -10 -45 -5 0 -10 20 -10 45 0 25 5 45 10 45 6 0 10 -20 10 -45z m131 35
c22 -12 26 -35 5 -27 -9 4 -13 1 -10 -7 3 -8 -7 -12 -31 -13 -27 -1 -35 3 -31
12 3 9 0 12 -10 8 -17 -6 -19 8 -2 25 15 15 53 16 79 2z m-2276 -20 c3 -5 1
-10 -4 -10 -6 0 -11 5 -11 10 0 6 2 10 4 10 3 0 8 -4 11 -10z m2105 -25 c0
-19 -4 -35 -10 -35 -11 0 -14 53 -3 63 11 12 13 8 13 -28z m330 5 c0 -29 -1
-30 -49 -30 -41 0 -51 4 -56 20 -10 31 2 40 56 40 48 0 49 -1 49 -30z m-360
-10 c0 -16 -4 -30 -10 -30 -5 0 -10 14 -10 30 0 17 5 30 10 30 6 0 10 -13 10
-30z m390 10 c0 -11 -2 -20 -4 -20 -2 0 -6 9 -9 20 -3 11 -1 20 4 20 5 0 9 -9
9 -20z m-430 -20 c0 -11 -4 -20 -10 -20 -5 0 -10 9 -10 20 0 11 5 20 10 20 6
0 10 -9 10 -20z m220 0 c0 -5 -7 -10 -16 -10 -8 0 -12 5 -9 10 3 6 10 10 16
10 5 0 9 -4 9 -10z m-2255 -10 c3 -5 1 -10 -4 -10 -6 0 -11 5 -11 10 0 6 2 10
4 10 3 0 8 -4 11 -10z m2463 -263 c2 -12 -3 -17 -17 -17 -12 0 -21 6 -21 13 0
31 32 34 38 4z m-2701 -15 c-26 -28 -21 -32 33 -32 28 0 50 -4 50 -10 0 -5
-22 -10 -50 -10 -54 0 -59 -4 -33 -32 31 -34 7 -28 -27 7 l-34 35 34 35 c34
35 58 41 27 7z m601 -22 c-3 -54 -21 -69 -26 -23 -2 15 -9 31 -15 35 -14 8 9
38 30 38 11 0 13 -12 11 -50z m100 27 c2 -10 -4 -27 -14 -38 -16 -17 -16 -19
-1 -19 10 0 17 -7 17 -15 0 -10 -11 -15 -35 -15 -42 0 -45 17 -10 50 25 23 25
51 0 30 -15 -13 -30 3 -20 21 11 17 59 6 63 -14z m79 -23 c3 -50 -15 -71 -46
-54 -24 13 -28 30 -6 30 8 0 15 -5 15 -12 0 -9 3 -9 12 0 10 10 10 14 0 21 -7
4 -10 15 -7 24 5 12 2 14 -17 10 -21 -6 -22 -5 -9 11 8 9 24 16 35 14 17 -2
21 -11 23 -44z m85 4 c6 -57 -4 -70 -42 -51 -17 8 -30 16 -30 19 0 13 47 74
56 74 7 0 14 -19 16 -42z m88 32 c0 -5 -8 -10 -17 -10 -15 0 -14 -4 6 -19 37
-28 10 -81 -34 -65 -8 4 -15 12 -15 20 0 17 12 18 28 2 9 -9 12 -7 12 11 0 18
-4 21 -20 16 -16 -5 -20 -2 -20 18 0 13 3 27 7 30 10 11 53 8 53 -3z m84 -6
c5 -13 2 -15 -14 -11 -11 3 -22 1 -25 -3 -3 -5 5 -10 17 -12 27 -4 36 -39 14
-57 -25 -21 -56 3 -56 42 0 18 5 38 12 45 17 17 45 15 52 -4z m1663 -40 c8
-21 -13 -42 -28 -27 -13 13 -5 43 11 43 6 0 13 -7 17 -16z m1 -67 c2 -12 -3
-17 -17 -17 -12 0 -21 6 -21 13 0 31 32 34 38 4z m-2583 -637 c0 -42 -4 -69
-10 -67 -15 5 -18 106 -4 123 6 8 12 14 13 14 0 0 1 -31 1 -70z m1995 60 c0
-5 -4 -10 -10 -10 -5 0 -10 5 -10 10 0 6 5 10 10 10 6 0 10 -4 10 -10z m330
-21 c0 -28 1 -29 16 -15 30 31 69 8 62 -36 -3 -26 -41 -37 -64 -18 -10 9 -14
9 -14 1 0 -19 -58 -13 -70 8 -16 32 13 72 41 55 5 -3 9 4 9 15 0 12 5 21 10
21 6 0 10 -14 10 -31z m-2230 13 c0 -4 -10 -8 -22 -7 -30 0 -35 -19 -7 -25 31
-8 49 -38 29 -50 -20 -14 -62 -8 -68 8 -3 11 0 12 17 3 21 -12 41 -7 41 9 0 4
-13 13 -30 19 -28 9 -38 29 -23 44 9 10 63 9 63 -1z m54 -79 c14 -15 41 15 47
53 l6 39 2 -41 c1 -47 -15 -67 -51 -62 -20 3 -23 9 -25 53 l-1 50 7 -42 c4
-24 11 -46 15 -50z m147 41 c12 -25 18 -48 15 -51 -3 -3 -8 2 -12 11 -8 20
-50 21 -58 1 -3 -8 -10 -15 -15 -15 -5 0 0 23 12 50 11 28 25 50 30 50 4 0 17
-21 28 -46z m100 9 l12 -36 14 24 c14 24 14 24 8 -6 -10 -47 -22 -51 -39 -14
l-14 34 -1 -32 c-2 -54 -21 -37 -21 17 0 61 22 69 41 13z m69 -13 c0 -27 -4
-50 -10 -50 -5 0 -10 12 -10 28 0 15 -3 37 -6 50 -5 16 -2 22 10 22 13 0 16
-11 16 -50z m80 4 c23 -53 23 -54 10 -54 -5 0 -10 7 -10 15 0 21 -40 19 -56
-2 -8 -11 -13 -13 -14 -6 0 21 32 93 41 93 6 0 19 -21 29 -46z m107 14 c-2
-18 0 -41 5 -50 12 -25 -4 -23 -20 2 -7 11 -19 20 -27 20 -8 0 -15 -9 -15 -20
0 -11 -4 -20 -10 -20 -5 0 -10 23 -10 50 l0 50 41 0 c41 0 41 0 36 -32z m111
14 c3 -11 1 -11 -17 0 -18 11 -23 10 -38 -4 -14 -14 -15 -22 -5 -43 12 -25 36
-33 47 -15 3 6 11 10 17 10 7 0 6 -6 -2 -15 -19 -23 -57 -18 -75 9 -16 23 -11
54 9 69 16 11 59 4 64 -11z m92 -29 c19 -44 19 -76 -1 -40 -13 22 -45 22 -58
0 -10 -17 -10 -17 -11 -1 0 22 31 88 41 88 5 0 17 -21 29 -47z m58 -15 c-4
-83 -23 -86 -23 -3 0 47 4 65 13 65 10 0 12 -16 10 -62z m105 35 c23 -44 30
-73 18 -73 -6 0 -11 7 -11 15 0 21 -46 19 -54 -1 -4 -9 -9 -14 -12 -11 -8 8
26 97 37 97 5 0 15 -12 22 -27z m962 3 c12 5 15 -3 15 -35 0 -37 -3 -41 -24
-41 -20 0 -25 6 -28 38 -6 47 1 71 14 49 5 -9 15 -14 23 -11z m-664 -14 c-15
-5 -14 -35 1 -50 9 -9 8 -12 -4 -12 -11 0 -17 11 -20 34 -5 47 0 60 19 44 10
-8 11 -14 4 -16z m-191 -17 c0 -27 -12 -45 -31 -45 -10 0 -19 -7 -19 -15 0 -8
-4 -15 -10 -15 -5 0 -10 22 -10 49 0 39 4 50 18 54 23 5 52 -10 52 -28z m80
-3 c0 -29 -16 -44 -41 -40 -30 4 -39 46 -14 65 22 15 55 0 55 -25z m70 18 c0
-5 -10 -6 -22 -4 l-23 5 23 -12 c31 -17 29 -49 -3 -49 -14 0 -25 4 -25 9 0 5
9 7 20 4 11 -3 20 0 20 6 0 6 -9 11 -19 11 -25 0 -35 27 -14 39 18 9 43 4 43
-9z m120 -39 c-7 -15 -19 -21 -33 -19 -29 4 -36 47 -11 65 16 11 21 10 37 -6
16 -15 17 -22 7 -40z m117 47 c15 -12 18 -68 4 -68 -5 0 -11 12 -13 27 -4 39
-28 42 -28 4 0 -17 -4 -31 -10 -31 -5 0 -10 17 -10 38 0 32 3 38 22 39 12 1
28 -3 35 -9z m83 -2 c6 -8 10 -25 8 -38 -2 -18 -9 -23 -33 -23 -26 0 -30 4
-33 29 -5 41 32 62 58 32z m115 -8 c0 -26 12 -32 20 -9 15 47 79 31 73 -18 -3
-28 -39 -41 -62 -22 -9 7 -16 7 -23 0 -6 -6 -21 -9 -34 -7 -18 2 -24 10 -26
33 -1 16 3 33 10 37 19 12 42 4 42 -14z m125 -14 c0 -37 28 -30 33 9 3 28 4
26 5 -10 2 -41 1 -43 -28 -43 -28 0 -30 2 -30 41 0 24 4 38 10 34 6 -3 10 -17
10 -31z m278 -6 c2 -22 -1 -38 -7 -38 -6 0 -11 14 -11 31 0 17 -4 28 -10 24
-5 -3 -10 -17 -10 -31 0 -13 -4 -24 -10 -24 -5 0 -10 11 -10 24 0 37 -19 42
-26 7 -9 -43 -24 -39 -24 8 l0 38 53 -1 52 -1 3 -37z m66 36 c10 -4 16 -18 16
-40 0 -31 -3 -34 -30 -34 -23 0 -31 5 -36 25 -4 15 -1 32 6 40 14 17 21 18 44
9z m-574 -194 c0 -27 -4 -50 -10 -50 -5 0 -10 23 -10 50 0 28 5 50 10 50 6 0
10 -22 10 -50z m149 38 c-4 -32 1 -42 13 -30 18 18 33 15 17 -4 -10 -13 -10
-19 0 -36 15 -24 9 -34 -9 -13 -11 14 -14 13 -26 -2 -12 -16 -13 -11 -14 40 0
33 4 57 10 57 6 0 10 -6 9 -12z m-1366 -5 c-7 -2 -19 -2 -25 0 -7 3 -2 5 12 5
14 0 19 -2 13 -5z m-353 -22 c0 -5 -8 -8 -17 -7 -12 1 -18 -6 -18 -19 0 -15 6
-19 25 -17 23 2 23 1 9 -13 -30 -30 -76 17 -49 50 14 16 50 20 50 6z m78 -3
c30 -30 -3 -77 -40 -57 -18 9 -25 49 -11 62 10 11 38 8 51 -5z m55 5 c-7 -2
-13 -15 -13 -28 0 -13 -4 -27 -10 -30 -6 -4 -10 8 -10 29 0 31 3 36 23 35 12
0 16 -3 10 -6z m78 -30 c5 -28 3 -32 -20 -36 -14 -3 -30 -2 -35 3 -14 14 2 40
24 40 12 0 18 4 15 10 -4 6 -16 8 -27 4 -14 -4 -18 -3 -13 6 14 23 49 6 56
-27z m77 17 c5 -13 3 -13 -12 -1 -12 10 -20 11 -28 3 -17 -17 -1 -44 21 -37
19 6 19 5 3 -27 -14 -28 -17 -30 -20 -13 -2 11 -8 24 -13 30 -11 11 -12 49 -2
59 12 11 46 2 51 -14z m80 -20 c3 -32 0 -36 -20 -35 -34 0 -51 14 -39 29 6 7
8 16 5 19 -12 11 8 28 29 25 17 -2 23 -11 25 -38z m80 9 c4 -34 -20 -54 -47
-39 -38 20 -18 74 24 68 13 -2 21 -12 23 -29z m120 -9 c3 -33 1 -36 -25 -35
-24 0 -28 4 -29 30 -2 39 3 47 29 43 17 -2 23 -11 25 -38z m82 -7 c0 -43 -19
-66 -47 -56 -21 7 -15 22 6 16 10 -3 22 1 26 8 5 7 4 10 -3 6 -19 -13 -42 5
-42 32 0 34 7 41 36 39 21 -2 24 -7 24 -45z m78 35 c30 -30 -4 -77 -41 -57
-20 11 -23 55 -4 62 21 9 32 8 45 -5z m54 0 c-7 -7 -12 -22 -12 -35 0 -13 -4
-23 -10 -23 -5 0 -10 16 -10 35 0 29 4 35 22 35 17 0 19 -3 10 -12z m80 -22
c3 -30 1 -35 -22 -39 -14 -3 -29 -2 -34 3 -14 14 2 40 24 40 12 0 18 4 15 10
-4 6 -16 8 -27 4 -14 -4 -18 -2 -14 5 4 6 18 11 30 11 20 0 25 -6 28 -34z
m638 -21 c9 0 16 11 18 28 5 42 24 32 20 -10 -2 -30 -7 -38 -23 -38 -31 0 -45
15 -44 49 l1 31 7 -30 c3 -17 13 -30 21 -30z m100 19 c0 -21 -4 -33 -10 -29
-5 3 -10 19 -10 36 0 16 5 29 10 29 6 0 10 -16 10 -36z m77 -4 c1 -34 1 -34
-5 -5 -10 42 -35 39 -43 -5 -6 -35 -9 -30 -13 23 -2 25 1 28 29 25 27 -3 30
-7 32 -38z m188 29 c4 -6 0 -9 -11 -7 -14 2 -20 -4 -22 -21 -3 -21 -1 -23 25
-17 26 6 27 5 9 -8 -14 -11 -24 -12 -37 -5 -18 9 -26 49 -12 62 10 11 41 8 48
-4z m83 -5 c5 -9 7 -25 5 -35 -10 -35 -57 -34 -68 2 -13 40 43 68 63 33z m119
-29 c0 -22 -1 -29 -3 -15 -9 48 -13 53 -29 40 -7 -6 -16 -21 -18 -33 -3 -15
-5 -11 -6 11 -1 44 -24 38 -32 -9 -6 -34 -6 -34 -8 9 l-1 42 48 -2 47 -3 2
-40z m-926 -8 c-10 -9 -11 -8 -5 6 3 10 9 15 12 12 3 -3 0 -11 -7 -18z m309
19 c0 -2 -13 -6 -30 -8 -16 -3 -30 -1 -30 4 0 4 14 8 30 8 17 0 30 -2 30 -4z
m-87 -27 c-6 -6 -19 -9 -29 -6 -16 4 -15 5 4 6 12 0 22 6 22 13 0 6 3 8 7 5 4
-4 2 -12 -4 -18z m87 1 c0 -5 -12 -10 -27 -9 l-28 1 25 8 c14 4 26 8 28 9 1 1
2 -3 2 -9z m-540 -4 c0 -3 -4 -8 -10 -11 -5 -3 -10 -1 -10 4 0 6 5 11 10 11 6
0 10 -2 10 -4z m1576 -1868 c188 -99 236 -344 97 -498 -25 -28 -69 -63 -97
-78 l-51 -27 -1235 0 -1235 0 -50 27 c-116 61 -178 163 -178 288 0 56 5 88 22
125 36 83 123 159 211 186 14 4 574 7 1245 6 l1220 -2 51 -27z m-2969 -2030
c-2 -13 -4 -5 -4 17 -1 22 1 32 4 23 2 -10 2 -28 0 -40z m0 -90 c-3 -8 -6 -5
-6 6 -1 11 2 17 5 13 3 -3 4 -12 1 -19z"/>
<path d="M1590 5440 c0 -5 5 -10 10 -10 6 0 10 5 10 10 0 6 -4 10 -10 10 -5 0
-10 -4 -10 -10z"/>
<path d="M3718 5473 c7 -3 16 -2 19 1 4 3 -2 6 -13 5 -11 0 -14 -3 -6 -6z"/>
<path d="M2240 5101 c0 -6 5 -13 10 -16 6 -3 10 1 10 9 0 9 -4 16 -10 16 -5 0
-10 -4 -10 -9z"/>
<path d="M3640 4411 c0 -12 6 -21 16 -21 9 0 14 7 12 17 -5 25 -28 28 -28 4z"/>
<path d="M3720 4411 c0 -12 6 -21 16 -21 9 0 14 7 12 17 -5 25 -28 28 -28 4z"/>
<path d="M1626 4441 c-4 -7 -5 -15 -2 -18 9 -9 19 4 14 18 -4 11 -6 11 -12 0z"/>
<path d="M1875 4430 c-3 -5 -1 -10 4 -10 6 0 11 5 11 10 0 6 -2 10 -4 10 -3 0
-8 -4 -11 -10z"/>
<path d="M1960 4445 c0 -9 9 -15 25 -15 16 0 25 6 25 15 0 9 -9 15 -25 15 -16
0 -25 -6 -25 -15z"/>
<path d="M2186 4441 c-4 -7 -5 -15 -2 -18 9 -9 19 4 14 18 -4 11 -6 11 -12 0z"/>
<path d="M2356 4441 c-4 -7 -5 -15 -2 -18 9 -9 19 4 14 18 -4 11 -6 11 -12 0z"/>
<path d="M3320 4411 c0 -11 5 -23 10 -26 6 -4 10 5 10 19 0 14 -4 26 -10 26
-5 0 -10 -9 -10 -19z"/>
<path d="M2443 4414 c-8 -21 13 -42 28 -27 13 13 5 43 -11 43 -6 0 -13 -7 -17
-16z"/>
<path d="M2514 4419 c-3 -6 0 -17 7 -25 18 -17 44 -2 36 20 -7 18 -33 21 -43
5z"/>
<path d="M2728 4423 c7 -3 16 -2 19 1 4 3 -2 6 -13 5 -11 0 -14 -3 -6 -6z"/>
<path d="M2718 4388 c9 -9 15 -9 24 0 9 9 7 12 -12 12 -19 0 -21 -3 -12 -12z"/>
<path d="M2927 4423 c-13 -12 -7 -33 8 -33 8 0 15 9 15 20 0 20 -11 26 -23 13z"/>
<path d="M3128 4393 c7 -3 16 -2 19 1 4 3 -2 6 -13 5 -11 0 -14 -3 -6 -6z"/>
<path d="M3518 4393 c6 -2 18 -2 25 0 6 3 1 5 -13 5 -14 0 -19 -2 -12 -5z"/>
<path d="M1441 4251 c-17 -11 -7 -41 13 -41 22 0 30 20 15 36 -9 8 -19 10 -28
5z"/>
<path d="M1570 4220 c-13 -8 -13 -10 2 -10 9 0 20 5 23 10 8 13 -5 13 -25 0z"/>
<path d="M1725 4250 c-3 -5 1 -10 9 -10 9 0 16 5 16 10 0 6 -4 10 -9 10 -6 0
-13 -4 -16 -10z"/>
<path d="M1730 4220 c-13 -8 -13 -10 2 -10 9 0 20 5 23 10 8 13 -5 13 -25 0z"/>
<path d="M1807 4254 c-15 -15 -7 -45 11 -42 9 2 17 12 17 22 0 20 -16 31 -28
20z"/>
<path d="M1925 4250 c-3 -5 3 -10 15 -10 12 0 18 5 15 10 -3 6 -10 10 -15 10
-5 0 -12 -4 -15 -10z"/>
<path d="M1930 4220 c-13 -8 -13 -10 2 -10 9 0 20 5 23 10 8 13 -5 13 -25 0z"/>
<path d="M2003 4244 c-8 -21 13 -42 28 -27 13 13 5 43 -11 43 -6 0 -13 -7 -17
-16z"/>
<path d="M2091 4246 c-14 -17 -7 -36 14 -36 22 0 29 20 13 36 -13 13 -16 13
-27 0z"/>
<path d="M2220 4220 c-12 -8 -11 -10 8 -10 12 0 22 5 22 10 0 13 -11 13 -30 0z"/>
<path d="M3304 4246 c-7 -19 3 -36 22 -36 10 0 14 8 12 22 -4 26 -26 36 -34
14z"/>
<path d="M3380 2115 c0 -3 9 -14 20 -25 26 -26 25 -55 -1 -81 -24 -24 -19 -35
9 -20 38 20 41 81 6 115 -15 15 -34 21 -34 11z"/>
<path d="M3675 2110 c-4 -6 -3 -16 3 -22 6 -6 12 -6 17 2 4 6 3 16 -3 22 -6 6
-12 6 -17 -2z"/>
<path d="M1480 2050 l0 -60 43 27 c23 15 44 29 46 30 5 4 -21 24 -61 48 l-28
16 0 -61z"/>
<path d="M3340 2095 c-7 -8 -21 -15 -31 -15 -14 0 -19 -7 -19 -30 0 -21 5 -30
17 -30 9 0 25 -7 35 -17 17 -15 18 -14 18 45 0 34 -2 62 -4 62 -2 0 -9 -7 -16
-15z"/>
<path d="M1741 2086 c-7 -8 -11 -30 -9 -48 2 -28 7 -33 28 -33 23 0 25 4 25
45 0 48 -20 65 -44 36z m34 -37 c0 -24 -5 -34 -15 -34 -16 0 -25 37 -16 62 10
26 31 8 31 -28z"/>
<path d="M1855 2085 c-3 -8 -7 -21 -9 -27 -6 -23 13 -58 33 -58 20 0 31 18 31
54 0 39 -45 64 -55 31z m43 -26 c3 -29 -12 -54 -27 -45 -12 8 -15 59 -4 70 12
12 28 0 31 -25z"/>
<path d="M1930 2079 c-15 -27 -9 -59 13 -73 15 -9 21 -7 33 8 17 24 18 58 2
74 -18 18 -36 15 -48 -9z m44 -13 c7 -30 -2 -58 -18 -53 -13 4 -20 42 -12 63
8 22 23 17 30 -10z"/>
<path d="M2052 2054 c-17 -63 -10 -66 10 -4 9 28 13 50 9 50 -4 0 -12 -21 -19
-46z"/>
<path d="M2131 2086 c-7 -8 -11 -30 -9 -48 2 -28 7 -33 28 -33 23 0 25 4 25
45 0 48 -20 65 -44 36z m34 -37 c0 -24 -5 -34 -15 -34 -16 0 -25 37 -16 62 10
26 31 8 31 -28z"/>
<path d="M2245 2085 c-3 -8 -7 -21 -9 -27 -6 -23 13 -58 33 -58 20 0 31 18 31
54 0 39 -45 64 -55 31z m43 -26 c3 -29 -12 -54 -27 -45 -12 8 -15 59 -4 70 12
12 28 0 31 -25z"/>
<path d="M2326 2088 c-20 -65 -12 -92 25 -86 20 2 24 9 24 38 0 39 -11 60 -32
60 -7 0 -15 -6 -17 -12z m34 -13 c0 -8 -4 -15 -9 -15 -13 0 -22 16 -14 24 11
11 23 6 23 -9z m0 -45 c0 -11 -7 -20 -15 -20 -15 0 -21 21 -8 33 12 13 23 7
23 -13z"/>
<path d="M3380 2050 c0 -18 4 -29 10 -25 6 3 10 15 10 25 0 10 -4 22 -10 25
-6 4 -10 -7 -10 -25z"/>
<path d="M2550 2050 c0 -20 4 -20 178 -18 149 3 177 5 177 18 0 13 -28 15
-177 18 -174 2 -178 2 -178 -18z"/>
<path d="M3675 2060 c-4 -6 -3 -16 3 -22 6 -6 12 -6 17 2 4 6 3 16 -3 22 -6 6
-12 6 -17 -2z"/>
<path d="M3675 2010 c-4 -6 -3 -16 3 -22 6 -6 12 -6 17 2 4 6 3 16 -3 22 -6 6
-12 6 -17 -2z"/>
</g>
</svg>
