<?xml version="1.0" standalone="no"?>
<!DOCTYPE svg PUBLIC "-//W3C//DTD SVG 20010904//EN"
 "http://www.w3.org/TR/2001/REC-SVG-20010904/DTD/svg10.dtd">
<svg version="1.0" xmlns="http://www.w3.org/2000/svg"
 width="510.000000pt" height="656.000000pt" viewBox="0 0 510.000000 656.000000"
 preserveAspectRatio="xMidYMid meet">

<g transform="translate(0.000000,656.000000) scale(0.100000,-0.100000)"
fill="#000000" stroke="none">
<path d="M1225 5730 c-200 -41 -358 -190 -409 -387 -13 -49 -16 -122 -16 -381
0 -275 -2 -321 -15 -326 -12 -4 -15 -28 -15 -125 0 -96 3 -120 15 -125 12 -4
15 -27 15 -120 0 -66 -4 -117 -10 -121 -14 -8 -14 -502 0 -510 13 -8 13 -145
0 -145 -6 0 -10 -92 -10 -255 0 -186 3 -255 12 -255 8 0 9 -143 5 -567 -4
-313 -8 -919 -9 -1348 -1 -429 -4 -713 -5 -630 -3 104 -7 152 -16 157 -9 6 -9
8 1 8 7 0 12 14 12 35 0 19 -4 35 -9 35 -5 0 -7 -14 -5 -30 4 -24 2 -30 -13
-30 -15 0 -16 2 -3 10 12 8 11 10 -7 10 -18 0 -23 6 -23 24 0 14 5 28 10 31
18 11 11 25 -12 25 -19 0 -20 2 -8 10 12 8 10 10 -10 10 -20 0 -22 2 -10 10
13 8 12 10 -3 10 -25 0 -52 26 -34 33 6 3 -4 6 -23 6 -26 1 -31 4 -20 11 13 9
13 10 0 10 -13 0 -13 1 0 10 11 7 6 10 -20 10 -26 0 -31 3 -20 10 12 8 10 10
-10 10 -20 0 -22 2 -10 10 11 7 6 10 -20 10 -26 0 -31 3 -20 10 13 9 13 10 0
10 -13 0 -13 1 0 10 11 7 6 10 -20 10 -26 0 -31 3 -20 10 12 8 10 10 -10 10
-20 0 -22 2 -10 10 11 7 6 10 -20 10 -26 0 -31 3 -20 10 13 9 13 10 0 10 -13
0 -13 1 0 10 11 7 6 10 -20 10 -26 0 -31 3 -20 10 13 9 13 10 0 10 -13 0 -13
1 0 10 11 7 6 10 -20 10 -26 0 -31 3 -20 10 12 8 10 10 -10 10 -20 0 -22 2
-10 10 12 8 10 10 -10 10 -20 0 -22 2 -10 10 12 8 10 10 -10 10 -20 0 -22 2
-10 10 11 7 6 10 -20 10 -26 0 -31 3 -20 10 12 8 10 10 -10 10 -20 0 -22 2
-10 10 12 8 10 10 -10 10 -20 0 -22 2 -10 10 12 8 10 10 -10 10 -20 0 -22 2
-10 10 11 7 6 10 -20 10 -26 0 -31 3 -20 10 13 9 13 10 0 10 -13 0 -13 1 0 10
11 7 6 10 -20 10 -26 0 -31 3 -20 10 13 9 13 10 0 10 -13 0 -13 1 0 10 11 7 6
10 -20 10 -26 0 -31 3 -20 10 12 8 10 10 -10 10 -20 0 -22 2 -10 10 12 8 11
10 -7 10 l-22 0 -1 -655 0 -655 2070 0 2070 0 0 1585 c0 1050 3 1585 10 1585
7 0 10 142 10 405 0 263 -3 405 -10 405 -7 0 -10 225 -11 653 0 727 0 726 -69
842 -66 111 -162 190 -288 238 l-57 22 -1230 2 c-676 0 -1248 -3 -1270 -7z
m83 -242 c26 -26 3 -87 -29 -76 -13 4 -22 54 -14 76 6 15 27 16 43 0z m122
-39 c0 -44 1 -44 -33 -26 l-25 13 20 32 c25 40 38 33 38 -19z m70 41 c0 -5 -7
-10 -16 -10 -12 0 -11 -4 7 -19 20 -16 21 -21 10 -35 -7 -9 -22 -16 -32 -16
-15 0 -19 7 -19 38 0 21 3 42 7 45 10 11 43 8 43 -3z m2000 -35 c0 -25 -4 -45
-10 -45 -5 0 -10 20 -10 45 0 25 5 45 10 45 6 0 10 -20 10 -45z m131 35 c22
-12 26 -35 5 -27 -9 4 -13 1 -10 -7 3 -8 -7 -12 -31 -13 -27 -1 -35 3 -31 12
3 9 0 12 -10 8 -20 -7 -18 14 4 26 22 13 48 14 73 1z m-2276 -20 c3 -5 1 -10
-4 -10 -6 0 -11 5 -11 10 0 6 2 10 4 10 3 0 8 -4 11 -10z m2105 -25 c0 -19 -4
-35 -10 -35 -11 0 -14 53 -3 63 11 12 13 8 13 -28z m330 5 c0 -29 -1 -30 -49
-30 -38 0 -50 4 -53 18 -9 33 2 42 53 42 48 0 49 -1 49 -30z m-360 -10 c0 -16
-4 -30 -10 -30 -5 0 -10 14 -10 30 0 17 5 30 10 30 6 0 10 -13 10 -30z m390
10 c0 -11 -2 -20 -4 -20 -2 0 -6 9 -9 20 -3 11 -1 20 4 20 5 0 9 -9 9 -20z
m-430 -20 c0 -11 -4 -20 -10 -20 -5 0 -10 9 -10 20 0 11 5 20 10 20 6 0 10 -9
10 -20z m220 0 c0 -5 -7 -10 -16 -10 -8 0 -12 5 -9 10 3 6 10 10 16 10 5 0 9
-4 9 -10z m-2255 -10 c3 -5 1 -10 -4 -10 -6 0 -11 5 -11 10 0 6 2 10 4 10 3 0
8 -4 11 -10z m2463 -263 c2 -12 -3 -17 -17 -17 -12 0 -21 6 -21 13 0 31 32 34
38 4z m-2701 -15 c-26 -28 -21 -32 33 -32 28 0 50 -4 50 -10 0 -5 -22 -10 -50
-10 -54 0 -59 -4 -33 -32 31 -34 7 -28 -27 7 l-34 35 34 35 c34 35 58 41 27 7z
m601 -22 c-3 -54 -21 -69 -26 -23 -2 15 -9 31 -15 35 -14 8 9 38 30 38 11 0
13 -12 11 -50z m100 27 c2 -10 -4 -27 -14 -38 -16 -17 -16 -19 -1 -19 10 0 17
-7 17 -15 0 -10 -11 -15 -35 -15 -42 0 -45 17 -10 50 25 23 25 51 0 30 -15
-13 -30 3 -20 21 11 17 59 6 63 -14z m79 -23 c3 -50 -15 -71 -46 -54 -24 13
-28 30 -6 30 8 0 15 -5 15 -12 0 -9 3 -9 12 0 10 10 10 14 0 21 -7 4 -10 15
-7 24 5 12 2 14 -17 10 -21 -6 -22 -5 -9 11 8 9 24 16 35 14 17 -2 21 -11 23
-44z m85 4 c6 -57 -4 -70 -42 -51 -17 8 -30 16 -30 19 0 13 47 74 56 74 7 0
14 -19 16 -42z m88 32 c0 -5 -8 -10 -17 -10 -15 0 -14 -4 6 -19 37 -28 10 -81
-34 -65 -8 4 -15 12 -15 20 0 17 12 18 28 2 9 -9 12 -7 12 11 0 18 -4 21 -20
16 -16 -5 -20 -2 -20 18 0 13 3 27 7 30 10 11 53 8 53 -3z m88 -9 c3 -10 -1
-12 -17 -8 -11 3 -23 1 -26 -3 -3 -5 5 -10 17 -12 31 -4 36 -43 8 -58 -16 -9
-25 -8 -36 1 -17 14 -19 70 -2 87 16 16 50 11 56 -7z m1659 -37 c8 -21 -13
-42 -28 -27 -13 13 -5 43 11 43 6 0 13 -7 17 -16z m1 -67 c2 -12 -3 -17 -17
-17 -12 0 -21 6 -21 13 0 31 32 34 38 4z m-2583 -582 c0 -83 -19 -80 -23 3 -2
46 0 62 10 62 9 0 13 -18 13 -65z m93 47 c3 -11 1 -11 -17 -1 -15 10 -23 11
-32 2 -9 -9 -3 -15 25 -27 27 -11 37 -21 34 -33 -4 -23 -69 -26 -76 -3 -4 12
-2 13 9 3 18 -18 49 -16 49 2 0 8 -6 15 -13 15 -25 0 -51 26 -44 44 8 20 58
19 65 -2z m58 -69 c23 -9 44 17 45 56 2 32 2 33 6 7 3 -15 2 -39 -2 -53 -5
-20 -11 -24 -38 -21 -31 3 -32 4 -33 53 -1 46 -1 47 3 7 2 -25 10 -45 19 -49z
m144 41 c12 -25 19 -48 16 -51 -3 -3 -8 2 -12 11 -8 20 -50 21 -58 1 -3 -8
-10 -15 -15 -15 -5 0 0 23 12 50 11 28 24 50 29 50 4 0 17 -21 28 -46z m102 9
l14 -38 14 38 c20 53 40 48 41 -10 l1 -48 20 48 c11 26 25 47 30 47 5 0 18
-21 28 -46 23 -53 23 -54 10 -54 -5 0 -10 7 -10 15 0 9 -9 15 -24 15 -13 0
-26 -7 -30 -15 -3 -8 -15 -15 -26 -15 -16 0 -20 7 -21 33 l-1 32 -14 -32 c-8
-18 -17 -33 -20 -33 -3 0 -11 15 -19 33 l-14 32 -1 -32 c0 -18 -4 -33 -10 -33
-5 0 -10 23 -10 50 0 61 20 68 42 13z m261 25 c2 -7 0 -21 -5 -30 -5 -11 -5
-26 2 -38 7 -13 7 -20 1 -20 -6 0 -15 9 -21 20 -6 11 -17 20 -25 20 -8 0 -15
-9 -15 -20 0 -11 -4 -20 -10 -20 -5 0 -10 23 -10 50 l0 50 39 0 c22 0 41 -5
44 -12z m105 -6 c3 -11 0 -11 -16 -1 -17 10 -23 10 -36 0 -35 -29 -3 -87 35
-63 26 16 34 15 19 -3 -19 -23 -57 -18 -76 10 -15 23 -15 27 0 51 13 18 24 24
43 22 15 -2 28 -9 31 -16z m92 -29 c19 -44 19 -76 -1 -40 -13 22 -45 22 -58 0
-16 -28 -13 2 5 47 9 22 20 40 25 40 4 0 17 -21 29 -47z m60 -18 c0 -45 -4
-65 -12 -65 -9 0 -13 20 -13 65 0 45 4 65 13 65 8 0 12 -20 12 -65z m130 55
c8 -5 11 -12 7 -16 -3 -4 -13 -2 -20 5 -23 18 -47 2 -47 -30 0 -34 23 -48 45
-29 9 7 19 10 22 6 10 -10 -18 -26 -45 -26 -31 0 -49 41 -34 75 12 26 44 33
72 15z m233 3 c-28 -5 -30 -23 -3 -23 16 0 20 -7 20 -35 0 -19 -4 -35 -10 -35
-5 0 -10 14 -10 30 0 41 -20 38 -21 -2 -1 -32 -2 -32 -9 7 -10 52 -4 65 29 64
23 -2 24 -2 4 -6z m1012 -3 c-3 -5 -2 -10 4 -10 5 0 11 6 14 13 8 23 17 0 21
-52 3 -57 -17 -68 -22 -13 -2 18 -8 32 -14 32 -6 0 -8 -10 -4 -25 8 -31 -2
-54 -15 -34 -5 8 -9 33 -9 57 0 31 4 42 16 42 8 0 12 -4 9 -10z m-825 -62 c0
-23 -4 -37 -10 -33 -5 3 -10 20 -10 36 0 39 -23 34 -31 -7 l-7 -29 -1 33 c-1
40 -24 39 -29 -1 -5 -37 -22 -34 -22 4 0 38 -24 35 -28 -4 -5 -39 -22 -33 -22
8 l0 34 68 3 c89 4 92 3 92 -44z m64 46 c22 -8 22 -70 0 -78 -42 -16 -76 50
-36 73 21 13 17 12 36 5z m110 0 c22 -8 20 -28 -1 -20 -11 4 -8 -2 7 -13 23
-19 24 -21 9 -37 -11 -10 -24 -14 -38 -9 -28 9 -27 29 2 22 l22 -6 -22 16
c-25 17 -30 39 -10 46 6 3 13 6 14 6 1 1 8 -2 17 -5z m174 -6 c7 -7 12 -26 12
-43 0 -28 -3 -31 -32 -30 -30 0 -33 3 -34 30 -1 17 5 35 14 43 20 15 25 15 40
0z m151 2 c26 13 27 13 50 -11 17 -19 19 -19 18 -3 -2 21 39 29 60 12 8 -6 19
-5 33 2 21 11 40 6 40 -10 0 -5 -8 -7 -17 -4 -10 2 -8 -1 5 -7 26 -14 28 -31
6 -50 -12 -10 -20 -10 -34 -1 -15 9 -21 9 -27 -1 -5 -8 -10 0 -13 21 -7 43
-24 46 -28 5 -4 -36 -16 -42 -31 -15 -6 9 -11 12 -11 6 0 -18 -29 -25 -51 -13
-15 7 -24 7 -34 -1 -20 -17 -55 5 -55 35 0 29 27 47 52 34 12 -6 25 -6 37 1z
m436 -6 c24 -24 16 -66 -14 -71 -34 -5 -52 14 -44 46 10 42 32 51 58 25z
m-1260 -13 c10 -31 -5 -52 -34 -49 -26 3 -38 26 -27 54 8 21 53 18 61 -5z m74
-18 c-1 -37 -2 -37 -8 -8 -3 17 -13 30 -21 30 -8 0 -18 -13 -21 -30 -6 -29 -7
-29 -8 8 -1 35 1 37 29 37 28 0 30 -2 29 -37z m481 12 c0 -16 6 -25 15 -25 9
0 15 9 15 25 0 14 5 25 10 25 6 0 10 -15 10 -34 0 -27 -4 -35 -23 -38 -12 -2
-28 -3 -35 0 -14 4 -16 72 -2 72 6 0 10 -11 10 -25z m525 -30 c6 0 11 12 13
28 5 39 22 34 22 -7 0 -26 -5 -35 -22 -39 -31 -9 -38 -1 -37 41 1 36 2 36 8 7
3 -16 11 -30 16 -30z m-1249 -115 c20 -8 24 -16 22 -47 -1 -37 -1 -37 -5 -5
-2 17 -10 32 -17 32 -7 0 -18 -15 -24 -32 -9 -31 -10 -29 -10 27 0 33 2 54 5
47 3 -7 16 -17 29 -22z m272 18 c17 -17 15 -22 -13 -56 -23 -28 -23 -30 -5
-25 11 3 20 0 20 -6 0 -6 -13 -11 -30 -11 -37 0 -38 9 -5 40 33 31 33 54 0 48
-20 -4 -23 -3 -14 8 14 17 31 18 47 2z m82 2 c0 -5 -7 -10 -15 -10 -8 0 -15
-4 -15 -10 0 -5 9 -10 20 -10 15 0 20 -7 20 -29 0 -30 -19 -45 -45 -35 -24 10
-17 22 10 16 21 -3 25 0 25 18 0 18 -4 21 -25 18 -21 -4 -25 -1 -25 17 0 12 3
25 7 28 10 11 43 8 43 -3z m180 -67 c0 -29 -2 -31 -32 -30 -42 2 -49 29 -11
45 22 9 23 11 6 8 -25 -5 -32 11 -9 20 8 3 12 13 9 22 -3 10 4 7 16 -8 11 -14
21 -39 21 -57z m188 65 c17 -17 15 -73 -3 -88 -20 -17 -50 -8 -51 15 -1 11 -5
28 -9 38 -15 35 35 63 63 35z m42 -2 c0 -8 10 -16 23 -18 18 -2 23 -10 25 -40
2 -22 -1 -38 -7 -38 -6 0 -11 14 -11 30 0 20 -5 30 -15 30 -10 0 -15 -10 -15
-30 0 -16 -4 -30 -10 -30 -5 0 -10 25 -10 55 0 30 5 55 10 55 6 0 10 -6 10
-14z m-667 -3 c-7 -2 -21 -2 -30 0 -10 3 -4 5 12 5 17 0 24 -2 18 -5z m92 -52
c0 -61 -9 -71 -20 -23 -5 24 7 82 17 82 2 0 3 -27 3 -59z m225 -1 c0 -23 -6
-43 -17 -51 -15 -12 -16 -12 -9 6 16 39 18 63 5 86 -11 22 -11 23 4 10 10 -8
17 -28 17 -51z m-1355 30 c3 -5 -3 -10 -14 -10 -15 0 -21 -6 -21 -21 0 -18 4
-20 28 -14 25 6 26 5 11 -10 -13 -14 -21 -15 -38 -6 -11 7 -21 20 -21 29 0 33
40 56 55 32z m83 -2 c18 -18 14 -46 -9 -58 -26 -14 -49 3 -49 35 0 32 35 46
58 23z m78 -28 c1 -26 1 -28 -3 -7 -5 31 -33 37 -33 8 0 -11 -4 -23 -10 -26
-6 -4 -10 6 -10 24 0 54 54 55 56 1z m82 28 c17 -17 15 -43 -4 -59 -31 -26
-70 25 -44 56 15 18 32 19 48 3z m77 2 c3 -6 -4 -10 -17 -11 l-23 0 23 -9 c12
-5 22 -16 22 -24 0 -20 -31 -29 -48 -13 -12 13 -10 14 15 11 15 -2 21 -1 13 2
-28 12 -39 25 -33 40 6 16 39 19 48 4z m82 -6 c2 -7 -6 -10 -22 -7 -21 5 -25
2 -25 -17 0 -18 4 -21 25 -18 27 6 34 -6 10 -16 -26 -9 -45 5 -45 33 0 15 3
31 7 35 10 10 46 3 50 -10z m71 4 c18 -18 14 -46 -7 -58 -11 -5 -22 -10 -25
-10 -8 0 -36 31 -36 40 0 13 30 40 44 40 6 0 17 -5 24 -12z m126 -4 c16 -42
-10 -73 -50 -57 -21 8 -17 21 14 38 23 14 24 16 5 12 -13 -3 -23 -2 -23 2 0
25 45 29 54 5z m124 -21 c2 -19 -1 -33 -7 -33 -6 0 -11 11 -11 25 0 39 -30 32
-32 -7 l-1 -33 -4 33 c-5 39 -30 43 -36 5 -4 -27 -4 -27 -6 4 -1 35 7 40 59
39 32 -1 35 -4 38 -33z m80 -3 c3 -34 1 -36 -25 -34 -40 2 -43 3 -43 14 0 5
12 17 28 25 23 14 24 16 5 12 -13 -3 -23 -2 -23 2 0 14 14 22 35 19 15 -2 21
-12 23 -38z m78 -5 c1 -32 1 -34 -3 -7 -2 17 -10 32 -17 32 -7 0 -18 -15 -24
-32 l-10 -33 -1 43 c-1 42 0 43 27 40 24 -3 27 -7 28 -43z m162 33 c22 -22 14
-55 -13 -62 -49 -12 -64 23 -17 41 25 10 26 11 4 12 -13 1 -20 6 -17 11 8 14
28 13 43 -2z m505 -15 c3 -15 3 -33 0 -40 -7 -17 -55 -13 -61 5 -3 9 4 11 25
7 l28 -5 -27 11 c-42 16 -36 49 8 49 16 0 23 -7 27 -27z m-1533 -155 c24 -53
26 -82 4 -50 -19 28 -40 28 -55 0 -7 -13 -14 -18 -16 -12 -4 11 34 104 43 104
3 0 14 -19 24 -42z m87 -4 c2 -6 -7 -10 -19 -10 -14 1 -23 -5 -23 -14 0 -10 9
-14 30 -13 28 2 29 1 11 -12 -37 -28 -76 21 -44 53 14 14 40 12 45 -4z m81 -6
c2 -12 -3 -18 -17 -18 -11 0 -23 -5 -27 -11 -5 -8 1 -10 20 -7 28 6 36 -6 11
-16 -35 -13 -63 21 -44 55 13 25 52 22 57 -3z m77 12 c3 -6 -4 -10 -17 -11
l-23 0 23 -9 c12 -5 22 -16 22 -24 0 -17 -24 -28 -45 -20 -23 9 -18 23 8 18
l22 -5 -22 12 c-34 18 -29 49 8 49 10 0 21 -4 24 -10z m70 0 c3 -6 -4 -10 -17
-11 l-23 0 23 -9 c12 -5 22 -16 22 -24 0 -17 -24 -28 -45 -20 -25 10 -17 21
13 18 l27 -4 -27 12 c-27 11 -35 27 -21 41 10 10 41 8 48 -3z m83 -12 c3 -13
-3 -18 -22 -18 -14 0 -26 -5 -26 -11 0 -7 10 -9 25 -7 27 6 34 -6 10 -16 -35
-13 -63 21 -44 55 13 25 52 22 57 -3z m209 16 c-3 -3 -12 -4 -19 -1 -8 3 -5 6
6 6 11 1 17 -2 13 -5z m558 -3 c3 -5 1 -12 -5 -16 -5 -3 -10 1 -10 9 0 18 6
21 15 7z m40 -1 c3 -6 -1 -7 -9 -4 -18 7 -21 14 -7 14 6 0 13 -4 16 -10z m190
0 c3 -6 -1 -7 -9 -4 -18 7 -21 14 -7 14 6 0 13 -4 16 -10z m73 -2 c14 -14 16
-44 4 -52 -4 -2 -8 8 -7 22 0 20 -5 27 -17 26 -10 -1 -15 2 -12 7 7 12 18 11
32 -3z m140 -22 c2 -16 -1 -33 -7 -39 -8 -8 -11 -2 -11 21 0 45 -29 44 -32 0
l-1 -33 -4 33 c-5 39 -33 45 -33 7 0 -14 -4 -25 -10 -25 -5 0 -10 16 -10 35
l0 35 53 -3 c49 -2 52 -4 55 -31z m-733 -4 c-3 -3 -11 0 -18 7 -9 10 -8 11 6
5 10 -3 15 -9 12 -12z m482 -14 c-3 -7 -5 -2 -5 12 0 14 2 19 5 13 2 -7 2 -19
0 -25z m-377 18 c0 -2 -13 -6 -29 -8 -17 -2 -28 -1 -25 4 5 8 54 12 54 4z
m291 -13 c13 -17 13 -17 -6 -3 -11 8 -22 16 -24 17 -2 2 0 3 6 3 6 0 17 -8 24
-17z m1205 -1775 c188 -99 236 -344 97 -498 -25 -28 -69 -63 -97 -78 l-51 -27
-1235 0 -1235 0 -50 27 c-116 61 -178 163 -178 288 0 56 5 88 22 125 36 83
123 159 211 186 14 4 574 7 1245 6 l1220 -2 51 -27z m-2969 -2120 c-3 -8 -6
-5 -6 6 -1 11 2 17 5 13 3 -3 4 -12 1 -19z"/>
<path d="M1460 5440 c0 -5 5 -10 10 -10 6 0 10 5 10 10 0 6 -4 10 -10 10 -5 0
-10 -4 -10 -10z"/>
<path d="M3588 5473 c7 -3 16 -2 19 1 4 3 -2 6 -13 5 -11 0 -14 -3 -6 -6z"/>
<path d="M2110 5101 c0 -6 5 -13 10 -16 6 -3 10 1 10 9 0 9 -4 16 -10 16 -5 0
-10 -4 -10 -9z"/>
<path d="M1497 4504 c-4 -4 -7 -14 -7 -23 0 -11 3 -12 11 -4 6 6 10 16 7 23
-2 6 -7 8 -11 4z"/>
<path d="M1746 4491 c-4 -7 -5 -15 -2 -18 9 -9 19 4 14 18 -4 11 -6 11 -12 0z"/>
<path d="M1830 4506 c0 -11 9 -16 26 -16 31 0 28 23 -4 28 -15 2 -22 -2 -22
-12z"/>
<path d="M2050 4491 c0 -6 5 -13 10 -16 6 -3 10 1 10 9 0 9 -4 16 -10 16 -5 0
-10 -4 -10 -9z"/>
<path d="M2735 4450 c3 -5 12 -7 20 -3 21 7 19 13 -6 13 -11 0 -18 -4 -14 -10z"/>
<path d="M3015 4480 c-3 -5 -2 -10 4 -10 5 0 13 5 16 10 3 6 2 10 -4 10 -5 0
-13 -4 -16 -10z"/>
<path d="M3133 4475 c-8 -23 9 -36 29 -21 15 11 15 13 -3 24 -16 10 -21 10
-26 -3z"/>
<path d="M3203 4474 c-9 -23 11 -38 26 -20 13 16 7 36 -10 36 -5 0 -12 -7 -16
-16z"/>
<path d="M3365 4450 c3 -5 11 -10 16 -10 6 0 7 5 4 10 -3 6 -11 10 -16 10 -6
0 -7 -4 -4 -10z"/>
<path d="M3595 4480 c-3 -5 1 -10 9 -10 9 0 16 5 16 10 0 6 -4 10 -9 10 -6 0
-13 -4 -16 -10z"/>
<path d="M2323 4474 c-8 -21 13 -42 28 -27 13 13 5 43 -11 43 -6 0 -13 -7 -17
-16z"/>
<path d="M2698 4273 c7 -3 16 -2 19 1 4 3 -2 6 -13 5 -11 0 -14 -3 -6 -6z"/>
<path d="M2890 4325 c0 -9 5 -15 11 -13 6 2 11 8 11 13 0 5 -5 11 -11 13 -6 2
-11 -4 -11 -13z"/>
<path d="M2888 4278 c9 -9 15 -9 24 0 9 9 7 12 -12 12 -19 0 -21 -3 -12 -12z"/>
<path d="M1305 4300 c-4 -7 -3 -16 3 -22 14 -14 45 -2 40 15 -6 16 -34 21 -43
7z"/>
<path d="M1470 4289 c0 -14 5 -19 17 -17 26 5 29 38 4 38 -15 0 -21 -6 -21
-21z"/>
<path d="M1695 4300 c-8 -14 3 -30 21 -30 8 0 14 9 14 20 0 21 -24 28 -35 10z"/>
<path d="M1828 4273 c7 -3 16 -2 19 1 4 3 -2 6 -13 5 -11 0 -14 -3 -6 -6z"/>
<path d="M2028 4273 c7 -3 16 -2 19 1 4 3 -2 6 -13 5 -11 0 -14 -3 -6 -6z"/>
<path d="M2278 4273 c7 -3 16 -2 19 1 4 3 -2 6 -13 5 -11 0 -14 -3 -6 -6z"/>
<path d="M1245 4150 c-8 -13 -1 -24 14 -19 6 3 7 10 2 18 -6 10 -10 10 -16 1z"/>
<path d="M1408 4133 c6 -2 18 -2 25 0 6 3 1 5 -13 5 -14 0 -19 -2 -12 -5z"/>
<path d="M1638 4133 c6 -2 18 -2 25 0 6 3 1 5 -13 5 -14 0 -19 -2 -12 -5z"/>
<path d="M3250 2115 c0 -3 9 -14 20 -25 26 -26 25 -55 -1 -81 -24 -24 -19 -35
9 -20 38 20 41 81 6 115 -15 15 -34 21 -34 11z"/>
<path d="M3545 2110 c-4 -6 -3 -16 3 -22 6 -6 12 -6 17 2 4 6 3 16 -3 22 -6 6
-12 6 -17 -2z"/>
<path d="M1350 2050 l0 -60 43 27 c23 15 44 29 46 30 5 4 -21 24 -61 48 l-28
16 0 -61z"/>
<path d="M3210 2095 c-7 -8 -21 -15 -31 -15 -14 0 -19 -7 -19 -30 0 -21 5 -30
17 -30 9 0 25 -7 35 -17 17 -15 18 -14 18 45 0 34 -2 62 -4 62 -2 0 -9 -7 -16
-15z"/>
<path d="M1611 2086 c-7 -8 -11 -30 -9 -48 2 -28 7 -33 28 -33 23 0 25 4 25
45 0 48 -20 65 -44 36z m34 -37 c0 -24 -5 -34 -15 -34 -16 0 -25 37 -16 62 10
26 31 8 31 -28z"/>
<path d="M1725 2085 c-3 -8 -7 -21 -9 -27 -6 -23 13 -58 33 -58 20 0 31 18 31
54 0 39 -45 64 -55 31z m43 -26 c3 -29 -12 -54 -27 -45 -12 8 -15 59 -4 70 12
12 28 0 31 -25z"/>
<path d="M1800 2079 c-15 -27 -9 -59 13 -73 15 -9 21 -7 33 8 17 24 18 58 2
74 -18 18 -36 15 -48 -9z m44 -13 c7 -30 -2 -58 -18 -53 -13 4 -20 42 -12 63
8 22 23 17 30 -10z"/>
<path d="M1922 2054 c-17 -63 -10 -66 10 -4 9 28 13 50 9 50 -4 0 -12 -21 -19
-46z"/>
<path d="M2001 2086 c-7 -8 -11 -30 -9 -48 2 -28 7 -33 28 -33 23 0 25 4 25
45 0 48 -20 65 -44 36z m34 -37 c0 -24 -5 -34 -15 -34 -16 0 -25 37 -16 62 10
26 31 8 31 -28z"/>
<path d="M2126 2085 c-17 -13 -17 -15 -4 -15 12 0 18 -11 21 -37 3 -31 4 -29
5 15 1 28 1 52 0 52 -2 0 -12 -7 -22 -15z"/>
<path d="M2197 2093 c-4 -3 -7 -11 -7 -17 0 -6 5 -5 12 2 7 7 16 12 20 12 16
0 7 -27 -17 -50 -34 -32 -31 -40 13 -39 30 2 32 3 10 6 -34 5 -35 8 -2 36 17
15 23 28 19 40 -7 17 -35 23 -48 10z"/>
<path d="M3250 2050 c0 -18 4 -29 10 -25 6 3 10 15 10 25 0 10 -4 22 -10 25
-6 4 -10 -7 -10 -25z"/>
<path d="M2420 2050 c0 -20 5 -21 73 -18 56 2 72 6 72 18 0 12 -16 16 -72 18
-68 3 -73 2 -73 -18z"/>
<path d="M3545 2060 c-4 -6 -3 -16 3 -22 6 -6 12 -6 17 2 4 6 3 16 -3 22 -6 6
-12 6 -17 -2z"/>
<path d="M3545 2010 c-4 -6 -3 -16 3 -22 6 -6 12 -6 17 2 4 6 3 16 -3 22 -6 6
-12 6 -17 -2z"/>
</g>
</svg>
