<svg preserveAspectRatio="none" width="100%" height="100%" overflow="visible" style="display: block;" viewBox="0 0 37.0014 41.6063" fill="none" xmlns="http://www.w3.org/2000/svg">
<g id="HQFL">
<path id="Vector" d="M18.5 6.78031C8.29901 6.78031 0 14.8418 0 24.7509C0 30.3695 2.63994 35.5643 7.24235 39.002L8.54703 39.9769C8.54703 39.9769 8.40909 37.0475 8.37444 36.2943C8.38531 36.2923 8.39822 36.2904 8.41045 36.2877C11.1326 38.5373 14.6553 39.8997 18.5007 39.8997C22.3461 39.8997 25.7138 38.6 28.4102 36.4395C28.4074 37.2778 28.4 40 28.4 40L29.6299 39.0983C34.3145 35.6613 37.0014 30.4322 37.0014 24.7509C37.0014 14.8418 28.7024 6.78031 18.5014 6.78031H18.5Z" fill="var(--fill-0, #F7F5F2)"/>
<path id="Vector_2" d="M13.381 0L13.1017 2.09904L10.9599 2.50565L12.9339 3.4291L12.6872 5.53342L14.1835 3.99281L16.1684 4.87335L15.1226 3.01391L16.5945 1.43633L14.454 1.84227L13.381 0Z" fill="var(--fill-0, #F7F5F2)"/>
<path id="Vector_3" d="M23.6188 0L23.8981 2.09904L26.04 2.50565L24.066 3.4291L24.3126 5.53342L22.8163 3.99281L20.8321 4.87335L21.8772 3.01391L20.4061 1.43633L22.5459 1.84227L23.6188 0Z" fill="var(--fill-0, #F7F5F2)"/>
<path id="Vector_4" d="M18.5 7.33742C8.61499 7.33742 0.573517 15.1488 0.573517 24.7509C0.573517 30.1952 3.13192 35.229 7.59162 38.5604L7.9178 38.8039C7.9178 38.8039 7.79208 36.1207 7.77849 35.8356C7.86547 35.8197 8.17941 35.7623 8.57421 35.691C11.3208 38.0455 14.8415 39.3426 18.5007 39.3426C22.1599 39.3426 25.5901 38.0778 28.3198 35.7821C28.6507 35.8455 28.9096 35.895 28.985 35.9088C28.985 36.1821 28.9762 38.8785 28.9762 38.8785L29.284 38.6534C33.8239 35.3227 36.4278 30.2553 36.4278 24.7502C36.4278 15.1481 28.3864 7.33675 18.5014 7.33675L18.5 7.33742Z" fill="var(--fill-0, black)"/>
<path id="Vector_5" d="M18.5 38.9716C15.0351 38.9716 11.6987 37.7762 9.05667 35.6039C9.90336 35.4508 10.8506 35.2791 10.8506 35.2791L10.5061 35.0257C7.15741 32.5609 5.23708 28.8163 5.23708 24.7516C5.23708 17.6472 11.187 11.8675 18.5007 11.8675C25.8144 11.8675 31.7643 17.6472 31.7643 24.7516C31.7643 28.8038 29.757 32.6725 26.3947 35.0989L26.0481 35.3491C26.0481 35.3491 27.0103 35.5333 27.838 35.6917C25.2137 37.8079 21.9153 38.9723 18.5007 38.9723L18.5 38.9716Z" fill="var(--fill-0, #F7F5F2)"/>
<path id="Vector_6" d="M29.3601 38.1043C29.3622 37.5175 29.3676 35.6045 29.3676 35.6045C29.3676 35.6045 27.5064 35.2488 26.9363 35.1405C30.1973 32.6329 32.1455 28.7873 32.1455 24.7516C32.1455 17.4425 26.0244 11.4966 18.5 11.4966C10.9756 11.4966 4.85451 17.4425 4.85451 24.7516C4.85451 28.7998 6.71912 32.5279 9.9618 35.0633C9.37945 35.1689 7.38165 35.5306 7.38165 35.5306C7.38165 35.5306 7.46863 37.3821 7.49717 37.992C3.34325 34.7319 0.956088 29.9384 0.956088 24.7516C0.956088 15.3541 8.82632 7.70904 18.5007 7.70904C28.175 7.70904 36.0453 15.3541 36.0453 24.7516C36.0453 30.0078 33.6058 34.8441 29.3608 38.1049L29.3601 38.1043Z" fill="var(--fill-0, #F7F5F2)"/>
<path id="Vector_7" d="M27.176 33.1787C31.9676 28.5243 31.9676 20.978 27.176 16.3236C22.3845 11.6692 14.6159 11.6692 9.82443 16.3236C5.03291 20.978 5.03291 28.5243 9.82442 33.1787C14.6159 37.8331 22.3845 37.8331 27.176 33.1787Z" fill="var(--fill-0, black)"/>
<path id="Vector_8" d="M30.237 26.5852C31.2799 20.2887 26.8706 14.3632 20.3887 13.3501C13.9067 12.3371 7.80661 16.6201 6.76373 22.9166C5.72084 29.2131 10.1301 35.1386 16.612 36.1516C23.094 37.1647 29.1941 32.8816 30.237 26.5852Z" fill="var(--fill-0, #F7F5F2)"/>
<path id="Vector_9" d="M6.20948 34.7431L6.20472 34.7379L6.75921 33.8969L7.16556 34.3682L6.20948 34.7438V34.7431ZM7.58279 34.2032L6.995 33.5213L7.28516 33.0837L6.92365 32.6646L5.58296 34.8633L5.96689 35.3082L8.43695 34.4197L8.08632 34.0131L7.58347 34.2032H7.58279Z" fill="var(--fill-0, black)"/>
<path id="Vector_10" d="M6.03959 32.6527C6.15579 32.5801 6.3447 32.3906 6.11026 32.0144C5.98319 31.8104 5.79157 31.6137 5.56664 31.7458C5.40152 31.8428 5.45384 32.0243 5.53675 32.2738L5.62169 32.526C5.74944 32.9055 5.87311 33.2725 5.40628 33.5471C5.1698 33.6864 4.67647 33.8085 4.25924 33.1398C3.86512 32.5081 4.18518 32.0883 4.44339 31.9326L4.70093 32.3458C4.61328 32.4131 4.41078 32.5794 4.64521 32.9557C4.74714 33.1194 4.93129 33.2784 5.12292 33.1649C5.28804 33.0672 5.24115 32.9141 5.20854 32.8164L5.02235 32.2388C4.9177 31.9154 4.87489 31.588 5.2561 31.3636C5.89417 30.9873 6.3447 31.586 6.4575 31.7669C6.92705 32.5194 6.56147 32.9108 6.29849 33.0659L6.04095 32.6527H6.03959Z" fill="var(--fill-0, black)"/>
<path id="Vector_11" d="M4.98022 30.7985C5.10661 30.7438 5.32202 30.5827 5.14602 30.1774C5.05089 29.9576 4.8912 29.7352 4.64929 29.8342C4.47126 29.9074 4.49572 30.0942 4.53989 30.3523L4.58542 30.6137C4.65473 31.0084 4.722 31.388 4.21848 31.5933C3.96365 31.6976 3.45673 31.7477 3.14483 31.0269C2.8506 30.3457 3.22977 29.9761 3.50905 29.8586L3.70204 30.3041C3.60555 30.3583 3.37926 30.4942 3.55458 30.8995C3.63069 31.0758 3.78902 31.2593 3.99627 31.1748C4.17499 31.1022 4.1512 30.9444 4.13353 30.8421L4.03636 30.2447C3.982 29.9107 3.9888 29.58 4.39923 29.4124C5.08758 29.1318 5.4423 29.7873 5.52656 29.982C5.87719 30.7933 5.45656 31.1286 5.1732 31.2441L4.98022 30.7985Z" fill="var(--fill-0, black)"/>
<path id="Vector_12" d="M3.73194 28.8856C3.05649 29.0434 2.79623 28.7107 2.731 28.4473C2.66509 28.1826 2.74119 27.7714 3.41596 27.613C4.0914 27.4546 4.35166 27.7879 4.41689 28.0513C4.48281 28.316 4.40738 28.7272 3.73194 28.8856ZM3.85357 29.3747C4.98565 29.1094 4.92042 28.2612 4.84363 27.9516C4.76685 27.642 4.42641 26.8579 3.29432 27.1239C2.16224 27.3892 2.22747 28.2374 2.30426 28.547C2.38105 28.8566 2.72149 29.6408 3.85357 29.3747Z" fill="var(--fill-0, black)"/>
<path id="Vector_13" d="M2.71605 25.2539C2.57063 25.3041 2.29747 25.4004 2.32736 25.8156C2.34435 26.0572 2.53598 26.4004 3.23521 26.3529C3.67961 26.3226 4.06762 26.1245 4.03704 25.6988C4.01666 25.4209 3.84066 25.2381 3.53352 25.1984L3.4975 24.6968C4.04248 24.7608 4.44272 25.0763 4.48621 25.679C4.53242 26.3186 4.12063 26.8071 3.26579 26.8658C2.40075 26.9245 1.92441 26.4691 1.87956 25.8499C1.82791 25.1298 2.31649 24.8037 2.68004 24.7522L2.71605 25.2539Z" fill="var(--fill-0, black)"/>
<path id="Vector_14" d="M4.40806 23.972L4.38836 24.475L1.90946 24.3839L1.92916 23.8803L4.40806 23.972Z" fill="var(--fill-0, black)"/>
<path id="Vector_15" d="M2.63655 22.4829L2.63791 22.4756L3.65379 22.3185L3.56206 22.9265L2.63723 22.4829H2.63655ZM3.96501 23.1199L4.0982 22.24L4.62687 22.1594L4.70841 21.6182L2.12691 22.1086L2.03993 22.6829L4.36593 23.8829L4.44544 23.3581L3.96433 23.1199H3.96501Z" fill="var(--fill-0, black)"/>
<path id="Vector_16" d="M3.58312 19.7119C3.42887 19.7079 3.13804 19.702 3.01232 20.1C2.93962 20.331 2.99058 20.7185 3.66127 20.9185C4.08733 21.0452 4.52222 20.9957 4.65065 20.5885C4.73491 20.3225 4.63842 20.0901 4.36593 19.9455L4.51747 19.4644C5.00265 19.7139 5.2595 20.1482 5.07739 20.7264C4.88373 21.3396 4.31905 21.6518 3.49954 21.4083C2.67052 21.1614 2.39396 20.5706 2.58151 19.9766C2.79895 19.2868 3.37587 19.1528 3.73466 19.2313L3.58312 19.7125V19.7119Z" fill="var(--fill-0, black)"/>
<path id="Vector_17" d="M4.10907 17.8874L4.11179 17.8815L5.12768 18.0353L4.84839 18.5858L4.10839 17.8874H4.10907ZM5.17185 18.8901L5.57684 18.0927L6.10551 18.1739L6.35421 17.6828L3.74281 17.3785L3.47848 17.8993L5.31251 19.7356L5.55374 19.2597L5.17185 18.8894V18.8901ZM3.15502 16.9811C3.20191 17.0188 3.25763 17.0828 3.20735 17.1818C3.1856 17.2241 3.15231 17.2604 3.05989 17.3429C2.96748 17.426 2.92602 17.4623 2.89069 17.5316C2.82206 17.667 2.84448 17.7825 2.89613 17.8788C2.94913 17.9713 3.03135 18.0373 3.08707 18.0789L3.18492 17.8861C3.15366 17.8637 3.07008 17.7864 3.12309 17.6808C3.14891 17.63 3.21346 17.5785 3.29365 17.4967C3.33985 17.4511 3.42547 17.3574 3.45945 17.2914C3.58652 17.0419 3.33917 16.8445 3.25423 16.7851L3.15502 16.9805V16.9811Z" fill="var(--fill-0, black)"/>
<path id="Vector_18" d="M5.64072 16.5851C5.07739 16.191 5.16709 15.7824 5.33085 15.5613C5.49462 15.3408 5.86496 15.1283 6.42828 15.523C6.99161 15.9171 6.90191 16.3257 6.73815 16.5461C6.57438 16.7666 6.20404 16.9792 5.64072 16.5851ZM5.33765 16.9937C6.28287 17.6544 6.90259 17.0544 7.09422 16.7957C7.28584 16.5369 7.67589 15.7752 6.73067 15.1144C5.78614 14.4537 5.16573 15.0544 4.97411 15.3131C4.78248 15.5719 4.39243 16.3329 5.33765 16.9943V16.9937Z" fill="var(--fill-0, black)"/>
<path id="Vector_19" d="M8.475 12.9052C8.34522 12.824 8.09991 12.6722 7.77985 12.9487C7.59366 13.1091 7.4299 13.4656 7.89605 13.9751C8.19232 14.2986 8.58984 14.4761 8.91805 14.193C9.13278 14.0082 9.17423 13.7606 9.01862 13.4999L9.40595 13.1652C9.68659 13.6233 9.673 14.1243 9.20821 14.5257C8.71488 14.9514 8.06525 14.9329 7.49581 14.3111C6.91958 13.6814 7.00044 13.0365 7.47814 12.6246C8.03331 12.1454 8.598 12.323 8.86165 12.5705L8.47432 12.9052H8.475Z" fill="var(--fill-0, black)"/>
<path id="Vector_20" d="M9.92647 12.5256L10.5244 13.4372L10.0875 13.7078L8.75361 11.6761L9.19054 11.4055L9.69611 12.1751L10.5122 11.6695L10.0067 10.8999L10.4436 10.6292L11.7775 12.6609L11.3406 12.9316L10.7426 12.02L9.92647 12.5256Z" fill="var(--fill-0, black)"/>
<path id="Vector_21" d="M12.1546 10.4484L12.1607 10.4457L12.8321 11.2022L12.2518 11.4457L12.1546 10.4484ZM12.2953 11.8814L13.1359 11.5282L13.4844 11.923L14.0016 11.7058L12.2151 9.83052L11.6667 10.0609L11.8386 12.6141L12.3401 12.4035L12.296 11.8807L12.2953 11.8814Z" fill="var(--fill-0, black)"/>
<path id="Vector_22" d="M14.27 10.3249L14.0872 9.63911L14.4854 9.53877C14.7966 9.46088 14.9522 9.52227 15.0127 9.74934C15.0406 9.85363 15.1099 10.113 14.7354 10.2074L14.2707 10.3243L14.27 10.3249ZM14.3773 10.7276L14.9529 10.583C15.5984 10.4206 15.5767 9.85759 15.5203 9.64637C15.398 9.18827 15.0399 8.96979 14.5751 9.08662L13.4776 9.36253L14.1001 11.6952L14.6016 11.5692L14.3773 10.7276Z" fill="var(--fill-0, black)"/>
<path id="Vector_23" d="M17.7097 9.05163L16.4003 9.18695L16.4553 9.69125L17.6581 9.56715L17.7043 9.99092L16.5015 10.115L16.5695 10.7355L17.9367 10.5942L17.9836 11.018L16.1108 11.2114L15.8485 8.81533L17.6628 8.62786L17.7097 9.05163Z" fill="var(--fill-0, black)"/>
<path id="Vector_24" d="M19.8611 9.46682C19.8271 9.32094 19.7605 9.04569 19.3331 9.02523C19.0844 9.01401 18.7106 9.15791 18.6773 9.83844C18.6556 10.2708 18.8132 10.6682 19.2509 10.6886C19.5376 10.7018 19.7456 10.554 19.8223 10.2616L20.3401 10.286C20.2103 10.8041 19.8407 11.1533 19.2196 11.1243C18.5605 11.0939 18.1086 10.6391 18.15 9.80742C18.1915 8.96582 18.7134 8.55988 19.3514 8.58958C20.0935 8.62456 20.3694 9.13414 20.3795 9.49124L19.8618 9.46682H19.8611Z" fill="var(--fill-0, black)"/>
<path id="Vector_25" d="M21.1141 10.0391C21.2616 9.38036 21.6836 9.29785 21.9574 9.35527C22.2313 9.41336 22.5792 9.65891 22.431 10.3177C22.2829 10.9771 21.8616 11.0589 21.5877 11.0015C21.3139 10.9434 20.9667 10.6979 21.1141 10.0391ZM20.6079 9.93218C20.3599 11.0371 21.1739 11.3507 21.4947 11.4187C21.8154 11.4867 22.6899 11.5309 22.9373 10.4259C23.1853 9.32095 22.3712 9.00741 22.0505 8.93942C21.7298 8.87144 20.8559 8.82721 20.6079 9.93218Z" fill="var(--fill-0, black)"/>
<path id="Vector_26" d="M25.2809 10.48L24.0564 10.0107L23.8648 10.482L24.9894 10.9131L24.8284 11.3098L23.7031 10.8787L23.4673 11.4596L24.7468 11.9494L24.5858 12.3461L22.834 11.6748L23.7439 9.43316L25.4413 10.0833L25.2803 10.48H25.2809Z" fill="var(--fill-0, black)"/>
<path id="Vector_27" d="M27.3148 11.0893L27.732 11.3263L26.479 13.4062L26.0318 13.152L26.0515 11.1718L26.0454 11.1685L25.1518 12.6517L24.7346 12.4141L25.9877 10.3342L26.4586 10.6022L26.4361 12.5335L26.4423 12.5368L27.3148 11.0886V11.0893Z" fill="var(--fill-0, black)"/>
<path id="Vector_28" d="M27.4588 13.2108C27.3746 13.3171 27.2624 13.5573 27.6138 13.8346C27.804 13.9851 28.0534 14.1078 28.2185 13.9098C28.3402 13.7639 28.228 13.6108 28.0636 13.4029L27.8964 13.193C27.6443 12.8774 27.4004 12.5725 27.7442 12.1606C27.9182 11.952 28.3408 11.6754 28.966 12.1685C29.5558 12.6339 29.4009 13.1336 29.212 13.3652L28.826 13.0609C28.8851 12.9692 29.0183 12.7454 28.667 12.4682C28.5141 12.3474 28.2858 12.2583 28.1445 12.4279C28.0221 12.5738 28.12 12.7025 28.1846 12.7844L28.5603 13.2669C28.771 13.5369 28.9252 13.8313 28.6439 14.1672C28.173 14.7303 27.5417 14.3138 27.3732 14.1811C26.6706 13.6266 26.8785 13.1382 27.0722 12.9065L27.4588 13.2108Z" fill="var(--fill-0, black)"/>
<path id="Vector_29" d="M31.0256 14.8095L30.1348 13.8682L29.7509 14.2115L30.569 15.0762L30.2462 15.3646L29.4281 14.4999L28.9545 14.9224L29.8847 15.9059L29.5619 16.1943L28.2878 14.8478L30.1144 13.2174L31.3491 14.5224L31.0263 14.8108L31.0256 14.8095Z" fill="var(--fill-0, black)"/>
<path id="Vector_30" d="M32.1693 16.364L32.4234 16.7798C32.5362 16.9646 32.664 17.2854 32.0334 17.6485C31.6827 17.8505 31.2445 17.9429 31.0297 17.5904L30.7729 17.1693L32.1693 16.3646V16.364ZM30.145 16.9567L30.6927 17.8544C31.1106 18.5389 31.8778 18.3343 32.3351 18.0709C32.7394 17.8386 33.2633 17.3409 32.8373 16.6425L32.2787 15.727L30.145 16.9561V16.9567Z" fill="var(--fill-0, black)"/>
<path id="Vector_31" d="M33.8463 19.764L33.3557 18.5772L32.8719 18.766L33.3224 19.8564L32.9154 20.0149L32.4649 18.9244L31.8682 19.1568L32.3806 20.3964L31.9736 20.5548L31.2723 18.8571L33.5745 17.9594L34.2541 19.6043L33.847 19.7634L33.8463 19.764Z" fill="var(--fill-0, black)"/>
<path id="Vector_32" d="M32.3235 21.972L32.2284 21.4769L34.6672 21.036L34.9907 22.7218L34.5592 22.8004L34.3308 21.6089L33.7804 21.7086L33.9802 22.7515L33.5487 22.8301L33.3489 21.7872L32.3229 21.9726L32.3235 21.972Z" fill="var(--fill-0, black)"/>
<path id="Vector_33" d="M33.5066 25.172C32.8542 25.1958 32.56 24.8235 32.5362 24.2162C32.5281 23.9945 32.5702 23.6638 32.8073 23.4407C32.9541 23.304 33.1525 23.2466 33.4012 23.2308L35.045 23.1707L35.0647 23.6842L33.4556 23.743C33.1104 23.7555 32.9657 23.9555 32.9745 24.1905C32.9881 24.5364 33.1661 24.671 33.4665 24.6598L35.1001 24.5998L35.1198 25.1133L33.5073 25.172H33.5066Z" fill="var(--fill-0, black)"/>
<path id="Vector_34" d="M32.5016 26.4922L32.5573 25.9919L34.5877 26.2057L34.6686 25.4816L35.1048 25.5272L34.8874 27.4757L34.4511 27.4302L34.532 26.7054L32.5022 26.4922H32.5016Z" fill="var(--fill-0, black)"/>
<path id="Vector_35" d="M33.9265 29.5008L34.2514 28.2619L33.7451 28.1371L33.4468 29.2751L33.0214 29.1701L33.3197 28.0315L32.6973 27.8777L32.3575 29.1721L31.9321 29.0671L32.3969 27.2948L34.8011 27.8889L34.3512 29.6064L33.9259 29.5008H33.9265Z" fill="var(--fill-0, black)"/>
<path id="Vector_36" d="M32.6796 30.1008L32.4207 30.6909C32.3473 30.8573 32.1978 30.9926 31.9973 30.9088C31.7656 30.8124 31.7208 30.6408 31.82 30.4157L32.0694 29.848L32.6796 30.1008ZM31.8709 29.2401L31.4585 30.1781C31.2587 30.6315 31.2852 30.7853 31.3566 30.9649C31.4225 31.1305 31.5618 31.2764 31.7425 31.351C31.9681 31.4447 32.2216 31.4659 32.4458 31.2381C32.4526 31.351 32.4662 31.5675 32.7937 31.7035C33.0289 31.8018 33.44 31.8071 33.6785 31.2645L34.1521 30.1873L31.8709 29.2407V29.2401ZM33.563 30.4678L33.3292 30.9992C33.2368 31.2084 33.1226 31.3147 32.9351 31.2368C32.7536 31.1616 32.7448 30.986 32.825 30.8038L33.0642 30.2606L33.563 30.4672V30.4678Z" fill="var(--fill-0, black)"/>
<path id="Vector_37" d="M31.7955 32.2316C32.3799 32.5959 32.3127 33.0085 32.1618 33.2375C32.0109 33.4659 31.6528 33.6976 31.0678 33.3332C30.4834 32.9689 30.5507 32.5563 30.7015 32.3279C30.8524 32.0989 31.2105 31.8672 31.7955 32.2316ZM32.0755 31.8078C31.0956 31.1972 30.5099 31.8289 30.3325 32.0976C30.1552 32.3662 29.8079 33.1464 30.7885 33.7577C31.769 34.3682 32.3541 33.7359 32.5315 33.4679C32.7088 33.1999 33.0561 32.419 32.0755 31.8085V31.8078Z" fill="var(--fill-0, black)"/>
<path id="Vector_38" d="M29.6054 33.8943L28.7893 34.7927L28.4523 34.5042L29.6109 33.2276L31.4721 34.821L31.1296 35.1986L29.6054 33.893V33.8943Z" fill="var(--fill-0, black)"/>
<path id="Vector_39" d="M12.3136 36.1016C12.3374 36.0118 12.3816 35.8415 12.1512 35.7128C12.018 35.6382 11.77 35.6144 11.5526 35.9801C11.4146 36.2125 11.3854 36.4745 11.6212 36.6059C11.7748 36.6923 11.9331 36.6679 12.0602 36.5273L12.3381 36.6831C12.1159 36.9333 11.8101 37.0237 11.4765 36.8362C11.1224 36.6382 11.0062 36.264 11.2712 35.8171C11.5396 35.3643 11.9453 35.2844 12.2885 35.4765C12.6874 35.6996 12.6908 36.0574 12.5915 36.256L12.3136 36.1003V36.1016Z" fill="var(--fill-0, black)"/>
<path id="Vector_40" d="M12.932 36.7722L12.6595 37.3874L12.3646 37.264L12.9728 35.893L13.2677 36.0158L13.0373 36.5352L13.5877 36.7656L13.8181 36.2461L14.113 36.3689L13.5048 37.7405L13.2099 37.6171L13.4824 37.0019L12.932 36.7716V36.7722Z" fill="var(--fill-0, black)"/>
<path id="Vector_41" d="M14.8061 36.9353L14.8102 36.9366L14.8184 37.5551L14.4433 37.4468L14.8061 36.9359V36.9353ZM14.2856 37.6699L14.8292 37.827L14.8333 38.1498L15.1676 38.2468L15.0888 36.666L14.7341 36.563L13.7692 37.8416L14.0933 37.9353L14.2863 37.6699H14.2856Z" fill="var(--fill-0, black)"/>
<path id="Vector_42" d="M15.9124 37.5736L15.9926 37.1412L16.2433 37.1854C16.439 37.2198 16.5104 37.293 16.4839 37.4369C16.4716 37.5023 16.441 37.666 16.2053 37.6251L15.9124 37.5742V37.5736ZM15.8655 37.827L16.2277 37.8904C16.634 37.9617 16.772 37.6389 16.7971 37.5062C16.8508 37.2171 16.7074 37.0046 16.4145 36.9531L15.7235 36.8323L15.451 38.301L15.767 38.3558L15.8655 37.8264V37.827Z" fill="var(--fill-0, black)"/>
<path id="Vector_43" d="M18.1541 37.392L17.3407 37.3359L17.3176 37.6495L18.0651 37.7009L18.0461 37.9643L17.2986 37.9128L17.2707 38.2983L18.1201 38.3571L18.1011 38.6204L16.9371 38.5406L17.0465 37.0514L18.1738 37.1293L18.1541 37.3927V37.392Z" fill="var(--fill-0, black)"/>
<path id="Vector_44" d="M19.3875 37.5854C19.3582 37.497 19.3025 37.3307 19.0368 37.3406C18.8833 37.3465 18.6604 37.4548 18.6774 37.8765C18.6882 38.1445 18.8071 38.3815 19.0783 38.3709C19.2556 38.3643 19.3759 38.262 19.4072 38.0779L19.7279 38.066C19.6763 38.3921 19.4676 38.627 19.0824 38.6416C18.674 38.6574 18.3702 38.4 18.3491 37.8851C18.3281 37.3637 18.6278 37.0858 19.0232 37.0712C19.4833 37.0534 19.6817 37.3538 19.7075 37.5736L19.3868 37.5854H19.3875Z" fill="var(--fill-0, black)"/>
<path id="Vector_45" d="M20.209 37.7676C20.1411 37.3551 20.3646 37.2145 20.5365 37.1881C20.7078 37.1617 20.9653 37.2264 21.0339 37.6396C21.1019 38.0521 20.8783 38.1927 20.7064 38.2191C20.5352 38.2455 20.2776 38.1802 20.209 37.7676ZM19.8923 37.8171C20.0065 38.5095 20.5488 38.5109 20.7499 38.4798C20.9504 38.4488 21.4648 38.2818 21.3506 37.5907C21.2364 36.8983 20.6942 36.897 20.493 36.928C20.2926 36.959 19.7775 37.126 19.8923 37.8171Z" fill="var(--fill-0, black)"/>
<path id="Vector_46" d="M23.5781 37.2052C23.6141 37.2812 23.7174 37.4099 23.9749 37.3023C24.1149 37.2435 24.2556 37.1465 24.1917 37.0013C24.1441 36.8944 24.0252 36.9102 23.8608 36.9379L23.6943 36.967C23.4435 37.0112 23.2009 37.0534 23.0678 36.7518C23.0005 36.5986 22.9651 36.2943 23.4238 36.1029C23.856 35.9221 24.0945 36.1485 24.1706 36.3161L23.8873 36.4343C23.8526 36.3762 23.7643 36.2409 23.5067 36.3491C23.3946 36.396 23.2791 36.4917 23.3341 36.6158C23.3817 36.7227 23.4823 36.7082 23.5468 36.6963L23.9273 36.6349C24.14 36.6 24.3514 36.6026 24.4601 36.8488C24.6429 37.2614 24.2263 37.4785 24.1027 37.5307C23.5876 37.7459 23.3715 37.4944 23.2961 37.3241L23.5794 37.2059L23.5781 37.2052Z" fill="var(--fill-0, black)"/>
<path id="Vector_47" d="M25.2735 35.7749C25.2055 35.7102 25.0771 35.5867 24.8461 35.7148C24.7122 35.7887 24.5661 35.9848 24.7808 36.3518C24.9174 36.5841 25.1355 36.7419 25.3713 36.6112C25.5256 36.5254 25.584 36.3808 25.5242 36.2032L25.8028 36.0488C25.9122 36.3617 25.8382 36.664 25.5032 36.8488C25.1478 37.0455 24.7564 36.9531 24.4934 36.5056C24.2277 36.0521 24.3616 35.6712 24.7054 35.4811C25.105 35.26 25.4237 35.4376 25.5514 35.6211L25.2728 35.7755L25.2735 35.7749Z" fill="var(--fill-0, black)"/>
<path id="Vector_48" d="M18.2309 28.4051C17.989 28.4051 17.3774 26.7965 17.0716 26.4994C16.7659 26.2024 16.8807 25.9054 16.8807 25.7819C16.8807 25.6585 17.1994 25.5463 17.1226 25.1753C17.0465 24.8044 16.562 24.9285 16.3581 24.5443C16.1543 24.1608 15.7466 23.9133 15.5108 23.5357C15.275 23.1588 15.275 22.5027 15.084 22.1561C14.8931 21.8096 14.5744 21.4017 14.5744 21.03C14.5744 20.6584 14.6892 20.4974 14.9182 20.3739C15.1472 20.2505 15.3327 20.3 15.3327 20.071C15.3327 19.8419 14.9692 19.669 14.7402 19.669C14.5112 19.669 14.4473 19.8426 14.2176 19.8426C13.988 19.8426 14.0267 19.5455 13.3893 19.5455C13.0706 19.5455 12.5868 20.1026 12.3449 20.1026C12.103 20.1026 11.5927 19.9667 11.5295 20.1766C11.4656 20.3871 11.8611 20.2505 11.8611 20.5475C11.8611 20.8446 11.6572 21.2776 11.4153 21.7106C11.1734 22.1443 11.3202 22.8552 11.1734 22.9977C11.0266 23.1397 10.8425 23.3192 10.7786 23.5298C10.7147 23.7403 10.6957 24.1172 10.5747 24.2354C10.4538 24.3529 10.2567 24.4459 10.2051 24.6559C10.1541 24.8664 10.307 25.0644 10.2302 25.3238C10.1534 25.5833 10.1412 25.8684 10.0393 25.9681C9.93734 26.0664 9.70834 26.277 9.70834 26.4255C9.70834 26.574 9.69543 27.0447 9.61932 27.2546C9.54321 27.4651 9.21161 27.9477 9.00775 28.2572C8.80389 28.5668 8.63809 28.7153 8.49811 28.7153C8.35813 28.7153 7.92459 29.1609 8.38327 29.1609H10.9057C11.1476 29.1609 11.4533 28.7028 11.1224 28.7028C10.7915 28.7028 10.4979 28.5298 10.3709 28.3074C10.2438 28.0849 10.5367 27.9364 10.5367 27.8249C10.5367 27.7133 10.5747 27.2671 10.7657 27.2057H14.5628C14.8428 27.2057 15.0725 27.3542 15.1234 27.5397C15.1744 27.7252 15.1744 27.9483 15.1744 28.1457C15.1744 28.343 14.9957 28.3193 14.8557 28.4553C14.7157 28.5912 14.1803 28.9992 14.8557 28.9992H16.7924C16.9323 28.9992 17.1233 28.8011 17.3659 28.8011C17.6085 28.8011 17.7097 28.9866 18.0535 28.9866C18.3974 28.9866 18.8051 28.9866 18.8819 28.6031C18.9281 28.3721 18.4742 28.4044 18.2323 28.4044L18.2309 28.4051ZM10.8377 25.0446C10.6372 25.0446 10.6372 24.8123 10.6372 24.7661C10.6372 24.7199 10.7038 24.5575 10.8377 24.5575C10.9716 24.5575 11.0096 24.3489 11.1054 24.3489C11.2203 24.3489 11.1163 24.5238 11.2203 24.5997C11.2991 24.6572 11.2726 24.8176 11.1537 24.8321C11.0341 24.846 11.0388 25.0453 10.8384 25.0453L10.8377 25.0446ZM14.3447 26.3014H11.2108C11.0579 26.3014 11.2869 25.7687 11.2869 25.6334C11.2869 25.4981 11.4459 25.1568 11.6436 24.9654C11.8407 24.7733 11.7326 24.4327 11.7965 24.1978C11.8604 23.9621 11.9684 23.7588 12.0772 23.6532C12.1859 23.5482 12.2239 22.9416 12.4081 22.5522C12.5929 22.1627 13.0577 22.1311 13.0577 22.4156C13.0577 22.7 13.6054 23.7522 13.6951 24.0242C13.7841 24.2968 13.6951 24.8908 13.8099 25.2004C13.9248 25.51 14.0967 25.6024 14.3447 25.844C14.5934 26.0856 14.3447 26.3021 14.3447 26.3021V26.3014ZM15.3959 25.1377C15.3198 25.1377 15.224 25.2446 15.0331 25.2024C14.8421 25.1601 14.8992 24.9892 14.8992 24.873C14.8992 24.7568 14.7796 24.6829 14.8849 24.4737C14.9903 24.2644 15.135 24.4334 15.2288 24.5245C15.3409 24.6334 15.3722 24.5384 15.4727 24.5984C15.5346 24.6354 15.5081 24.6829 15.5298 24.7766C15.5434 24.8361 15.6324 24.9549 15.6324 25.0044C15.6324 25.1344 15.472 25.1364 15.3959 25.1364V25.1377Z" fill="var(--fill-0, black)"/>
<path id="Vector_49" d="M28.7424 20.8432C28.7424 20.4228 28.8186 20.2861 28.8831 20.0512C28.947 19.8162 28.6663 19.7297 28.5916 19.929C28.5168 20.1284 28.3096 20.203 28.1662 20.203C28.0228 20.203 28.0548 20.0947 27.717 20.0947C27.3793 20.0947 27.38 19.7667 26.411 19.7667C25.442 19.7667 25.6085 20.1007 25.1627 20.1007C24.717 20.1007 24.6531 19.7911 24.2454 19.7911C23.8377 19.7911 23.7615 20.0881 23.379 20.0881C22.9964 20.0881 22.9971 19.7851 22.7864 19.7851C22.5758 19.7851 22.6526 19.9152 22.3468 20.0017C22.041 20.0881 21.9642 20.2861 22.092 20.4102C22.2197 20.5343 22.5126 20.6578 22.5126 21.0908C22.5126 21.5238 22.7035 22.3033 22.7035 22.6631C22.7035 23.0228 22.6016 23.2446 22.6016 23.6407C22.6016 24.0367 22.3339 24.2598 22.3339 24.4823C22.3339 24.7047 22.5758 24.8908 22.5758 25.1007C22.5758 25.3106 22.5377 27.3041 22.5377 27.5642C22.5377 27.8982 22.4868 27.9972 22.3848 28.1576C22.2979 28.2942 22.3977 28.3186 22.181 28.5292C21.9642 28.7391 21.8303 28.5972 21.6775 28.7457C21.5246 28.8949 21.8942 28.9563 21.952 29.0117C22.0091 29.0671 21.952 29.2097 22.2449 29.2097C22.5377 29.2097 22.9713 28.8388 23.2383 28.8388C23.5054 28.8388 23.5441 29.1107 23.8628 29.1107C24.1815 29.1107 24.1176 28.9873 24.6911 28.9873C25.2646 28.9873 25.4685 29.2473 25.7491 29.2473C26.0298 29.2473 26.182 29.2223 26.4246 28.8018C26.6665 28.3807 26.2907 28.3747 26.2336 28.5543C26.1766 28.7338 25.953 28.7028 25.8001 28.7028C25.6472 28.7028 25.4053 28.6533 25.3414 28.6533C25.2776 28.6533 25.0486 28.5048 25.0486 28.4058C25.0486 28.3067 24.9147 28.1272 24.7937 28.0104C24.6728 27.8929 24.6918 27.6394 24.6918 27.2678C24.6918 26.8962 24.577 26.7853 24.577 26.5622C24.577 26.3391 24.6918 26.1912 24.6918 25.881C24.6918 25.5707 24.6157 25.3734 24.7679 25.2255C24.9208 25.077 24.9589 24.8915 25.1247 24.8915C25.2905 24.8915 25.4243 25.0215 25.5195 25.1139C25.6153 25.207 25.8314 25.2559 25.9523 25.374C26.0733 25.4915 25.8123 25.5595 26.0284 25.9681C26.2452 26.3767 26.4871 26.0664 26.4871 25.8691C26.4871 25.6717 26.6149 25.5602 26.6149 25.4235C26.6149 25.2869 26.5129 25.312 26.5129 24.978C26.5129 24.644 26.7168 24.607 26.7168 24.409C26.7168 24.211 26.5 24.1615 26.5 23.9753C26.5 23.7892 26.5129 23.8763 26.5129 23.5667C26.5129 23.2572 26.4932 22.9911 26.3471 22.8492C26.201 22.7066 25.8885 22.6882 25.8885 22.9357C25.8885 23.1832 25.9775 23.3694 25.9775 23.5179C25.9775 23.6664 25.8885 23.8149 25.6336 23.9509C25.3788 24.0875 25.4807 24.2235 25.1491 24.2235C24.8175 24.2235 24.7924 24.1364 24.7163 23.9265C24.6402 23.7159 24.6653 23.1337 24.6653 22.4288C24.6653 21.7238 24.7802 21.4261 24.7802 21.1911C24.7802 20.9561 24.984 20.832 25.2517 20.7706C25.5195 20.7086 25.5827 20.4855 25.9143 20.4855C26.2459 20.4855 26.4749 20.572 26.7297 20.671C26.9845 20.77 27.2713 20.937 27.2713 20.937L27.3413 21.005C27.4113 21.073 27.66 21.3145 27.66 21.5244C27.66 21.7344 27.7999 21.97 27.889 22.3291C27.978 22.6882 27.7932 22.7311 27.5322 22.9845C27.2713 23.238 27.4683 23.3687 27.6341 23.3687C27.7999 23.3687 27.6341 23.5291 28.1948 23.2321C28.7554 22.935 28.9973 22.3535 28.9973 21.9324C28.9973 21.5112 28.7424 21.2644 28.7424 20.8432ZM23.716 24.6057C23.6202 24.6057 23.519 24.5938 23.487 24.4941C23.4551 24.3951 23.3599 24.3826 23.3599 24.1351C23.3599 24.0367 23.4096 23.9727 23.4374 23.8928C23.4789 23.7733 23.5128 23.6585 23.5896 23.6585C23.6583 23.6585 23.7031 23.7588 23.7656 23.8294C23.8186 23.8895 23.9036 23.9119 23.9036 24.0334C23.9036 24.2869 24.0021 24.2657 24.0802 24.3885C24.1951 24.5681 23.8125 24.605 23.7174 24.605L23.716 24.6057Z" fill="var(--fill-0, black)"/>
<path id="Vector_50" d="M21.3846 29.1166C21.3302 29.0605 21.2867 28.9906 21.2677 28.9008C21.2616 28.8718 21.2589 28.8434 21.2589 28.815C21.2344 28.6962 21.2398 28.5536 21.2983 28.343C21.3533 28.1457 21.0346 28.0592 21.0346 27.9477C21.0346 27.8361 20.8885 27.4216 20.5889 27.1311C20.2892 26.84 20.4197 26.8123 20.2892 26.6856C20.1587 26.5589 19.6205 26.5622 19.9644 26.8962C20.3082 27.2302 20.0534 27.3041 20.2192 27.4651C20.385 27.6255 20.4231 27.8236 20.4231 28.0592C20.4231 28.2949 20.5379 28.3312 20.5379 28.7028C20.5379 29.1239 20.4101 29.347 20.3089 29.5695C20.207 29.7919 20.067 30.2005 19.8883 30.2005C19.7096 30.2005 19.6715 30.4606 19.2128 30.4606C18.7541 30.4606 18.5245 30.3616 18.2696 29.9899C18.0665 29.6936 17.584 29.5206 17.3958 29.1807C17.3836 29.1767 17.3727 29.1734 17.3652 29.1734C17.3251 29.1734 17.247 29.2143 17.1845 29.2473L16.7917 29.3714H15.6582C15.6243 29.4051 15.5889 29.4394 15.5563 29.4705C15.4354 29.5879 15.2886 29.6929 15.2886 29.8909C15.2886 30.0889 15.5434 30.1266 15.6195 30.3365C15.6956 30.547 16.511 31.5867 16.8685 31.6857C17.2252 31.784 17.0594 31.9576 18.0407 31.9576C19.0219 31.9576 19.238 31.6236 19.6844 31.6236C20.1309 31.6236 20.3721 31.6117 20.4237 31.7972C20.4747 31.9827 20.7037 32.0685 20.7037 32.2051C20.7037 32.3418 20.7798 32.6758 21.0353 32.4283C21.2901 32.1807 21.3153 31.9576 21.494 31.784C21.6727 31.6104 21.5898 30.0223 21.6727 29.6929C21.7556 29.3629 21.5028 29.3325 21.3853 29.1166H21.3846Z" fill="var(--fill-0, black)"/>
<path id="Vector_51" d="M21.3017 18.1204C21.3017 17.8234 21.0849 17.5759 20.9959 17.3534C20.9069 17.131 21.0788 16.4062 20.9578 16.2887C20.8362 16.1712 20.6391 16.0168 20.6391 15.8683C20.6391 15.7197 20.2443 15.3976 20.1295 16.0042C20.0147 16.6108 20.1927 16.4379 19.9508 16.5362C19.7089 16.6353 19.645 16.9198 19.4282 16.9198C19.2115 16.9198 18.9947 16.8214 18.6889 16.9079C18.3831 16.9943 18.0515 17.1184 17.7335 17.1184C17.4155 17.1184 16.7781 17.3165 16.5104 17.5765C16.2426 17.8366 16.2426 18.1706 16.0388 18.3686C15.8349 18.5666 15.8098 18.6901 15.7459 18.7521C15.682 18.8142 15.5291 18.8762 15.5291 19.1231C15.5291 19.2096 15.5237 19.3884 15.4924 19.597C15.6243 19.7218 15.7146 19.8809 15.7146 20.0696C15.7146 20.4947 15.3688 20.6043 15.239 20.6452L15.1037 20.6974C15.012 20.7469 14.9563 20.7766 14.9563 21.0287C14.9563 21.2116 15.1201 21.4789 15.2641 21.7152L15.4204 21.9792C15.5359 22.1885 15.591 22.4519 15.644 22.7066C15.6943 22.9469 15.7459 23.1958 15.8376 23.3416C15.926 23.4829 16.0551 23.6123 16.1923 23.7496C16.3622 23.9199 16.5362 24.0968 16.6673 24.3238C16.952 24.2704 17.2273 24.1568 17.2877 24.0235C17.3897 23.8011 17.5426 23.6525 17.5426 23.4915C17.5426 23.3304 17.2619 23.0459 17.1729 22.7859C17.0839 22.5258 17.0071 21.6842 17.0071 20.9046C17.0071 20.1251 17.198 19.2709 17.3 19.036C17.4019 18.801 18.1534 17.7488 18.8669 17.7488C19.5804 17.7488 19.4785 18.2062 19.7333 18.3303C19.9882 18.4544 20.3578 18.7515 20.3578 19.2465C20.3578 19.7416 20.0772 20.5211 19.6056 20.6822C19.1347 20.8432 19.0069 21.1898 19.5934 21.2518C20.1791 21.3139 20.421 20.8558 20.7907 20.5957C21.1603 20.3357 21.0136 20.0327 21.1474 19.9026C21.2813 19.7726 21.3003 19.5066 21.3003 19.296C21.3003 19.0855 21.1223 18.9251 21.1223 18.7389C21.1223 18.5528 21.3003 18.4175 21.3003 18.1204H21.3017Z" fill="var(--fill-0, black)"/>
</g>
</svg>
