<svg preserveAspectRatio="none" width="100%" height="100%" overflow="visible" style="display: block;" viewBox="0 0 42.0001 41.4465" fill="none" xmlns="http://www.w3.org/2000/svg">
<g id="Group">
<path id="Vector" d="M20.8519 24.8487C20.408 25.2926 19.6877 25.2926 19.2424 24.8487L7.78933 13.3956C7.34541 12.9517 7.34541 12.23 7.78933 11.786L19.2424 0.332939C19.6863 -0.11098 20.4066 -0.11098 20.8519 0.332939L32.305 11.786C32.7489 12.23 32.7489 12.9517 32.305 13.3956L20.8519 24.8487Z" fill="var(--fill-0, #F7F5F2)"/>
<path id="Vector_2" d="M16.2315 4.596C16.2315 4.5874 16.2315 4.58454 16.2515 4.57452C16.3646 4.50148 16.6453 4.39838 16.9446 4.57738C16.9503 4.58024 16.9689 4.596 16.9718 4.60316C16.9675 4.64468 16.5981 7.7693 16.5966 7.77503C16.5966 7.77503 16.6725 8.16023 16.5179 8.51823C16.2888 9.1254 15.6687 9.23853 15.6243 8.86334C15.6028 8.90201 15.8635 7.7335 15.8635 7.7335C15.8635 7.74066 16.2243 4.64182 16.2315 4.596Z" fill="var(--fill-0, black)"/>
<path id="Vector_3" d="M14.5547 10.4214C14.5432 10.4242 14.5404 10.4257 14.5203 10.4142C14.3814 10.3469 13.4077 10.1092 13.5136 9.71969C13.5151 9.71253 13.5265 9.68532 13.5337 9.67816C13.6067 9.81134 17.4745 7.81514 17.3528 7.7063C17.3542 7.7063 17.907 7.37265 18.2535 7.08052C18.7476 6.52061 18.8249 6.7841 18.5915 7.34115C18.6889 7.35976 17.8096 8.37505 17.7867 8.34497C17.8368 8.49677 14.718 10.5202 14.5561 10.4214" fill="var(--fill-0, black)"/>
<path id="Vector_4" d="M19.7452 5.00447C19.7452 5.00447 19.7437 4.99731 19.7609 4.98585C19.8597 4.91425 20.1161 4.76389 20.4655 4.82976C20.4712 4.83119 20.4955 4.83835 20.4998 4.84408C20.6058 4.90279 20.7118 7.33719 20.706 7.30139C20.706 7.30282 20.6516 7.67944 20.5757 7.95581C20.4798 8.42551 20.2879 8.29233 20.1519 8.00593C20.129 8.04173 19.9285 7.31571 19.9385 7.31714C19.9414 7.28277 19.834 4.98728 19.7466 5.00303" fill="var(--fill-0, black)"/>
<path id="Vector_5" d="M20.5347 4.81772C20.5132 4.81916 20.3213 4.74612 20.1638 4.633C19.9218 4.49123 19.8172 4.23777 20.2153 3.85399C20.2225 3.84683 20.2569 3.82105 20.2755 3.81389C20.3012 3.81246 20.7953 3.75661 21.5342 3.62344C21.9036 3.55614 22.3375 3.48024 22.8101 3.40721C22.9948 3.40578 23.191 3.24969 23.6865 3.33131C23.8583 3.33561 24.2349 3.66353 24.1819 3.83251C24.1776 3.95566 24.1576 4.03729 24.139 4.10889C24.1017 4.25352 24.0588 4.3781 24.0173 4.49553C23.738 5.31463 23.8597 6.3113 23.897 7.04591C23.9285 7.81776 23.9686 8.23876 23.9772 8.26024C23.9772 8.26024 23.9786 8.35046 23.98 8.50225C23.9858 8.57099 23.9657 8.68698 23.95 8.80154L23.9356 8.89175V8.90321L23.9328 8.90894V8.9118V8.91323C22.8344 9.31419 23.5032 9.0235 23.2583 9.11371L23.244 9.09939L23.2153 9.07075L23.0979 8.95047C22.7643 8.6254 22.412 8.17576 22.1915 7.76191C21.474 6.35569 21.9709 6.84686 22.5509 7.52993C22.5237 7.48983 22.8803 7.91084 23.3013 8.26454C23.4101 8.3476 23.5161 8.43208 23.6177 8.51084L23.655 8.54092L23.6736 8.55524C23.6736 8.55524 23.0077 8.81156 23.1294 8.76574V8.75858V8.69127C23.1251 8.64545 23.1323 8.61108 23.1266 8.56383C23.1036 8.3791 23.0793 8.23447 23.0779 8.23017C23.0664 8.23876 23.0378 7.69174 23.002 7.00009C22.9776 6.28122 22.8172 5.24732 23.1867 4.18908C23.2225 4.08168 23.2626 3.96569 23.2783 3.88406C23.297 3.85829 23.2769 3.76807 23.2984 3.89409C23.3342 4.00435 23.5046 4.10459 23.486 4.07022C23.4101 4.0559 23.1566 4.13466 22.8903 4.17333C22.4449 4.24206 22.0211 4.31796 21.6545 4.38526C20.9915 4.50412 20.5647 4.81486 20.5375 4.81629" fill="var(--fill-0, black)"/>
<path id="Vector_6" d="M20.3051 6.16793C20.3051 6.16793 20.298 6.16793 20.2865 6.15218C20.2135 6.05767 20.0617 5.80564 20.1004 5.4548C20.1004 5.44907 20.1061 5.42473 20.1118 5.42043C20.1548 5.33165 22.3801 5.08678 22.3557 5.10539C22.3557 5.10539 22.7094 5.14835 22.9686 5.22568C23.4054 5.32449 23.2779 5.51637 23.0245 5.64955C23.056 5.66673 22.4059 5.87724 22.4073 5.87294C22.3787 5.85862 20.2965 6.09347 20.3051 6.16793Z" fill="var(--fill-0, black)"/>
<path id="Vector_7" d="M20.5457 7.0663C20.5457 7.0663 20.54 7.06631 20.53 7.04912C20.4727 6.94888 20.3553 6.68396 20.3939 6.34028C20.3939 6.33455 20.3982 6.31164 20.4025 6.30735C20.4355 6.27871 22.2211 6.06104 22.2111 6.07393C22.2126 6.07393 22.5018 6.11975 22.7166 6.2114C23.0775 6.33312 22.9672 6.51785 22.7653 6.63527C22.7911 6.64816 22.2698 6.84291 22.2713 6.84005C22.2598 6.83003 20.5557 7.04196 20.5457 7.06487" fill="var(--fill-0, black)"/>
<path id="Vector_8" d="M18.845 8.95203C18.8221 8.95346 18.8135 8.95489 18.7834 8.94057C18.5586 8.85609 18.2951 8.60549 18.7003 8.22314C18.7075 8.21598 18.7419 8.19021 18.7605 8.18448C18.7863 8.18448 19.2703 8.13436 20.0163 7.93674C20.3786 7.84223 20.8655 7.73483 21.2679 7.61025C21.4884 7.54008 21.7247 7.4513 21.9968 7.38113L22.2073 7.33244L22.2603 7.32099L22.2731 7.31812H22.276C21.8965 6.87563 22.7987 7.91813 22.7042 7.81216L22.7013 7.81932L22.6899 7.84653L22.6426 7.95822C22.5853 8.11431 22.5023 8.23746 22.4221 8.36348C21.0001 10.1191 19.0784 10.9353 19.1013 10.9697C19.0827 10.9554 18.6474 11.2432 17.7309 11.5797C16.9361 11.8303 16.6354 11.5454 16.717 11.4781C16.9204 11.2232 17.0192 11.1917 17.4187 10.9382C17.3127 11.0155 18.8178 10.2279 18.8292 10.2408C18.7891 10.2466 20.6894 9.33867 21.8092 7.89092C21.8722 7.80214 21.9123 7.71622 21.9438 7.63316L21.9581 7.60166L21.9653 7.58591C21.5815 7.14055 22.4879 8.18591 22.3934 8.07851H22.3891L22.3805 8.08281L22.3004 8.10142L22.1443 8.13866C21.9266 8.20023 21.7004 8.28042 21.4655 8.35775C20.95 8.50954 20.5719 8.59117 20.181 8.69141C19.4335 8.89045 18.8722 8.95633 18.8421 8.95346" fill="var(--fill-0, black)"/>
<path id="Vector_9" d="M21.2163 9.2232C21.2163 9.20602 21.2163 9.19886 21.2349 9.17595C21.3437 9.01556 21.8721 8.79217 22.2043 9.16306C22.2101 9.17022 22.233 9.20172 22.2359 9.21748C22.2473 9.23609 22.2015 9.68717 22.3304 10.197C22.4106 10.4733 22.5924 10.6581 22.7972 10.7239C23.0349 10.807 23.3643 10.7912 23.8039 10.7769C24.6674 10.7898 25.3418 10.6165 25.7142 10.3445C26.0607 10.1425 26.0865 9.84183 26.0693 9.64278C26.0836 9.64851 25.9647 8.92821 25.823 8.18501C25.6984 7.764 26.2354 8.09479 26.6235 8.84516C26.8798 9.24325 27.2378 10.2485 27.1662 10.2929C27.1605 10.2958 27.1891 10.406 27.1533 10.6638C27.1375 10.943 26.9457 10.9631 26.6235 11.1492C25.9318 11.5702 24.5485 11.533 23.7781 11.5473C23.3915 11.5459 22.9504 11.649 22.4263 11.4657C21.8607 11.2466 21.5857 10.8099 21.5012 10.4948C21.3323 9.77882 21.232 9.24325 21.2148 9.22177" fill="var(--fill-0, black)"/>
<path id="Vector_10" d="M16.6227 13.0338C16.6242 13.0252 16.6242 13.0224 16.6457 13.0138C16.7631 12.9751 17.7812 13.442 18.0648 13.7813C18.069 13.7871 18.0862 13.8186 18.0877 13.8329C18.1321 13.9389 17.0581 15.1561 16.3249 16.0654C15.6189 17.0262 14.6351 17.7265 14.638 17.7265C14.6394 17.7265 13.9378 18.1074 13.3879 18.1876C12.4642 18.305 12.8151 18.0157 13.2504 17.7852C13.2203 17.8267 14.2628 17.1021 14.237 17.0649C14.2328 17.0678 14.7669 16.3804 15.4055 15.5112C16.0872 14.6448 16.6843 13.0295 16.6213 13.0338" fill="var(--fill-0, black)"/>
<path id="Vector_11" d="M16.7688 20.0333C16.7402 20.102 16.6858 20.228 16.6686 20.2366C16.564 20.3025 16.2905 20.4013 15.9483 20.2839C15.9426 20.281 15.5774 20.2524 15.5488 19.6853C15.5187 19.1182 15.7249 17.7779 15.7263 17.7707C15.7235 17.7707 15.828 16.6967 15.9297 16.4089C16.0671 15.9206 16.2476 16.1096 16.3564 16.3974C16.3722 16.3674 16.7531 17.1192 16.7703 17.6447C16.7874 18.1702 16.8003 19.9645 16.7703 20.0333" fill="var(--fill-0, black)"/>
<path id="Vector_12" d="M18.0954 16.6131C18.0825 16.6188 18.0797 16.6217 18.0553 16.6131C17.9007 16.5687 17.6272 16.394 17.726 15.9715C17.7274 15.9644 17.7389 15.9329 17.7489 15.9243C17.7876 15.9243 18.8673 15.3057 20.073 14.8216C21.2959 14.3534 22.5303 14.1558 22.5246 14.1415C22.526 14.1343 23.3308 14.057 23.9007 14.0326C24.8659 13.961 24.5508 14.2145 23.9838 14.4508C24.0496 14.4665 22.6119 14.9061 22.6191 14.9076C22.6234 14.919 21.4148 15.1224 20.3193 15.5491C19.2238 15.993 18.1284 16.6131 18.0926 16.6145" fill="var(--fill-0, black)"/>
<path id="Vector_13" d="M19.6842 12.7647C19.6713 12.7432 19.3247 12.3293 19.3247 12.2935C19.3133 12.0544 19.7042 11.8883 20.2756 12.2134C20.287 12.2191 20.7224 12.3408 20.7395 12.3609C20.761 12.3881 20.7123 12.8936 21.0718 13.7757C21.4212 14.675 22.0527 15.5886 22.8088 16.558C23.5448 17.5117 24.3496 18.159 25.0369 18.6745C25.7314 19.2144 25.8575 18.8249 25.8474 18.5442C25.8861 18.1576 25.8646 17.8225 25.8474 17.6234C25.647 16.7456 25.435 16.5151 25.5911 16.5294C25.7014 16.5552 26.1181 16.9232 26.3186 17.5447C26.3644 17.7194 26.5692 18.3394 26.7052 18.812C26.7954 19.0454 26.9558 19.5137 26.9257 19.8616L26.9171 19.9848L26.9143 20.0134V20.0235C26.8914 20.0707 26.1797 20.4545 26.1797 20.4545C26.1167 20.4416 26.0622 20.4316 26.0164 20.423C25.9248 20.4044 25.8732 20.3943 25.8732 20.3943C25.8746 20.4072 25.173 20.2225 24.404 19.6139C23.6293 19.0096 22.8059 18.096 22.0326 17.0965C21.2608 16.1112 20.6422 15.0516 20.3128 14.201C19.9605 13.3418 19.7042 12.7919 19.6842 12.7632" fill="var(--fill-0, black)"/>
<path id="Vector_14" d="M18.0095 3.77673C18.0181 3.7753 18.021 3.7753 18.0338 3.79105C18.1269 3.88557 18.5608 4.18628 18.4649 4.54285C18.4634 4.55001 18.4548 4.57436 18.4491 4.57865C18.4262 4.5629 17.5054 4.69035 16.7508 4.89369C16.0133 5.04119 15.3159 5.10563 15.3202 5.11422C15.3217 5.11851 14.8577 5.08844 14.5326 5.04548C13.9713 4.99393 14.1259 4.78772 14.4567 4.62591C14.4166 4.603 15.2558 4.33951 15.2544 4.34667C15.2572 4.33951 15.9546 4.26791 16.6061 4.1376C17.2162 3.96576 17.9837 3.75812 18.0095 3.77673Z" fill="var(--fill-0, black)"/>
<path id="Vector_15" d="M17.8282 5.83797C17.8354 5.83654 17.8383 5.83654 17.8512 5.85229C17.9399 5.94537 17.9328 6.27616 17.7251 6.59693C17.7237 6.60409 17.7151 6.62843 17.7094 6.63129C17.6908 6.60409 15.0244 7.32295 14.9929 7.29001C14.9943 7.29144 14.5204 7.30433 14.1853 7.21984C13.6254 7.11531 13.843 6.92056 14.1452 6.79454C14.1137 6.79311 14.8798 6.53965 14.8784 6.52819C14.864 6.56829 17.7581 5.82078 17.8268 5.83654" fill="var(--fill-0, black)"/>
<path id="Vector_16" d="M25.6286 13.0956C25.6286 13.0956 25.6357 13.0999 25.63 13.1185C25.6128 13.2402 25.4811 13.4865 25.1947 13.6941C25.1889 13.6984 25.1703 13.7113 25.1646 13.7113C25.2534 13.6054 23.5164 12.9896 23.4648 13.0297C23.4663 13.0297 23.1756 12.8693 22.9894 12.6903C22.6686 12.4197 22.8777 12.3051 23.1212 12.285C23.0997 12.265 23.6911 12.2965 23.6954 12.2965C23.6768 12.2306 25.6243 12.9123 25.6271 13.0956" fill="var(--fill-0, black)"/>
<path id="Vector_17" d="M30.4093 21.9751C30.4093 22.2243 30.312 22.4605 30.1344 22.6367C29.9583 22.8142 29.7234 22.9102 29.4728 22.9102H25.3272L24.5496 23.6878H29.4728C29.9296 23.6878 30.3606 23.5102 30.6843 23.1866C31.0079 22.8629 31.1855 22.4319 31.1855 21.9751V17.0519L30.4079 17.8295V21.9751H30.4093Z" fill="var(--fill-0, #F7F5F2)"/>
<path id="Vector_18" d="M10.6208 22.9098C10.1053 22.9098 9.6857 22.4888 9.6857 21.9733V17.8276L8.9067 17.0501V21.9733C8.9067 22.9184 9.67568 23.6874 10.6208 23.6874H15.544L14.7664 22.9098H10.6222H10.6208Z" fill="var(--fill-0, #F7F5F2)"/>
<path id="Vector_19" d="M9.6857 3.18861C9.6857 2.93801 9.78308 2.70316 9.95921 2.52702C10.1368 2.34946 10.3702 2.25351 10.6208 2.25351H14.7664L15.544 1.47594H10.6208C10.1626 1.47594 9.73296 1.65494 9.40933 1.97857C9.0857 2.3022 8.9067 2.73323 8.9067 3.19004V8.11324L9.68427 7.33567V3.19147L9.6857 3.18861Z" fill="var(--fill-0, #F7F5F2)"/>
<path id="Vector_20" d="M29.4728 2.25182C29.9883 2.25182 30.4079 2.6714 30.4079 3.18835V7.33255L31.1855 8.11155V3.18835C31.1855 2.24323 30.4165 1.47425 29.4728 1.47425H24.5496L25.3272 2.25182H29.4728Z" fill="var(--fill-0, #F7F5F2)"/>
<path id="Vector_21" d="M9.72033 32.2236C9.72033 33.5712 9.24634 34.7182 8.29837 35.6676C7.35039 36.617 6.2048 37.091 4.86017 37.091C3.51553 37.091 2.36851 36.617 1.42196 35.669C0.473988 34.721 0 33.5726 0 32.2279C0 30.8833 0.473988 29.7348 1.42196 28.7869C2.36994 27.8389 3.51553 27.3649 4.86017 27.3649C6.30934 27.3649 7.5208 27.9076 8.49312 28.9916C8.63918 29.1534 8.71221 29.3324 8.71221 29.5258C8.71221 29.7449 8.62773 29.9396 8.45732 30.1086C8.28691 30.2776 8.09359 30.3635 7.8745 30.3635C7.65541 30.3635 7.4492 30.2661 7.27879 30.0714C6.63154 29.3525 5.82533 28.9931 4.8616 28.9931C3.9709 28.9931 3.21052 29.3095 2.57901 29.941C1.9475 30.5726 1.63103 31.3344 1.63103 32.2265C1.63103 33.1186 1.9475 33.879 2.57901 34.512C3.21052 35.1435 3.9709 35.46 4.8616 35.46C5.60623 35.46 6.26924 35.2337 6.84777 34.7783C7.42772 34.3244 7.81006 33.7444 7.99479 33.037H6.30647C6.05588 33.037 5.85683 32.954 5.71077 32.7878C5.5647 32.6217 5.49167 32.4327 5.49167 32.2222C5.49167 32.0117 5.5647 31.8227 5.71077 31.6566C5.85683 31.4905 6.05588 31.4074 6.30647 31.4074H8.90696C9.12463 31.4074 9.31508 31.489 9.47689 31.6508C9.63871 31.8127 9.72033 32.0031 9.72033 32.2222" fill="var(--fill-0, #F7F5F2)"/>
<path id="Vector_22" d="M11.6678 33.565C11.6678 34.092 11.8497 34.5388 12.2148 34.9083C12.5785 35.2777 13.0182 35.461 13.5279 35.461H14.2697C14.5203 35.461 14.7151 35.5426 14.854 35.7045C14.9914 35.8663 15.0602 36.0567 15.0602 36.2758C15.0602 36.4949 14.9914 36.6868 14.854 36.8486C14.7151 37.0104 14.5217 37.0906 14.2697 37.0906H13.5279C12.5714 37.0906 11.7551 36.7469 11.0792 36.0582C10.4033 35.3694 10.0654 34.5374 10.0654 33.565V30.8901C10.0654 29.9178 10.4033 29.0858 11.0792 28.397C11.7551 27.7082 12.5714 27.3631 13.5279 27.3631H14.2697C14.5217 27.3631 14.7151 27.4433 14.854 27.6065C14.9914 27.7698 15.0602 27.9602 15.0602 28.1793C15.0602 28.3984 14.9914 28.5889 14.854 28.7521C14.7151 28.9154 14.5217 28.9955 14.2697 28.9955H13.5279C13.0182 28.9955 12.5785 29.1788 12.2148 29.5483C11.8497 29.9178 11.6678 30.3645 11.6678 30.8915V31.4085H14.1308C14.3814 31.4085 14.5776 31.4901 14.7194 31.6533C14.8611 31.8151 14.9327 32.0056 14.9327 32.2247C14.9327 32.4438 14.8611 32.6342 14.7194 32.7975C14.5776 32.9593 14.3814 33.0409 14.1308 33.0409H11.6678V33.5679V33.565Z" fill="var(--fill-0, #F7F5F2)"/>
<path id="Vector_23" d="M22.4834 36.2773C22.4834 36.5294 22.4047 36.727 22.2472 36.873C22.0896 37.0191 21.9006 37.0921 21.6815 37.0921C21.4624 37.0921 21.2806 37.0234 21.1359 36.8859C20.9655 36.7327 20.8796 36.5294 20.8796 36.2788V30.9288C20.8796 30.3446 20.6892 29.8706 20.3082 29.5054C19.9359 29.1646 19.4648 28.9956 18.8977 28.9956C18.3708 28.9956 17.9254 29.1847 17.5603 29.5613C17.1951 29.9379 17.0132 30.3947 17.0132 30.9288V36.2788C17.0132 36.5308 16.9345 36.7284 16.777 36.8745C16.6194 37.0205 16.4304 37.0936 16.2128 37.0936C15.9951 37.0936 15.8118 37.0248 15.6657 36.8874C15.4953 36.7341 15.4108 36.5308 15.4108 36.2802V30.9303C15.4108 29.9407 15.7574 29.1002 16.4505 28.4071C17.1421 27.714 17.9755 27.3674 18.9479 27.3674C19.9202 27.3674 20.7522 27.714 21.4452 28.4071C22.1369 29.1002 22.4834 29.9407 22.4834 30.9303V36.2802V36.2773Z" fill="var(--fill-0, #F7F5F2)"/>
<path id="Vector_24" d="M31.2767 32.2279C31.2767 33.5726 30.807 34.7211 29.8676 35.669C28.9282 36.617 27.7898 37.0924 26.4523 37.0924H25.7836C25.5244 37.0924 25.3239 37.0108 25.1821 36.849C25.0404 36.6872 24.9688 36.4967 24.9688 36.2762C24.9688 36.0557 25.0404 35.8666 25.1821 35.7048C25.3239 35.5416 25.5244 35.4614 25.7836 35.4614H26.4523C27.3444 35.4614 28.102 35.1449 28.7278 34.5134C29.3521 33.8819 29.6643 33.1201 29.6643 32.2294C29.6643 31.3387 29.3521 30.5754 28.7278 29.9439C28.1034 29.311 27.3444 28.9959 26.4523 28.9959H24.542V36.2776C24.542 36.5282 24.4619 36.7273 24.3 36.8733C24.1382 37.0194 23.9478 37.0924 23.7301 37.0924C23.5125 37.0924 23.3306 37.0237 23.1845 36.8862C23.0141 36.733 22.9296 36.5297 22.9296 36.2776V28.1811C22.9296 27.962 23.0113 27.7716 23.1731 27.6083C23.3349 27.4465 23.521 27.3649 23.733 27.3649H26.4538C27.7912 27.3649 28.9282 27.8389 29.869 28.7883C30.8099 29.7363 31.2781 30.8833 31.2781 32.2294" fill="var(--fill-0, #F7F5F2)"/>
<path id="Vector_25" d="M36.6134 30.9376C36.6134 30.4106 36.4287 29.9566 36.0606 29.5757C35.6912 29.1948 35.2487 29.0044 34.7289 29.0044H34.7303C34.2034 29.0044 33.7523 29.1948 33.38 29.5757C33.0076 29.9552 32.8201 30.4077 32.8201 30.9347V32.0989H36.6105V30.9376H36.6134ZM36.6134 33.7285H32.8215V36.2832C32.8215 36.5424 32.7427 36.7457 32.5852 36.8918C32.4263 37.0379 32.2387 37.1109 32.0196 37.1109C31.8005 37.1109 31.6129 37.0379 31.4554 36.8918C31.2979 36.7457 31.2191 36.5438 31.2191 36.2832V30.9347C31.2191 29.9538 31.5613 29.1146 32.2458 28.4187C32.9303 27.7213 33.758 27.3733 34.7303 27.3733H34.7404C35.7041 27.3733 36.5246 27.7242 37.2005 28.4258C37.8764 29.1275 38.2158 29.9638 38.2158 30.9361V36.2846C38.2158 36.5438 38.137 36.7457 37.9795 36.8932C37.8206 37.0393 37.633 37.1123 37.4139 37.1123C37.1948 37.1123 37.0129 37.0436 36.8669 36.9061C36.6979 36.7515 36.612 36.5453 36.612 36.2861V33.73L36.6134 33.7285Z" fill="var(--fill-0, #F7F5F2)"/>
<path id="Vector_26" d="M40.049 36.3694C40.049 36.5956 39.9745 36.7703 39.8242 36.892C39.6738 37.0138 39.502 37.0739 39.3072 37.0739C39.1125 37.0739 38.9306 37.0138 38.7845 36.892C38.6399 36.7703 38.5654 36.5956 38.5654 36.3694V28.0595C38.5654 27.8404 38.6385 27.6685 38.7845 27.5425C38.9306 27.4179 39.1039 27.3549 39.3072 27.3549C39.5106 27.3549 39.6738 27.4179 39.8242 27.5425C39.9731 27.6685 40.049 27.8404 40.049 28.0595V36.3694Z" fill="var(--fill-0, #F7F5F2)"/>
<path id="Vector_27" d="M41.6257 27.455C41.6257 27.5152 41.6057 27.5682 41.567 27.6126C41.5269 27.6569 41.4782 27.6842 41.4195 27.6899L41.61 27.9176C41.6214 27.9319 41.6257 27.9462 41.6257 27.9605C41.6257 27.9791 41.6186 27.9949 41.6057 28.0092C41.5928 28.0235 41.5756 28.0293 41.557 28.0293C41.5384 28.0293 41.5226 28.0207 41.5083 28.0049L41.2262 27.667C41.2133 27.6527 41.2076 27.6383 41.2076 27.6226C41.2076 27.6025 41.2162 27.5853 41.2334 27.571C41.2505 27.5567 41.2692 27.551 41.2878 27.5553H41.3952C41.4209 27.5553 41.4453 27.5453 41.4639 27.5252C41.4825 27.5066 41.494 27.4822 41.494 27.4536C41.494 27.425 41.484 27.4021 41.4639 27.382C41.4453 27.362 41.4209 27.3519 41.3952 27.3519H41.1775V27.9605C41.1775 27.982 41.1703 27.9992 41.1575 28.0107C41.1446 28.0221 41.1288 28.0278 41.1088 28.0278C41.0902 28.0278 41.0758 28.0221 41.0629 28.0107C41.0486 27.9992 41.0429 27.982 41.0429 27.9605V27.2846C41.0429 27.2674 41.0501 27.2503 41.0629 27.2374C41.0758 27.2245 41.0916 27.2173 41.1088 27.2173H41.3937C41.4582 27.2173 41.5112 27.2402 41.557 27.2875C41.6014 27.3333 41.6243 27.3892 41.6243 27.455" fill="var(--fill-0, #F7F5F2)"/>
<path id="Vector_28" d="M41.3341 26.958C40.9675 26.958 40.6683 27.2559 40.6683 27.6239C40.6683 27.9919 40.9661 28.2898 41.3341 28.2898C41.7021 28.2898 42 27.9919 42 27.6239C42 27.2559 41.7007 26.958 41.3341 26.958ZM41.8983 27.6239C41.8983 27.9347 41.6449 28.1881 41.3341 28.1881C41.0234 28.1881 40.7685 27.9347 40.7685 27.6239C40.7685 27.3132 41.022 27.0597 41.3341 27.0597C41.6463 27.0597 41.8983 27.3132 41.8983 27.6239Z" fill="var(--fill-0, #F7F5F2)"/>
<path id="Vector_29" d="M2.22589 40.0422C2.13424 40.2026 2.00536 40.33 1.83925 40.4274C1.67457 40.5248 1.49557 40.5735 1.30369 40.5735C1.0087 40.5735 0.758098 40.4703 0.55046 40.2627C0.344253 40.0551 0.239718 39.8045 0.239718 39.5095C0.239718 39.2145 0.342821 38.9668 0.55046 38.7605C0.758098 38.5543 1.0087 38.4498 1.30369 38.4498C1.49557 38.4498 1.676 38.4985 1.84355 38.5959C2.00393 38.6889 2.12994 38.8164 2.22159 38.9782C2.24164 39.0111 2.25166 39.0426 2.25166 39.0756C2.25166 39.1286 2.23161 39.1715 2.19152 39.2088C2.15142 39.2446 2.1056 39.2632 2.05691 39.2632C1.98961 39.2632 1.93662 39.2302 1.89939 39.1658C1.76765 38.9395 1.5686 38.8264 1.30369 38.8264C1.11323 38.8264 0.951416 38.8937 0.816809 39.0269C0.682202 39.1601 0.614899 39.3219 0.614899 39.5123C0.614899 39.7028 0.682202 39.8646 0.816809 39.9992C0.951416 40.1338 1.11323 40.2011 1.30369 40.2011C1.5686 40.2011 1.76622 40.0851 1.89939 39.856C1.93662 39.7916 1.98961 39.7586 2.05691 39.7586C2.1056 39.7586 2.15142 39.7758 2.19152 39.8116C2.23161 39.8474 2.25166 39.8904 2.25166 39.9405C2.25166 39.9749 2.24307 40.0092 2.22445 40.0422" fill="var(--fill-0, #F7F5F2)"/>
<path id="Vector_30" d="M4.79319 39.5252C4.79319 39.8145 4.69009 40.0608 4.48388 40.2656C4.27767 40.4703 4.02994 40.5735 3.74068 40.5735C3.45142 40.5735 3.20368 40.4718 2.99748 40.267C2.79127 40.0622 2.68817 39.8145 2.68817 39.5209V38.6374C2.68817 38.5772 2.70678 38.5314 2.74401 38.4985C2.78125 38.467 2.82564 38.4498 2.87576 38.4498C2.92588 38.4498 2.96884 38.467 3.0075 38.4985C3.04473 38.5314 3.06335 38.5772 3.06335 38.6374V39.5209C3.06335 39.7085 3.12922 39.8675 3.26096 40.0007C3.39414 40.1324 3.55309 40.1983 3.74068 40.1983C3.92827 40.1983 4.08722 40.1324 4.21896 40.0007C4.3507 39.8689 4.41801 39.71 4.41801 39.5224V38.636C4.41801 38.5787 4.43662 38.5329 4.47529 38.4999C4.51252 38.467 4.55691 38.4498 4.6056 38.4498C4.65429 38.4498 4.70011 38.467 4.73734 38.4999C4.77457 38.5343 4.79319 38.5787 4.79319 38.6374V39.5252Z" fill="var(--fill-0, #F7F5F2)"/>
<path id="Vector_31" d="M6.39884 40.5791C6.10815 40.5791 5.86185 40.476 5.65707 40.2698C5.4523 40.0622 5.3492 39.8159 5.3492 39.5252V37.7681C5.3492 37.708 5.36781 37.6622 5.40648 37.6292C5.44371 37.5963 5.48667 37.5805 5.53822 37.5805C5.58977 37.5805 5.63273 37.5963 5.66996 37.6292C5.70719 37.6622 5.72581 37.708 5.72581 37.7681V39.5252C5.72581 39.7128 5.79168 39.8717 5.92486 40.0049C6.0566 40.1381 6.21555 40.204 6.40028 40.204C6.46042 40.204 6.50768 40.2226 6.53918 40.2584C6.57211 40.2956 6.58643 40.34 6.58643 40.3915C6.58643 40.4431 6.57068 40.4861 6.53775 40.5233C6.50624 40.5605 6.46042 40.5791 6.39884 40.5791Z" fill="var(--fill-0, #F7F5F2)"/>
<path id="Vector_32" d="M7.31968 40.3874C7.31968 40.4476 7.30106 40.4934 7.26383 40.5263C7.2266 40.5593 7.18221 40.575 7.13209 40.575C7.08197 40.575 7.03758 40.5593 7.00034 40.5263C6.96311 40.4934 6.94306 40.4476 6.94306 40.3874V38.6447C6.94306 38.5845 6.96168 38.5387 7.00034 38.5058C7.03758 38.4728 7.08197 38.4571 7.13209 38.4571C7.18221 38.4571 7.22517 38.4728 7.26383 38.5058C7.30106 38.5387 7.31968 38.5845 7.31968 38.6447V40.3874ZM7.31968 37.7654C7.31968 37.8284 7.30106 37.8771 7.26383 37.9115C7.2266 37.9459 7.18221 37.9645 7.13209 37.9645C7.08197 37.9645 7.03758 37.9473 7.00034 37.9115C6.96311 37.8757 6.94306 37.8284 6.94306 37.7654C6.94306 37.7024 6.96168 37.6595 7.00034 37.6265C7.03758 37.5936 7.08197 37.5778 7.13209 37.5778C7.18221 37.5778 7.22517 37.5936 7.26383 37.6265C7.30106 37.6595 7.31968 37.7053 7.31968 37.7654Z" fill="var(--fill-0, #F7F5F2)"/>
<path id="Vector_33" d="M9.96069 40.383C9.96069 40.4432 9.94207 40.489 9.90484 40.5219C9.86618 40.5549 9.82322 40.5706 9.7731 40.5706C9.72298 40.5706 9.68002 40.5549 9.64136 40.5219C9.60413 40.489 9.58551 40.4432 9.58551 40.383V39.4995C9.58551 39.3119 9.51964 39.153 9.38789 39.0212C9.25472 38.888 9.09577 38.8222 8.90818 38.8222C8.72059 38.8222 8.56164 38.888 8.42989 39.0198C8.29815 39.1515 8.23085 39.3105 8.23085 39.4966V40.383C8.23085 40.4403 8.21223 40.4862 8.175 40.5191C8.13777 40.5535 8.09338 40.5692 8.04326 40.5692C7.99314 40.5692 7.94875 40.552 7.91152 40.5191C7.87428 40.4862 7.85567 40.4403 7.85567 40.383V39.4952C7.85567 39.2059 7.95877 38.9596 8.16498 38.7549C8.37118 38.5501 8.61892 38.447 8.90818 38.447C9.19744 38.447 9.44518 38.5487 9.65138 38.7549C9.85759 38.9596 9.96069 39.2074 9.96069 39.4995V40.383Z" fill="var(--fill-0, #F7F5F2)"/>
<path id="Vector_34" d="M12.1735 40.509L11.4632 40.5735C11.1683 40.5735 10.9177 40.4703 10.71 40.2627C10.5024 40.0551 10.3993 39.8045 10.3993 39.5095C10.3993 39.2145 10.5024 38.9668 10.71 38.7605C10.9177 38.5543 11.1683 38.4498 11.4632 38.4498C11.7582 38.4498 12.006 38.5543 12.2136 38.7605C12.4227 38.9682 12.5272 39.2174 12.5272 39.5095V40.3859C12.5272 40.446 12.5086 40.4918 12.4714 40.5248C12.4341 40.5577 12.3897 40.5735 12.3396 40.5735C12.2866 40.5735 12.2422 40.5577 12.2064 40.5248C12.1993 40.519 12.1921 40.5119 12.1878 40.5047L12.1735 40.5076V40.509ZM12.152 40.1338V39.5109C12.152 39.3219 12.0847 39.1601 11.9501 39.0269C11.8155 38.8937 11.6523 38.8264 11.4632 38.8264C11.2742 38.8264 11.111 38.8937 10.9764 39.0269C10.8418 39.1601 10.7745 39.3219 10.7745 39.5109C10.7745 39.6999 10.8418 39.8632 10.9764 39.9978C11.111 40.1324 11.2742 40.1997 11.4632 40.1997L12.142 40.1367H12.152V40.1338Z" fill="var(--fill-0, #F7F5F2)"/>
<path id="Vector_35" d="M15.0318 38.9784C15.0518 39.0099 15.0618 39.0429 15.0618 39.0758C15.0618 39.1288 15.0418 39.1732 15.0031 39.209C14.963 39.2462 14.9172 39.2634 14.8642 39.2634C14.7955 39.2634 14.7454 39.2305 14.711 39.166C14.5764 38.9369 14.3759 38.8209 14.111 38.8209C13.9177 38.8209 13.7559 38.8882 13.6213 39.0228C13.4867 39.1574 13.4194 39.3207 13.4194 39.5126V40.3804C13.4194 40.4405 13.4007 40.4863 13.3621 40.5193C13.3263 40.5522 13.2819 40.568 13.2318 40.568C13.1816 40.568 13.1373 40.5522 13.1 40.5193C13.0628 40.4863 13.0442 40.4405 13.0442 40.3804V39.5111C13.0442 39.2161 13.1487 38.9641 13.3564 38.7565C13.5654 38.5488 13.8175 38.4443 14.111 38.4443C14.3043 38.4443 14.4833 38.493 14.6509 38.5904C14.8113 38.6849 14.9373 38.8138 15.0332 38.977" fill="var(--fill-0, #F7F5F2)"/>
<path id="Vector_36" d="M15.7667 40.3874C15.7667 40.4476 15.7481 40.4934 15.7109 40.5263C15.6736 40.5593 15.6292 40.575 15.5806 40.575C15.5319 40.575 15.486 40.5593 15.4488 40.5263C15.4116 40.4934 15.393 40.4476 15.393 40.3874V38.6447C15.393 38.5845 15.4116 38.5387 15.4488 38.5058C15.486 38.4728 15.5304 38.4571 15.5806 38.4571C15.6307 38.4571 15.6736 38.4728 15.7109 38.5058C15.7481 38.5387 15.7667 38.5845 15.7667 38.6447V40.3874ZM15.7667 37.7654C15.7667 37.8284 15.7481 37.8771 15.7109 37.9115C15.6736 37.9459 15.6292 37.9645 15.5806 37.9645C15.5319 37.9645 15.486 37.9473 15.4488 37.9115C15.4116 37.8757 15.393 37.8284 15.393 37.7654C15.393 37.7024 15.4116 37.6595 15.4488 37.6265C15.486 37.5936 15.5304 37.5778 15.5806 37.5778C15.6307 37.5778 15.6736 37.5936 15.7109 37.6265C15.7481 37.6595 15.7667 37.7053 15.7667 37.7654Z" fill="var(--fill-0, #F7F5F2)"/>
<path id="Vector_37" d="M21.8668 37.7629C21.8668 37.8259 21.8496 37.8731 21.8124 37.9075C21.7766 37.9404 21.7322 37.9576 21.6792 37.9576C21.6291 37.9576 21.5847 37.9404 21.5475 37.9075C21.5102 37.8731 21.4916 37.8259 21.4916 37.7629C21.4916 37.6999 21.5102 37.6569 21.5475 37.624C21.5847 37.591 21.6291 37.5753 21.6792 37.5753C21.7322 37.5753 21.7766 37.591 21.8124 37.624C21.8496 37.6569 21.8668 37.7027 21.8668 37.7629ZM21.8668 40.6025C21.8668 40.8359 21.7852 41.0335 21.6219 41.1982C21.4587 41.3629 21.2596 41.446 21.0248 41.446C20.9646 41.446 20.9188 41.4273 20.8859 41.3901C20.853 41.3529 20.8372 41.3085 20.8372 41.2584C20.8372 41.2083 20.853 41.1639 20.8859 41.1266C20.9188 41.0894 20.9646 41.0708 21.0248 41.0708C21.1551 41.0708 21.2654 41.025 21.3556 40.9333C21.4472 40.8431 21.493 40.7314 21.493 40.6025V38.6478C21.493 38.5906 21.5117 38.5447 21.5489 38.5118C21.5861 38.4774 21.6305 38.4603 21.6806 38.4603C21.7336 38.4603 21.778 38.4774 21.8138 38.5118C21.851 38.5447 21.8682 38.5906 21.8682 38.6478V40.604L21.8668 40.6025Z" fill="var(--fill-0, #F7F5F2)"/>
<path id="Vector_38" d="M26.0456 40.1993C26.236 40.1993 26.3979 40.132 26.5296 39.9988C26.6642 39.8656 26.7301 39.7038 26.7301 39.5133C26.7301 39.3229 26.6642 39.1625 26.531 39.0265C26.3979 38.8919 26.236 38.8246 26.0456 38.8246C25.8551 38.8246 25.6948 38.8919 25.5601 39.0265C25.4255 39.1611 25.3582 39.3243 25.3582 39.5133V40.1978H26.0456V40.1993ZM25.3582 40.5745V41.2589C25.3582 41.3191 25.3396 41.3649 25.3024 41.3978C25.2637 41.4308 25.2208 41.4465 25.1706 41.4465C25.1205 41.4465 25.0761 41.4308 25.0389 41.3978C25.0017 41.3649 24.9831 41.3191 24.9831 41.2589V39.5148C24.9831 39.2198 25.0876 38.9692 25.2938 38.7615C25.5014 38.5553 25.752 38.4508 26.0456 38.4508C26.3391 38.4508 26.5869 38.5553 26.796 38.7615C27.0036 38.9692 27.1067 39.2198 27.1067 39.5148C27.1067 39.8098 27.0036 40.0575 26.796 40.2637C26.5883 40.4713 26.3391 40.5745 26.047 40.5745H25.3582Z" fill="var(--fill-0, #F7F5F2)"/>
<path id="Vector_39" d="M29.3164 39.5105C29.3164 39.3215 29.2491 39.1596 29.1145 39.025C28.9799 38.8919 28.8167 38.8246 28.6276 38.8246C28.4386 38.8246 28.2754 38.8904 28.1408 39.025C28.0047 39.1582 27.9389 39.32 27.9389 39.5105C27.9389 39.7009 28.0062 39.8627 28.1408 39.9974C28.2754 40.132 28.4372 40.1993 28.6276 40.1993C28.8181 40.1993 28.9799 40.132 29.1145 39.9974C29.2491 39.8627 29.3164 39.7009 29.3164 39.5105ZM29.6916 39.5105C29.6916 39.8055 29.5871 40.0561 29.3809 40.2637C29.1732 40.4713 28.9226 40.5745 28.6276 40.5745C28.3327 40.5745 28.0821 40.4713 27.8744 40.2637C27.6668 40.0561 27.5637 39.8055 27.5637 39.5105C27.5637 39.2155 27.6668 38.9678 27.8744 38.7615C28.0821 38.5553 28.3327 38.4508 28.6276 38.4508C28.9226 38.4508 29.1732 38.5553 29.3809 38.7615C29.5885 38.9692 29.6916 39.2184 29.6916 39.5105Z" fill="var(--fill-0, #F7F5F2)"/>
<path id="Vector_40" d="M32.3027 40.383C32.3027 40.4432 32.2841 40.489 32.2454 40.5219C32.2068 40.5549 32.1638 40.5706 32.1137 40.5706C32.0636 40.5706 32.0206 40.5549 31.9834 40.5219C31.9462 40.489 31.9261 40.4432 31.9261 40.383V39.4995C31.9261 39.3119 31.8602 39.153 31.7285 39.0212C31.5953 38.888 31.4364 38.8222 31.2488 38.8222C31.0612 38.8222 30.9022 38.888 30.7705 39.0198C30.6388 39.1515 30.5729 39.3105 30.5729 39.4966V40.383C30.5729 40.4403 30.5543 40.4862 30.517 40.5191C30.4798 40.5535 30.4354 40.5692 30.3853 40.5692C30.3352 40.5692 30.2922 40.552 30.2535 40.5191C30.2163 40.4862 30.1977 40.4403 30.1977 40.383V39.4952C30.1977 39.2059 30.3008 38.9596 30.5084 38.7549C30.7146 38.5501 30.9609 38.447 31.2502 38.447C31.5395 38.447 31.7872 38.5487 31.9934 38.7549C32.1996 38.9596 32.3042 39.2074 32.3042 39.4995V40.383H32.3027Z" fill="var(--fill-0, #F7F5F2)"/>
<path id="Vector_41" d="M33.1778 39.3229H34.5038C34.4608 39.1783 34.3792 39.0594 34.2561 38.9663C34.1343 38.8732 33.9969 38.826 33.8408 38.826C33.6518 38.826 33.4885 38.8933 33.3539 39.025C33.2666 39.1124 33.2079 39.2098 33.1778 39.3186V39.3215V39.3229ZM33.1778 39.7009C33.2079 39.8112 33.268 39.91 33.3539 39.9974C33.49 40.132 33.6518 40.1993 33.8408 40.1993H34.4809C34.5382 40.1993 34.584 40.2179 34.6184 40.2565C34.6527 40.2938 34.6685 40.3382 34.6685 40.3869C34.6685 40.4355 34.6527 40.4799 34.6184 40.5172C34.584 40.5558 34.5382 40.573 34.4809 40.573H33.8408C33.5458 40.573 33.2952 40.4699 33.0876 40.2623C32.8814 40.0546 32.7768 39.804 32.7768 39.5105C32.7768 39.2169 32.8814 38.9692 33.0876 38.7615C33.2952 38.5539 33.5458 38.4508 33.8408 38.4508C34.1358 38.4508 34.3821 38.5539 34.5897 38.7615C34.7974 38.9692 34.9005 39.2184 34.9005 39.5105C34.9005 39.5606 34.8818 39.605 34.8446 39.6422C34.8074 39.6795 34.7616 39.6981 34.7129 39.6981H33.1763V39.7009H33.1778Z" fill="var(--fill-0, #F7F5F2)"/>
<path id="Vector_42" d="M37.4113 39.9536C37.4113 40.1269 37.3511 40.273 37.228 40.3961C37.1077 40.5179 36.9587 40.5794 36.784 40.5794L35.4766 40.5751C35.4165 40.5751 35.3707 40.5565 35.3377 40.5193C35.3048 40.4821 35.289 40.4391 35.289 40.389C35.289 40.3389 35.3048 40.2959 35.3377 40.2587C35.3707 40.2214 35.4151 40.2042 35.4766 40.2042H36.784C36.8542 40.2042 36.9129 40.1799 36.9616 40.1284C37.0103 40.0797 37.0346 40.0195 37.0346 39.9522C37.0346 39.8849 37.0103 39.8233 36.9616 39.7746C36.9129 39.726 36.8542 39.7016 36.784 39.7016H35.9148C35.7401 39.7016 35.5912 39.64 35.4709 39.5183C35.3506 39.3952 35.2905 39.2491 35.2905 39.0758C35.2905 38.9026 35.3506 38.7565 35.4709 38.6333C35.5926 38.5116 35.7401 38.4501 35.9148 38.4501H37.1105C37.1692 38.4501 37.2165 38.4687 37.2494 38.5073C37.2824 38.5446 37.2981 38.5875 37.2981 38.6391C37.2981 38.6906 37.2824 38.7336 37.2494 38.7708C37.2165 38.8081 37.1707 38.8267 37.1105 38.8267H35.9163C35.8461 38.8267 35.7859 38.851 35.7387 38.8997C35.69 38.9484 35.6657 39.0071 35.6657 39.0773C35.6657 39.1474 35.69 39.2061 35.7387 39.2548C35.7874 39.3035 35.8475 39.3279 35.9163 39.3279H36.7855C36.9602 39.3279 37.1077 39.3894 37.2294 39.5126C37.3511 39.6343 37.4113 39.7818 37.4113 39.9551" fill="var(--fill-0, #F7F5F2)"/>
<path id="Vector_43" d="M11.9904 37.947L11.5408 38.2577C11.505 38.2835 11.4692 38.2964 11.4319 38.2964C11.3818 38.2964 11.3374 38.2763 11.3002 38.2362C11.263 38.1961 11.2444 38.1503 11.2444 38.1002C11.2444 38.04 11.273 37.9899 11.326 37.9498L11.7728 37.6405C11.81 37.6147 11.8472 37.6019 11.8845 37.6019C11.9346 37.6019 11.9775 37.6219 12.0148 37.662C12.052 37.7021 12.0706 37.7465 12.0706 37.7966C12.0706 37.8567 12.0434 37.9069 11.9876 37.947" fill="var(--fill-0, #F7F5F2)"/>
<path id="Vector_44" d="M18.0005 40.509L17.2903 40.5735C16.9953 40.5735 16.7447 40.4703 16.5385 40.2627C16.3308 40.0551 16.2263 39.8045 16.2263 39.5095C16.2263 39.2145 16.3308 38.9668 16.5385 38.7605C16.7447 38.5543 16.9967 38.4498 17.2917 38.4498C17.5867 38.4498 17.8344 38.5543 18.0435 38.7605C18.2525 38.9682 18.3557 39.2174 18.3557 39.5095V40.3859C18.3557 40.446 18.337 40.4918 18.2998 40.5248C18.2626 40.5577 18.2182 40.5735 18.1695 40.5735C18.1165 40.5735 18.0721 40.5577 18.0363 40.5248C18.0292 40.519 18.022 40.5119 18.0177 40.5047L18.0034 40.5076L18.0005 40.509ZM17.979 40.1338V39.5109C17.979 39.3219 17.9117 39.1601 17.7771 39.0269C17.6425 38.8937 17.4807 38.8264 17.2903 38.8264C17.0998 38.8264 16.938 38.8937 16.8034 39.0269C16.6688 39.1601 16.6015 39.3219 16.6015 39.5109C16.6015 39.6999 16.6688 39.8632 16.8034 39.9978C16.938 40.1324 17.0998 40.1997 17.2903 40.1997L17.969 40.1367H17.979V40.1338Z" fill="var(--fill-0, #F7F5F2)"/>
<path id="Vector_45" d="M24.0707 40.509L23.3605 40.5735C23.0655 40.5735 22.8149 40.4703 22.6073 40.2627C22.3996 40.0551 22.2965 39.8045 22.2965 39.5095C22.2965 39.2145 22.3996 38.9668 22.6073 38.7605C22.8149 38.5543 23.0655 38.4498 23.3605 38.4498C23.6555 38.4498 23.9032 38.5543 24.1108 38.7605C24.3199 38.9682 24.4244 39.2174 24.4244 39.5095V40.3859C24.4244 40.446 24.4058 40.4918 24.3686 40.5248C24.3314 40.5577 24.287 40.5735 24.2369 40.5735C24.1867 40.5735 24.1395 40.5577 24.1037 40.5248C24.0965 40.519 24.0908 40.5119 24.0851 40.5047L24.0707 40.5076V40.509ZM24.0493 40.1338V39.5109C24.0493 39.3219 23.982 39.1601 23.8474 39.0269C23.7127 38.8937 23.5509 38.8264 23.3605 38.8264C23.17 38.8264 23.0082 38.8937 22.8736 39.0269C22.739 39.1601 22.6717 39.3219 22.6717 39.5109C22.6717 39.6999 22.739 39.8632 22.8736 39.9978C23.0082 40.1324 23.17 40.1997 23.3605 40.1997L24.0392 40.1367H24.0493V40.1338Z" fill="var(--fill-0, #F7F5F2)"/>
<path id="Vector_46" d="M39.5123 40.5093L38.802 40.5737C38.507 40.5737 38.2564 40.4706 38.0488 40.263C37.8426 40.0553 37.7395 39.8047 37.7395 39.5097C37.7395 39.2147 37.8426 38.967 38.0502 38.7608C38.2579 38.5546 38.5085 38.4501 38.802 38.4501C39.0956 38.4501 39.3448 38.5546 39.5538 38.7608C39.7629 38.9684 39.866 39.2176 39.866 39.5097V40.3861C39.866 40.4463 39.8474 40.4921 39.8101 40.525C39.7729 40.558 39.7285 40.5737 39.6798 40.5737C39.6269 40.5737 39.5825 40.558 39.5467 40.525C39.5395 40.5193 39.5338 40.5121 39.528 40.505L39.5137 40.5078L39.5123 40.5093ZM39.4908 40.1341V39.5112C39.4908 39.3221 39.4235 39.1603 39.2889 39.0271C39.1543 38.894 38.9925 38.8267 38.802 38.8267C38.6116 38.8267 38.4512 38.894 38.3152 39.0271C38.1805 39.1603 38.1132 39.3221 38.1132 39.5112C38.1132 39.7002 38.1805 39.8634 38.3152 39.998C38.4512 40.1326 38.613 40.1999 38.802 40.1999L39.4822 40.1369H39.4908V40.1341Z" fill="var(--fill-0, #F7F5F2)"/>
</g>
</svg>
