<svg preserveAspectRatio="none" width="100%" height="100%" overflow="visible" style="display: block;" viewBox="0 0 23 32.2301" fill="none" xmlns="http://www.w3.org/2000/svg">
<g id="china-box">
<path id="Vector" d="M19.7437 5.87375C20.2146 6.29903 20.3422 6.82261 20.1226 7.33838C19.948 7.74845 19.5377 7.99042 19.0204 7.94897C18.8987 7.93923 18.786 7.81788 18.6692 7.74787C18.779 7.67168 18.8814 7.54552 19 7.52769C19.6015 7.43734 19.8849 7.17245 19.7426 6.70067C19.6764 6.48135 19.4595 6.22655 19.2508 6.14839C18.8418 5.99524 18.4137 6.06074 18.0877 6.41024C17.4557 7.08775 17.699 8.47412 18.5748 8.87229C19.0214 9.0753 19.5439 9.152 20.04 9.19497C20.6689 9.24943 21.306 9.20377 21.9389 9.22257C22.0267 9.22517 22.1108 9.34954 22.1966 9.41754C22.1164 9.49393 22.0332 9.63944 21.9562 9.63627C20.92 9.59349 19.8622 9.64324 18.8548 9.44304C17.5912 9.19191 16.9918 7.96 17.3869 6.76742C17.7161 5.77375 18.6947 5.39082 19.7437 5.87375Z" fill="var(--fill-0, #F7F5F2)"/>
<path id="Vector_2" d="M9.56354 13.9173C6.5625 13.917 3.60375 13.9167 0.644992 13.9156C0.54669 13.9156 0.43778 13.9324 0.353301 13.896C0.279951 13.8645 0.189619 13.7693 0.188587 13.7011C0.187503 13.6294 0.270166 13.5169 0.340486 13.4927C0.455291 13.4532 0.589769 13.4652 0.715952 13.4651C2.85756 13.4639 4.99916 13.465 7.14076 13.4628C7.31718 13.4627 7.49359 13.4433 7.69464 13.4315C7.65489 13.0169 7.49091 12.8525 7.09844 12.8549C4.971 12.868 2.84345 12.8611 0.715934 12.8611C0.617313 12.8611 0.505819 12.8895 0.423438 12.8528C0.32787 12.8102 0.257861 12.7103 0.176758 12.6352C0.262896 12.5657 0.347133 12.4388 0.435482 12.4359C0.998453 12.4172 1.56296 12.4096 2.12567 12.4316C2.4649 12.4448 2.5866 12.3211 2.63451 11.9844C2.92343 9.95375 4.78795 8.57658 6.80672 8.90248C7.06269 8.94381 7.22127 8.90498 7.39787 8.72022C8.16957 7.91285 9.10806 7.49948 10.2388 7.59894C10.5032 7.62219 10.6773 7.54238 10.8523 7.33475C11.3655 6.72588 12.0809 6.51839 12.8375 6.42885C13.2148 6.3842 13.598 6.38649 13.9744 6.33588C14.6928 6.23926 15.064 5.75455 14.9655 5.0756C14.8625 4.36644 13.9813 3.9953 13.4017 4.42373C13.1297 4.62471 13.0607 4.90251 13.1937 5.21132C13.3178 5.4993 13.535 5.53726 13.8227 5.43968C13.9244 5.40518 14.0648 5.48485 14.1876 5.51239C14.1049 5.62146 14.045 5.7824 13.9356 5.83045C13.4998 6.02179 13.0079 5.84646 12.8023 5.45995C12.5436 4.9736 12.7126 4.35285 13.1867 4.04805C13.8717 3.60762 14.8967 3.83849 15.2607 4.51523C15.6637 5.26424 15.3616 6.28766 14.5875 6.59651C14.1934 6.75373 13.7436 6.80775 13.3146 6.83242C12.6847 6.86864 12.0796 6.96451 11.5467 7.31291C11.4159 7.39849 11.3521 7.58679 11.2576 7.72786C11.4934 7.80209 11.7446 7.96711 11.9617 7.93043C12.3399 7.86654 12.6869 7.61606 13.0651 7.55418C14.0922 7.38608 14.9238 7.72878 15.477 8.64329C15.6298 8.89584 15.7928 9.14661 15.9085 9.41647C16.4795 10.7486 17.5553 11.2819 18.9278 11.3245C19.8428 11.3529 20.7592 11.3373 21.675 11.3414C21.7736 11.3419 21.8882 11.3118 21.9667 11.352C22.0607 11.4002 22.1238 11.5087 22.2003 11.5911C22.1235 11.6569 22.0458 11.7812 21.9701 11.78C20.51 11.7569 19.0368 11.9377 17.5984 11.5437C16.699 11.2973 16.0954 10.6947 15.6649 9.89183C15.4723 9.53274 15.2929 9.16295 15.0642 8.82756C14.4886 7.98345 13.6444 7.72039 12.6993 8.08099C12.5651 8.13218 12.4693 8.28397 12.3557 8.3892C12.5312 8.52536 12.7474 8.80958 12.8758 8.77432C13.9324 8.48415 14.4616 9.05246 14.8565 9.89387C14.9222 10.0338 15.01 10.1633 15.0746 10.3037C15.6973 11.6558 16.831 12.2461 18.2406 12.3405C19.3913 12.4176 20.5483 12.4006 21.7025 12.4254C21.8151 12.4279 21.9333 12.4111 22.0382 12.4408C22.1014 12.4586 22.1894 12.5529 22.1852 12.6063C22.1789 12.6855 22.1168 12.7969 22.049 12.8259C21.952 12.8674 21.8285 12.852 21.7163 12.8521C19.3775 12.8528 17.0386 12.8543 14.6998 12.8493C14.4476 12.8488 14.1944 12.8187 13.9437 12.7871C13.1987 12.693 12.6712 12.294 12.3501 11.6202C12.1203 11.1382 11.9164 10.6428 11.6668 10.1715C11.0572 9.02049 9.86338 9.06001 9.03238 9.40183C8.8342 9.48334 8.5761 9.60265 8.73222 9.89394C8.86541 10.1424 9.03992 10.279 9.37947 10.1096C10.1875 9.7066 10.6985 9.90959 11.0854 10.7312C11.2471 11.0746 11.3995 11.4228 11.5419 11.7746C12.0056 12.9197 12.8963 13.4331 14.0858 13.448C15.9453 13.4712 17.8052 13.4609 19.665 13.4641C20.3695 13.4653 21.0743 13.4521 21.7781 13.4751C21.9208 13.4797 22.0592 13.6175 22.1995 13.6938C22.0594 13.7679 21.9195 13.9058 21.779 13.9065C19.0034 13.9199 16.2278 13.9176 13.4521 13.918C12.17 13.9182 10.8879 13.9175 9.56354 13.9173ZM3.68642 10.5781C3.48041 11.0648 3.25842 11.5457 3.08267 12.0431C3.04983 12.136 3.17638 12.3738 3.27472 12.4059C3.47165 12.4702 3.70912 12.4572 3.73995 12.1465C3.74682 12.0772 3.77195 12.0097 3.78963 11.9416C4.15413 10.5385 5.53921 9.74592 6.93395 10.1356C7.84511 10.3902 8.35629 11.0493 8.70927 11.8696C9.3847 13.4394 10.3779 13.6412 12.133 13.3809C12.103 13.3024 12.0847 13.2223 12.0447 13.1551C11.818 12.775 11.4388 12.845 11.0961 12.8648C10.2885 12.9115 9.76023 12.5522 9.43439 11.8262C9.27965 11.4815 9.09822 11.1423 8.88393 10.8316C7.5469 8.89309 5.28313 8.76586 3.68642 10.5781ZM9.19413 8.8705C10.5123 8.50879 11.4897 8.91617 12.1263 10.1172C12.3429 10.5257 12.5125 10.959 12.7039 11.3808C12.9196 11.8562 13.2586 12.2478 13.7818 12.2945C14.6019 12.3677 15.4307 12.3424 16.2559 12.3557C16.2659 12.3559 16.2766 12.316 16.2867 12.2945C15.8861 11.862 15.3723 11.7857 14.8222 11.8374C14.1226 11.9032 13.6943 11.5899 13.4133 10.9518C13.1712 10.4019 12.8735 9.86885 12.54 9.36857C11.8639 8.35455 10.8924 7.91047 9.6773 8.04612C8.88989 8.13402 8.17963 8.38938 7.69119 9.06965C8.12284 9.49588 8.12961 9.48984 8.57216 9.18107C8.74294 9.06191 8.94232 8.98372 9.19413 8.8705ZM8.25658 11.9258C8.0932 11.6646 7.95863 11.3788 7.76084 11.147C7.24714 10.5449 6.57462 10.368 5.81759 10.5445C5.04011 10.7258 4.47435 11.1768 4.23465 11.9578C4.19532 12.0859 4.26936 12.3611 4.35538 12.3926C4.54623 12.4625 4.80928 12.5123 4.90652 12.1985C5.11279 11.5326 5.58589 11.2376 6.2649 11.2163C6.97075 11.1943 7.37825 11.5835 7.65636 12.1784C7.79871 12.4829 7.9469 12.787 8.12201 13.0733C8.39183 13.5143 8.68917 13.5877 9.11964 13.4113C8.84497 12.9415 8.56459 12.4619 8.25658 11.9258ZM11.1729 12.0582C10.979 11.6224 10.805 11.1762 10.5859 10.7535C10.3617 10.3212 9.95781 10.2163 9.56296 10.4783C9.47845 10.5344 9.4099 10.7439 9.44844 10.8335C9.60893 11.2066 9.80865 11.5633 10.0025 11.9215C10.2253 12.3332 10.5983 12.4431 11.0368 12.427C11.2898 12.4178 11.2713 12.2902 11.1729 12.0582ZM14.7188 10.54C14.5313 10.21 14.3484 9.87716 14.1547 9.55072C13.9724 9.24331 13.6952 9.08493 13.3414 9.154C13.2616 9.16959 13.1358 9.38897 13.1651 9.45529C13.4035 9.99432 13.6607 10.5262 13.9386 11.0462C14.1515 11.4445 14.6271 11.5331 15.0752 11.2707C14.9662 11.048 14.8558 10.8226 14.7188 10.54ZM6.70249 12.428C6.85969 12.4101 7.0169 12.3922 7.19064 12.3725C7.11809 11.9455 6.88263 11.7422 6.53619 11.6864C6.1541 11.6249 5.76519 11.6257 5.49539 11.9724C5.42764 12.0595 5.38715 12.2085 5.41146 12.3107C5.42523 12.3686 5.59476 12.4166 5.69637 12.4213C6.00513 12.4357 6.31496 12.4269 6.70249 12.428Z" fill="var(--fill-0, #F7F5F2)"/>
<path id="Vector_3" d="M16.0828 17.7617C16.083 17.0993 16.0866 16.4792 16.0816 15.8592C16.079 15.5313 16.21 15.3791 16.5588 15.3696C17.6487 15.3395 17.6487 15.3298 17.6488 16.4273C17.649 18.8229 17.6491 21.2186 17.6489 23.6143C17.6488 24.3118 17.606 24.3579 16.9102 24.3536C15.9077 24.3475 15.9829 24.4916 15.7157 23.4318C15.42 22.2595 15.1044 21.0922 14.7958 19.9232C14.7717 19.8318 14.7346 19.7439 14.6426 19.6613C14.6426 20.9038 14.6426 22.1462 14.6425 23.3886C14.6424 24.3772 14.6424 24.365 13.6363 24.3608C13.2338 24.3592 13.0926 24.2008 13.0946 23.8046C13.1054 21.6204 13.0993 19.436 13.0991 17.2517C13.0991 16.7867 13.1094 16.3214 13.0971 15.8567C13.0882 15.5212 13.2166 15.3641 13.5661 15.3718C15.146 15.4065 14.8033 15.1367 15.1859 16.6017C15.4417 17.5813 15.6687 18.5684 15.9099 19.5519C15.9387 19.6693 15.9754 19.7848 16.0826 19.8907C16.0826 19.1951 16.0826 18.4995 16.0828 17.7617Z" fill="var(--fill-0, #F7F5F2)"/>
<path id="Vector_4" d="M8.87611 24.354C7.65191 24.3662 7.78912 24.3724 7.78652 23.3022C7.78441 22.4314 7.78609 21.5606 7.78609 20.6637C7.47976 20.6637 7.2042 20.6637 6.86388 20.6637C6.86388 20.8058 6.8639 20.9541 6.86388 21.1024C6.86374 22.0322 6.85785 22.962 6.8666 23.8916C6.86962 24.2129 6.73578 24.3617 6.4152 24.3544C6.16175 24.3487 5.90805 24.3553 5.65448 24.3537C5.12398 24.3501 5.06548 24.2967 5.06488 23.7767C5.06276 21.9453 5.06416 20.114 5.0641 18.2826C5.06407 17.4797 5.0729 16.6765 5.0594 15.8738C5.0534 15.5171 5.18255 15.349 5.5529 15.3715C5.83363 15.3886 6.11669 15.3857 6.39785 15.3728C6.74608 15.357 6.87195 15.5167 6.86763 15.8553C6.85614 16.7568 6.86382 17.6584 6.86387 18.56C6.86388 18.6983 6.86387 18.8366 6.86387 19.0013C7.16935 19.0013 7.445 19.0013 7.78614 19.0013C7.78614 18.8774 7.78611 18.7435 7.78614 18.6096C7.78633 17.694 7.79308 16.7782 7.78329 15.8626C7.77972 15.528 7.90386 15.361 8.25233 15.3738C8.54777 15.3846 8.84429 15.3849 9.13969 15.3733C9.46633 15.3606 9.59605 15.5147 9.5957 15.8301C9.59264 18.5207 9.59241 21.2114 9.59474 23.902C9.59517 24.4046 9.24212 24.3542 8.87611 24.354Z" fill="var(--fill-0, #F7F5F2)"/>
<path id="Vector_5" d="M1.81707 17.5206C1.81725 19.1386 1.81645 20.716 1.81885 22.2935C1.81919 22.5194 1.79927 22.7579 2.13984 22.7746C2.43056 22.789 2.59487 22.7094 2.58773 22.3814C2.57608 21.8465 2.59552 21.3109 2.58333 20.776C2.57478 20.4006 2.73575 20.2532 3.11086 20.2418C4.28857 20.2059 4.2935 20.1965 4.28613 21.3505C4.28228 21.9553 4.29219 22.5635 4.23138 23.1637C4.1554 23.9135 3.70182 24.3334 2.95564 24.3788C2.451 24.4096 1.94108 24.4063 1.43647 24.3732C0.559605 24.3157 0.037473 23.825 0.0239449 22.9473C-0.0077408 20.8915 -0.00730085 18.8347 0.0212437 16.7788C0.0332906 15.9112 0.557107 15.4008 1.42452 15.3313C1.92831 15.2909 2.43952 15.294 2.94425 15.3264C3.68566 15.374 4.15815 15.8014 4.22847 16.5417C4.29347 17.2261 4.27161 17.9189 4.28204 18.6081C4.28594 18.8659 4.13632 18.9899 3.8889 19.0097C3.86088 19.012 3.83255 19.0101 3.80444 19.0116C2.58525 19.077 2.58527 19.077 2.58557 17.8658C2.5856 17.7391 2.58568 17.6123 2.58507 17.4855C2.58377 17.2145 2.61707 16.9321 2.20381 16.9284C1.7873 16.9247 1.82301 17.2107 1.81707 17.5206Z" fill="var(--fill-0, #F7F5F2)"/>
<path id="Vector_6" d="M22.1426 17.5253C22.4208 19.5839 22.6898 21.6058 22.9698 23.6263C23.0566 24.2531 22.9862 24.3602 22.3579 24.3528C21.2155 24.3394 21.2438 24.5422 21.1338 23.2715C21.1303 23.2313 21.1126 23.1924 21.0936 23.1244C20.695 23.1244 20.2932 23.1244 19.8491 23.1244C19.8119 23.401 19.8138 23.704 19.7186 23.9726C19.6637 24.1278 19.4564 24.3307 19.3107 24.3365C17.8575 24.3947 18.0563 24.349 18.2068 23.2074C18.5285 20.7668 18.8742 18.3293 19.1992 15.889C19.2462 15.536 19.3814 15.356 19.762 15.3695C20.2966 15.3883 20.8326 15.3843 21.3674 15.3707C21.7177 15.3618 21.8762 15.5099 21.9131 15.8579C21.971 16.4031 22.0612 16.9449 22.1426 17.5253ZM20.5858 17.7762C20.568 17.6126 20.5503 17.449 20.5325 17.2854C20.5004 17.2832 20.4683 17.281 20.4361 17.2788C20.2862 18.7192 20.1363 20.1597 19.9841 21.6221C20.3257 21.6221 20.6391 21.6221 20.9651 21.6221C20.8407 20.3439 20.7194 19.097 20.5858 17.7762Z" fill="var(--fill-0, #F7F5F2)"/>
<path id="Vector_7" d="M4.34653 30.2758C4.34646 28.9096 4.34532 27.5858 4.34688 26.262C4.34747 25.7543 4.38989 25.7092 4.90377 25.7129C5.98181 25.7208 5.78066 25.5858 6.04851 26.6135C6.21287 27.2441 6.36817 27.8771 6.60152 28.4953C6.60152 27.7245 6.61375 26.9534 6.59596 26.183C6.58799 25.8376 6.70903 25.7078 7.05874 25.7057C7.90693 25.7005 7.9072 25.6879 7.90726 26.513C7.90739 28.2312 7.90733 29.9494 7.90688 31.6675C7.90673 32.199 7.88664 32.2227 7.36754 32.2202C6.34964 32.2153 6.54938 32.3281 6.30122 31.3877C6.10573 30.6469 5.93051 29.9007 5.66875 29.1681C5.66875 30.0064 5.65356 30.8451 5.67542 31.6828C5.68571 32.077 5.57262 32.2414 5.15026 32.2296C4.34666 32.2071 4.34614 32.2278 4.34649 31.4165C4.34665 31.0504 4.34652 30.6842 4.34653 30.2758Z" fill="var(--fill-0, #F7F5F2)"/>
<path id="Vector_8" d="M13.6116 31.0141C13.61 29.6648 13.6055 28.3551 13.6111 27.0454C13.6152 26.0856 13.9824 25.7231 14.9437 25.713C15.2957 25.7093 15.6482 25.7045 15.9999 25.7169C16.7802 25.7445 17.1693 26.1275 17.1753 26.9045C17.1858 28.2846 17.1859 29.6648 17.1737 31.0448C17.1668 31.8192 16.7648 32.2052 15.9901 32.2192C15.6099 32.2261 15.2295 32.224 14.8493 32.2197C14.0315 32.2107 13.672 31.8698 13.6116 31.0141ZM15.7341 27.3792C15.7395 27.1193 15.7718 26.8635 15.3662 26.8788C14.9625 26.8941 15.064 27.1733 15.0628 27.3911C15.0566 28.476 15.0632 29.5609 15.0578 30.6458C15.0567 30.8802 15.0687 31.0563 15.3811 31.0614C15.7112 31.0668 15.7384 30.8858 15.7368 30.63C15.7304 29.5733 15.7342 28.5166 15.7341 27.3792Z" fill="var(--fill-0, #F7F5F2)"/>
<path id="Vector_9" d="M9.60743 32.0699C9.58146 30.0526 9.57506 28.0688 9.56543 26.0849C9.56411 25.8132 9.69986 25.7086 9.9581 25.7108C10.6337 25.7168 11.3101 25.6967 11.9846 25.7247C12.6496 25.7523 12.9214 26.0389 12.9597 26.6975C12.9793 27.0343 12.9688 27.3728 12.9776 27.7103C12.9897 28.1706 12.8343 28.5104 12.1857 28.6323C12.9435 28.7635 13.0706 29.1954 13.0488 29.7383C13.029 30.2302 13.0562 30.7242 13.03 31.2155C12.9999 31.7788 12.7057 32.1505 12.1619 32.1878C11.3776 32.2416 10.5874 32.2103 9.7997 32.207C9.74165 32.2068 9.68388 32.1395 9.60743 32.0699ZM11.0848 31.1343C11.7125 31.1915 11.7251 31.1802 11.7267 30.5587C11.7273 30.335 11.729 30.1112 11.7271 29.8874C11.7223 29.3282 11.6139 29.2547 11.0294 29.4197C11.0294 29.9741 11.0294 30.5314 11.0848 31.1343ZM11.6691 26.994C11.5273 26.6472 11.2661 26.8148 11.0491 26.8206C11.0491 27.3574 11.0491 27.8672 11.0491 28.3721C11.6506 28.4214 11.6755 28.4007 11.677 27.8677C11.6778 27.6012 11.6756 27.3348 11.6691 26.994Z" fill="var(--fill-0, #F7F5F2)"/>
<path id="Vector_10" d="M20.8222 27.1647C20.366 28.178 20.3693 29.1608 20.7389 30.1702C20.9167 30.6556 21.0108 31.1723 21.1335 31.6771C21.2395 32.1131 21.1595 32.2238 20.7225 32.219C19.5714 32.2062 19.801 32.3795 19.6106 31.3062C19.5249 30.8233 19.4423 30.3398 19.3011 29.8528C19.1879 30.4787 19.0518 31.1017 18.9703 31.7318C18.9224 32.1023 18.7747 32.234 18.4013 32.2283C17.5033 32.2146 17.5088 32.2311 17.7396 31.3737C17.9622 30.5472 18.3384 29.7171 18.3391 28.8884C18.3398 28.0744 17.9562 27.2592 17.7351 26.4462C17.545 25.747 17.5703 25.711 18.3139 25.7117C19.0162 25.7124 19.0154 25.7125 19.1369 26.393C19.2221 26.8702 19.3099 27.347 19.4562 27.828C19.5617 27.2792 19.6905 26.7335 19.7648 26.1805C19.8159 25.7993 19.9985 25.7 20.3568 25.7049C21.2569 25.7173 21.266 25.7156 21.0029 26.5675C20.9449 26.7554 20.8877 26.9436 20.8222 27.1647Z" fill="var(--fill-0, #F7F5F2)"/>
<path id="Vector_11" d="M12.2003 17.927C12.231 18.0998 12.2575 18.2388 12.2577 18.3778C12.2606 20.1665 12.2607 21.9552 12.2592 23.7439C12.2587 24.2936 12.1984 24.3515 11.6536 24.3548C11.4142 24.3562 11.1743 24.3451 10.9354 24.3569C10.5697 24.375 10.4297 24.1947 10.4303 23.847C10.4339 21.9879 10.4345 20.1287 10.4302 18.2696C10.4293 17.9006 10.5743 17.7097 10.9623 17.7546C11.3694 17.8017 11.7767 17.8471 12.2003 17.927Z" fill="var(--fill-0, #F7F5F2)"/>
<path id="Vector_12" d="M18.5786 0.983693C18.9691 1.86525 18.8403 2.66874 18.3076 3.40331C17.9693 3.86988 17.5705 4.29218 17.213 4.74546C16.2567 5.9578 16.1247 7.27833 16.7627 8.66735C17.2065 9.63373 17.9978 10.1605 19.0511 10.2246C19.9501 10.2793 20.8538 10.2511 21.7547 10.2825C21.9044 10.2877 22.1669 10.3965 22.1766 10.4806C22.2112 10.7784 21.9465 10.7332 21.7583 10.7305C20.8712 10.7179 19.9827 10.7259 19.0977 10.6746C16.8291 10.5431 15.8549 8.56387 15.926 6.95261C15.9713 5.92813 16.3222 5.0327 17.0089 4.26862C17.282 3.96477 17.5664 3.66821 17.8099 3.34166C17.9923 3.09702 18.1625 2.8249 18.2592 2.53837C18.4981 1.8307 18.3086 1.16939 17.8073 0.777832C17.2891 0.373168 16.4374 0.329229 15.8507 0.676888C15.3896 0.950032 15.1511 1.45701 15.238 2.0131C15.3049 2.44105 15.5344 2.75715 15.9745 2.83072C16.1802 2.8651 16.4041 2.77939 16.6209 2.76225C16.7622 2.75107 16.9056 2.76533 17.048 2.7682C16.9747 2.90386 16.9355 3.09021 16.8222 3.16663C16.2572 3.54774 15.319 3.25168 14.9627 2.60258C14.574 1.89437 14.7969 0.876246 15.4386 0.387766C16.2148 -0.203089 17.9529 -0.203156 18.5786 0.983693Z" fill="var(--fill-0, #F7F5F2)"/>
<path id="Vector_13" d="M3.71398 31.7631C3.72751 32.1019 3.59784 32.2304 3.28471 32.2248C2.11452 32.2037 2.2615 32.3607 2.25795 31.2258C2.25275 29.5629 2.26719 27.8999 2.24888 26.2373C2.24438 25.8284 2.37968 25.6935 2.78545 25.7044C3.76457 25.7306 3.71643 25.6024 3.71485 26.6512C3.7123 28.3423 3.71421 30.0333 3.71398 31.7631Z" fill="var(--fill-0, #F7F5F2)"/>
<path id="Vector_14" d="M10.5773 17.0973C10.5088 16.5777 10.462 16.0745 10.4554 15.5707C10.4547 15.513 10.6755 15.4087 10.7983 15.4011C11.1631 15.3784 11.5303 15.3956 11.8966 15.3927C12.1574 15.3906 12.291 15.5194 12.2955 15.7756C12.3011 16.0994 12.3008 16.4234 12.2978 16.7472C12.2954 16.9975 12.1724 17.1551 11.9143 17.1531C11.4798 17.1497 11.0454 17.1277 10.5773 17.0973Z" fill="var(--fill-0, #F7F5F2)"/>
</g>
</svg>
