<svg preserveAspectRatio="none" width="100%" height="100%" overflow="visible" style="display: block;" viewBox="0 0 68 16" fill="none" xmlns="http://www.w3.org/2000/svg">
<g id="Group">
<path id="Vector" fill-rule="evenodd" clip-rule="evenodd" d="M0 16H63.8993C66.1537 16 68 14.2286 68 12.0617V0H4.10072C1.84448 0 0 1.77142 0 3.93827V16Z" fill="var(--fill-0, #F7F5F2)"/>
<path id="Vector_2" fill-rule="evenodd" clip-rule="evenodd" d="M9.61367 5.18005H7.82322C6.91402 5.18005 6.17064 5.89398 6.17064 6.76717C6.17064 7.64035 6.91402 8.35428 7.82322 8.35428H8.32999C8.75664 8.35428 9.10877 8.69246 9.10877 9.10221C9.10877 9.51196 8.75664 9.85014 8.32999 9.85014H6.53953V10.6893H8.32999C9.23919 10.6893 9.98257 9.9754 9.98257 9.10221C9.98257 8.22903 9.23919 7.5151 8.32999 7.5151H7.82322C7.39657 7.5151 7.04444 7.17692 7.04444 6.76717C7.04444 6.35741 7.39657 6.01923 7.82322 6.01923H9.61367V5.18005ZM56.6126 5.18005C58.0789 5.18005 59.2918 6.21606 59.5023 7.56699H61.8275V8.40617H59.5023C59.2918 9.7571 58.0789 10.7931 56.6126 10.7931C54.9991 10.7931 53.6894 9.53702 53.6894 7.98568C53.6894 6.43435 54.9973 5.18005 56.6126 5.18005ZM58.6155 7.56699H57.5535V8.40617H58.6155C58.4161 9.29188 57.5945 9.95571 56.6126 9.95571C55.4817 9.95571 54.5632 9.07537 54.5632 7.98747C54.5632 6.89957 55.4798 6.01923 56.6126 6.01923C57.5945 6.01923 58.4142 6.68307 58.6155 7.56878V7.56699ZM50.496 6.01745V5.17826H46.222V6.01745H47.923V10.7913H48.7968V6.01745H50.4979H50.496ZM42.0691 6.01745V5.17826H38.3038V6.01745H38.982V10.7913H42.0691V9.95213H39.8558V8.40259H42.0691V7.56341H39.8558V6.01387H42.0691V6.01745ZM34.816 10.7913V9.95213H32.6026V5.17826H31.0507V6.01745H31.7288V10.7913H34.816ZM24.5931 5.17826C26.2066 5.17826 27.5145 6.43435 27.5145 7.9839C27.5145 9.53344 26.2066 10.7913 24.5931 10.7913C22.9797 10.7913 21.6699 9.53523 21.6699 7.9839C21.6699 6.43256 22.9778 5.17826 24.5931 5.17826ZM24.5931 6.01745C25.724 6.01745 26.6425 6.89779 26.6425 7.98568C26.6425 9.07358 25.7259 9.95392 24.5931 9.95392C23.4603 9.95392 22.5437 9.07358 22.5437 7.98568C22.5437 6.89779 23.4603 6.01745 24.5931 6.01745ZM13.7461 5.17826H16.8649C17.7741 5.17826 18.5175 5.95661 18.5175 6.90852C18.5175 8.69604 16.6861 8.81413 15.3223 8.56363V10.7913H14.4485V6.0926H13.7461V5.17826ZM15.3223 7.64572C16.1234 7.8658 17.6437 8.01252 17.6437 6.90852C17.6437 6.46119 17.2916 6.0926 16.8649 6.0926H15.3223V7.64572Z" fill="var(--fill-0, black)"/>
<path id="Vector_3" fill-rule="evenodd" clip-rule="evenodd" d="M58.6155 7.56878C58.4161 6.68307 57.5945 6.01924 56.6126 6.01924C55.4817 6.01924 54.5632 6.89958 54.5632 7.98748C54.5632 9.07538 55.4798 9.95572 56.6126 9.95572C57.5945 9.95572 58.4142 9.29188 58.6155 8.40617H57.5535V7.56699H58.6155V7.56878Z" fill="var(--fill-0, #F7F5F2)"/>
</g>
</svg>
