<?xml version="1.0" encoding="UTF-8"?>
<svg width="400" height="480" version="1.1" xmlns="http://www.w3.org/2000/svg">
 <path d="m200 105.77c-104.93 0-190 85.066-190 190 0 57.071 25.163 108.27 65.002 143.09v-23.375c31.514 32.894 75.847 53.41 125 53.41 48.989 0 93.191-20.38 124.68-53.083v23.324c40.021-34.833 65.317-86.148 65.317-143.37 0-104.93-85.066-190-190-190" fill="#0e8d3a"/>
 <g fill="#fff">
  <path d="m271.34 429.24c0.0355 0.51539 0.0866 1.4418-0.19327 2.5481-0.41987 1.5417-1.4484 3.2168-3.6144 4.252-3.5211 1.6839-7.451 0.39766-9.5792-4.0498-2.1638-4.523-0.40654-8.3485 2.9857-9.9702 4.1409-1.9838 6.6446 0.72866 7.391 1.5084l-2.1726 1.8505c-0.1555-0.2266-0.53761-0.73977-1.1196-1.0841-0.48207-0.27991-1.5773-0.67978-2.9524-0.0244-2.166 1.0397-2.8147 3.5478-1.4551 6.3913 1.4529 3.0346 3.8566 3.9432 5.9448 2.9413 1.244-0.59093 1.7084-1.5551 1.9216-2.5125 0.15329-0.79531 0.0866-1.3662 0.0378-1.7106zm-23.932 9.8733c0.51983 0.38876 2.1371 1.6039 5.0651 0.54427 0.49096-0.18217 0.98636-0.40432 1.4062-0.77976 0.85084-0.77753 0.77086-1.5462 0.60203-2.0194-0.32212-0.88194-1.0441-0.97747-1.5395-0.99524-0.35544-2e-3 -0.40431-9e-3 -1.7683 0.15106l-1.7972 0.25326c-0.96191 0.10219-1.4306 0.16217-1.926 0.1444-0.722-0.0311-2.7369-0.25326-3.5678-2.5503-0.95747-2.6325 0.65091-5.1273 3.9099-6.3113 2.9857-1.0819 5.1295-0.19327 6.5957 0.78642l-1.5417 2.3615c-0.72199-0.51762-2.1238-1.5662-4.3431-0.75976-1.3951 0.5065-2.3837 1.575-1.9994 2.6347 0.42653 1.1796 1.8083 0.94637 3.1501 0.72644l1.5484-0.20661c2.0083-0.28213 4.9207-0.47318 5.9937 2.4948 1.1552 3.1812-1.3285 5.5249-4.2742 6.5935-0.76642 0.27769-1.6572 0.51317-2.5881 0.58203-1.0241 0.0622-2.8946-0.0155-4.5497-1.3262zm-11.202-3.0008c0.98635-0.25326 2.0038 0.34433 2.2593 1.3307 0.25548 0.98857-0.34433 2.006-1.3329 2.2593-0.98636 0.25326-2.0038-0.34433-2.2548-1.3329-0.25548-0.98413 0.34433-2.0016 1.3285-2.2571m-16.486-5.1853 2.9591-0.42431-1.8572 2.8013-1.8416 0.26436zm0.93304 6.0336c-2.5037 0.35989-3.8877 2.6281-3.45 5.6693 0.47541 3.2879 2.5792 4.9918 4.9984 4.643 1.8194-0.26214 3.9654-1.9238 3.5233-5.4472-0.34878-2.8635-2.1971-5.2806-5.0717-4.8651m1.8283 12.849c-1.8416 0.26436-3.6122-9e-3 -5.3472-1.5106-1.6906-1.4662-2.4592-3.3012-2.7258-5.1384-0.64424-4.4697 1.9105-8.133 5.9048-8.7084 3.6211-0.51984 7.3999 1.6795 8.0974 6.6668 0.57981 4.1831-1.4396 8.0419-5.9292 8.6906m-9.7858-3.2681c-0.17106 0.48651-0.49096 1.3574-1.1885 2.2637-0.99746 1.2529-2.6058 2.3815-5.0095 2.4726-3.9054 0.15106-7.0045-2.5947-7.1933-7.5265-0.19327-5.0118 2.9413-7.8309 6.7023-7.9775 4.5941-0.17773 5.8159 3.3101 6.1892 4.3231l-2.728 0.83751c-0.0511-0.27103-0.19994-0.89083-0.59981-1.444-0.32879-0.44653-1.1774-1.2507-2.7014-1.1885-2.4037 0.0911-3.9987 2.1371-3.8766 5.2917 0.13106 3.3656 1.9772 5.1562 4.2964 5.0673 1.3773-0.0555 2.1882-0.75754 2.7636-1.5506 0.45541-0.66646 0.62202-1.2152 0.71311-1.5551zm-22.869-8.1166-0.19328 3.4611 7.0889 0.39765-0.1333 2.3748-7.0889-0.39765-0.21993 3.941 8.2774 0.46429-0.13996 2.4814-10.985-0.61536 0.82196-14.72 10.468 0.58871-0.13996 2.457zm-13.235-1.6588-0.75976 5.0584 1.9638 0.29324c0.57537 0.0889 1.073 0.16439 1.5662 0.10885 1.755-0.15773 2.0904-1.6884 2.1682-2.2038 0.15995-1.0774-0.22882-1.7061-0.44431-1.9683-0.59314-0.67979-1.5417-0.8464-2.4281-0.9797zm-2.3948-2.7458 4.914 0.73977c0.80419 0.11996 1.6506 0.24659 2.4614 0.59981 1.3684 0.6087 3.1768 2.1904 2.7347 5.1406-0.29102 1.9438-1.5129 3.8899-4.2009 4.0787-0.83307 0.0644-1.5973-0.0489-2.4837-0.18438l-2.1282-0.31768-0.73977 4.934-2.7458-0.41099zm-8.282 7.8562-0.34433-7.0778-3.6122 6.1047zm0.13552 2.5059-5.3739-1.3218-1.5217 2.5947-2.8613-0.70423 8.3551-13.134 3.0413 0.75088 1.364 15.522-2.8613-0.70422zm-7.6956-14.226-4.9718 13.893-2.617-0.93526 2.2615-6.318-5.9648-2.1327-2.2593 6.3158-2.5992-0.92637 4.974-13.898 2.597 0.93082-1.8816 5.2539 5.9626 2.1327 1.8816-5.2539zm-17.405 4.9662c-0.37544 0.35322-1.0663 0.97303-2.1038 1.4484-1.464 0.6398-3.4145 0.89083-5.5805-0.14662-3.5211-1.6884-4.9784-5.5582-2.8502-10.004 2.1638-4.5186 6.2447-5.5516 9.6347-3.9276 4.1454 1.9838 3.6011 5.6338 3.4611 6.7023l-2.8036-0.53095c0.08-0.26214 0.23771-0.88416 0.14218-1.5528-0.0844-0.55094-0.45985-1.6528-1.835-2.3126-2.1638-1.0352-4.5275 0.0311-5.887 2.8746-1.4529 3.0346-0.65534 5.476 1.4373 6.4757 1.2396 0.59759 2.2837 0.35544 3.1612-0.0822 0.71533-0.37766 1.1196-0.7842 1.3574-1.0419z"/>
  <path d="m49.549 197.23c1.8861 1.7461 2.1838 3.3412 1.213 5.0006-0.26658 0.45986-0.72866 1.0286-1.2485 1.5328l-1.1063 1.0641c-0.53317 0.52872-0.92193 0.91527-1.1596 1.324-0.40876 0.69978-0.38876 1.1641 0.14218 1.8594l-0.9708 1.6617c-1.755-1.2507-2.3237-3.099-1.213-5.0029 0.19771-0.33545 0.45319-0.60647 1.2507-1.3684l1.1196-1.0886c0.58648-0.56204 1.0064-1.0597 1.1752-1.3485 0.42209-0.722 0.31324-1.3662-0.19993-1.9261zm283.38 178.46-4.8918 7.9464-3.4034-2.0971 7.2133-11.719 20.06 12.349-2.3237 3.7722zm23.658-10.702c1.6306-3.6855-0.26214-7.4754-4.7407-9.457-4.8451-2.1438-8.9261-0.74421-10.503 2.8213-1.1863 2.6814-0.75976 6.9867 4.3786 9.3704 4.1654 1.9505 8.9905 1.4995 10.865-2.7347m-18.907-8.404c1.1996-2.7103 3.0679-4.8718 6.5668-5.947 3.4123-1.0419 6.5379-0.53095 9.2504 0.66868 6.5801 2.9124 9.3659 9.4637 6.7623 15.344-2.3593 5.3316-8.5306 8.5751-15.859 5.2961-6.1403-2.7547-9.6458-8.7483-6.7201-15.362m28.595-20.554-5.6582-1.5217-0.39099 1.4462c-0.31768 1.1885-0.55316 2.0571-0.65757 2.5814-0.28658 1.0597-0.53983 2.1304-0.33101 3.0146 0.20883 1.0219 0.91305 1.8661 1.9416 2.1438 0.86862 0.23326 1.8572 0.0178 2.6058-0.71311 0.75754-0.76198 0.91082-1.2041 1.775-4.2809zm-8.8416-2.3792-6.7223-1.8083-1.1241 4.1809c-0.67534 2.5081-0.85751 3.1834-0.37988 4.483 0.26214 0.69311 1.0108 1.3751 2.1038 1.6706 0.51317 0.13773 1.1508 0.2066 1.8172 0.04 2.1082-0.53539 2.7502-2.9146 3.139-4.3608zm13.449-0.89749-2.1815 8.1019c-0.84418 3.0146-1.0908 3.8099-1.7106 4.8185-1.2863 2.0993-3.7721 3.259-6.2491 2.5925-0.99524-0.26659-2.1327-0.91749-2.828-1.795-0.74199-0.95748-0.98191-1.9883-0.8775-3.2701-1.1241 2.3859-3.7832 4.1876-7.2866 3.2456-2.6058-0.702-4.5674-2.6436-4.7963-5.636-0.12441-1.5862 0.14662-2.7191 0.83751-5.2917l2.3881-8.8772zm-0.97281-20.472-5.4916-0.64202-1.3151 11.25-3.7721-0.43986 1.3151-11.25-6.2536-0.73088-1.5328 13.136-3.9388-0.45985 2.0371-17.434 23.357 2.7258-1.9394 16.608-3.9032-0.45541zm0.80108-9.2744-0.10219-6.4891-19.505 0.30657-0.0689-4.3942 19.503-0.30657-0.1-6.358 3.9965-0.0622 0.2688 17.241zm3.4671-22.531-14.666 2.0771c-2.6436 0.34211-4.8185 0.64868-7.2777-1.524-2.4126-2.0794-3.0457-5.1184-3.2701-6.7001-0.19994-1.4173-0.23104-2.8258 0.0422-4.2076 0.56426-2.9058 2.3659-4.6741 4.0387-5.4494 0.97969-0.43986 1.7039-0.54205 4.6008-0.98636l13.878-1.966 0.61536 4.352-14.307 2.026c-0.98858 0.13996-1.9483 0.24215-2.7924 0.69756-2.1149 1.2063-2.0327 3.6833-1.8372 5.0695 0.0978 0.6909 0.37988 2.4348 1.6817 3.5611 1.3351 1.1219 2.6547 0.93526 4.5986 0.65979l14.076-1.9927zm-16.448-32.641 2.7191 9.4392-3.6166 1.0419-2.7192-9.4392-9.5659 2.7569-1.2085-4.192 22.591-6.5068 4.3053 14.942-3.7766 1.0863-3.0968-10.75zm-6.3702-31.044-4.9518 2.4592 5.0362 10.141-3.3989 1.6884-5.0362-10.141-5.636 2.7991 5.8781 11.841-3.5478 1.7639-7.8064-15.719 21.056-10.457 7.4354 14.973-3.5189 1.7483zm-13.33-21.415-12.838 8.7772 1.053 1.5395c1.8794 2.7502 2.6747 3.6166 3.5411 4.2364 1.5084 1.0241 3.7322 1.6817 7.7731-1.0819 1.815-1.2396 4.5963-3.5433 4.0454-7.1222-0.24659-1.364-0.61314-1.9594-2.2571-4.4253zm0.81752-5.8848 4.7563 6.9556c1.1174 1.695 2.4814 3.7477 2.4148 6.7801-0.0622 4.8029-3.6277 7.9664-5.8004 9.4504-3.3256 2.2748-7.4776 3.4611-11.081 1.7283-2.4437-1.153-3.861-3.1679-5.4494-5.4316l-4.2476-6.2136zm-21.748-17.915-3.8743 3.941 8.073 7.9375-2.6614 2.708-8.073-7.9375-4.4119 4.4875 9.4281 9.2682-2.7791 2.8258-12.514-12.303 16.479-16.766 11.923 11.721-2.7547 2.8013zm-29.02-7.2564c-0.0578 1.033-0.23104 4.252 3.7677 7.1911 0.6709 0.49318 1.4107 0.95303 2.2771 1.1774 1.7839 0.44208 2.7347-0.34656 3.2101-0.99302 0.88638-1.2085 0.37099-2.2482-0.0444-2.9235-0.31101-0.4754-0.34433-0.54205-1.7661-2.2082l-1.9261-2.1593c-0.99302-1.1818-1.484-1.7506-1.8972-2.4259-0.60425-0.97969-2.0904-3.8499 0.21771-6.9911 2.6414-3.5966 7.371-3.6788 11.827-0.40432 4.0809 2.999 4.8029 6.629 4.8052 9.4415l-4.4964 0.0422c0.0444-1.4129 0.18882-4.1987-2.8436-6.4269-1.9061-1.3996-4.2009-1.7639-5.265-0.31323-1.1841 1.6106 0.35101 3.2345 1.8328 4.8185l1.6439 1.8683c2.1549 2.4104 4.9851 6.1003 2.006 10.155-3.1946 4.3497-8.504 3.1346-12.529 0.17772-1.0486-0.76865-2.1504-1.7439-3.0679-2.9146-0.98635-1.3018-2.5436-3.8521-2.2704-7.2066zm-3.2288-21.257 3.841 2.0038-10.883 20.856-3.3989-1.7728-1.4973-19.385-7.3932 14.744-3.8121-1.9883 10.883-20.856 3.5144 1.835 1.5262 19.552zm-32.538-9.8167-1.8039 5.225 10.701 3.6944-1.2374 3.5878-10.701-3.6944-2.0549 5.9492 12.496 4.3142-1.2929 3.7455-16.588-5.7271 7.6731-22.222 15.799 5.4561-1.2818 3.7144zm-20.7-5.7417c-3.9632-0.73977-7.2177 1.9749-8.1174 6.789-0.97081 5.2117 1.3307 8.8616 5.1628 9.577 2.8835 0.53761 6.9778-0.86639 8.1152-6.418 0.94192-4.503-0.60648-9.0971-5.1606-9.948m-3.8321 20.338c-2.9146-0.54427-5.4494-1.8661-7.2999-5.0251-1.7972-3.0812-2.0216-6.2425-1.4773-9.1571 1.3218-7.0778 7.06-11.294 13.382-10.115 5.7338 1.0708 10.31 6.3336 8.8039 14.222-1.2685 6.6112-6.3002 11.403-13.409 10.075m-12.426-9.3533c-0.32212 0.75753-0.92415 2.106-2.1282 3.47-1.7195 1.8861-4.3942 3.51-8.2218 3.4034-6.2247-0.17328-10.859-4.8651-10.641-12.72 0.22215-7.9886 5.5005-12.138 11.492-11.972 7.3244 0.20438 8.8972 5.8781 9.3859 7.5221l-4.4275 1.0419c-0.0533-0.4332-0.2266-1.4373-0.79975-2.3526-0.47763-0.74643-1.7417-2.1149-4.1698-2.1815-3.8277-0.10664-6.5779 2.9813-6.7179 8.0064-0.14885 5.3605 2.597 8.4018 6.2913 8.504 2.1971 0.06 3.5589-0.96636 4.5586-2.1704 0.79309-1.013 1.1174-1.8683 1.2974-2.397zm-37.382-12.02 0.59537 5.4983 11.261-1.2174 0.40876 3.7744-11.261 1.2196 0.67756 6.2602 13.149-1.4218 0.42654 3.941-17.457 1.8883-2.5281-23.386 16.626-1.7994 0.42431 3.9099zm-22.392 4.276 1.9638 7.9175 3.0701-0.75976c0.90416-0.22437 1.6795-0.41764 2.3748-0.79308 2.4903-1.304 2.0505-3.7677 1.8505-4.5763-0.41542-1.6817-1.3751-2.3681-1.8505-2.6281-1.2929-0.64202-2.7858-0.30435-4.1765 0.04zm-5.2028-2.5858 7.6931-1.9061c1.2596-0.31323 2.5836-0.64202 3.9965-0.61536 2.3837 0.0622 6.0159 1.2907 7.16 5.9115 0.7531 3.0368 0.13996 6.6534-3.7077 8.5684-1.1885 0.60425-2.3837 0.89972-3.7744 1.244l-3.3278 0.82641 1.9127 7.722-4.2986 1.0663zm-6.1338 18.076-6.9911-8.8683 0.95525 11.261zm2.4948 3.1301-8.2018 3.2523 0.42431 4.774-4.3631 1.7306-1.2996-24.772 4.6408-1.8416 16.126 18.892-4.3653 1.7328zm-25.376-9.8107 11.707 20.402-3.8432 2.2038-5.3228-9.2748-8.7572 5.0251 5.3228 9.2771-3.8144 2.1882-11.705-20.402 3.8121-2.1882 4.4275 7.7153 8.7572-5.0251-4.4275-7.7153zm-10.593 25.769c0.23993 0.78642 0.64424 2.2082 0.59981 4.0298-0.10663 2.5503-1.1152 5.516-4.1187 7.8953-4.8851 3.8699-11.454 3.2479-16.337-2.9168-4.9651-6.2691-3.5855-12.845 1.1174-16.568 5.7449-4.5519 10.601-1.213 12.032-0.26436l-2.7236 3.6455c-0.3199-0.29769-1.0974-0.95748-2.1282-1.2907-0.8464-0.26436-2.6925-0.50206-4.5986 1.0086-3.0057 2.3792-3.1279 6.5157-4e-3 10.459 3.3301 4.2053 7.391 4.7718 10.29 2.4748 1.7261-1.364 2.1082-3.0279 2.0993-4.5941-0.04-1.2863-0.34211-2.1504-0.54205-2.6725zm-42.34 20.939c-2.5814 3.0968-1.7994 7.2622 1.9638 10.397 4.0698 3.3923 8.3774 3.1657 10.874 0.17106 1.8772-2.2526 2.6503-6.5113-1.6373-10.215-3.47-3.019-8.2352-3.9121-11.201-0.35322m15.875 13.271c-1.8972 2.2793-4.2875 3.8454-7.9486 3.9165-3.5655 0.0644-6.4313-1.284-8.7106-3.1812-5.5294-4.6097-6.4069-11.672-2.2904-16.613 3.7322-4.4808 10.559-5.9048 16.706-0.73976 5.1495 4.3364 6.8734 11.063 2.2437 16.617m-19.024 10.731-10.928-2.8635 7.551 8.4129zm3.8788 0.99525-4.5874 7.5398 3.2168 3.5544-2.4392 4.0121-15.971-18.99 2.597-4.2698 24.259 5.3605-2.4392 4.0143zm-4.1882 27.001-1.1152 1.9394s-0.65757-0.99746-1.4462-1.7772c-0.6087-0.60203-1.3662-1.1485-1.3662-1.1485-1.2774 1.9216-2.748 3.7433-6.1292 4.5652-2.8835 0.71755-5.9137 0.1755-8.6662-1.0086-7.3399-3.159-9.246-9.597-6.8778-15.104 2.8813-6.6979 8.7506-6.0958 10.446-5.9092l-0.65313 4.4675c-0.45541-0.12441-1.4218-0.3199-2.4837-0.12663-0.87084 0.17106-2.6081 0.83751-3.5678 3.0701-1.5129 3.5167 0.33767 7.2155 4.9584 9.2015 4.894 2.106 8.7661 0.69089 10.226-2.7036 0.86862-2.0194 0.41765-3.6655-0.36433-5.0517-0.64424-1.1108-1.304-1.6839-1.715-2.0793l3.2234-3.1079c0.55315 0.56427 1.5839 1.6239 2.4081 3.2479 1.464 2.8635 1.1907 5.0095 0.61314 7.1777 0 0 0.63536 0.70866 1.4196 2.0282 0.44652 0.75087 1.0908 2.3193 1.0908 2.3193m-18.066 12.412-11.299 0.28213 9.597 5.9892zm4.0032-0.12218-2.3126 8.524 4.0787 2.5236-1.2329 4.5341-20.625-13.82 1.3129-4.8229 24.808-1.5839-1.2329 4.5319zm-22.691 13.728 23.186 3.921-0.72199 4.2698-23.186-3.921zm15.212 9.9571c0.74421 0.351 2.0705 1.0063 3.3878 2.2637 1.8172 1.7883 3.339 4.5297 3.0835 8.3529-0.4132 6.2158-5.2828 10.666-13.129 10.146-7.9797-0.53317-11.925-5.9714-11.527-11.956 0.48874-7.311 6.2225-8.6662 7.8864-9.0905l0.87084 4.4653c-0.43542 0.0378-1.4462 0.17105-2.3859 0.70866-0.76198 0.45097-2.1793 1.6595-2.3415 4.0854-0.25325 3.8232 2.728 6.6934 7.7464 7.0267 5.3539 0.35766 8.5018-2.2704 8.7461-5.9603 0.14662-2.1949-0.82863-3.5966-1.9949-4.643-0.9797-0.83307-1.8239-1.1885-2.3437-1.3907zm-13.919 36.914c0.35989 4.0121 3.8521 6.4069 8.7261 5.9692 5.2739-0.47319 8.1619-3.6744 7.8131-7.5554-0.25992-2.9169-2.7191-6.4757-8.3662-6.067-4.5852 0.31102-8.5862 3.0435-8.173 7.6531m20.598-1.815c0.26436 2.9502-0.3199 5.7448-2.8569 8.3796-2.4792 2.5614-5.4583 3.6322-8.4107 3.8965-7.1622 0.64424-12.772-3.7322-13.347-10.135-0.51984-5.8026 3.3034-11.63 11.299-12.314 6.7023-0.56871 12.669 2.9746 13.316 10.172m-2.0967 30.549c0.70645-0.75532 2.9058-3.1124 1.7261-7.9353-0.19772-0.80863-0.46875-1.635-0.9908-2.3637-1.0841-1.484-2.3215-1.4884-3.0968-1.2996-1.4573 0.35767-1.7284 1.4862-1.8439 2.2704-0.0689 0.56426-0.0844 0.63757-0.0622 2.828l0.0911 2.8924c0 1.544 0.0133 2.2948-0.10442 3.079-0.16661 1.1374-0.86861 4.2942-4.6541 5.2228-4.3364 1.0619-8.0152-1.9127-9.3326-7.2844-1.2041-4.9184 0.57315-8.1663 2.377-10.323l3.4767 2.8524c-0.94193 1.053-2.8413 3.0968-1.9461 6.7534 0.56205 2.297 2.0905 4.052 3.8366 3.6211 1.9416-0.47319 1.8083-2.7058 1.6884-4.8718l-0.06-2.4881c-0.10664-3.2345 0.0911-7.8797 4.9784-9.0749 5.2428-1.2863 8.5351 3.0524 9.7236 7.9064 0.30879 1.2618 0.52872 2.7191 0.48207 4.2053-0.08 1.6306-0.52206 4.5874-2.8858 6.9845zm7.9053 21.351c0.59093-0.85084 2.4281-3.5011 0.56205-8.0997-0.31324-0.77086-0.69978-1.5506-1.3218-2.1971-1.2863-1.3107-2.5103-1.1374-3.2501-0.83751-1.3907 0.56426-1.4951 1.7217-1.4995 2.5125 0.0156 0.56871 9e-3 0.64202 0.34878 2.8058l0.50651 2.8502c0.22437 1.5262 0.34656 2.2682 0.34433 3.0612-2e-3 1.1508-0.23992 4.3742-3.8521 5.8382-4.1365 1.6772-8.2063-0.73532-10.283-5.8582-1.9038-4.6918-0.61314-8.1641 0.85973-10.559l3.8521 2.3215c-0.77975 1.1796-2.3659 3.4745-0.95081 6.9622 0.88861 2.1926 2.6525 3.7055 4.3186 3.0302 1.8528-0.75087 1.3973-2.9391 0.96636-5.0651l-0.41987-2.4526c-0.57093-3.1834-1.0441-7.8086 3.6166-9.6992 5.0006-2.026 8.8861 1.7905 10.763 6.4202 0.48873 1.2041 0.91526 2.6125 1.0819 4.0898 0.15773 1.6262 0.14662 4.6141-1.8439 7.3266zm4.1742 11.268-7.7664 8.2018 11.008-2.5747zm2.7391-2.9213 4.403 7.6465 4.6652-1.1108 2.3437 4.0698-24.33 4.8674-2.4948-4.3297 16.368-18.69 2.3437 4.0698zm147.29 34.252c0.0333-0.62425 0.10219-1.8594 1.053-2.9013 0.67756-0.75087 1.775-1.284 2.8858-1.4307 1.3751-0.18438 4.1987 0.12218 4.5608 2.8746 0.16217 1.2263-0.32878 1.9105-0.44208 2.0838-0.40654 0.59981-0.92415 0.80419-1.3285 0.97302 1.0597 0.0755 2.5836 0.70867 2.8569 2.7747 0.29768 2.2348-1.113 4.212-4.0765 4.6052-1.2996 0.17106-2.5748-0.0489-3.3923-0.63979-0.66423-0.45764-1.4751-1.4396-1.7017-3.159l2.5414-0.33767c-2e-3 0.13551 0.0133 0.25326 0.0333 0.40432 0.1444 1.0885 0.99969 1.8105 2.2793 1.6439 1.4529-0.19327 1.8683-1.3196 1.7372-2.3104-0.0911-0.69089-0.45985-1.264-1.0952-1.5106-0.351-0.14884-0.80197-0.16662-1.4107-0.0866l-0.6287 0.10219-0.2688-2.0038c0.80641-0.0866 0.90194-0.10219 1.0574-0.12441 0.28214-0.0555 1.5373-0.27991 1.344-1.7328-0.11551-0.8775-0.79086-1.5684-1.8638-1.424-1.6995 0.22437-1.5862 1.9594-1.5462 2.3992zm-2.2102-1.3136c-2.4081 3.2012-3.7766 6.9489-4.0343 11.088l-3.1812 0.1c0.1755-1.2396 0.35766-2.7725 1.1063-4.8029 0.90638-2.4392 1.8638-3.8966 3.3589-6.1247l-5.8826 0.18216-0.0689-2.2726 8.6373-0.27103zm-15.234-0.22171c-0.84418-0.0578-1.8683 0.47319-1.9705 2.0149-0.0866 1.3085 0.50429 2.2926 1.6772 2.3726 0.21105 0.0111 1.8105 0.1 1.9505-1.9972 0.0844-1.2485-0.40432-2.3082-1.6573-2.3904m-2.2015 7.5065c0.02 0.25103 0.0422 0.50429 0.16218 0.74421 0.18216 0.45541 0.61758 0.85307 1.2929 0.89972 1.6928 0.11329 2.2926-2.206 2.3904-3.6877-0.37988 0.47763-1.3262 1.0508-2.6725 0.96192-2.0594-0.13995-3.6411-1.615-3.4589-4.3275 0.2066-3.099 2.4948-4.3386 4.7074-4.1898 0.78642 0.0533 1.6017 0.28213 2.2482 0.7331 2.1771 1.5551 1.9527 4.9029 1.895 5.7693-0.31101 4.6363-2.4059 7.0444-5.5405 6.8356-2.0794-0.13773-2.9413-1.3951-3.199-1.875-0.35989-0.66424-0.44875-1.364-0.48652-1.6573zm-5.387-10.18-2.0371 12.854-2.3415-0.37322 1.1641-7.3488c0.19327-1.2174 0.25325-1.5795-0.79531-1.7461l-2.0949-0.331 0.23104-1.4684 0.24881 0.0422c1.2018 0.16884 2.8258 0.40654 3.721-1.9261z"/>
  <path d="m200 461.81c-52.008 0-100.03-23.686-131.75-64.982l2.0927-1.6062c31.219 40.64 78.48 63.951 129.66 63.951 51.177 0 98.433-23.304 129.65-63.94l2.0904 1.6084c-31.721 41.289-79.741 64.968-131.75 64.968m4.5e-4 -350.13c-101.67 0-184.08 82.418-184.08 184.08 0 50.557 20.391 96.341 53.385 129.61v-29.437h29.357c-25.445-25.743-41.169-61.116-41.169-100.17 0-78.706 63.804-142.51 142.51-142.51s142.51 63.804 142.51 142.51c0 39.057-15.724 74.43-41.169 100.17h29.297v29.5c33.03-33.274 53.445-79.084 53.445-129.67 0-101.67-82.416-184.08-184.08-184.08m0 2.637c100.05 0 181.45 81.397 181.45 181.45 0 46.023-17.057 89.485-48.169 123.11v-25.576h-25.803c24.339-26.767 37.673-61.163 37.673-97.534 0-80.035-65.113-145.15-145.15-145.15s-145.15 65.113-145.15 145.15c0 36.371 13.334 70.767 37.673 97.534h-25.863v25.508c-31.075-33.616-48.109-77.053-48.109-123.04 0-100.05 81.397-181.45 181.45-181.45m-4.5e-4 52.067c-71.342 0-129.38 58.039-129.38 129.38 0 71.342 58.039 129.38 129.38 129.38s129.38-58.039 129.38-129.38c0-71.342-58.039-129.38-129.38-129.38m0 261.4c-72.795 0-132.02-59.224-132.02-132.02 0-72.795 59.224-132.02 132.02-132.02s132.02 59.224 132.02 132.02c0 72.795-59.224 132.02-132.02 132.02"/>
  <path d="m255.38 298.01-5.1228-3.7344-5.1095 3.7055 1.9527-6.0048-5.0806-3.7033h6.2869l1.9527-5.9981 1.9527 5.9981h6.3224l-5.1162 3.7099zm50.06-38.843c0-4.4475 2.1304-10.941 2.1304-10.941s-1.2974-3.3767-1.2974-6.5046 1.1841-6.1225 1.1841-6.1225c-5.4516 3.0724-11.787 2.397-15.826 0.39543-5.0317-2.4926-10.026-2.2482-10.026-2.2482-8.7839 0-14.66 4.9562-15.766 5.9648 0 0-3.6877-5.165-10.441-5.165-6.549 0-9.9991 4.4075-9.9991 4.4075-1.0041-1.1996-3.9321-4.4386-9.1282-4.4386-6.4913 0-9.7214 5.2472-9.7214 5.2472 5.5805 0 10.552 3.821 11.659 9.8324h4e-3c0.41542 3.3212 1.113 9.9835 1.113 17.443 0 0-0.4021 13.98-1.3418 18.527 0 0-0.30435 3.3678-3.8521 4.7918v0.0178c3.5478 1.424 3.8521 4.7896 3.8521 4.7896 0.9397 4.5497 1.3418 18.53 1.3418 18.53 0 10.643-1.3596 19.269-1.3596 19.269-2.2993 9.4792-11.445 8.7728-11.445 8.7728 4.8807 4.4675 11.323 4.4675 11.921 4.4675 7.2333 0 11.781-4.4675 11.781-4.4675s4.2098 4.4675 11.176 4.4675c6.4846 0 10.481-3.5878 11.825-5.074 0 0-11.825-3.2967-11.825-15.628v-29.26h3.0768c6.8534 0 10.792 4.2142 10.792 4.2142 3.4411 3.5944 3.8854 6.4046 3.8854 6.4046 4.0432-4.0832 3.8966-9.1016 3.8966-9.1016 0-4.6452-1.9172-7.4266-1.9172-7.4266 1.9172-3.3856 1.9172-8.0241 1.9172-8.0241 0-8.0686-5.4494-12.783-5.4494-12.783 0.21327 6.8067-4.4164 10.803-4.4164 10.803-4.5941 4.543-10.326 4.1298-10.326 4.1298l-1.4595 2e-3v-26.927c0-2.7702 0.90416-8.735 6.8401-12.878 6.218-4.3408 12.838-2.1926 14.011-1.7772 4.5674 1.615 7.7153 4.4564 10.03 7.3044 4.7629 5.8626 4.754 13.229 4.754 13.229 9e-3 8.1907-3.5256 12.769-3.5256 12.769 8.504-2.6614 12.336-9.2948 12.336-9.2948-0.47096-3.2123-0.40431-5.8182-0.40431-7.7198m-146.71 38.795c-1.0619-1.946-2.6392-3.4989-4.4964-4.5408 0.90416-1.9283 1.2818-4.1076 1.013-6.3091 1.0641 1.946 2.6392 3.4989 4.4986 4.5408-0.90639 1.9283-1.284 4.1076-1.0152 6.3091m-10.423 13.582h-30.624c-1.2707 0-2.3015-1.0308-2.3015-2.3015 0-0.25103 0.04-0.49096 0.11329-0.71533l-4e-3 -2e-3 2.0371-6.3224s1.1841-4.8407 7.3577-7.1022c0 0-3.7721-4.5141-1.6728-10.617l9.4281-29.133 10.754 33.518s1.8283 5.205-1.7506 9.657c0 0 5.1984 1.2418 7.0578 6.8512l1.2574 3.9032c0.0533 0.16661 0.0844 0.34211 0.0844 0.5265 0 0.95969-0.77753 1.7372-1.7372 1.7372m-36.444-13.969c0.24881-2.0438-0.1-4.0676-0.94193-5.8604 1.7261-0.96636 3.1901-2.4081 4.1765-4.2142-0.24881 2.0416 0.10219 4.0676 0.94193 5.8582-1.7261 0.96636-3.1879 2.4081-4.1765 4.2164m81.623 39.321c-1.6572-0.37766-4.6941-1.0241-8.2218-3.7988-3.53-2.7725-5.1428-7.1866-5.1428-7.1866l-8.133-25.383c-2.146-8.4529 2.9635-12.869 2.9635-12.869-7.6731-1.8794-9.6325-7.8109-9.6325-7.8109l-10.501-32.61c2.1504-6.5113 8.5306-7.9553 8.5306-7.9553-1.7594-3.2812-5.2717-5.4916-9.1193-5.4916s-6.4002 2.226-6.4002 2.226c-3.1279-1.7172-7.2-1.6839-7.2-1.6839-7.3599 0-11.652 4.9496-11.652 4.9496h-15.166l7.9308 6.7934-10.519 32.663s-2.5059 7.1-9.3748 8.8883c0 0 4.5164 5.6693 2.5014 12.476l-10.01 31.208c-1.5395 3.9676-4.8518 5.8426-4.8518 5.8426-4.1098 2.577-8.3485 1.5751-8.3485 1.5751 0.31101 2.8591 2.0216 4.683 2.0216 4.683 2.9124 3.1412 6.3269 2.8213 6.3269 2.8213 2.7302 0 4.7607-1.5773 4.7607-1.5773 1.9905 1.6639 4.1698 1.5773 4.1698 1.5773 2.6592 0 4.0876-1.2907 4.0876-1.2907 2.7725 1.4773 4.8629 1.2907 4.8629 1.2907 3.6944 0 6.1536-2.1704 6.1536-2.1704 2.6481-2.2482 3.2545-4.8851 3.2545-4.8851-4.1809 1.504-6.9289-1.4395-6.9289-1.4395-3.1035-3.2234-1.5728-6.8223-1.5728-6.8223l1.1508-3.5744 4e-3 2e-3c0.47541-1.4929 1.8727-2.5725 3.5211-2.5725h40.101c1.2463 0 2.2726 0.9286 2.4304 2.1304h2e-3c0.97969 6.1336-1.7594 10.128-1.7594 10.128-2.7302 4.9384-8.0863 6.5157-8.0863 6.5157 4.0943 2.8746 8.5973 2.6725 8.5973 2.6725 4.9918 0 8.5506-2.8124 8.5506-2.8124 3.6388 3.0835 7.6798 2.8458 7.6798 2.8458 4.0254 0 7.04-2.3326 7.04-2.3326 3.8521 2.2926 8.5551 2.3326 8.5551 2.3326 4.503 0 7.8953-1.855 7.8953-1.855 0.64424-0.32212 1.2441-0.67089 1.8017-1.0419 0 0 3.1701-1.7528 3.2056-6.3846 0 0-3.1612 0.45541-5.4783-0.0733m-26.152-96.546c0 1.0263-0.78864 1.8705-1.7928 1.9549l2e-3 2e-3c-0.46652 0.04-0.96192 0.12218-1.4484 0.27102-0.1444 0.0378-3.9388 1.0175-5.6893 4.7696l9.5925 29.819c1.6084 5.1717 5.8959 6.6534 5.8959 6.6534 2.0571 0.85973 3.61 0.80197 4.4319 0.80197 0.82418 0 1.2396-0.73754 1.2396-0.73754 0.42209-0.68201 9e-3 -1.4662 9e-3 -1.4662s-5.014-6.9511-7.4665-16.659c-2.8813-11.416-1.1507-22.38-1.1507-22.38 1.855-11.75 3.8788-18.627 3.8788-18.627 5.7493-20.207 24.981-19.483 24.981-19.483h1.9261l-0.0933 0.16884s3.6055-0.0933 7.1733 2.2615c-1.3485 3.1857 0.18216 5.9048 0.18216 5.9048 2.1726 4.1454 6.4224 3.8654 6.4224 3.8654 0.79308 2.4837 1.4929 5.796 1.4929 9.7658 0 0 0.24437 6.6224-3.4634 13.436 0 0-2.6236 5.6471-8.7039 10.015 2.4037 0.73533 4.2142 0.62203 4.2142 0.62203 9.9258 0 13.42-9.0505 13.42-9.0505 3.7166-9.3193 3.039-18.523 3.039-18.523 0-2.5036 1.5395-4.423 1.5395-4.423 1.6039-2.0105 1.4284-4.252 1.4284-4.252 0-2.9346-2.0638-4.9806-2.0638-4.9806-3.7544-3.5411-3.5367-8.1574-3.5367-8.1574 0-2.5525 0.94637-4.6985 0.94637-4.6985l-6.7756-13.411c0.23104 0.86195 0.43542 5.8404 0.43542 5.8404 0 6.3091-6.107 8.775-6.107 8.775-2.4015-0.57982-14.311-0.71311-14.311-0.71311s-32.21-1.1485-41.66 31.952c0 0-0.0733 0.28436-0.19993 0.80642 4.6474 0.31989 8.9794 3.059 11.205 7.2133 0 0 0.47096 0.8153 0.89527 1.9927m58.188 103.21s0.69533-7.8553-5.7182-16.119c0 0-2.3837-2.9568-5.285-4.9429 0 0 3.6922 12.216 2.4237 23.884 0 0-0.88638 16.548-18.454 18.294 0 0-14.438 0.97746-19.458-13.414 0 0-0.32878-0.93748-0.86639-2.6414-0.13107-0.0555-0.26214-0.10664-0.39321-0.1644-1.6128 0.84862-4.1187 1.8261-7.1155 1.8416-0.0667 4e-3 -0.15995 7e-3 -0.27991 7e-3 -1.0419 0-4.252-0.18217-7.5998-2.1771-1.755 0.92637-4.4475 1.9727-7.722 2.1104 0.0733 1.695 2.4659 17.579 13.738 28.033 0 0 5.7715 5.2317 12.916 5.2317 0 0 10.423 0.53539 22.144-5.0717 0 0 2.5037-1.2529 5.4605-0.0689 0 0 7.8908 3.4678 9.5681 11.69 0 0 7.1-4.3075 7.1-13.16 0 0-0.21105-4.5941-1.5973-6.7712 0 0 4.0987-3.8255 4.0987-9.788 0 0 0.31546-5.5605-3.8743-9.8591 0 0 0.91527-2.8546 0.91527-6.9134"/>
 </g>
 <path d="m213.8 53.593 22.344-16.226h-27.616l-8.5306-26.263-8.5351 26.263h-27.611l22.337 16.228-8.5306 26.243 22.331-16.217 22.342 16.233z" fill="#9c9b9b"/>
</svg>
