<svg width="512" height="512" viewBox="0 0 512 512" fill="none" xmlns="http://www.w3.org/2000/svg">
<rect width="512" height="512" rx="64" fill="black"/>
<path d="M375.182 127.279H230.392V185.536H331.383L195.519 313.2C179.896 327.973 162.321 322.119 157.299 319.889C152.277 317.659 136.097 309.018 136.097 287.555V127.279H75V287.555C75 326.579 97.3184 360.586 133.028 375.916C145.582 381.491 158.694 384 171.806 384C195.798 384 218.954 375.08 237.366 357.52L416.75 190.553L377.693 266.092V327.973H436V188.044C436 154.317 408.66 127 374.903 127L375.182 127.279Z" fill="#70FC70"/>
</svg>
