<?xml version="1.0" encoding="UTF-8"?>
<svg id="Layer" xmlns="http://www.w3.org/2000/svg" version="1.1" viewBox="0 0 1080 1080">
  <!-- Generator: Adobe Illustrator 30.3.0, SVG Export Plug-In . SVG Version: 2.1.3 Build 182)  -->
  <defs>
    <style>
      .st0 {
        fill: #9c7bff;
      }

      .st1 {
        fill: #fff;
      }
    </style>
  </defs>
  <rect x="-1580" y="0" width="1080" height="1080"/>
  <rect class="st0" width="1080" height="1080"/>
  <rect x="-1580" y="1356" width="1080" height="1080"/>
  <rect class="st0" y="1356" width="1080" height="1080"/>
  <g>
    <path class="st0" d="M-2538.6,479.8h15.7l-31.1,96.4h-15.7l31.1-96.4Z"/>
    <g>
      <path d="M-3049.7,525.4c0-3.9,3.7-6.3,9.1-6.3s11.6,3.4,13.5,9.9l13.9-5.9c-3-9.9-14.3-16.7-27.6-16.7s-24.4,8.4-24.4,19.2c0,26,37.4,17.6,37.4,30.5s-4.2,7.8-10.6,7.8-13.9-5.7-15.9-12.7l-14,5.7c3.4,10.1,13.3,20.3,29.9,20.3s26.4-9.5,26.4-21.4c0-28-37.7-18.4-37.7-30.5Z"/>
      <rect x="-2922.7" y="479.8" width="17.2" height="96.4"/>
      <path d="M-2751.9,506.5c-22.7,0-33.9,17.6-33.9,35.4s12.1,35.4,34.8,35.4,28-7.6,31.9-20.6l-16.1-4.4c-1.8,6.7-7.5,10.5-15.5,10.5s-16.5-6.1-18-16.5h50.9c.1-1.4.3-4.4.3-6.8,0-15.9-11.3-33.1-34.4-33.1ZM-2768.3,533.8c1.9-9.3,7.9-14.3,16.3-14.3s15.2,6.1,16.1,14.3h-32.4Z"/>
      <path d="M-2968.5,506.5c-19.5,0-35.4,15.8-35.4,35.4s15.8,35.4,35.4,35.4,35.4-15.8,35.4-35.4-15.8-35.4-35.4-35.4ZM-2968.5,561.8c-11,0-20-9-20-20s9-20,20-20,20,9,20,20-9,20-20,20Z"/>
      <path d="M-2810.2,507.7h-39.6v16h27.7l-37.3,35c-4.3,4-9.1,2.4-10.5,1.8s-5.8-3-5.8-8.9v-44h-16.7v44c0,10.7,6.1,20,15.9,24.2,3.5,1.5,7.1,2.2,10.6,2.2,6.5,0,12.9-2.5,18-7.2l49.1-45.8-10.7,20.7v17h16v-38.4c0-9.2-7.5-16.7-16.7-16.7Z"/>
      <path d="M-2616.9,507.7l-17.3,51.9-3.5-13.1-12.3-38.7h-34.1v-5.4c0-2.4.2-4.2.7-5.5.5-1.3,1.3-2.3,2.5-3,1.2-.7,3.1-1,5.5-1h8.3l-4.9-13.7h-6.5c-5.2,0-9.4.8-12.7,2.5-3.3,1.7-5.7,4.3-7.2,7.8-1.5,3.5-2.3,8.1-2.3,13.6v4.8h-11.9v14.2h11.9v54.3h16.6v-54.3h17v-9.8l21,59.8h7.9l-9.8,29.2h18.6l32.1-93.4h-19.5Z"/>
    </g>
    <g>
      <path class="st0" d="M-2430.1,531.7h-12.2c-.9-8.3-8.9-15.4-19.1-15.4s-21.8,9.9-21.8,25.6,9,25.5,21.8,25.5,18.2-7,19.1-15.4h12.2c-1.1,13.9-13.7,25.6-31.3,25.6s-33.9-13.7-33.9-35.6,13.5-35.6,33.9-35.6,30.2,11.6,31.3,25.5Z"/>
      <path class="st0" d="M-2407.4,507.6v11.3c4.7-7.8,13-12.7,24.7-12.7,18.6,0,31.3,13.7,31.3,35.6s-12.7,35.6-31.3,35.6-19.9-4.8-24.7-12.9v35.5h-11.5v-92.5h11.5ZM-2385.4,567.4c13,0,21.9-10.4,21.9-25.5s-8.9-25.3-21.9-25.3-22,9.9-22,25.3,8.5,25.5,22,25.5Z"/>
      <path class="st0" d="M-2286.5,520.8v-13.2h11.5v68.4h-11.5v-13.1c-4.3,8-12.3,14.6-25.3,14.6-21.1,0-34-14.5-34-35.6s12.9-35.6,34-35.6,21,6.7,25.3,14.6ZM-2310,567c14.6,0,23.4-10.2,23.6-25.2-.1-15.1-8.9-25.2-23.6-25.2s-23.7,10.2-23.7,25.2,9.3,25.2,23.7,25.2Z"/>
      <path class="st0" d="M-2205.8,520.8v-13.2h11.5v68.4h-11.5v-13.1c-4.3,8-12.3,14.6-25.3,14.6-21.1,0-34-14.5-34-35.6s12.9-35.6,34-35.6,21,6.7,25.3,14.6ZM-2229.3,567c14.6,0,23.4-10.2,23.6-25.2-.1-15.1-8.9-25.2-23.6-25.2s-23.7,10.2-23.7,25.2,9.3,25.2,23.7,25.2Z"/>
      <path class="st0" d="M-2130.7,527.8h-11.8c-.1-6.4-5.6-11.3-14.5-11.3s-13.5,4.1-13.5,8.9,1.8,7.4,10.9,9.4l10.9,2.4c14.5,3.1,19.5,10.3,19.5,19.9s-9.4,20.4-26.6,20.4-28.6-9.9-28.6-22.7h11.7c.1,7,5.6,12.2,17.4,12.2s14.3-4.2,14.3-9.7-3.1-8.3-11.7-10.1l-11.6-2.4c-13.7-2.9-18.2-10.2-18.2-19.5s8.9-19.2,25.6-19.2,26.2,9.5,26.2,21.6Z"/>
    </g>
  </g>
  <g>
    <path class="st0" d="M-2712.4,1819.8h15.7l-31.1,96.4h-15.7l31.1-96.4Z"/>
    <g>
      <path class="st0" d="M-2603.9,1871.7h-12.2c-.9-8.3-8.9-15.4-19.1-15.4s-21.8,9.9-21.8,25.6,9,25.5,21.8,25.5,18.2-7,19.1-15.4h12.2c-1.1,13.9-13.7,25.6-31.3,25.6s-33.9-13.7-33.9-35.6,13.5-35.6,33.9-35.6,30.2,11.6,31.3,25.5Z"/>
      <path class="st0" d="M-2581.3,1847.6v11.3c4.7-7.8,13-12.7,24.7-12.7,18.6,0,31.3,13.7,31.3,35.6s-12.7,35.6-31.3,35.6-19.9-4.8-24.7-12.9v35.5h-11.5v-92.5h11.5ZM-2559.2,1907.5c13,0,21.9-10.4,21.9-25.5s-8.9-25.3-21.9-25.3-22,9.9-22,25.3,8.5,25.5,22,25.5Z"/>
      <path class="st0" d="M-2460.3,1860.9v-13.2h11.5v68.4h-11.5v-13.1c-4.3,8-12.3,14.6-25.3,14.6-21.1,0-34-14.5-34-35.6s12.9-35.6,34-35.6,21,6.7,25.3,14.6ZM-2483.9,1907.1c14.6,0,23.4-10.2,23.6-25.2-.1-15.1-8.9-25.2-23.6-25.2s-23.7,10.2-23.7,25.2,9.3,25.2,23.7,25.2Z"/>
      <path class="st0" d="M-2379.6,1860.9v-13.2h11.5v68.4h-11.5v-13.1c-4.3,8-12.3,14.6-25.3,14.6-21.1,0-34-14.5-34-35.6s12.9-35.6,34-35.6,21,6.7,25.3,14.6ZM-2403.2,1907.1c14.6,0,23.4-10.2,23.6-25.2-.1-15.1-8.9-25.2-23.6-25.2s-23.7,10.2-23.7,25.2,9.3,25.2,23.7,25.2Z"/>
      <path class="st0" d="M-2304.5,1867.9h-11.8c-.1-6.4-5.6-11.3-14.5-11.3s-13.5,4.1-13.5,8.9,1.8,7.4,10.9,9.4l10.9,2.4c14.5,3.1,19.5,10.3,19.5,19.9s-9.4,20.4-26.6,20.4-28.6-9.9-28.6-22.7h11.7c.1,7,5.6,12.2,17.4,12.2s14.3-4.2,14.3-9.7-3.1-8.3-11.7-10.1l-11.6-2.4c-13.7-2.9-18.2-10.2-18.2-19.5s8.9-19.2,25.6-19.2,26.2,9.5,26.2,21.6Z"/>
    </g>
    <path d="M-2792.1,1824.1h-49.4v19.9h34.5l-46.4,43.6c-5.3,5-11.3,3-13,2.3-1.7-.7-7.3-3.7-7.3-11.1v-54.8h-20.8v54.8c0,13.3,7.6,24.9,19.8,30.2,4.3,1.9,8.8,2.8,13.2,2.8,8.1,0,16.1-3.1,22.4-9l61.2-57-13.3,25.8v21.2h19.9v-47.8c0-11.5-9.3-20.8-20.8-20.8Z"/>
  </g>
  <g>
    <path class="st0" d="M-1153.7,1835.8h15.7l-31.1,96.4h-15.7l31.1-96.4Z"/>
    <g>
      <path class="st0" d="M-1045.2,1887.7h-12.2c-.9-8.3-8.9-15.4-19.1-15.4s-21.8,9.9-21.8,25.6,9,25.5,21.8,25.5,18.2-7,19.1-15.4h12.2c-1.1,13.9-13.7,25.6-31.3,25.6s-33.9-13.7-33.9-35.6,13.5-35.6,33.9-35.6,30.2,11.6,31.3,25.5Z"/>
      <path class="st0" d="M-1022.5,1863.6v11.3c4.7-7.8,13-12.7,24.7-12.7,18.6,0,31.3,13.7,31.3,35.6s-12.7,35.6-31.3,35.6-19.9-4.8-24.7-12.9v35.5h-11.5v-92.5h11.5ZM-1000.5,1923.5c13,0,21.9-10.4,21.9-25.5s-8.9-25.3-21.9-25.3-22,9.9-22,25.3,8.5,25.5,22,25.5Z"/>
      <path class="st0" d="M-901.6,1876.9v-13.2h11.5v68.4h-11.5v-13.1c-4.3,8-12.3,14.6-25.3,14.6-21.1,0-34-14.5-34-35.6s12.9-35.6,34-35.6,21,6.7,25.3,14.6ZM-925.1,1923.1c14.6,0,23.4-10.2,23.6-25.2-.1-15.1-8.9-25.2-23.6-25.2s-23.7,10.2-23.7,25.2,9.3,25.2,23.7,25.2Z"/>
      <path class="st0" d="M-820.9,1876.9v-13.2h11.5v68.4h-11.5v-13.1c-4.3,8-12.3,14.6-25.3,14.6-21.1,0-34-14.5-34-35.6s12.9-35.6,34-35.6,21,6.7,25.3,14.6ZM-844.4,1923.1c14.6,0,23.4-10.2,23.6-25.2-.1-15.1-8.9-25.2-23.6-25.2s-23.7,10.2-23.7,25.2,9.3,25.2,23.7,25.2Z"/>
      <path class="st0" d="M-745.8,1883.9h-11.8c-.1-6.4-5.6-11.3-14.5-11.3s-13.5,4.1-13.5,8.9,1.8,7.4,10.9,9.4l10.9,2.4c14.5,3.1,19.5,10.3,19.5,19.9s-9.4,20.4-26.6,20.4-28.6-9.9-28.6-22.7h11.7c.1,7,5.6,12.2,17.4,12.2s14.3-4.2,14.3-9.7-3.1-8.3-11.7-10.1l-11.6-2.4c-13.7-2.9-18.2-10.2-18.2-19.5s8.9-19.2,25.6-19.2,26.2,9.5,26.2,21.6Z"/>
    </g>
    <path class="st1" d="M-1233.3,1840.1h-49.4v19.9h34.5l-46.4,43.6c-5.3,5-11.3,3-13,2.3-1.7-.7-7.3-3.7-7.3-11.1v-54.8h-20.8v54.8c0,13.3,7.6,24.9,19.8,30.2,4.3,1.9,8.8,2.8,13.2,2.8,8.1,0,16.1-3.1,22.4-9l61.2-57-13.3,25.8v21.2h19.9v-47.8c0-11.5-9.3-20.8-20.8-20.8Z"/>
  </g>
  <g>
    <path d="M426.3,1835.8h15.7l-31.1,96.4h-15.7l31.1-96.4Z"/>
    <g>
      <path d="M534.8,1887.7h-12.2c-.9-8.3-8.9-15.4-19.1-15.4s-21.8,9.9-21.8,25.6,9,25.5,21.8,25.5,18.2-7,19.1-15.4h12.2c-1.1,13.9-13.7,25.6-31.3,25.6s-33.9-13.7-33.9-35.6,13.5-35.6,33.9-35.6,30.2,11.6,31.3,25.5Z"/>
      <path d="M557.5,1863.6v11.3c4.7-7.8,13-12.7,24.7-12.7,18.6,0,31.3,13.7,31.3,35.6s-12.7,35.6-31.3,35.6-19.9-4.8-24.7-12.9v35.5h-11.5v-92.5h11.5ZM579.5,1923.5c13,0,21.9-10.4,21.9-25.5s-8.9-25.3-21.9-25.3-22,9.9-22,25.3,8.5,25.5,22,25.5Z"/>
      <path d="M678.4,1876.9v-13.2h11.5v68.4h-11.5v-13.1c-4.3,8-12.3,14.6-25.3,14.6-21.1,0-34-14.5-34-35.6s12.9-35.6,34-35.6,21,6.7,25.3,14.6ZM654.9,1923.1c14.6,0,23.4-10.2,23.6-25.2-.1-15.1-8.9-25.2-23.6-25.2s-23.7,10.2-23.7,25.2,9.3,25.2,23.7,25.2Z"/>
      <path d="M759.1,1876.9v-13.2h11.5v68.4h-11.5v-13.1c-4.3,8-12.3,14.6-25.3,14.6-21.1,0-34-14.5-34-35.6s12.9-35.6,34-35.6,21,6.7,25.3,14.6ZM735.6,1923.1c14.6,0,23.4-10.2,23.6-25.2-.1-15.1-8.9-25.2-23.6-25.2s-23.7,10.2-23.7,25.2,9.3,25.2,23.7,25.2Z"/>
      <path d="M834.2,1883.9h-11.8c-.1-6.4-5.6-11.3-14.5-11.3s-13.5,4.1-13.5,8.9,1.8,7.4,10.9,9.4l10.9,2.4c14.5,3.1,19.5,10.3,19.5,19.9s-9.4,20.4-26.6,20.4-28.6-9.9-28.6-22.7h11.7c.1,7,5.6,12.2,17.4,12.2s14.3-4.2,14.3-9.7-3.1-8.3-11.7-10.1l-11.6-2.4c-13.7-2.9-18.2-10.2-18.2-19.5s8.9-19.2,25.6-19.2,26.2,9.5,26.2,21.6Z"/>
    </g>
    <path class="st1" d="M346.7,1840.1h-49.4v19.9h34.5l-46.4,43.6c-5.3,5-11.3,3-13,2.3-1.7-.7-7.3-3.7-7.3-11.1v-54.8h-20.8v54.8c0,13.3,7.6,24.9,19.8,30.2,4.3,1.9,8.8,2.8,13.2,2.8,8.1,0,16.1-3.1,22.4-9l61.2-57-13.3,25.8v21.2h19.9v-47.8c0-11.5-9.3-20.8-20.8-20.8Z"/>
  </g>
  <g>
    <path class="st0" d="M-979.9,479.8h15.7l-31.1,96.4h-15.7l31.1-96.4Z"/>
    <g>
      <path class="st1" d="M-1491,525.4c0-3.9,3.7-6.3,9.1-6.3s11.6,3.4,13.5,9.9l13.9-5.9c-3-9.9-14.3-16.7-27.6-16.7s-24.4,8.4-24.4,19.2c0,26,37.4,17.6,37.4,30.5s-4.2,7.8-10.6,7.8-13.9-5.7-15.9-12.7l-14,5.7c3.4,10.1,13.3,20.3,29.9,20.3s26.4-9.5,26.4-21.4c0-28-37.7-18.4-37.7-30.5Z"/>
      <rect class="st1" x="-1363.9" y="479.8" width="17.2" height="96.4"/>
      <path class="st1" d="M-1193.2,506.5c-22.7,0-33.9,17.6-33.9,35.4s12.1,35.4,34.8,35.4,28-7.6,31.9-20.6l-16.1-4.4c-1.8,6.7-7.5,10.5-15.5,10.5s-16.5-6.1-18-16.5h50.9c.1-1.4.3-4.4.3-6.8,0-15.9-11.3-33.1-34.4-33.1ZM-1209.5,533.8c1.9-9.3,7.9-14.3,16.3-14.3s15.2,6.1,16.1,14.3h-32.4Z"/>
      <path class="st1" d="M-1409.7,506.5c-19.5,0-35.4,15.8-35.4,35.4s15.8,35.4,35.4,35.4,35.4-15.8,35.4-35.4-15.8-35.4-35.4-35.4ZM-1409.7,561.8c-11,0-20-9-20-20s9-20,20-20,20,9,20,20-9,20-20,20Z"/>
      <path class="st1" d="M-1251.5,507.7h-39.6v16h27.7l-37.3,35c-4.3,4-9.1,2.4-10.5,1.8s-5.8-3-5.8-8.9v-44h-16.7v44c0,10.7,6.1,20,15.9,24.2,3.5,1.5,7.1,2.2,10.6,2.2,6.5,0,12.9-2.5,18-7.2l49.1-45.8-10.7,20.7v17h16v-38.4c0-9.2-7.5-16.7-16.7-16.7Z"/>
      <path class="st1" d="M-1058.2,507.7l-17.3,51.9-3.5-13.1-12.3-38.7h-34.1v-5.4c0-2.4.2-4.2.7-5.5.5-1.3,1.3-2.3,2.5-3,1.2-.7,3.1-1,5.5-1h8.3l-4.9-13.7h-6.5c-5.2,0-9.4.8-12.7,2.5-3.3,1.7-5.7,4.3-7.2,7.8-1.5,3.5-2.3,8.1-2.3,13.6v4.8h-11.9v14.2h11.9v54.3h16.6v-54.3h17v-9.8l21,59.8h7.9l-9.8,29.2h18.6l32.1-93.4h-19.5Z"/>
    </g>
    <g>
      <path class="st0" d="M-871.3,531.7h-12.2c-.9-8.3-8.9-15.4-19.1-15.4s-21.8,9.9-21.8,25.6,9,25.5,21.8,25.5,18.2-7,19.1-15.4h12.2c-1.1,13.9-13.7,25.6-31.3,25.6s-33.9-13.7-33.9-35.6,13.5-35.6,33.9-35.6,30.2,11.6,31.3,25.5Z"/>
      <path class="st0" d="M-848.7,507.6v11.3c4.7-7.8,13-12.7,24.7-12.7,18.6,0,31.3,13.7,31.3,35.6s-12.7,35.6-31.3,35.6-19.9-4.8-24.7-12.9v35.5h-11.5v-92.5h11.5ZM-826.7,567.4c13,0,21.9-10.4,21.9-25.5s-8.9-25.3-21.9-25.3-22,9.9-22,25.3,8.5,25.5,22,25.5Z"/>
      <path class="st0" d="M-727.7,520.8v-13.2h11.5v68.4h-11.5v-13.1c-4.3,8-12.3,14.6-25.3,14.6-21.1,0-34-14.5-34-35.6s12.9-35.6,34-35.6,21,6.7,25.3,14.6ZM-751.3,567c14.6,0,23.4-10.2,23.6-25.2-.1-15.1-8.9-25.2-23.6-25.2s-23.7,10.2-23.7,25.2,9.3,25.2,23.7,25.2Z"/>
      <path class="st0" d="M-647,520.8v-13.2h11.5v68.4h-11.5v-13.1c-4.3,8-12.3,14.6-25.3,14.6-21.1,0-34-14.5-34-35.6s12.9-35.6,34-35.6,21,6.7,25.3,14.6ZM-670.6,567c14.6,0,23.4-10.2,23.6-25.2-.1-15.1-8.9-25.2-23.6-25.2s-23.7,10.2-23.7,25.2,9.3,25.2,23.7,25.2Z"/>
      <path class="st0" d="M-571.9,527.8h-11.8c-.1-6.4-5.6-11.3-14.5-11.3s-13.5,4.1-13.5,8.9,1.8,7.4,10.9,9.4l10.9,2.4c14.5,3.1,19.5,10.3,19.5,19.9s-9.4,20.4-26.6,20.4-28.6-9.9-28.6-22.7h11.7c.1,7,5.6,12.2,17.4,12.2s14.3-4.2,14.3-9.7-3.1-8.3-11.7-10.1l-11.6-2.4c-13.7-2.9-18.2-10.2-18.2-19.5s8.9-19.2,25.6-19.2,26.2,9.5,26.2,21.6Z"/>
    </g>
  </g>
  <g>
    <path d="M600.1,479.8h15.7l-31.1,96.4h-15.7l31.1-96.4Z"/>
    <g>
      <path class="st1" d="M89,525.4c0-3.9,3.7-6.3,9.1-6.3s11.6,3.4,13.5,9.9l13.9-5.9c-3-9.9-14.3-16.7-27.6-16.7s-24.4,8.4-24.4,19.2c0,26,37.4,17.6,37.4,30.5s-4.2,7.8-10.6,7.8-13.9-5.7-15.9-12.7l-14,5.7c3.4,10.1,13.3,20.3,29.9,20.3s26.4-9.5,26.4-21.4c0-28-37.7-18.4-37.7-30.5Z"/>
      <rect class="st1" x="216.1" y="479.8" width="17.2" height="96.4"/>
      <path class="st1" d="M386.8,506.5c-22.7,0-33.9,17.6-33.9,35.4s12.1,35.4,34.8,35.4,28-7.6,31.9-20.6l-16.1-4.4c-1.8,6.7-7.5,10.5-15.5,10.5s-16.5-6.1-18-16.5h50.9c.1-1.4.3-4.4.3-6.8,0-15.9-11.3-33.1-34.4-33.1ZM370.5,533.8c1.9-9.3,7.9-14.3,16.3-14.3s15.2,6.1,16.1,14.3h-32.4Z"/>
      <path class="st1" d="M170.3,506.5c-19.5,0-35.4,15.8-35.4,35.4s15.8,35.4,35.4,35.4,35.4-15.8,35.4-35.4-15.8-35.4-35.4-35.4ZM170.3,561.8c-11,0-20-9-20-20s9-20,20-20,20,9,20,20-9,20-20,20Z"/>
      <path class="st1" d="M328.5,507.7h-39.6v16h27.7l-37.3,35c-4.3,4-9.1,2.4-10.5,1.8s-5.8-3-5.8-8.9v-44h-16.7v44c0,10.7,6.1,20,15.9,24.2,3.5,1.5,7.1,2.2,10.6,2.2,6.5,0,12.9-2.5,18-7.2l49.1-45.8-10.7,20.7v17h16v-38.4c0-9.2-7.5-16.7-16.7-16.7Z"/>
      <path class="st1" d="M521.8,507.7l-17.3,51.9-3.5-13.1-12.3-38.7h-34.1v-5.4c0-2.4.2-4.2.7-5.5.5-1.3,1.3-2.3,2.5-3,1.2-.7,3.1-1,5.5-1h8.3l-4.9-13.7h-6.5c-5.2,0-9.4.8-12.7,2.5-3.3,1.7-5.7,4.3-7.2,7.8-1.5,3.5-2.3,8.1-2.3,13.6v4.8h-11.9v14.2h11.9v54.3h16.6v-54.3h17v-9.8l21,59.8h7.9l-9.8,29.2h18.6l32.1-93.4h-19.5Z"/>
    </g>
    <g>
      <path d="M708.7,531.7h-12.2c-.9-8.3-8.9-15.4-19.1-15.4s-21.8,9.9-21.8,25.6,9,25.5,21.8,25.5,18.2-7,19.1-15.4h12.2c-1.1,13.9-13.7,25.6-31.3,25.6s-33.9-13.7-33.9-35.6,13.5-35.6,33.9-35.6,30.2,11.6,31.3,25.5Z"/>
      <path d="M731.3,507.6v11.3c4.7-7.8,13-12.7,24.7-12.7,18.6,0,31.3,13.7,31.3,35.6s-12.7,35.6-31.3,35.6-19.9-4.8-24.7-12.9v35.5h-11.5v-92.5h11.5ZM753.3,567.4c13,0,21.9-10.4,21.9-25.5s-8.9-25.3-21.9-25.3-22,9.9-22,25.3,8.5,25.5,22,25.5Z"/>
      <path d="M852.3,520.8v-13.2h11.5v68.4h-11.5v-13.1c-4.3,8-12.3,14.6-25.3,14.6-21.1,0-34-14.5-34-35.6s12.9-35.6,34-35.6,21,6.7,25.3,14.6ZM828.7,567c14.6,0,23.4-10.2,23.6-25.2-.1-15.1-8.9-25.2-23.6-25.2s-23.7,10.2-23.7,25.2,9.3,25.2,23.7,25.2Z"/>
      <path d="M933,520.8v-13.2h11.5v68.4h-11.5v-13.1c-4.3,8-12.3,14.6-25.3,14.6-21.1,0-34-14.5-34-35.6s12.9-35.6,34-35.6,21,6.7,25.3,14.6ZM909.4,567c14.6,0,23.4-10.2,23.6-25.2-.1-15.1-8.9-25.2-23.6-25.2s-23.7,10.2-23.7,25.2,9.3,25.2,23.7,25.2Z"/>
      <path d="M1008.1,527.8h-11.8c-.1-6.4-5.6-11.3-14.5-11.3s-13.5,4.1-13.5,8.9,1.8,7.4,10.9,9.4l10.9,2.4c14.5,3.1,19.5,10.3,19.5,19.9s-9.4,20.4-26.6,20.4-28.6-9.9-28.6-22.7h11.7c.1,7,5.6,12.2,17.4,12.2s14.3-4.2,14.3-9.7-3.1-8.3-11.7-10.1l-11.6-2.4c-13.7-2.9-18.2-10.2-18.2-19.5s8.9-19.2,25.6-19.2,26.2,9.5,26.2,21.6Z"/>
    </g>
  </g>
</svg>