<?xml version="1.0" encoding="UTF-8"?>
<svg id="Layer" xmlns="http://www.w3.org/2000/svg" version="1.1" viewBox="0 0 1080 1080">
  <!-- Generator: Adobe Illustrator 30.3.0, SVG Export Plug-In . SVG Version: 2.1.3 Build 182)  -->
  <defs>
    <style>
      .st0 {
        fill: #fff;
      }

      .st1 {
        fill: #e1611c;
      }
    </style>
  </defs>
  <rect x="-1580" y="-1356" width="1080" height="1080"/>
  <rect class="st1" y="-1356" width="1080" height="1080"/>
  <rect x="-1580" y="0" width="1080" height="1080"/>
  <rect class="st1" y="0" width="1080" height="1080"/>
  <g>
    <path class="st1" d="M-2456.7-880.5h16.8l-33.2,103.1h-16.8l33.2-103.1Z"/>
    <g>
      <path d="M-3003.7-831.7c0-4.2,3.9-6.7,9.8-6.7s12.4,3.6,14.4,10.6l14.9-6.3c-3.2-10.6-15.3-17.9-29.6-17.9s-26.1,9-26.1,20.5c0,27.8,40.1,18.8,40.1,32.6s-4.5,8.3-11.4,8.3-14.9-6.1-17-13.5l-15,6.1c3.6,10.8,14.3,21.7,32,21.7s28.3-10.2,28.3-22.9c0-30-40.4-19.7-40.4-32.6Z"/>
      <rect x="-2867.7" y="-880.5" width="18.4" height="103.1"/>
      <path d="M-2685-851.9c-24.3,0-36.3,18.8-36.3,37.9s13,37.9,37.3,37.9,30-8.2,34.1-22l-17.2-4.7c-1.9,7.1-8,11.2-16.6,11.2s-17.6-6.6-19.2-17.6h54.5c.1-1.5.3-4.7.3-7.3,0-17-12.1-35.4-36.9-35.4ZM-2702.5-822.6c2-9.9,8.4-15.3,17.5-15.3s16.3,6.6,17.2,15.3h-34.7Z"/>
      <path d="M-2916.8-851.9c-20.9,0-37.9,17-37.9,37.9s17,37.9,37.9,37.9,37.9-17,37.9-37.9-17-37.9-37.9-37.9ZM-2916.8-792.6c-11.8,0-21.4-9.6-21.4-21.4s9.6-21.4,21.4-21.4,21.4,9.6,21.4,21.4-9.6,21.4-21.4,21.4Z"/>
      <path d="M-2747.4-850.6h-42.4v17.1h29.6l-39.9,37.5c-4.6,4.3-9.7,2.6-11.2,2s-6.2-3.2-6.2-9.5v-47.1h-17.9v47.1c0,11.5,6.5,21.4,17,25.9,3.7,1.6,7.5,2.4,11.3,2.4,7,0,13.8-2.7,19.2-7.7l52.6-49-11.4,22.2v18.2h17.1v-41.1c0-9.9-8-17.9-17.9-17.9Z"/>
      <path d="M-2540.5-850.6l-18.5,55.5-3.8-14-13.2-41.5h-36.5v-5.8c0-2.5.2-4.5.7-5.9.5-1.4,1.4-2.5,2.7-3.2,1.3-.7,3.3-1.1,5.9-1.1h8.9l-5.2-14.7h-7c-5.5,0-10.1.9-13.5,2.7-3.5,1.8-6.1,4.6-7.7,8.4-1.7,3.8-2.5,8.6-2.5,14.6v5.1h-12.7v15.1h12.7v58.1h17.8v-58.1h18.2v-10.5l22.4,64h8.4l-10.5,31.3h19.9l34.4-99.9h-20.9Z"/>
    </g>
    <g>
      <path class="st1" d="M-2340.6-824.9h-13.1c-1-8.9-9.5-16.5-20.4-16.5s-23.3,10.6-23.3,27.4,9.7,27.2,23.3,27.2,19.5-7.5,20.4-16.5h13.1c-1.2,14.9-14.7,27.4-33.5,27.4s-36.2-14.7-36.2-38.1,14.4-38.1,36.2-38.1,32.3,12.4,33.5,27.2Z"/>
      <path class="st1" d="M-2317.1-850.7v12.8c4.5-8.4,13.5-14.3,27.7-14.3v13.1h-4.6c-14.6,0-23,9-23,24.4v37.2h-12.3v-73.2h12.3Z"/>
      <path class="st1" d="M-2269-850.7v11.3c3.5-7.4,10.8-12.8,20.8-12.8s18.8,5.2,23.3,14.8c3.7-8.2,11.9-14.8,23.4-14.8s27.7,12.4,27.7,33.8v40.9h-12.3v-38.8c0-16.1-7.1-24.7-17.7-24.7s-17.6,9.7-17.6,24.4v39.1h-12.3v-38.8c0-16.1-7.1-24.7-17.7-24.7s-17.6,9.7-17.6,24.4v-1.1c-.1,0-.1,40.2-.1,40.2h-12.3v-73.2h12.3Z"/>
    </g>
  </g>
  <g>
    <path class="st1" d="M-2642.8,471.7h16.8l-33.2,103.1h-16.8l33.2-103.1Z"/>
    <g>
      <path class="st1" d="M-2526.6,527.2h-13.1c-1-8.9-9.5-16.5-20.4-16.5s-23.3,10.6-23.3,27.4,9.7,27.2,23.3,27.2,19.5-7.5,20.4-16.5h13.1c-1.2,14.9-14.7,27.4-33.5,27.4s-36.2-14.7-36.2-38.1,14.4-38.1,36.2-38.1,32.3,12.4,33.5,27.2Z"/>
      <path class="st1" d="M-2503.2,501.5v12.8c4.5-8.4,13.5-14.3,27.7-14.3v13.1h-4.6c-14.6,0-23,9-23,24.4v37.2h-12.3v-73.2h12.3Z"/>
      <path class="st1" d="M-2455.1,501.5v11.3c3.5-7.4,10.8-12.8,20.8-12.8s18.8,5.2,23.3,14.8c3.7-8.2,11.9-14.8,23.4-14.8s27.7,12.4,27.7,33.8v40.9h-12.3v-38.8c0-16.1-7.1-24.7-17.7-24.7s-17.6,9.7-17.6,24.4v39.1h-12.3v-38.8c0-16.1-7.1-24.7-17.7-24.7s-17.6,9.7-17.6,24.4v-1.1c-.1,0-.1,40.2-.1,40.2h-12.3v-73.2h12.3Z"/>
    </g>
    <path d="M-2728,476.3h-52.8v21.3h36.9l-49.7,46.7c-5.7,5.4-12.1,3.2-13.9,2.4-1.8-.8-7.8-4-7.8-11.8v-58.6h-22.3v58.6c0,14.3,8.1,26.6,21.2,32.3,4.6,2,9.4,3,14.1,3,8.7,0,17.2-3.3,23.9-9.6l65.5-61-14.2,27.6v22.7h21.3v-51.2c0-12.3-10-22.3-22.3-22.3Z"/>
  </g>
  <g>
    <path class="st1" d="M-898-880.5h16.8l-33.2,103.1h-16.8l33.2-103.1Z"/>
    <g>
      <path class="st0" d="M-1445-831.7c0-4.2,3.9-6.7,9.8-6.7s12.4,3.6,14.4,10.6l14.9-6.3c-3.2-10.6-15.3-17.9-29.6-17.9s-26.1,9-26.1,20.5c0,27.8,40.1,18.8,40.1,32.6s-4.5,8.3-11.4,8.3-14.9-6.1-17-13.5l-15,6.1c3.6,10.8,14.3,21.7,32,21.7s28.3-10.2,28.3-22.9c0-30-40.4-19.7-40.4-32.6Z"/>
      <rect class="st0" x="-1309" y="-880.5" width="18.4" height="103.1"/>
      <path class="st0" d="M-1126.3-851.9c-24.3,0-36.3,18.8-36.3,37.9s13,37.9,37.3,37.9,30-8.2,34.1-22l-17.2-4.7c-1.9,7.1-8,11.2-16.6,11.2s-17.6-6.6-19.2-17.6h54.5c.1-1.5.3-4.7.3-7.3,0-17-12.1-35.4-36.9-35.4ZM-1143.8-822.6c2-9.9,8.4-15.3,17.5-15.3s16.3,6.6,17.2,15.3h-34.7Z"/>
      <path class="st0" d="M-1358-851.9c-20.9,0-37.9,17-37.9,37.9s17,37.9,37.9,37.9,37.9-17,37.9-37.9-17-37.9-37.9-37.9ZM-1358-792.6c-11.8,0-21.4-9.6-21.4-21.4s9.6-21.4,21.4-21.4,21.4,9.6,21.4,21.4-9.6,21.4-21.4,21.4Z"/>
      <path class="st0" d="M-1188.7-850.6h-42.4v17.1h29.6l-39.9,37.5c-4.6,4.3-9.7,2.6-11.2,2s-6.2-3.2-6.2-9.5v-47.1h-17.9v47.1c0,11.5,6.5,21.4,17,25.9,3.7,1.6,7.5,2.4,11.3,2.4,7,0,13.8-2.7,19.2-7.7l52.6-49-11.4,22.2v18.2h17.1v-41.1c0-9.9-8-17.9-17.9-17.9Z"/>
      <path class="st0" d="M-981.8-850.6l-18.5,55.5-3.8-14-13.2-41.5h-36.5v-5.8c0-2.5.2-4.5.7-5.9.5-1.4,1.4-2.5,2.7-3.2,1.3-.7,3.3-1.1,5.9-1.1h8.9l-5.2-14.7h-7c-5.5,0-10.1.9-13.5,2.7-3.5,1.8-6.1,4.6-7.7,8.4-1.7,3.8-2.5,8.6-2.5,14.6v5.1h-12.7v15.1h12.7v58.1h17.8v-58.1h18.2v-10.5l22.4,64h8.4l-10.5,31.3h19.9l34.4-99.9h-20.9Z"/>
    </g>
    <g>
      <path class="st1" d="M-781.8-824.9h-13.1c-1-8.9-9.5-16.5-20.4-16.5s-23.3,10.6-23.3,27.4,9.7,27.2,23.3,27.2,19.5-7.5,20.4-16.5h13.1c-1.2,14.9-14.7,27.4-33.5,27.4s-36.2-14.7-36.2-38.1,14.4-38.1,36.2-38.1,32.3,12.4,33.5,27.2Z"/>
      <path class="st1" d="M-758.4-850.7v12.8c4.5-8.4,13.5-14.3,27.7-14.3v13.1h-4.6c-14.6,0-23,9-23,24.4v37.2h-12.3v-73.2h12.3Z"/>
      <path class="st1" d="M-710.3-850.7v11.3c3.5-7.4,10.8-12.8,20.8-12.8s18.8,5.2,23.3,14.8c3.7-8.2,11.9-14.8,23.4-14.8s27.7,12.4,27.7,33.8v40.9h-12.3v-38.8c0-16.1-7.1-24.7-17.7-24.7s-17.6,9.7-17.6,24.4v39.1h-12.3v-38.8c0-16.1-7.1-24.7-17.7-24.7s-17.6,9.7-17.6,24.4v-1.1c-.1,0-.1,40.2-.1,40.2h-12.3v-73.2h12.3Z"/>
    </g>
  </g>
  <g>
    <path d="M682-880.5h16.8l-33.2,103.1h-16.8l33.2-103.1Z"/>
    <g>
      <path class="st0" d="M135-831.7c0-4.2,3.9-6.7,9.8-6.7s12.4,3.6,14.4,10.6l14.9-6.3c-3.2-10.6-15.3-17.9-29.6-17.9s-26.1,9-26.1,20.5c0,27.8,40.1,18.8,40.1,32.6s-4.5,8.3-11.4,8.3-14.9-6.1-17-13.5l-15,6.1c3.6,10.8,14.3,21.7,32,21.7s28.3-10.2,28.3-22.9c0-30-40.4-19.7-40.4-32.6Z"/>
      <rect class="st0" x="271" y="-880.5" width="18.4" height="103.1"/>
      <path class="st0" d="M453.7-851.9c-24.3,0-36.3,18.8-36.3,37.9s13,37.9,37.3,37.9,30-8.2,34.1-22l-17.2-4.7c-1.9,7.1-8,11.2-16.6,11.2s-17.6-6.6-19.2-17.6h54.5c.1-1.5.3-4.7.3-7.3,0-17-12.1-35.4-36.9-35.4ZM436.2-822.6c2-9.9,8.4-15.3,17.5-15.3s16.3,6.6,17.2,15.3h-34.7Z"/>
      <path class="st0" d="M222-851.9c-20.9,0-37.9,17-37.9,37.9s17,37.9,37.9,37.9,37.9-17,37.9-37.9-17-37.9-37.9-37.9ZM222-792.6c-11.8,0-21.4-9.6-21.4-21.4s9.6-21.4,21.4-21.4,21.4,9.6,21.4,21.4-9.6,21.4-21.4,21.4Z"/>
      <path class="st0" d="M391.3-850.6h-42.4v17.1h29.6l-39.9,37.5c-4.6,4.3-9.7,2.6-11.2,2s-6.2-3.2-6.2-9.5v-47.1h-17.9v47.1c0,11.5,6.5,21.4,17,25.9,3.7,1.6,7.5,2.4,11.3,2.4,7,0,13.8-2.7,19.2-7.7l52.6-49-11.4,22.2v18.2h17.1v-41.1c0-9.9-8-17.9-17.9-17.9Z"/>
      <path class="st0" d="M598.2-850.6l-18.5,55.5-3.8-14-13.2-41.5h-36.5v-5.8c0-2.5.2-4.5.7-5.9.5-1.4,1.4-2.5,2.7-3.2,1.3-.7,3.3-1.1,5.9-1.1h8.9l-5.2-14.7h-7c-5.5,0-10.1.9-13.5,2.7-3.5,1.8-6.1,4.6-7.7,8.4-1.7,3.8-2.5,8.6-2.5,14.6v5.1h-12.7v15.1h12.7v58.1h17.8v-58.1h18.2v-10.5l22.4,64h8.4l-10.5,31.3h19.9l34.4-99.9h-20.9Z"/>
    </g>
    <g>
      <path d="M798.2-824.9h-13.1c-1-8.9-9.5-16.5-20.4-16.5s-23.3,10.6-23.3,27.4,9.7,27.2,23.3,27.2,19.5-7.5,20.4-16.5h13.1c-1.2,14.9-14.7,27.4-33.5,27.4s-36.2-14.7-36.2-38.1,14.4-38.1,36.2-38.1,32.3,12.4,33.5,27.2Z"/>
      <path d="M821.6-850.7v12.8c4.5-8.4,13.5-14.3,27.7-14.3v13.1h-4.6c-14.6,0-23,9-23,24.4v37.2h-12.3v-73.2h12.3Z"/>
      <path d="M869.7-850.7v11.3c3.5-7.4,10.8-12.8,20.8-12.8s18.8,5.2,23.3,14.8c3.7-8.2,11.9-14.8,23.4-14.8s27.7,12.4,27.7,33.8v40.9h-12.3v-38.8c0-16.1-7.1-24.7-17.7-24.7s-17.6,9.7-17.6,24.4v39.1h-12.3v-38.8c0-16.1-7.1-24.7-17.7-24.7s-17.6,9.7-17.6,24.4v-1.1c-.1,0-.1,40.2-.1,40.2h-12.3v-73.2h12.3Z"/>
    </g>
  </g>
  <g>
    <path class="st1" d="M-1084,487.7h16.8l-33.2,103.1h-16.8l33.2-103.1Z"/>
    <g>
      <path class="st1" d="M-967.9,543.2h-13.1c-1-8.9-9.5-16.5-20.4-16.5s-23.3,10.6-23.3,27.4,9.7,27.2,23.3,27.2,19.5-7.5,20.4-16.5h13.1c-1.2,14.9-14.7,27.4-33.5,27.4s-36.2-14.7-36.2-38.1,14.4-38.1,36.2-38.1,32.3,12.4,33.5,27.2Z"/>
      <path class="st1" d="M-944.5,517.5v12.8c4.5-8.4,13.5-14.3,27.7-14.3v13.1h-4.6c-14.6,0-23,9-23,24.4v37.2h-12.3v-73.2h12.3Z"/>
      <path class="st1" d="M-896.4,517.5v11.3c3.5-7.4,10.8-12.8,20.8-12.8s18.8,5.2,23.3,14.8c3.7-8.2,11.9-14.8,23.4-14.8s27.7,12.4,27.7,33.8v40.9h-12.3v-38.8c0-16.1-7.1-24.7-17.7-24.7s-17.6,9.7-17.6,24.4v39.1h-12.3v-38.8c0-16.1-7.1-24.7-17.7-24.7s-17.6,9.7-17.6,24.4v-1.1c-.1,0-.1,40.2-.1,40.2h-12.3v-73.2h12.3Z"/>
    </g>
    <path class="st0" d="M-1169.3,492.3h-52.8v21.3h36.9l-49.7,46.7c-5.7,5.4-12.1,3.2-13.9,2.4-1.8-.8-7.8-4-7.8-11.8v-58.6h-22.3v58.6c0,14.3,8.1,26.6,21.2,32.3,4.6,2,9.4,3,14.1,3,8.7,0,17.2-3.3,23.9-9.6l65.5-61-14.2,27.6v22.7h21.3v-51.2c0-12.3-10-22.3-22.3-22.3Z"/>
  </g>
  <g>
    <path d="M496,487.7h16.8l-33.2,103.1h-16.8l33.2-103.1Z"/>
    <g>
      <path d="M612.1,543.2h-13.1c-1-8.9-9.5-16.5-20.4-16.5s-23.3,10.6-23.3,27.4,9.7,27.2,23.3,27.2,19.5-7.5,20.4-16.5h13.1c-1.2,14.9-14.7,27.4-33.5,27.4s-36.2-14.7-36.2-38.1,14.4-38.1,36.2-38.1,32.3,12.4,33.5,27.2Z"/>
      <path d="M635.5,517.5v12.8c4.5-8.4,13.5-14.3,27.7-14.3v13.1h-4.6c-14.6,0-23,9-23,24.4v37.2h-12.3v-73.2h12.3Z"/>
      <path d="M683.6,517.5v11.3c3.5-7.4,10.8-12.8,20.8-12.8s18.8,5.2,23.3,14.8c3.7-8.2,11.9-14.8,23.4-14.8s27.7,12.4,27.7,33.8v40.9h-12.3v-38.8c0-16.1-7.1-24.7-17.7-24.7s-17.6,9.7-17.6,24.4v39.1h-12.3v-38.8c0-16.1-7.1-24.7-17.7-24.7s-17.6,9.7-17.6,24.4v-1.1c-.1,0-.1,40.2-.1,40.2h-12.3v-73.2h12.3Z"/>
    </g>
    <path class="st0" d="M410.7,492.3h-52.8v21.3h36.9l-49.7,46.7c-5.7,5.4-12.1,3.2-13.9,2.4-1.8-.8-7.8-4-7.8-11.8v-58.6h-22.3v58.6c0,14.3,8.1,26.6,21.2,32.3,4.6,2,9.4,3,14.1,3,8.7,0,17.2-3.3,23.9-9.6l65.5-61-14.2,27.6v22.7h21.3v-51.2c0-12.3-10-22.3-22.3-22.3Z"/>
  </g>
</svg>