<?xml version="1.0" encoding="UTF-8"?>
<svg id="Layer" xmlns="http://www.w3.org/2000/svg" version="1.1" viewBox="0 0 1080 1080">
  <!-- Generator: Adobe Illustrator 30.3.0, SVG Export Plug-In . SVG Version: 2.1.3 Build 182)  -->
  <defs>
    <style>
      .st0 {
        fill: #f0a800;
      }

      .st1 {
        fill: #fff;
      }
    </style>
  </defs>
  <rect x="-1580" y="-1356" width="1080" height="1080"/>
  <rect class="st0" y="-1356" width="1080" height="1080"/>
  <rect x="-1580" y="0" width="1080" height="1080"/>
  <rect class="st0" y="0" width="1080" height="1080"/>
  <g>
    <path class="st0" d="M-2450.7-881.6h17.2l-34.1,105.7h-17.2l34.1-105.7Z"/>
    <g>
      <path d="M-3011.3-831.6c0-4.3,4-6.9,10-6.9s12.7,3.7,14.8,10.9l15.2-6.4c-3.3-10.9-15.7-18.4-30.3-18.4s-26.7,9.3-26.7,21c0,28.5,41.1,19.3,41.1,33.4s-4.6,8.5-11.6,8.5-15.2-6.3-17.5-13.9l-15.4,6.3c3.7,11,14.6,22.2,32.8,22.2s29-10.5,29-23.4c0-30.8-41.4-20.2-41.4-33.4Z"/>
      <rect x="-2872" y="-881.6" width="18.8" height="105.7"/>
      <path d="M-2684.7-852.3c-24.9,0-37.2,19.3-37.2,38.8s13.3,38.8,38.2,38.8,30.8-8.4,34.9-22.5l-17.6-4.8c-1.9,7.3-8.2,11.5-17,11.5s-18.1-6.7-19.7-18.1h55.8c.1-1.5.3-4.8.3-7.5,0-17.5-12.4-36.3-37.8-36.3ZM-2702.6-822.3c2.1-10.2,8.7-15.7,17.9-15.7s16.7,6.7,17.6,15.7h-35.5Z"/>
      <path d="M-2922.2-852.3c-21.4,0-38.8,17.4-38.8,38.8s17.4,38.8,38.8,38.8,38.8-17.4,38.8-38.8-17.4-38.8-38.8-38.8ZM-2922.2-791.6c-12.1,0-21.9-9.8-21.9-21.9s9.8-21.9,21.9-21.9,21.9,9.8,21.9,21.9-9.8,21.9-21.9,21.9Z"/>
      <path d="M-2748.6-851h-43.5v17.6h30.4l-40.9,38.4c-4.7,4.4-10,2.7-11.5,2s-6.4-3.3-6.4-9.7v-48.2h-18.4v48.2c0,11.7,6.7,21.9,17.5,26.6,3.8,1.6,7.7,2.4,11.6,2.4,7.2,0,14.2-2.7,19.7-7.9l53.9-50.2-11.7,22.7v18.6h17.6v-42.1c0-10.1-8.2-18.4-18.4-18.4Z"/>
      <path d="M-2536.6-851l-19,56.9-3.9-14.4-13.5-42.5h-37.4v-6c0-2.6.2-4.6.7-6,.5-1.4,1.4-2.5,2.8-3.3,1.3-.7,3.4-1.1,6-1.1h9.1l-5.4-15.1h-7.2c-5.7,0-10.3.9-13.9,2.8-3.6,1.8-6.2,4.7-7.9,8.6-1.7,3.9-2.5,8.9-2.5,14.9v5.2h-13v15.5h13v59.6h18.2v-59.6h18.7v-10.7l23,65.5h8.6l-10.7,32.1h20.4l35.2-102.4h-21.4Z"/>
    </g>
    <g>
      <path class="st0" d="M-2338.1-836.5v-14.5h12.6v75h-12.6v-14.4c-4.7,8.8-13.5,16.1-27.8,16.1-23.2,0-37.3-15.9-37.3-39.1s14.1-39.1,37.3-39.1,23,7.4,27.8,16.1ZM-2364-785.8c16.1,0,25.7-11.2,25.8-27.6-.1-16.6-9.8-27.6-25.8-27.6s-26,11.2-26,27.6,10.2,27.6,26,27.6Z"/>
      <path class="st0" d="M-2240.7-883.4v107.4h-12.6v-12.1c-5.3,8.7-14.2,13.8-26.8,13.8-20.5,0-34.6-15.2-34.6-39.1s14.1-39.1,34.6-39.1,21.5,5,26.8,13.7v-44.5h12.6ZM-2277.1-786c14.7,0,23.9-10.9,23.9-27.8s-9.2-27.8-23.9-27.8-24.3,11.3-24.3,27.8,9.9,27.8,24.3,27.8Z"/>
      <path class="st0" d="M-2167.4-828.9h-13c-.1-7-6.1-12.4-15.9-12.4s-14.8,4.5-14.8,9.8,2,8.1,12,10.3l12,2.7c15.9,3.4,21.4,11.3,21.4,21.8s-10.3,22.3-29.2,22.3-31.4-10.9-31.4-24.9h12.8c.1,7.7,6.1,13.4,19.1,13.4s15.6-4.6,15.6-10.6-3.4-9.1-12.8-11l-12.7-2.7c-15.1-3.2-20-11.2-20-21.4s9.8-21.1,28.1-21.1,28.8,10.5,28.8,23.7Z"/>
    </g>
  </g>
  <g>
    <path class="st0" d="M-2641.4,471.3h17.2l-34.1,105.7h-17.2l34.1-105.7Z"/>
    <g>
      <path class="st0" d="M-2528.8,516.4v-14.5h12.6v75h-12.6v-14.4c-4.7,8.8-13.5,16.1-27.8,16.1-23.2,0-37.3-15.9-37.3-39.1s14.1-39.1,37.3-39.1,23,7.4,27.8,16.1ZM-2554.6,567.1c16.1,0,25.7-11.2,25.8-27.6-.1-16.6-9.8-27.6-25.8-27.6s-26,11.2-26,27.6,10.2,27.6,26,27.6Z"/>
      <path class="st0" d="M-2431.3,469.5v107.4h-12.6v-12.1c-5.3,8.7-14.2,13.8-26.8,13.8-20.5,0-34.6-15.2-34.6-39.1s14.1-39.1,34.6-39.1,21.5,5,26.8,13.7v-44.5h12.6ZM-2467.8,566.9c14.7,0,23.9-10.9,23.9-27.8s-9.2-27.8-23.9-27.8-24.3,11.3-24.3,27.8,9.9,27.8,24.3,27.8Z"/>
      <path class="st0" d="M-2358,524.1h-13c-.1-7-6.1-12.4-15.9-12.4s-14.8,4.5-14.8,9.8,2,8.1,12,10.3l12,2.7c15.9,3.4,21.4,11.3,21.4,21.8s-10.3,22.3-29.2,22.3-31.4-10.9-31.4-24.9h12.8c.1,7.7,6.1,13.4,19.1,13.4s15.6-4.6,15.6-10.6-3.4-9.1-12.8-11l-12.7-2.7c-15.1-3.2-20-11.2-20-21.4s9.8-21.1,28.1-21.1,28.8,10.5,28.8,23.7Z"/>
    </g>
    <path d="M-2728.8,476.1h-54.2v21.9h37.8l-50.9,47.8c-5.9,5.5-12.4,3.3-14.3,2.5-1.9-.8-8-4.1-8-12.1v-60.1h-22.9v60.1c0,14.6,8.3,27.3,21.8,33.1,4.7,2,9.6,3,14.5,3,8.9,0,17.6-3.4,24.5-9.9l67.1-62.6-14.6,28.3v23.2h21.9v-52.4c0-12.6-10.3-22.9-22.9-22.9Z"/>
  </g>
  <g>
    <path class="st0" d="M-892-881.6h17.2l-34.1,105.7h-17.2l34.1-105.7Z"/>
    <g>
      <path class="st1" d="M-1452.6-831.6c0-4.3,4-6.9,10-6.9s12.7,3.7,14.8,10.9l15.2-6.4c-3.3-10.9-15.7-18.4-30.3-18.4s-26.7,9.3-26.7,21c0,28.5,41.1,19.3,41.1,33.4s-4.6,8.5-11.6,8.5-15.2-6.3-17.5-13.9l-15.4,6.3c3.7,11,14.6,22.2,32.8,22.2s29-10.5,29-23.4c0-30.8-41.4-20.2-41.4-33.4Z"/>
      <rect class="st1" x="-1313.2" y="-881.6" width="18.8" height="105.7"/>
      <path class="st1" d="M-1126-852.3c-24.9,0-37.2,19.3-37.2,38.8s13.3,38.8,38.2,38.8,30.8-8.4,34.9-22.5l-17.6-4.8c-1.9,7.3-8.2,11.5-17,11.5s-18.1-6.7-19.7-18.1h55.8c.1-1.5.3-4.8.3-7.5,0-17.5-12.4-36.3-37.8-36.3ZM-1143.9-822.3c2.1-10.2,8.7-15.7,17.9-15.7s16.7,6.7,17.6,15.7h-35.5Z"/>
      <path class="st1" d="M-1363.5-852.3c-21.4,0-38.8,17.4-38.8,38.8s17.4,38.8,38.8,38.8,38.8-17.4,38.8-38.8-17.4-38.8-38.8-38.8ZM-1363.5-791.6c-12.1,0-21.9-9.8-21.9-21.9s9.8-21.9,21.9-21.9,21.9,9.8,21.9,21.9-9.8,21.9-21.9,21.9Z"/>
      <path class="st1" d="M-1189.9-851h-43.5v17.6h30.4l-40.9,38.4c-4.7,4.4-10,2.7-11.5,2s-6.4-3.3-6.4-9.7v-48.2h-18.4v48.2c0,11.7,6.7,21.9,17.5,26.6,3.8,1.6,7.7,2.4,11.6,2.4,7.2,0,14.2-2.7,19.7-7.9l53.9-50.2-11.7,22.7v18.6h17.6v-42.1c0-10.1-8.2-18.4-18.4-18.4Z"/>
      <path class="st1" d="M-977.9-851l-19,56.9-3.9-14.4-13.5-42.5h-37.4v-6c0-2.6.2-4.6.7-6,.5-1.4,1.4-2.5,2.8-3.3,1.3-.7,3.4-1.1,6-1.1h9.1l-5.4-15.1h-7.2c-5.7,0-10.3.9-13.9,2.8-3.6,1.8-6.2,4.7-7.9,8.6-1.7,3.9-2.5,8.9-2.5,14.9v5.2h-13v15.5h13v59.6h18.2v-59.6h18.7v-10.7l23,65.5h8.6l-10.7,32.1h20.4l35.2-102.4h-21.4Z"/>
    </g>
    <g>
      <path class="st0" d="M-779.4-836.5v-14.5h12.6v75h-12.6v-14.4c-4.7,8.8-13.5,16.1-27.8,16.1-23.2,0-37.3-15.9-37.3-39.1s14.1-39.1,37.3-39.1,23,7.4,27.8,16.1ZM-805.2-785.8c16.1,0,25.7-11.2,25.8-27.6-.1-16.6-9.8-27.6-25.8-27.6s-26,11.2-26,27.6,10.2,27.6,26,27.6Z"/>
      <path class="st0" d="M-681.9-883.4v107.4h-12.6v-12.1c-5.3,8.7-14.2,13.8-26.8,13.8-20.5,0-34.6-15.2-34.6-39.1s14.1-39.1,34.6-39.1,21.5,5,26.8,13.7v-44.5h12.6ZM-718.4-786c14.7,0,23.9-10.9,23.9-27.8s-9.2-27.8-23.9-27.8-24.3,11.3-24.3,27.8,9.9,27.8,24.3,27.8Z"/>
      <path class="st0" d="M-608.6-828.9h-13c-.1-7-6.1-12.4-15.9-12.4s-14.8,4.5-14.8,9.8,2,8.1,12,10.3l12,2.7c15.9,3.4,21.4,11.3,21.4,21.8s-10.3,22.3-29.2,22.3-31.4-10.9-31.4-24.9h12.8c.1,7.7,6.1,13.4,19.1,13.4s15.6-4.6,15.6-10.6-3.4-9.1-12.8-11l-12.7-2.7c-15.1-3.2-20-11.2-20-21.4s9.8-21.1,28.1-21.1,28.8,10.5,28.8,23.7Z"/>
    </g>
  </g>
  <g>
    <path d="M688-881.6h17.2l-34.1,105.7h-17.2l34.1-105.7Z"/>
    <g>
      <path class="st1" d="M127.4-831.6c0-4.3,4-6.9,10-6.9s12.7,3.7,14.8,10.9l15.2-6.4c-3.3-10.9-15.7-18.4-30.3-18.4s-26.7,9.3-26.7,21c0,28.5,41.1,19.3,41.1,33.4s-4.6,8.5-11.6,8.5-15.2-6.3-17.5-13.9l-15.4,6.3c3.7,11,14.6,22.2,32.8,22.2s29-10.5,29-23.4c0-30.8-41.4-20.2-41.4-33.4Z"/>
      <rect class="st1" x="266.7" y="-881.6" width="18.8" height="105.7"/>
      <path class="st1" d="M454-852.3c-24.9,0-37.2,19.3-37.2,38.8s13.3,38.8,38.2,38.8,30.8-8.4,34.9-22.5l-17.6-4.8c-1.9,7.3-8.2,11.5-17,11.5s-18.1-6.7-19.7-18.1h55.8c.1-1.5.3-4.8.3-7.5,0-17.5-12.4-36.3-37.8-36.3ZM436.1-822.3c2.1-10.2,8.7-15.7,17.9-15.7s16.7,6.7,17.6,15.7h-35.5Z"/>
      <path class="st1" d="M216.5-852.3c-21.4,0-38.8,17.4-38.8,38.8s17.4,38.8,38.8,38.8,38.8-17.4,38.8-38.8-17.4-38.8-38.8-38.8ZM216.5-791.6c-12.1,0-21.9-9.8-21.9-21.9s9.8-21.9,21.9-21.9,21.9,9.8,21.9,21.9-9.8,21.9-21.9,21.9Z"/>
      <path class="st1" d="M390.1-851h-43.5v17.6h30.4l-40.9,38.4c-4.7,4.4-10,2.7-11.5,2s-6.4-3.3-6.4-9.7v-48.2h-18.4v48.2c0,11.7,6.7,21.9,17.5,26.6,3.8,1.6,7.7,2.4,11.6,2.4,7.2,0,14.2-2.7,19.7-7.9l53.9-50.2-11.7,22.7v18.6h17.6v-42.1c0-10.1-8.2-18.4-18.4-18.4Z"/>
      <path class="st1" d="M602.1-851l-19,56.9-3.9-14.4-13.5-42.5h-37.4v-6c0-2.6.2-4.6.7-6,.5-1.4,1.4-2.5,2.8-3.3,1.3-.7,3.4-1.1,6-1.1h9.1l-5.4-15.1h-7.2c-5.7,0-10.3.9-13.9,2.8-3.6,1.8-6.2,4.7-7.9,8.6-1.7,3.9-2.5,8.9-2.5,14.9v5.2h-13v15.5h13v59.6h18.2v-59.6h18.7v-10.7l23,65.5h8.6l-10.7,32.1h20.4l35.2-102.4h-21.4Z"/>
    </g>
    <g>
      <path d="M800.6-836.5v-14.5h12.6v75h-12.6v-14.4c-4.7,8.8-13.5,16.1-27.8,16.1-23.2,0-37.3-15.9-37.3-39.1s14.1-39.1,37.3-39.1,23,7.4,27.8,16.1ZM774.8-785.8c16.1,0,25.7-11.2,25.8-27.6-.1-16.6-9.8-27.6-25.8-27.6s-26,11.2-26,27.6,10.2,27.6,26,27.6Z"/>
      <path d="M898.1-883.4v107.4h-12.6v-12.1c-5.3,8.7-14.2,13.8-26.8,13.8-20.5,0-34.6-15.2-34.6-39.1s14.1-39.1,34.6-39.1,21.5,5,26.8,13.7v-44.5h12.6ZM861.6-786c14.7,0,23.9-10.9,23.9-27.8s-9.2-27.8-23.9-27.8-24.3,11.3-24.3,27.8,9.9,27.8,24.3,27.8Z"/>
      <path d="M971.4-828.9h-13c-.1-7-6.1-12.4-15.9-12.4s-14.8,4.5-14.8,9.8,2,8.1,12,10.3l12,2.7c15.9,3.4,21.4,11.3,21.4,21.8s-10.3,22.3-29.2,22.3-31.4-10.9-31.4-24.9h12.8c.1,7.7,6.1,13.4,19.1,13.4s15.6-4.6,15.6-10.6-3.4-9.1-12.8-11l-12.7-2.7c-15.1-3.2-20-11.2-20-21.4s9.8-21.1,28.1-21.1,28.8,10.5,28.8,23.7Z"/>
    </g>
  </g>
  <g>
    <path class="st0" d="M-1082.7,487.3h17.2l-34.1,105.7h-17.2l34.1-105.7Z"/>
    <g>
      <path class="st0" d="M-970.1,532.4v-14.5h12.6v75h-12.6v-14.4c-4.7,8.8-13.5,16.1-27.8,16.1-23.2,0-37.3-15.9-37.3-39.1s14.1-39.1,37.3-39.1,23,7.4,27.8,16.1ZM-995.9,583.1c16.1,0,25.7-11.2,25.8-27.6-.1-16.6-9.8-27.6-25.8-27.6s-26,11.2-26,27.6,10.2,27.6,26,27.6Z"/>
      <path class="st0" d="M-872.6,485.5v107.4h-12.6v-12.1c-5.3,8.7-14.2,13.8-26.8,13.8-20.5,0-34.6-15.2-34.6-39.1s14.1-39.1,34.6-39.1,21.5,5,26.8,13.7v-44.5h12.6ZM-909.1,582.9c14.7,0,23.9-10.9,23.9-27.8s-9.2-27.8-23.9-27.8-24.3,11.3-24.3,27.8,9.9,27.8,24.3,27.8Z"/>
      <path class="st0" d="M-799.3,540.1h-13c-.1-7-6.1-12.4-15.9-12.4s-14.8,4.5-14.8,9.8,2,8.1,12,10.3l12,2.7c15.9,3.4,21.4,11.3,21.4,21.8s-10.3,22.3-29.2,22.3-31.4-10.9-31.4-24.9h12.8c.1,7.7,6.1,13.4,19.1,13.4s15.6-4.6,15.6-10.6-3.4-9.1-12.8-11l-12.7-2.7c-15.1-3.2-20-11.2-20-21.4s9.8-21.1,28.1-21.1,28.8,10.5,28.8,23.7Z"/>
    </g>
    <path class="st1" d="M-1170,492.1h-54.2v21.9h37.8l-50.9,47.8c-5.9,5.5-12.4,3.3-14.3,2.5-1.9-.8-8-4.1-8-12.1v-60.1h-22.9v60.1c0,14.6,8.3,27.3,21.8,33.1,4.7,2,9.6,3,14.5,3,8.9,0,17.6-3.4,24.5-9.9l67.1-62.6-14.6,28.3v23.2h21.9v-52.4c0-12.6-10.3-22.9-22.9-22.9Z"/>
  </g>
  <g>
    <path d="M497.3,487.3h17.2l-34.1,105.7h-17.2l34.1-105.7Z"/>
    <g>
      <path d="M609.9,532.4v-14.5h12.6v75h-12.6v-14.4c-4.7,8.8-13.5,16.1-27.8,16.1-23.2,0-37.3-15.9-37.3-39.1s14.1-39.1,37.3-39.1,23,7.4,27.8,16.1ZM584.1,583.1c16.1,0,25.7-11.2,25.8-27.6-.1-16.6-9.8-27.6-25.8-27.6s-26,11.2-26,27.6,10.2,27.6,26,27.6Z"/>
      <path d="M707.4,485.5v107.4h-12.6v-12.1c-5.3,8.7-14.2,13.8-26.8,13.8-20.5,0-34.6-15.2-34.6-39.1s14.1-39.1,34.6-39.1,21.5,5,26.8,13.7v-44.5h12.6ZM670.9,582.9c14.7,0,23.9-10.9,23.9-27.8s-9.2-27.8-23.9-27.8-24.3,11.3-24.3,27.8,9.9,27.8,24.3,27.8Z"/>
      <path d="M780.7,540.1h-13c-.1-7-6.1-12.4-15.9-12.4s-14.8,4.5-14.8,9.8,2,8.1,12,10.3l12,2.7c15.9,3.4,21.4,11.3,21.4,21.8s-10.3,22.3-29.2,22.3-31.4-10.9-31.4-24.9h12.8c.1,7.7,6.1,13.4,19.1,13.4s15.6-4.6,15.6-10.6-3.4-9.1-12.8-11l-12.7-2.7c-15.1-3.2-20-11.2-20-21.4s9.8-21.1,28.1-21.1,28.8,10.5,28.8,23.7Z"/>
    </g>
    <path class="st1" d="M410,492.1h-54.2v21.9h37.8l-50.9,47.8c-5.9,5.5-12.4,3.3-14.3,2.5-1.9-.8-8-4.1-8-12.1v-60.1h-22.9v60.1c0,14.6,8.3,27.3,21.8,33.1,4.7,2,9.6,3,14.5,3,8.9,0,17.6-3.4,24.5-9.9l67.1-62.6-14.6,28.3v23.2h21.9v-52.4c0-12.6-10.3-22.9-22.9-22.9Z"/>
  </g>
</svg>