<?xml version="1.0" encoding="UTF-8"?>
<svg id="Layer" xmlns="http://www.w3.org/2000/svg" version="1.1" viewBox="0 0 1080 1080">
  <!-- Generator: Adobe Illustrator 30.3.0, SVG Export Plug-In . SVG Version: 2.1.3 Build 182)  -->
  <defs>
    <style>
      .st0 {
        fill: #fff;
      }

      .st1 {
        fill: #e64499;
      }
    </style>
  </defs>
  <rect x="-1580" y="-1356" width="1080" height="1080"/>
  <rect class="st1" y="-1356" width="1080" height="1080"/>
  <rect x="-1580" y="0" width="1080" height="1080"/>
  <rect class="st1" y="0" width="1080" height="1080"/>
  <g>
    <path class="st1" d="M-2634.5-862.5h12l-23.8,73.9h-12l23.8-73.9Z"/>
    <g>
      <path d="M-3026.7-827.5c0-3,2.8-4.8,7-4.8s8.9,2.6,10.3,7.6l10.7-4.5c-2.3-7.6-11-12.8-21.2-12.8s-18.7,6.5-18.7,14.7c0,19.9,28.7,13.5,28.7,23.4s-3.2,6-8.1,6-10.7-4.4-12.2-9.7l-10.8,4.4c2.6,7.7,10.2,15.6,23,15.6s20.3-7.3,20.3-16.4c0-21.5-28.9-14.1-28.9-23.4Z"/>
      <rect x="-2929.2" y="-862.5" width="13.2" height="73.9"/>
      <path d="M-2798.2-842c-17.4,0-26,13.5-26,27.2s9.3,27.2,26.7,27.2,21.5-5.8,24.4-15.8l-12.3-3.3c-1.4,5.1-5.7,8-11.9,8s-12.6-4.7-13.8-12.6h39.1c.1-1,.2-3.3.2-5.2,0-12.2-8.7-25.4-26.4-25.4ZM-2810.7-821c1.5-7.1,6.1-11,12.5-11s11.7,4.7,12.3,11h-24.9Z"/>
      <path d="M-2964.4-842c-15,0-27.2,12.2-27.2,27.2s12.2,27.2,27.2,27.2,27.2-12.2,27.2-27.2-12.2-27.2-27.2-27.2ZM-2964.4-799.5c-8.5,0-15.3-6.9-15.3-15.3s6.9-15.3,15.3-15.3,15.3,6.9,15.3,15.3-6.9,15.3-15.3,15.3Z"/>
      <path d="M-2842.9-841h-30.4v12.3h21.2l-28.6,26.9c-3.3,3.1-7,1.9-8,1.4s-4.5-2.3-4.5-6.8v-33.7h-12.8v33.7c0,8.2,4.7,15.3,12.2,18.6,2.7,1.1,5.4,1.7,8.1,1.7,5,0,9.9-1.9,13.8-5.5l37.7-35.1-8.2,15.9v13h12.3v-29.5c0-7.1-5.8-12.8-12.8-12.8Z"/>
      <path d="M-2694.6-841l-13.3,39.8-2.7-10.1-9.4-29.7h-26.2v-4.2c0-1.8.2-3.2.5-4.2.3-1,1-1.8,1.9-2.3.9-.5,2.3-.8,4.2-.8h6.4l-3.8-10.5h-5c-4,0-7.2.6-9.7,1.9-2.5,1.3-4.4,3.3-5.5,6-1.2,2.7-1.8,6.2-1.8,10.4v3.7h-9.1v10.9h9.1v41.7h12.7v-41.7h13.1v-7.5l16.1,45.9h6l-7.5,22.4h14.3l24.6-71.6h-15Z"/>
    </g>
    <g>
      <path class="st1" d="M-2588.6-841.1v8.1c2.5-5.3,7.7-9.2,14.9-9.2s13.5,3.7,16.7,10.6c2.6-5.9,8.5-10.6,16.8-10.6s19.8,8.9,19.8,24.2v29.3h-8.8v-27.8c0-11.5-5.1-17.7-12.7-17.7s-12.6,6.9-12.6,17.5v28h-8.8v-27.8c0-11.5-5.1-17.7-12.7-17.7s-12.6,6.9-12.6,17.5v-.8c0,0,0,28.8,0,28.8h-8.8v-52.5h8.8Z"/>
      <path class="st1" d="M-2469-830.9v-10.2h8.8v52.5h-8.8v-10.1c-3.3,6.2-9.5,11.2-19.4,11.2-16.2,0-26.1-11.1-26.1-27.3s9.9-27.3,26.1-27.3,16.1,5.2,19.4,11.2ZM-2487.1-795.5c11.2,0,18-7.8,18.1-19.3,0-11.6-6.8-19.3-18.1-19.3s-18.2,7.8-18.2,19.3,7.1,19.3,18.2,19.3Z"/>
      <path class="st1" d="M-2439.6-841.1v9.2c3.2-6.1,9.7-10.3,19.8-10.3v9.4h-3.3c-10.5,0-16.5,6.4-16.5,17.5v26.7h-8.8v-52.5h8.8Z"/>
      <path class="st1" d="M-2405.2-863.8v45.2l24.5-22.5h10.6l-27.5,25.6,28,26.8h-10.7l-24.9-22.9v22.9h-8.8v-75.1h8.8Z"/>
      <path class="st1" d="M-2320.8-815.5v3.3h-42.7c.6,9.8,7.1,16.3,16.9,16.3s12.3-2.7,14.7-7.4h9.6c-3.4,9.3-12.2,15.6-24.3,15.6s-26.4-10.7-26.4-27.3,10.6-27.1,26.1-27.1,26.1,10.3,26.1,26.6ZM-2330.1-819.4c-1.1-9-7.8-14.5-16.7-14.5s-15.3,6.4-16.5,14.5h33.2Z"/>
      <path class="st1" d="M-2310-841.1v-16.8h8.8v16.8h12.1v7.5h-12.1v44.9h-8.8v-44.9h-10.5v-7.5h10.5Z"/>
      <path class="st1" d="M-2270.3-853.6c0,3.3-2.5,6.1-6.1,6.1s-6.1-2.7-6.1-6.1,2.4-6.1,6.1-6.1,6.1,2.6,6.1,6.1ZM-2271.9-841.8v53.1h-8.8v-53.1c1.3.8,2.5,1.1,4.4,1.1s3.3-.4,4.4-1.1Z"/>
      <path class="st1" d="M-2251.8-841.1v8.4c2.7-5.4,8.6-9.5,16.7-9.5,11.6,0,20,8.6,20,24.2v29.3h-8.8v-27.7c0-11.2-5.5-17.4-13.6-17.4s-14.4,6.8-14.4,17.3v27.8h-8.8v-52.5h8.8Z"/>
      <path class="st1" d="M-2165.3-832.5v-8.6h8.8v56.8c0,10.2-6,16-16.4,16h-25.7v-7.7h24.5c6,0,8.8-2.8,8.8-8.4v-14.2c-3.8,6.2-10.1,9.8-19,9.8-14.4,0-24.2-10.5-24.2-27.1s9.9-26.4,24.2-26.4,15.3,3.7,19,9.7ZM-2182.3-796.8c10.5,0,17-7.6,17-19.2s-6.5-18.5-17-18.5-17,7.5-17,18.5,6.9,19.2,17,19.2Z"/>
    </g>
  </g>
  <g>
    <path class="st1" d="M-2767.9,477.5h12l-23.8,73.9h-12l23.8-73.9Z"/>
    <g>
      <path class="st1" d="M-2722,498.9v8.1c2.5-5.3,7.7-9.2,14.9-9.2s13.5,3.7,16.7,10.6c2.6-5.9,8.5-10.6,16.8-10.6s19.8,8.9,19.8,24.2v29.3h-8.8v-27.8c0-11.5-5.1-17.7-12.7-17.7s-12.6,6.9-12.6,17.5v28h-8.8v-27.8c0-11.5-5.1-17.7-12.7-17.7s-12.6,6.9-12.6,17.5v-.8c0,0,0,28.8,0,28.8h-8.8v-52.5h8.8Z"/>
      <path class="st1" d="M-2602.4,509.1v-10.2h8.8v52.5h-8.8v-10.1c-3.3,6.2-9.5,11.2-19.4,11.2-16.2,0-26.1-11.1-26.1-27.3s9.9-27.3,26.1-27.3,16.1,5.2,19.4,11.2ZM-2620.5,544.5c11.2,0,18-7.8,18.1-19.3,0-11.6-6.8-19.3-18.1-19.3s-18.2,7.8-18.2,19.3,7.1,19.3,18.2,19.3Z"/>
      <path class="st1" d="M-2573,498.9v9.2c3.2-6.1,9.7-10.3,19.8-10.3v9.4h-3.3c-10.5,0-16.5,6.4-16.5,17.5v26.7h-8.8v-52.5h8.8Z"/>
      <path class="st1" d="M-2538.5,476.2v45.2l24.5-22.5h10.6l-27.5,25.6,28,26.8h-10.7l-24.9-22.9v22.9h-8.8v-75.1h8.8Z"/>
      <path class="st1" d="M-2454.1,524.5v3.3h-42.7c.6,9.8,7.1,16.3,16.9,16.3s12.3-2.7,14.7-7.4h9.6c-3.4,9.3-12.2,15.6-24.3,15.6s-26.4-10.7-26.4-27.3,10.6-27.1,26.1-27.1,26.1,10.3,26.1,26.6ZM-2463.5,520.6c-1.1-9-7.8-14.5-16.7-14.5s-15.3,6.4-16.5,14.5h33.2Z"/>
      <path class="st1" d="M-2443.4,498.9v-16.8h8.8v16.8h12.1v7.5h-12.1v44.9h-8.8v-44.9h-10.5v-7.5h10.5Z"/>
      <path class="st1" d="M-2403.6,486.4c0,3.3-2.5,6.1-6.1,6.1s-6.1-2.7-6.1-6.1,2.4-6.1,6.1-6.1,6.1,2.6,6.1,6.1ZM-2405.3,498.2v53.1h-8.8v-53.1c1.3.8,2.5,1.1,4.4,1.1s3.3-.4,4.4-1.1Z"/>
      <path class="st1" d="M-2385.2,498.9v8.4c2.7-5.4,8.6-9.5,16.7-9.5,11.6,0,20,8.6,20,24.2v29.3h-8.8v-27.7c0-11.2-5.5-17.4-13.6-17.4s-14.4,6.8-14.4,17.3v27.8h-8.8v-52.5h8.8Z"/>
      <path class="st1" d="M-2298.7,507.5v-8.6h8.8v56.8c0,10.2-6,16-16.4,16h-25.7v-7.7h24.5c6,0,8.8-2.8,8.8-8.4v-14.2c-3.8,6.2-10.1,9.8-19,9.8-14.4,0-24.2-10.5-24.2-27.1s9.9-26.4,24.2-26.4,15.3,3.7,19,9.7ZM-2315.6,543.2c10.5,0,17-7.6,17-19.2s-6.5-18.5-17-18.5-17,7.5-17,18.5,6.9,19.2,17,19.2Z"/>
    </g>
    <path d="M-2829,480.9h-37.9v15.3h26.5l-35.6,33.4c-4.1,3.9-8.7,2.3-10,1.8-1.3-.6-5.6-2.8-5.6-8.5v-42h-16v42c0,10.2,5.8,19.1,15.2,23.2,3.3,1.4,6.7,2.1,10.1,2.1,6.2,0,12.3-2.4,17.2-6.9l47-43.8-10.2,19.8v16.2h15.3v-36.7c0-8.8-7.2-16-16-16Z"/>
  </g>
  <g>
    <path class="st1" d="M-1075.8-862.5h12l-23.8,73.9h-12l23.8-73.9Z"/>
    <g>
      <path class="st0" d="M-1467.9-827.5c0-3,2.8-4.8,7-4.8s8.9,2.6,10.3,7.6l10.7-4.5c-2.3-7.6-11-12.8-21.2-12.8s-18.7,6.5-18.7,14.7c0,19.9,28.7,13.5,28.7,23.4s-3.2,6-8.1,6-10.7-4.4-12.2-9.7l-10.8,4.4c2.6,7.7,10.2,15.6,23,15.6s20.3-7.3,20.3-16.4c0-21.5-28.9-14.1-28.9-23.4Z"/>
      <rect class="st0" x="-1370.5" y="-862.5" width="13.2" height="73.9"/>
      <path class="st0" d="M-1239.5-842c-17.4,0-26,13.5-26,27.2s9.3,27.2,26.7,27.2,21.5-5.8,24.4-15.8l-12.3-3.3c-1.4,5.1-5.7,8-11.9,8s-12.6-4.7-13.8-12.6h39.1c.1-1,.2-3.3.2-5.2,0-12.2-8.7-25.4-26.4-25.4ZM-1252-821c1.5-7.1,6.1-11,12.5-11s11.7,4.7,12.3,11h-24.9Z"/>
      <path class="st0" d="M-1405.6-842c-15,0-27.2,12.2-27.2,27.2s12.2,27.2,27.2,27.2,27.2-12.2,27.2-27.2-12.2-27.2-27.2-27.2ZM-1405.6-799.5c-8.5,0-15.3-6.9-15.3-15.3s6.9-15.3,15.3-15.3,15.3,6.9,15.3,15.3-6.9,15.3-15.3,15.3Z"/>
      <path class="st0" d="M-1284.2-841h-30.4v12.3h21.2l-28.6,26.9c-3.3,3.1-7,1.9-8,1.4s-4.5-2.3-4.5-6.8v-33.7h-12.8v33.7c0,8.2,4.7,15.3,12.2,18.6,2.7,1.1,5.4,1.7,8.1,1.7,5,0,9.9-1.9,13.8-5.5l37.7-35.1-8.2,15.9v13h12.3v-29.5c0-7.1-5.8-12.8-12.8-12.8Z"/>
      <path class="st0" d="M-1135.9-841l-13.3,39.8-2.7-10.1-9.4-29.7h-26.2v-4.2c0-1.8.2-3.2.5-4.2.3-1,1-1.8,1.9-2.3.9-.5,2.3-.8,4.2-.8h6.4l-3.8-10.5h-5c-4,0-7.2.6-9.7,1.9-2.5,1.3-4.4,3.3-5.5,6-1.2,2.7-1.8,6.2-1.8,10.4v3.7h-9.1v10.9h9.1v41.7h12.7v-41.7h13.1v-7.5l16.1,45.9h6l-7.5,22.4h14.3l24.6-71.6h-15Z"/>
    </g>
    <g>
      <path class="st1" d="M-1029.8-841.1v8.1c2.5-5.3,7.7-9.2,14.9-9.2s13.5,3.7,16.7,10.6c2.6-5.9,8.5-10.6,16.8-10.6s19.8,8.9,19.8,24.2v29.3h-8.8v-27.8c0-11.5-5.1-17.7-12.7-17.7s-12.6,6.9-12.6,17.5v28h-8.8v-27.8c0-11.5-5.1-17.7-12.7-17.7s-12.6,6.9-12.6,17.5v-.8c0,0,0,28.8,0,28.8h-8.8v-52.5h8.8Z"/>
      <path class="st1" d="M-910.3-830.9v-10.2h8.8v52.5h-8.8v-10.1c-3.3,6.2-9.5,11.2-19.4,11.2-16.2,0-26.1-11.1-26.1-27.3s9.9-27.3,26.1-27.3,16.1,5.2,19.4,11.2ZM-928.4-795.5c11.2,0,18-7.8,18.1-19.3,0-11.6-6.8-19.3-18.1-19.3s-18.2,7.8-18.2,19.3,7.1,19.3,18.2,19.3Z"/>
      <path class="st1" d="M-880.9-841.1v9.2c3.2-6.1,9.7-10.3,19.8-10.3v9.4h-3.3c-10.5,0-16.5,6.4-16.5,17.5v26.7h-8.8v-52.5h8.8Z"/>
      <path class="st1" d="M-846.4-863.8v45.2l24.5-22.5h10.6l-27.5,25.6,28,26.8h-10.7l-24.9-22.9v22.9h-8.8v-75.1h8.8Z"/>
      <path class="st1" d="M-762-815.5v3.3h-42.7c.6,9.8,7.1,16.3,16.9,16.3s12.3-2.7,14.7-7.4h9.6c-3.4,9.3-12.2,15.6-24.3,15.6s-26.4-10.7-26.4-27.3,10.6-27.1,26.1-27.1,26.1,10.3,26.1,26.6ZM-771.4-819.4c-1.1-9-7.8-14.5-16.7-14.5s-15.3,6.4-16.5,14.5h33.2Z"/>
      <path class="st1" d="M-751.3-841.1v-16.8h8.8v16.8h12.1v7.5h-12.1v44.9h-8.8v-44.9h-10.5v-7.5h10.5Z"/>
      <path class="st1" d="M-711.5-853.6c0,3.3-2.5,6.1-6.1,6.1s-6.1-2.7-6.1-6.1,2.4-6.1,6.1-6.1,6.1,2.6,6.1,6.1ZM-713.2-841.8v53.1h-8.8v-53.1c1.3.8,2.5,1.1,4.4,1.1s3.3-.4,4.4-1.1Z"/>
      <path class="st1" d="M-693.1-841.1v8.4c2.7-5.4,8.6-9.5,16.7-9.5,11.6,0,20,8.6,20,24.2v29.3h-8.8v-27.7c0-11.2-5.5-17.4-13.6-17.4s-14.4,6.8-14.4,17.3v27.8h-8.8v-52.5h8.8Z"/>
      <path class="st1" d="M-606.5-832.5v-8.6h8.8v56.8c0,10.2-6,16-16.4,16h-25.7v-7.7h24.5c6,0,8.8-2.8,8.8-8.4v-14.2c-3.8,6.2-10.1,9.8-19,9.8-14.4,0-24.2-10.5-24.2-27.1s9.9-26.4,24.2-26.4,15.3,3.7,19,9.7ZM-623.5-796.8c10.5,0,17-7.6,17-19.2s-6.5-18.5-17-18.5-17,7.5-17,18.5,6.9,19.2,17,19.2Z"/>
    </g>
  </g>
  <g>
    <path d="M504.2-862.5h12l-23.8,73.9h-12l23.8-73.9Z"/>
    <g>
      <path class="st0" d="M112.1-827.5c0-3,2.8-4.8,7-4.8s8.9,2.6,10.3,7.6l10.7-4.5c-2.3-7.6-11-12.8-21.2-12.8s-18.7,6.5-18.7,14.7c0,19.9,28.7,13.5,28.7,23.4s-3.2,6-8.1,6-10.7-4.4-12.2-9.7l-10.8,4.4c2.6,7.7,10.2,15.6,23,15.6s20.3-7.3,20.3-16.4c0-21.5-28.9-14.1-28.9-23.4Z"/>
      <rect class="st0" x="209.5" y="-862.5" width="13.2" height="73.9"/>
      <path class="st0" d="M340.5-842c-17.4,0-26,13.5-26,27.2s9.3,27.2,26.7,27.2,21.5-5.8,24.4-15.8l-12.3-3.3c-1.4,5.1-5.7,8-11.9,8s-12.6-4.7-13.8-12.6h39.1c.1-1,.2-3.3.2-5.2,0-12.2-8.7-25.4-26.4-25.4ZM328-821c1.5-7.1,6.1-11,12.5-11s11.7,4.7,12.3,11h-24.9Z"/>
      <path class="st0" d="M174.4-842c-15,0-27.2,12.2-27.2,27.2s12.2,27.2,27.2,27.2,27.2-12.2,27.2-27.2-12.2-27.2-27.2-27.2ZM174.4-799.5c-8.5,0-15.3-6.9-15.3-15.3s6.9-15.3,15.3-15.3,15.3,6.9,15.3,15.3-6.9,15.3-15.3,15.3Z"/>
      <path class="st0" d="M295.8-841h-30.4v12.3h21.2l-28.6,26.9c-3.3,3.1-7,1.9-8,1.4s-4.5-2.3-4.5-6.8v-33.7h-12.8v33.7c0,8.2,4.7,15.3,12.2,18.6,2.7,1.1,5.4,1.7,8.1,1.7,5,0,9.9-1.9,13.8-5.5l37.7-35.1-8.2,15.9v13h12.3v-29.5c0-7.1-5.8-12.8-12.8-12.8Z"/>
      <path class="st0" d="M444.1-841l-13.3,39.8-2.7-10.1-9.4-29.7h-26.2v-4.2c0-1.8.2-3.2.5-4.2.3-1,1-1.8,1.9-2.3.9-.5,2.3-.8,4.2-.8h6.4l-3.8-10.5h-5c-4,0-7.2.6-9.7,1.9-2.5,1.3-4.4,3.3-5.5,6-1.2,2.7-1.8,6.2-1.8,10.4v3.7h-9.1v10.9h9.1v41.7h12.7v-41.7h13.1v-7.5l16.1,45.9h6l-7.5,22.4h14.3l24.6-71.6h-15Z"/>
    </g>
    <g>
      <path d="M550.2-841.1v8.1c2.5-5.3,7.7-9.2,14.9-9.2s13.5,3.7,16.7,10.6c2.6-5.9,8.5-10.6,16.8-10.6s19.8,8.9,19.8,24.2v29.3h-8.8v-27.8c0-11.5-5.1-17.7-12.7-17.7s-12.6,6.9-12.6,17.5v28h-8.8v-27.8c0-11.5-5.1-17.7-12.7-17.7s-12.6,6.9-12.6,17.5v-.8c0,0,0,28.8,0,28.8h-8.8v-52.5h8.8Z"/>
      <path d="M669.7-830.9v-10.2h8.8v52.5h-8.8v-10.1c-3.3,6.2-9.5,11.2-19.4,11.2-16.2,0-26.1-11.1-26.1-27.3s9.9-27.3,26.1-27.3,16.1,5.2,19.4,11.2ZM651.6-795.5c11.2,0,18-7.8,18.1-19.3,0-11.6-6.8-19.3-18.1-19.3s-18.2,7.8-18.2,19.3,7.1,19.3,18.2,19.3Z"/>
      <path d="M699.1-841.1v9.2c3.2-6.1,9.7-10.3,19.8-10.3v9.4h-3.3c-10.5,0-16.5,6.4-16.5,17.5v26.7h-8.8v-52.5h8.8Z"/>
      <path d="M733.6-863.8v45.2l24.5-22.5h10.6l-27.5,25.6,28,26.8h-10.7l-24.9-22.9v22.9h-8.8v-75.1h8.8Z"/>
      <path d="M818-815.5v3.3h-42.7c.6,9.8,7.1,16.3,16.9,16.3s12.3-2.7,14.7-7.4h9.6c-3.4,9.3-12.2,15.6-24.3,15.6s-26.4-10.7-26.4-27.3,10.6-27.1,26.1-27.1,26.1,10.3,26.1,26.6ZM808.6-819.4c-1.1-9-7.8-14.5-16.7-14.5s-15.3,6.4-16.5,14.5h33.2Z"/>
      <path d="M828.7-841.1v-16.8h8.8v16.8h12.1v7.5h-12.1v44.9h-8.8v-44.9h-10.5v-7.5h10.5Z"/>
      <path d="M868.5-853.6c0,3.3-2.5,6.1-6.1,6.1s-6.1-2.7-6.1-6.1,2.4-6.1,6.1-6.1,6.1,2.6,6.1,6.1ZM866.8-841.8v53.1h-8.8v-53.1c1.3.8,2.5,1.1,4.4,1.1s3.3-.4,4.4-1.1Z"/>
      <path d="M886.9-841.1v8.4c2.7-5.4,8.6-9.5,16.7-9.5,11.6,0,20,8.6,20,24.2v29.3h-8.8v-27.7c0-11.2-5.5-17.4-13.6-17.4s-14.4,6.8-14.4,17.3v27.8h-8.8v-52.5h8.8Z"/>
      <path d="M973.5-832.5v-8.6h8.8v56.8c0,10.2-6,16-16.4,16h-25.7v-7.7h24.5c6,0,8.8-2.8,8.8-8.4v-14.2c-3.8,6.2-10.1,9.8-19,9.8-14.4,0-24.2-10.5-24.2-27.1s9.9-26.4,24.2-26.4,15.3,3.7,19,9.7ZM956.5-796.8c10.5,0,17-7.6,17-19.2s-6.5-18.5-17-18.5-17,7.5-17,18.5,6.9,19.2,17,19.2Z"/>
    </g>
  </g>
  <g>
    <path class="st1" d="M-1209.2,493.5h12l-23.8,73.9h-12l23.8-73.9Z"/>
    <g>
      <path class="st1" d="M-1163.2,514.9v8.1c2.5-5.3,7.7-9.2,14.9-9.2s13.5,3.7,16.7,10.6c2.6-5.9,8.5-10.6,16.8-10.6s19.8,8.9,19.8,24.2v29.3h-8.8v-27.8c0-11.5-5.1-17.7-12.7-17.7s-12.6,6.9-12.6,17.5v28h-8.8v-27.8c0-11.5-5.1-17.7-12.7-17.7s-12.6,6.9-12.6,17.5v-.8c0,0,0,28.8,0,28.8h-8.8v-52.5h8.8Z"/>
      <path class="st1" d="M-1043.7,525.1v-10.2h8.8v52.5h-8.8v-10.1c-3.3,6.2-9.5,11.2-19.4,11.2-16.2,0-26.1-11.1-26.1-27.3s9.9-27.3,26.1-27.3,16.1,5.2,19.4,11.2ZM-1061.7,560.5c11.2,0,18-7.8,18.1-19.3,0-11.6-6.8-19.3-18.1-19.3s-18.2,7.8-18.2,19.3,7.1,19.3,18.2,19.3Z"/>
      <path class="st1" d="M-1014.3,514.9v9.2c3.2-6.1,9.7-10.3,19.8-10.3v9.4h-3.3c-10.5,0-16.5,6.4-16.5,17.5v26.7h-8.8v-52.5h8.8Z"/>
      <path class="st1" d="M-979.8,492.2v45.2l24.5-22.5h10.6l-27.5,25.6,28,26.8h-10.7l-24.9-22.9v22.9h-8.8v-75.1h8.8Z"/>
      <path class="st1" d="M-895.4,540.5v3.3h-42.7c.6,9.8,7.1,16.3,16.9,16.3s12.3-2.7,14.7-7.4h9.6c-3.4,9.3-12.2,15.6-24.3,15.6s-26.4-10.7-26.4-27.3,10.6-27.1,26.1-27.1,26.1,10.3,26.1,26.6ZM-904.8,536.6c-1.1-9-7.8-14.5-16.7-14.5s-15.3,6.4-16.5,14.5h33.2Z"/>
      <path class="st1" d="M-884.7,514.9v-16.8h8.8v16.8h12.1v7.5h-12.1v44.9h-8.8v-44.9h-10.5v-7.5h10.5Z"/>
      <path class="st1" d="M-844.9,502.4c0,3.3-2.5,6.1-6.1,6.1s-6.1-2.7-6.1-6.1,2.4-6.1,6.1-6.1,6.1,2.6,6.1,6.1ZM-846.6,514.2v53.1h-8.8v-53.1c1.3.8,2.5,1.1,4.4,1.1s3.3-.4,4.4-1.1Z"/>
      <path class="st1" d="M-826.5,514.9v8.4c2.7-5.4,8.6-9.5,16.7-9.5,11.6,0,20,8.6,20,24.2v29.3h-8.8v-27.7c0-11.2-5.5-17.4-13.6-17.4s-14.4,6.8-14.4,17.3v27.8h-8.8v-52.5h8.8Z"/>
      <path class="st1" d="M-739.9,523.5v-8.6h8.8v56.8c0,10.2-6,16-16.4,16h-25.7v-7.7h24.5c6,0,8.8-2.8,8.8-8.4v-14.2c-3.8,6.2-10.1,9.8-19,9.8-14.4,0-24.2-10.5-24.2-27.1s9.9-26.4,24.2-26.4,15.3,3.7,19,9.7ZM-756.9,559.2c10.5,0,17-7.6,17-19.2s-6.5-18.5-17-18.5-17,7.5-17,18.5,6.9,19.2,17,19.2Z"/>
    </g>
    <path class="st0" d="M-1270.3,496.9h-37.9v15.3h26.5l-35.6,33.4c-4.1,3.9-8.7,2.3-10,1.8-1.3-.6-5.6-2.8-5.6-8.5v-42h-16v42c0,10.2,5.8,19.1,15.2,23.2,3.3,1.4,6.7,2.1,10.1,2.1,6.2,0,12.3-2.4,17.2-6.9l47-43.8-10.2,19.8v16.2h15.3v-36.7c0-8.8-7.2-16-16-16Z"/>
  </g>
  <g>
    <path d="M370.8,493.5h12l-23.8,73.9h-12l23.8-73.9Z"/>
    <g>
      <path d="M416.8,514.9v8.1c2.5-5.3,7.7-9.2,14.9-9.2s13.5,3.7,16.7,10.6c2.6-5.9,8.5-10.6,16.8-10.6s19.8,8.9,19.8,24.2v29.3h-8.8v-27.8c0-11.5-5.1-17.7-12.7-17.7s-12.6,6.9-12.6,17.5v28h-8.8v-27.8c0-11.5-5.1-17.7-12.7-17.7s-12.6,6.9-12.6,17.5v-.8c0,0,0,28.8,0,28.8h-8.8v-52.5h8.8Z"/>
      <path d="M536.3,525.1v-10.2h8.8v52.5h-8.8v-10.1c-3.3,6.2-9.5,11.2-19.4,11.2-16.2,0-26.1-11.1-26.1-27.3s9.9-27.3,26.1-27.3,16.1,5.2,19.4,11.2ZM518.3,560.5c11.2,0,18-7.8,18.1-19.3,0-11.6-6.8-19.3-18.1-19.3s-18.2,7.8-18.2,19.3,7.1,19.3,18.2,19.3Z"/>
      <path d="M565.7,514.9v9.2c3.2-6.1,9.7-10.3,19.8-10.3v9.4h-3.3c-10.5,0-16.5,6.4-16.5,17.5v26.7h-8.8v-52.5h8.8Z"/>
      <path d="M600.2,492.2v45.2l24.5-22.5h10.6l-27.5,25.6,28,26.8h-10.7l-24.9-22.9v22.9h-8.8v-75.1h8.8Z"/>
      <path d="M684.6,540.5v3.3h-42.7c.6,9.8,7.1,16.3,16.9,16.3s12.3-2.7,14.7-7.4h9.6c-3.4,9.3-12.2,15.6-24.3,15.6s-26.4-10.7-26.4-27.3,10.6-27.1,26.1-27.1,26.1,10.3,26.1,26.6ZM675.2,536.6c-1.1-9-7.8-14.5-16.7-14.5s-15.3,6.4-16.5,14.5h33.2Z"/>
      <path d="M695.3,514.9v-16.8h8.8v16.8h12.1v7.5h-12.1v44.9h-8.8v-44.9h-10.5v-7.5h10.5Z"/>
      <path d="M735.1,502.4c0,3.3-2.5,6.1-6.1,6.1s-6.1-2.7-6.1-6.1,2.4-6.1,6.1-6.1,6.1,2.6,6.1,6.1ZM733.4,514.2v53.1h-8.8v-53.1c1.3.8,2.5,1.1,4.4,1.1s3.3-.4,4.4-1.1Z"/>
      <path d="M753.5,514.9v8.4c2.7-5.4,8.6-9.5,16.7-9.5,11.6,0,20,8.6,20,24.2v29.3h-8.8v-27.7c0-11.2-5.5-17.4-13.6-17.4s-14.4,6.8-14.4,17.3v27.8h-8.8v-52.5h8.8Z"/>
      <path d="M840.1,523.5v-8.6h8.8v56.8c0,10.2-6,16-16.4,16h-25.7v-7.7h24.5c6,0,8.8-2.8,8.8-8.4v-14.2c-3.8,6.2-10.1,9.8-19,9.8-14.4,0-24.2-10.5-24.2-27.1s9.9-26.4,24.2-26.4,15.3,3.7,19,9.7ZM823.1,559.2c10.5,0,17-7.6,17-19.2s-6.5-18.5-17-18.5-17,7.5-17,18.5,6.9,19.2,17,19.2Z"/>
    </g>
    <path class="st0" d="M309.7,496.9h-37.9v15.3h26.5l-35.6,33.4c-4.1,3.9-8.7,2.3-10,1.8-1.3-.6-5.6-2.8-5.6-8.5v-42h-16v42c0,10.2,5.8,19.1,15.2,23.2,3.3,1.4,6.7,2.1,10.1,2.1,6.2,0,12.3-2.4,17.2-6.9l47-43.8-10.2,19.8v16.2h15.3v-36.7c0-8.8-7.2-16-16-16Z"/>
  </g>
</svg>