<?xml version="1.0" encoding="UTF-8"?>
<svg id="Layer" xmlns="http://www.w3.org/2000/svg" version="1.1" viewBox="0 0 1080 1080">
  <!-- Generator: Adobe Illustrator 30.3.0, SVG Export Plug-In . SVG Version: 2.1.3 Build 182)  -->
  <defs>
    <style>
      .st0 {
        fill: #00c2ff;
      }

      .st1 {
        fill: #00cbff;
      }

      .st2 {
        fill: #fff;
      }
    </style>
  </defs>
  <rect x="-1580" y="-1356" width="1080" height="1080"/>
  <rect class="st0" y="-1356" width="1080" height="1080"/>
  <rect x="-1580" y="0" width="1080" height="1080"/>
  <rect class="st0" y="0" width="1080" height="1080"/>
  <g>
    <path class="st1" d="M-2518.4-869.3h14l-27.7,85.9h-14l27.7-85.9Z"/>
    <g>
      <path d="M-2973.8-828.6c0-3.5,3.3-5.6,8.1-5.6s10.3,3,12,8.9l12.4-5.2c-2.7-8.9-12.7-14.9-24.6-14.9s-21.7,7.5-21.7,17.1c0,23.2,33.4,15.6,33.4,27.2s-3.8,6.9-9.5,6.9-12.4-5.1-14.2-11.3l-12.5,5.1c3,9,11.9,18.1,26.7,18.1s23.5-8.5,23.5-19c0-25-33.6-16.4-33.6-27.2Z"/>
      <rect x="-2860.6" y="-869.3" width="15.3" height="85.9"/>
      <path d="M-2708.5-845.5c-20.3,0-30.2,15.6-30.2,31.5s10.8,31.5,31,31.5,25-6.8,28.4-18.3l-14.3-3.9c-1.6,5.9-6.7,9.3-13.8,9.3s-14.7-5.5-16-14.7h45.4c.1-1.2.2-3.9.2-6.1,0-14.2-10.1-29.5-30.7-29.5ZM-2723-821.1c1.7-8.2,7-12.7,14.6-12.7s13.6,5.5,14.3,12.7h-28.9Z"/>
      <path d="M-2901.4-845.5c-17.4,0-31.5,14.1-31.5,31.5s14.1,31.5,31.5,31.5,31.5-14.1,31.5-31.5-14.1-31.5-31.5-31.5ZM-2901.4-796.1c-9.8,0-17.8-8-17.8-17.8s8-17.8,17.8-17.8,17.8,8,17.8,17.8-8,17.8-17.8,17.8Z"/>
      <path d="M-2760.4-844.4h-35.3v14.3h24.7l-33.2,31.2c-3.8,3.6-8.1,2.2-9.3,1.6s-5.2-2.7-5.2-7.9v-39.2h-14.9v39.2c0,9.5,5.4,17.8,14.2,21.6,3.1,1.3,6.3,2,9.4,2,5.8,0,11.5-2.2,16-6.4l43.8-40.8-9.5,18.5v15.1h14.3v-34.2c0-8.2-6.7-14.9-14.9-14.9Z"/>
      <path d="M-2588.2-844.4l-15.4,46.2-3.1-11.7-11-34.5h-30.4v-4.9c0-2.1.2-3.7.6-4.9.4-1.2,1.2-2.1,2.2-2.7,1.1-.6,2.7-.9,4.9-.9h7.4l-4.4-12.2h-5.8c-4.6,0-8.4.7-11.3,2.2-2.9,1.5-5.1,3.8-6.4,7-1.4,3.2-2.1,7.2-2.1,12.1v4.2h-10.6v12.6h10.6v48.4h14.8v-48.4h15.2v-8.7l18.7,53.2h7l-8.7,26.1h16.6l28.6-83.2h-17.4Z"/>
    </g>
    <g>
      <path class="st1" d="M-2421.7-823h-10.9c-.8-7.4-7.9-13.7-17-13.7s-19.4,8.8-19.4,22.8,8.1,22.7,19.4,22.7,16.2-6.2,17-13.7h10.9c-1,12.4-12.2,22.8-27.9,22.8s-30.2-12.2-30.2-31.8,12-31.8,30.2-31.8,26.9,10.3,27.9,22.7Z"/>
      <path class="st1" d="M-2403.7-870.8v87.2h-10.2v-87.2h10.2Z"/>
      <path class="st1" d="M-2334.1-814c0,18.3-11.7,31.8-30.6,31.8s-30.7-13.5-30.7-31.8,11.7-31.8,30.7-31.8,30.6,13.5,30.6,31.8ZM-2384.7-814c0,13.4,7.9,22,20,22s19.8-8.6,19.8-22-7.9-22-19.8-22-20,8.6-20,22Z"/>
      <path class="st1" d="M-2316.5-844.5v32.2c0,13,5.9,20.2,14.9,20.2s14.5-6.9,15.4-17.4v-35h10.2v60.9h-10.2v-9.2c-3.2,6.1-9.4,10.5-18.3,10.5-12.9,0-22.2-10.1-22.2-28.2v-34h10.2Z"/>
      <path class="st1" d="M-2207.1-870.8v87.2h-10.2v-9.9c-4.3,7-11.6,11.2-21.8,11.2-16.7,0-28.1-12.4-28.1-31.8s11.5-31.8,28.1-31.8,17.5,4.1,21.8,11.1v-36.2h10.2ZM-2236.7-791.6c11.9,0,19.4-8.8,19.4-22.6s-7.5-22.6-19.4-22.6-19.7,9.2-19.7,22.6,8.1,22.6,19.7,22.6Z"/>
    </g>
  </g>
  <g>
    <path class="st1" d="M-2673.3,481.2h14l-27.7,85.9h-14l27.7-85.9Z"/>
    <g>
      <path class="st1" d="M-2576.6,527.5h-10.9c-.8-7.4-7.9-13.7-17-13.7s-19.4,8.8-19.4,22.8,8.1,22.7,19.4,22.7,16.2-6.2,17-13.7h10.9c-1,12.4-12.2,22.8-27.9,22.8s-30.2-12.2-30.2-31.8,12-31.8,30.2-31.8,26.9,10.3,27.9,22.7Z"/>
      <path class="st1" d="M-2558.5,479.7v87.2h-10.2v-87.2h10.2Z"/>
      <path class="st1" d="M-2489,536.5c0,18.3-11.7,31.8-30.6,31.8s-30.7-13.5-30.7-31.8,11.7-31.8,30.7-31.8,30.6,13.5,30.6,31.8ZM-2539.6,536.5c0,13.4,7.9,22,20,22s19.8-8.6,19.8-22-7.9-22-19.8-22-20,8.6-20,22Z"/>
      <path class="st1" d="M-2471.4,506v32.2c0,13,5.9,20.2,14.9,20.2s14.5-6.9,15.4-17.4v-35h10.2v60.9h-10.2v-9.2c-3.2,6.1-9.4,10.5-18.3,10.5-12.9,0-22.2-10.1-22.2-28.2v-34h10.2Z"/>
      <path class="st1" d="M-2362,479.7v87.2h-10.2v-9.9c-4.3,7-11.6,11.2-21.8,11.2-16.7,0-28.1-12.4-28.1-31.8s11.5-31.8,28.1-31.8,17.5,4.1,21.8,11.1v-36.2h10.2ZM-2391.6,558.9c11.9,0,19.4-8.8,19.4-22.6s-7.5-22.6-19.4-22.6-19.7,9.2-19.7,22.6,8.1,22.6,19.7,22.6Z"/>
    </g>
    <path d="M-2744.2,485.1h-44v17.8h30.7l-41.3,38.8c-4.8,4.5-10.1,2.7-11.6,2-1.5-.7-6.5-3.3-6.5-9.8v-48.8h-18.6v48.8c0,11.9,6.8,22.2,17.7,26.9,3.8,1.7,7.8,2.5,11.8,2.5,7.3,0,14.3-2.8,19.9-8l54.5-50.8-11.8,23v18.9h17.8v-42.6c0-10.2-8.3-18.6-18.6-18.6Z"/>
  </g>
  <g>
    <path class="st1" d="M-959.6-869.3h14l-27.7,85.9h-14l27.7-85.9Z"/>
    <g>
      <path class="st2" d="M-1415-828.6c0-3.5,3.3-5.6,8.1-5.6s10.3,3,12,8.9l12.4-5.2c-2.7-8.9-12.7-14.9-24.6-14.9s-21.7,7.5-21.7,17.1c0,23.2,33.4,15.6,33.4,27.2s-3.8,6.9-9.5,6.9-12.4-5.1-14.2-11.3l-12.5,5.1c3,9,11.9,18.1,26.7,18.1s23.5-8.5,23.5-19c0-25-33.6-16.4-33.6-27.2Z"/>
      <rect class="st2" x="-1301.8" y="-869.3" width="15.3" height="85.9"/>
      <path class="st2" d="M-1149.7-845.5c-20.3,0-30.2,15.6-30.2,31.5s10.8,31.5,31,31.5,25-6.8,28.4-18.3l-14.3-3.9c-1.6,5.9-6.7,9.3-13.8,9.3s-14.7-5.5-16-14.7h45.4c.1-1.2.2-3.9.2-6.1,0-14.2-10.1-29.5-30.7-29.5ZM-1164.3-821.1c1.7-8.2,7-12.7,14.6-12.7s13.6,5.5,14.3,12.7h-28.9Z"/>
      <path class="st2" d="M-1342.7-845.5c-17.4,0-31.5,14.1-31.5,31.5s14.1,31.5,31.5,31.5,31.5-14.1,31.5-31.5-14.1-31.5-31.5-31.5ZM-1342.7-796.1c-9.8,0-17.8-8-17.8-17.8s8-17.8,17.8-17.8,17.8,8,17.8,17.8-8,17.8-17.8,17.8Z"/>
      <path class="st2" d="M-1201.7-844.4h-35.3v14.3h24.7l-33.2,31.2c-3.8,3.6-8.1,2.2-9.3,1.6s-5.2-2.7-5.2-7.9v-39.2h-14.9v39.2c0,9.5,5.4,17.8,14.2,21.6,3.1,1.3,6.3,2,9.4,2,5.8,0,11.5-2.2,16-6.4l43.8-40.8-9.5,18.5v15.1h14.3v-34.2c0-8.2-6.7-14.9-14.9-14.9Z"/>
      <path class="st2" d="M-1029.4-844.4l-15.4,46.2-3.1-11.7-11-34.5h-30.4v-4.9c0-2.1.2-3.7.6-4.9.4-1.2,1.2-2.1,2.2-2.7,1.1-.6,2.7-.9,4.9-.9h7.4l-4.4-12.2h-5.8c-4.6,0-8.4.7-11.3,2.2-2.9,1.5-5.1,3.8-6.4,7-1.4,3.2-2.1,7.2-2.1,12.1v4.2h-10.6v12.6h10.6v48.4h14.8v-48.4h15.2v-8.7l18.7,53.2h7l-8.7,26.1h16.6l28.6-83.2h-17.4Z"/>
    </g>
    <g>
      <path class="st1" d="M-863-823h-10.9c-.8-7.4-7.9-13.7-17-13.7s-19.4,8.8-19.4,22.8,8.1,22.7,19.4,22.7,16.2-6.2,17-13.7h10.9c-1,12.4-12.2,22.8-27.9,22.8s-30.2-12.2-30.2-31.8,12-31.8,30.2-31.8,26.9,10.3,27.9,22.7Z"/>
      <path class="st1" d="M-844.9-870.8v87.2h-10.2v-87.2h10.2Z"/>
      <path class="st1" d="M-775.4-814c0,18.3-11.7,31.8-30.6,31.8s-30.7-13.5-30.7-31.8,11.7-31.8,30.7-31.8,30.6,13.5,30.6,31.8ZM-826-814c0,13.4,7.9,22,20,22s19.8-8.6,19.8-22-7.9-22-19.8-22-20,8.6-20,22Z"/>
      <path class="st1" d="M-757.8-844.5v32.2c0,13,5.9,20.2,14.9,20.2s14.5-6.9,15.4-17.4v-35h10.2v60.9h-10.2v-9.2c-3.2,6.1-9.4,10.5-18.3,10.5-12.9,0-22.2-10.1-22.2-28.2v-34h10.2Z"/>
      <path class="st1" d="M-648.4-870.8v87.2h-10.2v-9.9c-4.3,7-11.6,11.2-21.8,11.2-16.7,0-28.1-12.4-28.1-31.8s11.5-31.8,28.1-31.8,17.5,4.1,21.8,11.1v-36.2h10.2ZM-678-791.6c11.9,0,19.4-8.8,19.4-22.6s-7.5-22.6-19.4-22.6-19.7,9.2-19.7,22.6,8.1,22.6,19.7,22.6Z"/>
    </g>
  </g>
  <g>
    <path d="M620.4-869.3h14l-27.7,85.9h-14l27.7-85.9Z"/>
    <g>
      <path class="st2" d="M165-828.6c0-3.5,3.3-5.6,8.1-5.6s10.3,3,12,8.9l12.4-5.2c-2.7-8.9-12.7-14.9-24.6-14.9s-21.7,7.5-21.7,17.1c0,23.2,33.4,15.6,33.4,27.2s-3.8,6.9-9.5,6.9-12.4-5.1-14.2-11.3l-12.5,5.1c3,9,11.9,18.1,26.7,18.1s23.5-8.5,23.5-19c0-25-33.6-16.4-33.6-27.2Z"/>
      <rect class="st2" x="278.2" y="-869.3" width="15.3" height="85.9"/>
      <path class="st2" d="M430.3-845.5c-20.3,0-30.2,15.6-30.2,31.5s10.8,31.5,31,31.5,25-6.8,28.4-18.3l-14.3-3.9c-1.6,5.9-6.7,9.3-13.8,9.3s-14.7-5.5-16-14.7h45.4c.1-1.2.2-3.9.2-6.1,0-14.2-10.1-29.5-30.7-29.5ZM415.7-821.1c1.7-8.2,7-12.7,14.6-12.7s13.6,5.5,14.3,12.7h-28.9Z"/>
      <path class="st2" d="M237.3-845.5c-17.4,0-31.5,14.1-31.5,31.5s14.1,31.5,31.5,31.5,31.5-14.1,31.5-31.5-14.1-31.5-31.5-31.5ZM237.3-796.1c-9.8,0-17.8-8-17.8-17.8s8-17.8,17.8-17.8,17.8,8,17.8,17.8-8,17.8-17.8,17.8Z"/>
      <path class="st2" d="M378.3-844.4h-35.3v14.3h24.7l-33.2,31.2c-3.8,3.6-8.1,2.2-9.3,1.6s-5.2-2.7-5.2-7.9v-39.2h-14.9v39.2c0,9.5,5.4,17.8,14.2,21.6,3.1,1.3,6.3,2,9.4,2,5.8,0,11.5-2.2,16-6.4l43.8-40.8-9.5,18.5v15.1h14.3v-34.2c0-8.2-6.7-14.9-14.9-14.9Z"/>
      <path class="st2" d="M550.6-844.4l-15.4,46.2-3.1-11.7-11-34.5h-30.4v-4.9c0-2.1.2-3.7.6-4.9.4-1.2,1.2-2.1,2.2-2.7,1.1-.6,2.7-.9,4.9-.9h7.4l-4.4-12.2h-5.8c-4.6,0-8.4.7-11.3,2.2-2.9,1.5-5.1,3.8-6.4,7-1.4,3.2-2.1,7.2-2.1,12.1v4.2h-10.6v12.6h10.6v48.4h14.8v-48.4h15.2v-8.7l18.7,53.2h7l-8.7,26.1h16.6l28.6-83.2h-17.4Z"/>
    </g>
    <g>
      <path d="M717-823h-10.9c-.8-7.4-7.9-13.7-17-13.7s-19.4,8.8-19.4,22.8,8.1,22.7,19.4,22.7,16.2-6.2,17-13.7h10.9c-1,12.4-12.2,22.8-27.9,22.8s-30.2-12.2-30.2-31.8,12-31.8,30.2-31.8,26.9,10.3,27.9,22.7Z"/>
      <path d="M735.1-870.8v87.2h-10.2v-87.2h10.2Z"/>
      <path d="M804.6-814c0,18.3-11.7,31.8-30.6,31.8s-30.7-13.5-30.7-31.8,11.7-31.8,30.7-31.8,30.6,13.5,30.6,31.8ZM754-814c0,13.4,7.9,22,20,22s19.8-8.6,19.8-22-7.9-22-19.8-22-20,8.6-20,22Z"/>
      <path d="M822.2-844.5v32.2c0,13,5.9,20.2,14.9,20.2s14.5-6.9,15.4-17.4v-35h10.2v60.9h-10.2v-9.2c-3.2,6.1-9.4,10.5-18.3,10.5-12.9,0-22.2-10.1-22.2-28.2v-34h10.2Z"/>
      <path d="M931.6-870.8v87.2h-10.2v-9.9c-4.3,7-11.6,11.2-21.8,11.2-16.7,0-28.1-12.4-28.1-31.8s11.5-31.8,28.1-31.8,17.5,4.1,21.8,11.1v-36.2h10.2ZM902-791.6c11.9,0,19.4-8.8,19.4-22.6s-7.5-22.6-19.4-22.6-19.7,9.2-19.7,22.6,8.1,22.6,19.7,22.6Z"/>
    </g>
  </g>
  <g>
    <path class="st1" d="M-1114.5,497.2h14l-27.7,85.9h-14l27.7-85.9Z"/>
    <g>
      <path class="st1" d="M-1017.8,543.5h-10.9c-.8-7.4-7.9-13.7-17-13.7s-19.4,8.8-19.4,22.8,8.1,22.7,19.4,22.7,16.2-6.2,17-13.7h10.9c-1,12.4-12.2,22.8-27.9,22.8s-30.2-12.2-30.2-31.8,12-31.8,30.2-31.8,26.9,10.3,27.9,22.7Z"/>
      <path class="st1" d="M-999.8,495.7v87.2h-10.2v-87.2h10.2Z"/>
      <path class="st1" d="M-930.3,552.5c0,18.3-11.7,31.8-30.6,31.8s-30.7-13.5-30.7-31.8,11.7-31.8,30.7-31.8,30.6,13.5,30.6,31.8ZM-980.9,552.5c0,13.4,7.9,22,20,22s19.8-8.6,19.8-22-7.9-22-19.8-22-20,8.6-20,22Z"/>
      <path class="st1" d="M-912.7,522v32.2c0,13,5.9,20.2,14.9,20.2s14.5-6.9,15.4-17.4v-35h10.2v60.9h-10.2v-9.2c-3.2,6.1-9.4,10.5-18.3,10.5-12.9,0-22.2-10.1-22.2-28.2v-34h10.2Z"/>
      <path class="st1" d="M-803.2,495.7v87.2h-10.2v-9.9c-4.3,7-11.6,11.2-21.8,11.2-16.7,0-28.1-12.4-28.1-31.8s11.5-31.8,28.1-31.8,17.5,4.1,21.8,11.1v-36.2h10.2ZM-832.9,574.9c11.9,0,19.4-8.8,19.4-22.6s-7.5-22.6-19.4-22.6-19.7,9.2-19.7,22.6,8.1,22.6,19.7,22.6Z"/>
    </g>
    <path class="st2" d="M-1185.5,501.1h-44v17.8h30.7l-41.3,38.8c-4.8,4.5-10.1,2.7-11.6,2-1.5-.7-6.5-3.3-6.5-9.8v-48.8h-18.6v48.8c0,11.9,6.8,22.2,17.7,26.9,3.8,1.7,7.8,2.5,11.8,2.5,7.3,0,14.3-2.8,19.9-8l54.5-50.8-11.8,23v18.9h17.8v-42.6c0-10.2-8.3-18.6-18.6-18.6Z"/>
  </g>
  <g>
    <path d="M465.5,497.2h14l-27.7,85.9h-14l27.7-85.9Z"/>
    <g>
      <path d="M562.2,543.5h-10.9c-.8-7.4-7.9-13.7-17-13.7s-19.4,8.8-19.4,22.8,8.1,22.7,19.4,22.7,16.2-6.2,17-13.7h10.9c-1,12.4-12.2,22.8-27.9,22.8s-30.2-12.2-30.2-31.8,12-31.8,30.2-31.8,26.9,10.3,27.9,22.7Z"/>
      <path d="M580.2,495.7v87.2h-10.2v-87.2h10.2Z"/>
      <path d="M649.7,552.5c0,18.3-11.7,31.8-30.6,31.8s-30.7-13.5-30.7-31.8,11.7-31.8,30.7-31.8,30.6,13.5,30.6,31.8ZM599.1,552.5c0,13.4,7.9,22,20,22s19.8-8.6,19.8-22-7.9-22-19.8-22-20,8.6-20,22Z"/>
      <path d="M667.3,522v32.2c0,13,5.9,20.2,14.9,20.2s14.5-6.9,15.4-17.4v-35h10.2v60.9h-10.2v-9.2c-3.2,6.1-9.4,10.5-18.3,10.5-12.9,0-22.2-10.1-22.2-28.2v-34h10.2Z"/>
      <path d="M776.8,495.7v87.2h-10.2v-9.9c-4.3,7-11.6,11.2-21.8,11.2-16.7,0-28.1-12.4-28.1-31.8s11.5-31.8,28.1-31.8,17.5,4.1,21.8,11.1v-36.2h10.2ZM747.1,574.9c11.9,0,19.4-8.8,19.4-22.6s-7.5-22.6-19.4-22.6-19.7,9.2-19.7,22.6,8.1,22.6,19.7,22.6Z"/>
    </g>
    <path class="st2" d="M394.5,501.1h-44v17.8h30.7l-41.3,38.8c-4.8,4.5-10.1,2.7-11.6,2-1.5-.7-6.5-3.3-6.5-9.8v-48.8h-18.6v48.8c0,11.9,6.8,22.2,17.7,26.9,3.8,1.7,7.8,2.5,11.8,2.5,7.3,0,14.3-2.8,19.9-8l54.5-50.8-11.8,23v18.9h17.8v-42.6c0-10.2-8.3-18.6-18.6-18.6Z"/>
  </g>
</svg>