<svg preserveAspectRatio="none" width="100%" height="100%" overflow="visible" style="display: block;" viewBox="0 0 12.9645 11.4522" fill="none" xmlns="http://www.w3.org/2000/svg">
<path id="path32" d="M10.5911 0L7.65745 5.74346C7.25898 6.51273 6.82587 7.37451 6.50248 8.13799C6.21951 7.51332 5.82682 6.72093 5.31864 5.74346L2.33881 0H0.97595L0 11.3654H1.9057L2.35036 6.23506C2.38502 5.85911 2.44275 5.24024 2.48896 4.58665C2.7777 5.19975 3.06644 5.84753 3.36096 6.36809L5.98851 11.4522H6.87207L9.46497 6.36809C9.74794 5.7897 10.0771 5.15344 10.3601 4.5577C10.3601 5.05511 10.4352 5.61039 10.4813 6.22926L10.9549 11.3654H12.9645L11.9539 0H10.5911Z" fill="var(--fill-0, #F7F5F2)"/>
</svg>
