<svg preserveAspectRatio="none" width="100%" height="100%" overflow="visible" style="display: block;" viewBox="0 0 10.2576 8.99812" fill="none" xmlns="http://www.w3.org/2000/svg">
<path id="path32" d="M8.37975 0L6.05864 4.51272C5.74337 5.11714 5.40069 5.79426 5.14482 6.39413C4.92093 5.90333 4.61023 5.28073 4.20815 4.51272L1.85049 0H0.77218L0 8.92998H1.50781L1.85963 4.89898C1.88705 4.60359 1.93273 4.11733 1.96928 3.6038C2.19774 4.08552 2.4262 4.59449 2.65922 5.0035L4.73817 8.99812H5.43724L7.48877 5.0035C7.71266 4.54905 7.9731 4.04913 8.19698 3.58105C8.19698 3.97188 8.25639 4.40816 8.29293 4.89442L8.66759 8.92998H10.2576L9.45805 0H8.37975Z" fill="var(--fill-0, #F7F5F2)"/>
</svg>
