<svg preserveAspectRatio="none" width="100%" height="100%" overflow="visible" style="display: block;" viewBox="0 0 89.0349 17.1083" fill="none" xmlns="http://www.w3.org/2000/svg">
<g id="agibank">
<path id="Vector" d="M15.3125 5.84058L9.2694 11.8858C8.852 12.3029 8.28606 12.5372 7.69597 12.5372C7.10589 12.5372 6.53995 12.3029 6.12255 11.8858L0.0397484 5.79464L0.00842576 11.2238L3.3808 14.6171C4.523 15.7586 6.07175 16.3998 7.68658 16.3998C9.30141 16.3998 10.8502 15.7586 11.9924 14.6171L15.3042 11.3053L15.3125 5.84058Z" fill="var(--fill-0, #F7F5F2)"/>
<path id="Vector_2" d="M11.9631 2.48703C10.8201 1.34706 9.27163 0.70688 7.65731 0.70688C6.04299 0.70688 4.49455 1.34706 3.35153 2.48703L0.0104795 5.83853L2.76685 8.53016L6.08493 5.22043C6.50233 4.80333 7.06827 4.56903 7.65835 4.56903C8.24844 4.56903 8.81437 4.80333 9.23178 5.22043L15.3167 11.3053V5.83853L11.9631 2.48703Z" fill="var(--fill-0, #F7F5F2)"/>
<path id="Vector_3" d="M15.3126 11.3011V5.84062L12.5834 8.57193L15.3126 11.3011Z" fill="var(--fill-0, black)"/>
<path id="Vector_4" d="M5.63264e-06 11.228L0.0375925 11.2677L2.77099 8.53427L0.0375925 5.80088L5.63264e-06 5.84055V11.228Z" fill="var(--fill-0, black)"/>
<path id="Vector_5" d="M88.35 4.64202C88.6219 4.75822 88.8366 4.97749 88.9472 5.25177C89.0052 5.39141 89.035 5.54115 89.0349 5.69237C89.0354 5.84295 89.0056 5.9921 88.9472 6.13088C88.8912 6.26692 88.8097 6.39097 88.707 6.49631C88.6018 6.60332 88.4764 6.68833 88.338 6.74641C88.1996 6.80448 88.0511 6.83446 87.901 6.83459C87.7487 6.83499 87.5979 6.8037 87.4583 6.74271C87.3229 6.68563 87.2001 6.60239 87.0969 6.49776C86.9937 6.39313 86.9121 6.26916 86.8569 6.13297C86.7982 5.99356 86.7683 5.84366 86.7692 5.69237C86.7687 5.54158 86.7993 5.39231 86.859 5.25385C86.9152 5.11858 86.9968 4.99527 87.0992 4.89052C87.2029 4.78529 87.3264 4.70155 87.4625 4.64411C87.6028 4.58307 87.7542 4.55157 87.9073 4.55157C88.0603 4.55157 88.2117 4.58307 88.3521 4.64411M88.2623 6.54642C88.3718 6.50021 88.4712 6.4328 88.5546 6.34805C88.637 6.26237 88.7022 6.16172 88.7467 6.05153C88.8156 5.88264 88.8344 5.69746 88.8007 5.51819C88.7669 5.33893 88.6822 5.17319 88.5567 5.04086C88.4754 4.95193 88.3766 4.88082 88.2664 4.83205C88.1537 4.78336 88.0321 4.75848 87.9094 4.75896C87.7469 4.76017 87.5877 4.80474 87.4482 4.88807C87.3087 4.9714 87.1939 5.09047 87.1159 5.23297C87.0362 5.37362 86.9951 5.53282 86.9968 5.69446C86.9948 5.81564 87.0172 5.936 87.0627 6.04831C87.1083 6.16063 87.1761 6.26258 87.262 6.34805C87.3907 6.47876 87.5559 6.56747 87.7359 6.6025C87.9159 6.63754 88.1023 6.61726 88.2706 6.54433M88.2894 5.70907C88.2394 5.7707 88.1704 5.81402 88.0931 5.83227L88.4147 6.29793H88.1871L87.8843 5.85316H87.7089V6.29793H87.5189V5.08054H87.9511C88.0061 5.0762 88.0613 5.08323 88.1134 5.10119C88.1655 5.11916 88.2133 5.14767 88.2539 5.18495C88.2879 5.22202 88.3143 5.26546 88.3315 5.31276C88.3487 5.36007 88.3564 5.4103 88.3541 5.46058C88.3584 5.54476 88.3342 5.62791 88.2852 5.69654M87.7089 5.66522H87.9073C87.9569 5.66673 88.0062 5.65673 88.0514 5.63599C88.0855 5.62081 88.114 5.59523 88.1328 5.5629C88.1494 5.53068 88.1573 5.4947 88.1558 5.45849C88.1571 5.43067 88.1522 5.40289 88.1413 5.37723C88.1305 5.35157 88.114 5.32867 88.0931 5.31023C88.0445 5.27195 87.9837 5.25265 87.9219 5.25594H87.7131L87.7089 5.66522Z" fill="var(--fill-0, #F7F5F2)"/>
<path id="Vector_6" d="M29.4828 13.2765H27.1483V12.3034C26.8309 12.6967 26.4261 13.0105 25.966 13.2196C25.506 13.4288 25.0034 13.5277 24.4984 13.5083C22.0594 13.5083 20.2156 11.5078 20.2156 8.8496C20.2156 6.19138 22.0615 4.19092 24.4984 4.19092C25.0042 4.1722 25.5073 4.27218 25.9674 4.48286C26.4276 4.69354 26.832 5.00906 27.1483 5.40414V4.42897H29.4828V13.2765ZM22.6546 8.85169C22.6546 10.2027 23.5399 11.2907 24.9369 11.2907C26.2984 11.2907 27.2193 10.2466 27.2193 8.85169C27.2193 7.4568 26.2963 6.41272 24.9369 6.41272C23.5399 6.41272 22.6546 7.50065 22.6546 8.85169Z" fill="var(--fill-0, #F7F5F2)"/>
<path id="Vector_7" d="M37.8562 5.41673V4.43112H40.195V12.5499C40.195 15.3898 38.3407 17.1083 35.4173 17.1083C34.0203 17.1083 32.5419 16.7429 31.5458 16.0392L32.3957 14.0951C33.2584 14.6808 34.2764 14.9957 35.3191 14.9993C36.7913 14.9993 37.8354 14.1765 37.8354 12.6501V12.0237C37.2319 12.7629 36.3381 13.2202 35.1208 13.2202C32.9658 13.2202 31.0468 11.4202 31.0468 8.70766C31.0468 5.99515 32.9616 4.19307 35.1208 4.19307C36.3549 4.19307 37.259 4.66708 37.8625 5.41882M33.4899 8.71393C33.4899 9.99188 34.3586 11.0339 35.718 11.0339C37.0419 11.0339 37.9377 10.0295 37.9377 8.71393C37.9377 7.39839 37.0439 6.38563 35.718 6.38563C34.3565 6.38563 33.4899 7.42971 33.4899 8.71393Z" fill="var(--fill-0, #F7F5F2)"/>
<path id="Vector_8" d="M44.9788 1.53485C44.9759 1.8346 44.8845 2.12682 44.716 2.37474C44.5474 2.62267 44.3094 2.81524 44.0317 2.92825C43.7541 3.04125 43.4492 3.06964 43.1555 3.00985C42.8617 2.95006 42.5922 2.80476 42.3808 2.59221C42.1694 2.37966 42.0256 2.10936 41.9674 1.81529C41.9092 1.52122 41.9393 1.21652 42.0538 0.939481C42.1683 0.662448 42.3622 0.425455 42.611 0.258303C42.8599 0.0911515 43.1526 0.00130225 43.4523 5.30543e-05C43.654 -0.00163496 43.8539 0.036973 44.0404 0.113611C44.2269 0.190248 44.3962 0.303371 44.5384 0.44634C44.6806 0.589308 44.7928 0.759241 44.8684 0.946163C44.9441 1.13308 44.9816 1.33323 44.9788 1.53485ZM44.6593 13.2766H42.2746V4.42903H44.6593V13.2766Z" fill="var(--fill-0, #F7F5F2)"/>
<path id="Vector_9" d="M55.5219 9.02509C55.5219 11.5309 53.6426 13.3831 51.1932 13.3831C50.4567 13.3948 49.7308 13.2069 49.0925 12.8392C48.4543 12.4716 47.9275 11.9379 47.5681 11.2949V13.2766H46.9292V0.121193H47.5681V6.75109C47.9266 6.10735 48.4532 5.57306 49.0917 5.20528C49.7301 4.8375 50.4565 4.65005 51.1932 4.66293C53.6405 4.66293 55.5219 6.52766 55.5219 9.02927M47.5201 9.02927C47.5201 11.1675 49.0821 12.788 51.1911 12.788C53.3001 12.788 54.8621 11.1529 54.8621 9.02927C54.8621 6.90562 53.3106 5.27059 51.1911 5.27059C49.0716 5.27059 47.5201 6.88682 47.5201 9.02927Z" fill="var(--fill-0, #F7F5F2)"/>
<path id="Vector_10" d="M65.6977 13.2766H65.0712V11.2886C64.7109 11.9343 64.182 12.47 63.541 12.8385C62.8999 13.207 62.1708 13.3945 61.4316 13.381C58.9842 13.381 57.1112 11.5267 57.1112 9.023C57.1112 6.5193 58.9905 4.65666 61.4316 4.65666C62.1712 4.64355 62.9004 4.83218 63.5409 5.20229C64.1815 5.57239 64.709 6.10999 65.067 6.75735V4.75898H65.6935L65.6977 13.2766ZM57.7627 9.01882C57.7627 11.1383 59.3142 12.7775 61.4336 12.7775C63.5531 12.7775 65.1046 11.1613 65.1046 9.01882C65.1046 6.87637 63.5427 5.26014 61.4336 5.26014C59.3246 5.26014 57.7627 6.89517 57.7627 9.01882Z" fill="var(--fill-0, #F7F5F2)"/>
<path id="Vector_11" d="M76.0235 8.28377V13.2765H75.3971V8.28377C75.3971 6.48378 74.3008 5.26012 72.2648 5.26012C70.4189 5.26012 69.1326 6.61115 69.1326 8.3485V13.2765H68.4936V4.75896H69.1201V6.38563C69.7236 5.352 70.8365 4.65037 72.3066 4.65037C74.6036 4.65037 76.0152 6.05779 76.0152 8.2775" fill="var(--fill-0, #F7F5F2)"/>
<path id="Vector_12" d="M79.3836 8.51351H80.9643L84.936 4.759H85.7504L81.4571 8.78706L85.8402 13.2808H85.0279L80.956 9.09819H79.3836V13.2808H78.7446V0.129562H79.3836V8.51351Z" fill="var(--fill-0, #F7F5F2)"/>
</g>
</svg>
