<svg preserveAspectRatio="none" width="100%" height="100%" overflow="visible" style="display: block;" viewBox="0 0 87 21" fill="none" xmlns="http://www.w3.org/2000/svg">
<g id="Group">
<path id="Vector" fill-rule="evenodd" clip-rule="evenodd" d="M0 21H81.7535C84.6378 21 87 18.675 87 15.831V0H5.24651C2.35986 0 0 2.32498 0 5.16898V21Z" fill="var(--fill-0, #F7F5F2)"/>
<path id="Vector_2" fill-rule="evenodd" clip-rule="evenodd" d="M12.2999 6.79881H10.0091C8.84588 6.79881 7.89479 7.73585 7.89479 8.88191C7.89479 10.028 8.84588 10.965 10.0091 10.965H10.6575C11.2034 10.965 11.6539 11.4089 11.6539 11.9467C11.6539 12.4845 11.2034 12.9283 10.6575 12.9283H8.36676V14.0297H10.6575C11.8207 14.0297 12.7718 13.0927 12.7718 11.9467C12.7718 10.8006 11.8207 9.86357 10.6575 9.86357H10.0091C9.46326 9.86357 9.01274 9.4197 9.01274 8.88191C9.01274 8.34411 9.46326 7.90025 10.0091 7.90025H12.2999V6.79881ZM72.4309 6.79881C74.3068 6.79881 75.8586 8.15858 76.128 9.93167H79.1028V11.0331H76.128C75.8586 12.8062 74.3068 14.166 72.4309 14.166C70.3666 14.166 68.6909 12.5173 68.6909 10.4812C68.6909 8.44509 70.3642 6.79881 72.4309 6.79881ZM74.9933 9.93167H73.6346V11.0331H74.9933C74.7383 12.1956 73.6871 13.0669 72.4309 13.0669C70.984 13.0669 69.8088 11.9114 69.8088 10.4836C69.8088 9.05569 70.9816 7.90025 72.4309 7.90025C73.6871 7.90025 74.7359 8.77153 74.9933 9.93402V9.93167ZM64.6052 7.8979V6.79647H59.137V7.8979H61.3133V14.1636H62.4313V7.8979H64.6076H64.6052ZM53.8238 7.8979V6.79647H49.0063V7.8979H49.874V14.1636H53.8238V13.0622H50.9919V11.0284H53.8238V9.92697H50.9919V7.8932H53.8238V7.8979ZM44.5441 14.1636V13.0622H41.7122V6.79647H39.7266V7.8979H40.5943V14.1636H44.5441ZM31.4647 6.79647C33.529 6.79647 35.2024 8.44509 35.2024 10.4789C35.2024 12.5126 33.529 14.1636 31.4647 14.1636C29.4005 14.1636 27.7247 12.515 27.7247 10.4789C27.7247 8.44274 29.3981 6.79647 31.4647 6.79647ZM31.4647 7.8979C32.9116 7.8979 34.0868 9.05334 34.0868 10.4812C34.0868 11.9091 32.914 13.0645 31.4647 13.0645C30.0155 13.0645 28.8427 11.9091 28.8427 10.4812C28.8427 9.05334 30.0155 7.8979 31.4647 7.8979ZM17.5869 6.79647H21.5772C22.7404 6.79647 23.6915 7.81805 23.6915 9.06743C23.6915 11.4136 21.3483 11.5686 19.6035 11.2398V14.1636H18.4855V7.99653H17.5869V6.79647ZM19.6035 10.035C20.6285 10.3239 22.5736 10.5164 22.5736 9.06743C22.5736 8.48032 22.123 7.99653 21.5772 7.99653H19.6035V10.035Z" fill="var(--fill-0, black)"/>
<path id="Vector_3" fill-rule="evenodd" clip-rule="evenodd" d="M74.9933 9.93402C74.7383 8.77153 73.6871 7.90025 72.4309 7.90025C70.984 7.90025 69.8088 9.05569 69.8088 10.4836C69.8088 11.9114 70.9816 13.0669 72.4309 13.0669C73.6871 13.0669 74.7359 12.1956 74.9933 11.0331H73.6346V9.93167H74.9933V9.93402Z" fill="var(--fill-0, #F7F5F2)"/>
</g>
</svg>
