<svg preserveAspectRatio="none" width="100%" height="100%" overflow="visible" style="display: block;" viewBox="0 0 9.32099 9.2709" fill="none" xmlns="http://www.w3.org/2000/svg">
<path id="path34" d="M7.64869 4.63618C7.66274 5.04701 7.59388 5.45649 7.44616 5.84041C7.29844 6.22433 7.07487 6.57492 6.78865 6.87146C6.50243 7.168 6.15937 7.40452 5.77972 7.56699C5.40007 7.72945 4.99154 7.81459 4.57825 7.81739C4.16328 7.81965 3.75218 7.73796 3.36993 7.57731C2.98768 7.41666 2.64226 7.18037 2.35465 6.88284C2.06705 6.5853 1.84327 6.23276 1.6969 5.84655C1.55054 5.46033 1.48465 5.0485 1.50324 4.63618C1.48781 4.22593 1.55607 3.81686 1.70391 3.43357C1.85175 3.05027 2.07611 2.70069 2.36346 2.40598C2.6508 2.11126 2.99518 1.87748 3.37583 1.71873C3.75648 1.55998 4.1655 1.47959 4.57825 1.48233C4.98916 1.48522 5.39537 1.56949 5.77316 1.73026C6.15095 1.89103 6.49275 2.12505 6.7786 2.41866C7.06445 2.71228 7.28861 3.05959 7.438 3.44033C7.58739 3.82107 7.65902 4.2276 7.64869 4.63618ZM4.57825 0.000805234C3.66017 0.016922 2.76733 0.302408 2.01181 0.821451C1.25629 1.34049 0.671764 2.06995 0.331601 2.91825C-0.00856325 3.76655 -0.089205 4.69592 0.0998017 5.58965C0.288808 6.48337 0.739041 7.3016 1.39398 7.94172C2.04891 8.58183 2.87937 9.0153 3.7811 9.18763C4.68283 9.35996 5.61565 9.26351 6.46246 8.91039C7.30928 8.55727 8.03234 7.96321 8.5409 7.20279C9.04946 6.44238 9.32084 5.54946 9.32098 4.63618C9.3217 4.02033 9.1989 3.41053 8.95978 2.84245C8.72066 2.27438 8.37002 1.75945 7.92838 1.3278C7.48674 0.896156 6.96297 0.556484 6.38773 0.328623C5.81248 0.100763 5.19733 -0.0106781 4.57825 0.000805234Z" fill="var(--fill-0, #F7F5F2)"/>
</svg>
