<svg preserveAspectRatio="none" width="100%" height="100%" overflow="visible" style="display: block;" viewBox="0 0 79.9683 22.2588" fill="none" xmlns="http://www.w3.org/2000/svg">
<g id="Group">
<path id="Vector" d="M28.078 0.556917H22.6508C21.4612 0.556917 20.5306 1.06199 19.9612 2.01686L17.4389 6.23685L14.042 0.556917H6.80338L13.674 10.9755L6.85396 21.8116H14.0394L17.4468 16.1639L20.9021 21.8116H28.0291L21.2074 10.9755L28.078 0.556917Z" fill="var(--fill-0, #F7F5F2)"/>
<path id="Vector_2" d="M0.91068 1.44473C0.618788 1.72499 0.38775 2.05966 0.231324 2.4288C0.0748984 2.79795 -0.00371082 3.19402 0.000179891 3.5934V21.8117H6.17571V0.554482H3.11715C2.70706 0.550342 2.30033 0.62682 1.92122 0.779339C1.54213 0.931859 1.19844 1.15729 0.91068 1.44218" fill="var(--fill-0, #F7F5F2)"/>
<path id="Vector_3" d="M38.8466 13.903C38.6009 14.9021 38.2092 15.6079 37.6823 16.0075C37.0788 16.4641 36.2985 16.6878 35.2972 16.6878C33.8869 16.6878 32.8971 16.2626 32.1828 15.3613C31.4179 14.3911 31.0298 12.9882 31.0298 11.1889C31.0298 9.26218 31.411 7.83028 32.1636 6.93151C32.8953 6.05916 33.9567 5.63401 35.4097 5.63401C36.4997 5.63401 37.2882 5.83128 37.7532 6.2224C38.0147 6.44261 38.2529 6.75978 38.4779 7.19005C39.0709 8.32431 40.0685 8.92378 41.3628 8.92378H44.9726L44.8767 7.80309C44.6612 5.36531 43.7297 3.44281 42.1083 2.09001C40.4452 0.702342 38.1916 0 35.4097 0C32.0458 0 29.3972 0.993988 27.5379 2.95475C25.757 4.83133 24.8535 7.60157 24.8535 11.1864C24.8535 14.6725 25.7326 17.3986 27.4698 19.2914C29.2734 21.2606 31.8304 22.2588 35.0712 22.2588C37.9083 22.2588 40.2168 21.5599 41.927 20.1799C43.6714 18.776 44.6639 16.7736 44.8801 14.2279L44.9726 13.1166H39.0421L38.8466 13.903Z" fill="var(--fill-0, #F7F5F2)"/>
<path id="Vector_4" d="M76.6937 21.8687C75.7204 21.9221 74.7442 21.9085 73.7728 21.8278C72.7261 21.7496 72.2028 21.0974 72.2028 19.8772V8.17304H73.6735C73.8497 8.17315 74.0242 8.20854 74.186 8.27695C74.3478 8.34542 74.4934 8.44544 74.6143 8.571C74.746 8.69437 74.8494 8.84269 74.9198 9.00676C74.9902 9.17082 75.0251 9.34722 75.0227 9.52496V11.3157H76.6949V11.8726C76.7009 12.0549 76.6672 12.2362 76.5956 12.4049C76.5252 12.5735 76.4182 12.7256 76.2828 12.8513C76.1529 12.974 75.9995 13.0704 75.8317 13.1353C75.6639 13.2 75.484 13.2319 75.3036 13.2288H75.0179V19.123C75.0179 19.5754 75.2891 19.8033 75.8335 19.8033H76.6907L76.6937 21.8687ZM66.8152 21.8687V10.9594C66.8152 10.0045 67.072 9.28777 67.5923 8.80819C68.0795 8.35668 68.8843 8.12798 69.9989 8.12798C70.2185 8.12438 70.4374 8.13806 70.6546 8.16879C70.8867 8.16537 71.1183 8.17793 71.3481 8.20618V10.3974H70.6137C70.2335 10.3974 69.9586 10.4518 69.7986 10.5573C69.6621 10.6627 69.5923 10.877 69.5923 11.1924V11.9092H71.3493V12.5044C71.3541 12.6803 71.3228 12.8552 71.2579 13.0193C71.1923 13.1833 71.0943 13.3329 70.9691 13.4595C70.8434 13.5861 70.6937 13.687 70.5276 13.7565C70.3622 13.826 70.1836 13.8625 70.0037 13.864H69.5965V21.8687H66.8152ZM59.5878 13.9048C59.0161 14.5159 58.7583 15.4251 58.8142 16.6326C58.8663 17.8391 59.1002 18.6817 59.5075 19.1605C59.6715 19.3747 59.9575 19.5516 60.3646 19.697C60.764 19.8429 61.2007 19.8573 61.6091 19.7378C62.0308 19.6196 62.4073 19.3203 62.7346 18.8416C63.0612 18.3629 63.2362 17.5942 63.2645 16.5339C63.2645 15.5765 63.1075 14.8597 62.7935 14.3835C62.4795 13.9073 62.121 13.6016 61.718 13.4661C61.321 13.3345 60.8922 13.3273 60.491 13.4456C60.0842 13.5681 59.7843 13.7212 59.5918 13.9048H59.5878ZM57.6296 20.9137C57.0576 20.4353 56.6486 19.7908 56.4027 18.9802C56.1569 18.1593 56.0339 17.3082 56.0374 16.4531C56.0377 15.7258 56.1407 15.002 56.3433 14.3019C56.5172 13.641 56.8455 13.0284 57.3026 12.5121C58.0101 11.7185 58.9223 11.2471 60.0384 11.098C61.155 10.949 62.1631 11.0339 63.063 11.3531C64.0711 11.73 64.8897 12.4726 65.3487 13.4252C65.8143 14.2988 66.0464 15.3206 66.0464 16.4905C66.0464 17.3408 65.9514 18.0701 65.7607 18.6783C65.5983 19.2306 65.3505 19.7554 65.0251 20.2344C64.3743 21.1076 63.543 21.651 62.5337 21.8652C61.6482 22.1022 60.7159 22.1232 59.8196 21.9264C58.9067 21.7258 58.1799 21.3871 57.6394 20.9103L57.6296 20.9137ZM45.8821 18.3595H48.659C48.6834 18.8892 48.8894 19.2948 49.2696 19.5559C49.6802 19.8203 50.2238 19.9529 50.9038 19.9529C51.3426 19.9651 51.7777 19.8695 52.1684 19.6749C52.4964 19.4878 52.6594 19.2362 52.6594 18.9164C52.6594 18.4411 52.0881 18.0814 50.9459 17.8434C50.5717 17.789 50.2028 17.7083 49.8408 17.6019C48.3984 17.2618 47.4316 16.8508 46.941 16.369C46.3975 15.8894 46.1254 15.2543 46.1254 14.4558C46.1159 13.9776 46.2176 13.5036 46.4226 13.0693C46.6279 12.635 46.9316 12.2517 47.3107 11.9483C48.1301 11.3367 49.1916 11.0308 50.4958 11.0308C51.9139 11.0308 53.044 11.3355 53.8867 11.9449C54.6772 12.611 55.0987 13.474 55.1513 14.5341H53.3852C52.8695 14.5341 52.4757 14.3073 52.2043 13.8538C52.0925 13.7484 51.9844 13.6429 51.8763 13.5341C51.5497 13.2971 51.1 13.1784 50.5281 13.1778C49.9845 13.1778 49.5765 13.256 49.3011 13.415C49.1815 13.4936 49.0849 13.601 49.0209 13.7268C48.9568 13.8526 48.9273 13.9924 48.9355 14.1327C48.9355 14.5572 49.6427 14.9161 51.0573 15.2092C51.2213 15.2602 51.3643 15.301 51.4863 15.3282C51.6008 15.3546 51.7177 15.3683 51.8353 15.369C53.2229 15.7091 54.19 16.113 54.7318 16.5594C55.2509 17.039 55.5098 17.6767 55.5088 18.4726C55.5088 19.642 55.0727 20.5447 54.2005 21.1807C53.3865 21.7652 52.1623 22.0574 50.5281 22.0574C48.9738 22.0574 47.8169 21.7516 47.0569 21.1399C46.2664 20.5311 45.8713 19.642 45.8726 18.4726L45.8821 18.3595Z" fill="var(--fill-0, #F7F5F2)"/>
<path id="Vector_5" d="M78.7526 8.24174C78.5126 8.24174 78.278 8.31121 78.0777 8.44137C77.878 8.57147 77.7222 8.75647 77.6308 8.97291C77.5388 9.18934 77.5147 9.42748 77.5616 9.65724C77.6086 9.88701 77.724 10.098 77.8937 10.2637C78.0639 10.4294 78.2804 10.5422 78.5162 10.5879C78.7514 10.6336 78.9956 10.6101 79.2176 10.5205C79.4401 10.4308 79.6296 10.279 79.7631 10.0842C79.8967 9.88943 79.9683 9.66043 79.9683 9.42618C79.967 9.1122 79.8389 8.8112 79.6116 8.5891C79.3836 8.36712 79.075 8.24221 78.7526 8.24174ZM78.7526 10.3487C78.5655 10.3487 78.3827 10.2946 78.2275 10.1933C78.0717 10.0919 77.9502 9.94781 77.8786 9.7792C77.807 9.61066 77.7884 9.42518 77.8245 9.24619C77.8612 9.06721 77.9514 8.90284 78.0837 8.77387C78.2161 8.64483 78.3851 8.55696 78.5686 8.52134C78.752 8.48572 78.9421 8.504 79.1153 8.57383C79.288 8.64365 79.4359 8.7619 79.5394 8.91364C79.6434 9.06532 79.6994 9.24372 79.6994 9.42618C79.6988 9.67069 79.5989 9.90511 79.4215 10.078C79.244 10.2509 79.004 10.3482 78.7526 10.3487Z" fill="var(--fill-0, #F7F5F2)"/>
<path id="Vector_6" d="M79.2892 9.25799C79.2916 9.20544 79.2825 9.15307 79.2621 9.10436C79.2416 9.05559 79.211 9.01159 79.1719 8.97532C79.1328 8.939 79.0864 8.9111 79.0359 8.89359C78.9848 8.87607 78.9307 8.86929 78.8771 8.87365H78.2876V10.0283H78.5926V9.64061H78.7496L78.9487 10.0283H79.2976L79.0558 9.60322C79.1279 9.57769 79.1899 9.53033 79.2326 9.46805C79.2747 9.40578 79.2958 9.33188 79.2922 9.2571L79.2892 9.25799ZM78.8344 9.37959H78.592V9.13214H78.8344C78.8525 9.1296 78.8711 9.1309 78.8886 9.13591C78.906 9.14098 78.9222 9.14965 78.9361 9.16139C78.9505 9.17312 78.9613 9.18763 78.9692 9.20391C78.977 9.22019 78.9806 9.23794 78.9806 9.25587C78.9806 9.27379 78.977 9.29149 78.9692 9.30776C78.9613 9.32404 78.9505 9.33861 78.9361 9.35028C78.9222 9.36208 78.906 9.37075 78.8886 9.37582C78.8711 9.38083 78.8525 9.38213 78.8344 9.37959Z" fill="var(--fill-0, #F7F5F2)"/>
</g>
</svg>
