<svg preserveAspectRatio="none" width="100%" height="100%" overflow="visible" style="display: block;" viewBox="0 0 56.0021 62.4094" fill="none" xmlns="http://www.w3.org/2000/svg">
<g id="HQFL">
<path id="Vector" d="M28 10.1705C12.5607 10.1705 0 22.2627 0 37.1264C0 45.5542 3.99559 53.3464 10.9614 58.5029L12.9361 59.9654C12.9361 59.9654 12.7273 55.5712 12.6748 54.4415C12.6913 54.4385 12.7108 54.4356 12.7293 54.4316C16.8494 57.8059 22.1809 59.8495 28.001 59.8495C33.8211 59.8495 38.9182 57.9 42.9992 54.6593C42.995 55.9168 42.9837 60 42.9837 60L44.8453 58.6475C51.9355 53.492 56.0021 45.6483 56.0021 37.1264C56.0021 22.2627 43.4414 10.1705 28.0021 10.1705H28Z" fill="var(--fill-0, #F7F5F2)"/>
<path id="Vector_2" d="M20.2523 0L19.8296 3.14857L16.5879 3.75848L19.5756 5.14365L19.2023 8.30014L21.4669 5.98921L24.4711 7.31002L22.8883 4.52087L25.1159 2.15449L21.8763 2.76341L20.2523 0Z" fill="var(--fill-0, #F7F5F2)"/>
<path id="Vector_3" d="M35.7474 0L36.1701 3.14857L39.4119 3.75848L36.4242 5.14365L36.7975 8.30014L34.5328 5.98921L31.5297 7.31002L33.1115 4.52087L30.8848 2.15449L34.1235 2.76341L35.7474 0Z" fill="var(--fill-0, #F7F5F2)"/>
<path id="Vector_4" d="M28 11.0061C13.0389 11.0061 0.868026 22.7231 0.868026 37.1264C0.868026 45.2928 4.7402 52.8434 11.49 57.8406L11.9837 58.2059C11.9837 58.2059 11.7934 54.1811 11.7729 53.7534C11.9045 53.7296 12.3796 53.6435 12.9772 53.5365C17.1342 57.0683 22.4627 59.0138 28.001 59.0138C33.5393 59.0138 38.731 57.1168 42.8624 53.6732C43.3632 53.7682 43.7551 53.8425 43.8692 53.8633C43.8692 54.2732 43.8559 58.3178 43.8559 58.3178L44.3218 57.9802C51.1929 52.984 55.134 45.3829 55.134 37.1254C55.134 22.7222 42.9632 11.0051 28.0021 11.0051L28 11.0061Z" fill="var(--fill-0, black)"/>
<path id="Vector_5" d="M28 58.4574C22.7558 58.4574 17.7061 56.6643 13.7074 53.4058C14.9889 53.1761 16.4226 52.9187 16.4226 52.9187L15.9011 52.5385C10.8328 48.8414 7.92639 43.2245 7.92639 37.1273C7.92639 26.4707 16.9316 17.8013 28.001 17.8013C39.0704 17.8013 48.0757 26.4707 48.0757 37.1273C48.0757 43.2057 45.0376 49.0087 39.9487 52.6484L39.4242 53.0237C39.4242 53.0237 40.8805 53.2999 42.1332 53.5375C38.1613 56.7118 33.1691 58.4584 28.001 58.4584L28 58.4574Z" fill="var(--fill-0, #F7F5F2)"/>
<path id="Vector_6" d="M44.437 57.1564C44.44 56.2762 44.4483 53.4068 44.4483 53.4068C44.4483 53.4068 41.6313 52.8731 40.7684 52.7108C45.704 48.9493 48.6526 43.1809 48.6526 37.1273C48.6526 26.1638 39.3882 17.2448 28 17.2448C16.6118 17.2448 7.34737 26.1638 7.34737 37.1273C7.34737 43.1997 10.1695 48.7919 15.0773 52.5949C14.1959 52.7533 11.1722 53.2959 11.1722 53.2959C11.1722 53.2959 11.3039 56.0732 11.3471 56.9881C5.06006 52.0979 1.44705 44.9077 1.44705 37.1273C1.44705 23.0311 13.3588 11.5636 28.001 11.5636C42.6433 11.5636 54.555 23.0311 54.555 37.1273C54.555 45.0116 50.8628 52.2662 44.438 57.1574L44.437 57.1564Z" fill="var(--fill-0, #F7F5F2)"/>
<path id="Vector_7" d="M41.1313 49.7681C48.3834 42.7865 48.3834 31.467 41.1313 24.4854C33.8793 17.5038 22.1214 17.5038 14.8694 24.4854C7.61738 31.467 7.61738 42.7865 14.8694 49.7681C22.1214 56.7497 33.8793 56.7497 41.1313 49.7681Z" fill="var(--fill-0, black)"/>
<path id="Vector_8" d="M45.7641 39.8777C47.3425 30.433 40.6691 21.5447 30.8585 20.0252C21.048 18.5056 11.8154 24.9302 10.237 34.3749C8.65857 43.8196 15.332 52.7079 25.1426 54.2275C34.9531 55.747 44.1857 49.3224 45.7641 39.8777Z" fill="var(--fill-0, #F7F5F2)"/>
<path id="Vector_9" d="M9.39813 52.1147L9.39093 52.1068L10.2302 50.8454L10.8452 51.5523L9.39813 52.1157V52.1147ZM11.4767 51.3048L10.587 50.282L11.0262 49.6256L10.479 48.9968L8.44988 52.2949L9.03096 52.9623L12.7694 51.6296L12.2388 51.0197L11.4777 51.3048H11.4767Z" fill="var(--fill-0, black)"/>
<path id="Vector_10" d="M9.14101 48.979C9.31688 48.8701 9.60279 48.5859 9.24797 48.0216C9.05565 47.7156 8.76562 47.4206 8.4252 47.6186C8.17528 47.7642 8.25447 48.0364 8.37995 48.4107L8.5085 48.7889C8.70186 49.3582 8.88904 49.9087 8.18248 50.3206C7.82457 50.5295 7.07791 50.7127 6.44643 49.7097C5.84992 48.7622 6.33432 48.1325 6.72514 47.8988L7.11493 48.5186C6.98226 48.6196 6.67578 48.8691 7.0306 49.4335C7.18487 49.679 7.46358 49.9177 7.75361 49.7474C8.00353 49.6008 7.93256 49.3711 7.8832 49.2246L7.6014 48.3582C7.44301 47.8731 7.37822 47.382 7.95519 47.0453C8.92092 46.481 9.60279 47.379 9.77352 47.6503C10.4842 48.779 9.93087 49.3662 9.53286 49.5988L9.14307 48.979H9.14101Z" fill="var(--fill-0, black)"/>
<path id="Vector_11" d="M7.53763 46.1978C7.72893 46.1156 8.05495 45.874 7.78858 45.2661C7.64459 44.9364 7.4029 44.6027 7.03677 44.7512C6.76731 44.8611 6.80433 45.1413 6.87118 45.5285L6.94009 45.9206C7.045 46.5127 7.14681 47.082 6.38472 47.3899C5.99905 47.5463 5.23181 47.6216 4.75974 46.5404C4.31442 45.5186 4.8883 44.9641 5.311 44.7879L5.60309 45.4562C5.45704 45.5374 5.11456 45.7414 5.37991 46.3493C5.4951 46.6136 5.73473 46.8889 6.04841 46.7622C6.3189 46.6533 6.2829 46.4166 6.25616 46.2631L6.10909 45.3671C6.02681 44.8661 6.0371 44.37 6.65829 44.1186C7.70013 43.6978 8.23699 44.6809 8.36452 44.973C8.89521 46.1899 8.25859 46.6929 7.82972 46.8661L7.53763 46.1978Z" fill="var(--fill-0, black)"/>
<path id="Vector_12" d="M5.64834 43.3284C4.62604 43.5651 4.23214 43.0661 4.13341 42.671C4.03365 42.274 4.14883 41.6571 5.1701 41.4195C6.1924 41.1819 6.5863 41.6819 6.68503 42.0769C6.78479 42.474 6.67063 43.0908 5.64834 43.3284ZM5.83243 44.0621C7.54586 43.6641 7.44713 42.3918 7.33091 41.9274C7.21469 41.4631 6.69943 40.2868 4.98601 40.6858C3.27258 41.0839 3.37131 42.3561 3.48753 42.8205C3.60375 43.2849 4.11901 44.4611 5.83243 44.0621Z" fill="var(--fill-0, black)"/>
<path id="Vector_13" d="M4.11078 37.8808C3.89069 37.9561 3.47725 38.1006 3.5225 38.7234C3.54821 39.0858 3.83824 39.6007 4.89653 39.5294C5.56915 39.4838 6.1564 39.1868 6.11012 38.5482C6.07927 38.1313 5.81289 37.8571 5.34803 37.7977L5.29352 37.0452C6.11835 37.1412 6.72411 37.6145 6.78994 38.5185C6.85987 39.4779 6.23662 40.2106 4.94281 40.2987C3.63357 40.3868 2.91262 39.7036 2.84474 38.7749C2.76657 37.6947 3.50604 37.2056 4.05627 37.1283L4.11078 37.8808Z" fill="var(--fill-0, black)"/>
<path id="Vector_14" d="M6.67166 35.958L6.64184 36.7125L2.88999 36.5759L2.91982 35.8204L6.67166 35.958Z" fill="var(--fill-0, black)"/>
<path id="Vector_15" d="M3.99045 33.7243L3.99251 33.7134L5.53006 33.4778L5.39122 34.3897L3.99148 33.7243H3.99045ZM6.0011 34.6798L6.20268 33.36L7.00283 33.2392L7.12624 32.4273L3.2191 33.1629L3.08746 34.0243L6.6079 35.8244L6.72823 35.0372L6.00007 34.6798H6.0011Z" fill="var(--fill-0, black)"/>
<path id="Vector_16" d="M5.4231 29.5678C5.18964 29.5619 4.74946 29.553 4.55919 30.15C4.44915 30.4965 4.52628 31.0777 5.54138 31.3777C6.18623 31.5679 6.84445 31.4936 7.03883 30.8827C7.16636 30.4837 7.02031 30.1352 6.6079 29.9183L6.83725 29.1965C7.57157 29.5708 7.96033 30.2223 7.6847 31.0896C7.39159 32.0094 6.53693 32.4778 5.2966 32.1124C4.04187 31.7421 3.62329 30.856 3.90714 29.9649C4.23625 28.9302 5.10942 28.7292 5.65245 28.847L5.4231 29.5688V29.5678Z" fill="var(--fill-0, black)"/>
<path id="Vector_17" d="M6.21914 26.8311L6.22325 26.8222L7.76081 27.0529L7.33811 27.8787L6.21811 26.8311H6.21914ZM7.82766 28.3351L8.44062 27.1391L9.24077 27.2608L9.61719 26.5242L5.66479 26.0678L5.26472 26.849L8.04055 29.6035L8.40566 28.8896L7.82766 28.3341V28.3351ZM4.77517 25.4717C4.84613 25.5281 4.93047 25.6242 4.85436 25.7727C4.82145 25.8361 4.77106 25.8905 4.63118 26.0143C4.49131 26.139 4.42858 26.1935 4.3751 26.2975C4.27122 26.5004 4.30516 26.6737 4.38332 26.8183C4.46354 26.9569 4.58799 27.0559 4.67232 27.1183L4.82042 26.8292C4.77311 26.7955 4.64661 26.6796 4.72683 26.5212C4.76591 26.445 4.86362 26.3678 4.98498 26.245C5.05491 26.1767 5.1845 26.0361 5.23592 25.9371C5.42825 25.5628 5.05388 25.2668 4.92533 25.1776L4.77517 25.4707V25.4717Z" fill="var(--fill-0, black)"/>
<path id="Vector_18" d="M8.5373 24.8776C7.6847 24.2865 7.82046 23.6737 8.06832 23.342C8.31618 23.0113 8.87669 22.6925 9.72929 23.2845C10.5819 23.8756 10.4461 24.4885 10.1983 24.8192C9.95041 25.1499 9.3899 25.4687 8.5373 24.8776ZM8.0786 25.4905C9.5092 26.4816 10.4472 25.5816 10.7372 25.1935C11.0272 24.8054 11.6176 23.6628 10.187 22.6717C8.75739 21.6806 7.8184 22.5816 7.52837 22.9697C7.23835 23.3578 6.64801 24.4994 8.0786 25.4915V25.4905Z" fill="var(--fill-0, black)"/>
<path id="Vector_19" d="M12.827 19.3577C12.6306 19.236 12.2593 19.0082 11.7749 19.4231C11.4931 19.6637 11.2453 20.1984 11.9508 20.9627C12.3992 21.4479 13.0008 21.7142 13.4976 21.2895C13.8226 21.0122 13.8853 20.6409 13.6498 20.2498L14.236 19.7479C14.6608 20.435 14.6402 21.1865 13.9367 21.7885C13.1901 22.4271 12.2069 22.3994 11.345 21.4667C10.4729 20.5221 10.5953 19.5548 11.3183 18.9369C12.1585 18.2181 13.0132 18.4845 13.4122 18.8558L12.826 19.3577H12.827Z" fill="var(--fill-0, black)"/>
<path id="Vector_20" d="M15.0238 18.7884L15.9289 20.1558L15.2676 20.5617L13.2487 17.5141L13.91 17.1082L14.6752 18.2627L15.9104 17.5042L15.1452 16.3498L15.8065 15.9438L17.8254 18.9914L17.1641 19.3973L16.259 18.03L15.0238 18.7884Z" fill="var(--fill-0, black)"/>
<path id="Vector_21" d="M18.3962 15.6725L18.4054 15.6686L19.4216 16.8032L18.5433 17.1686L18.3962 15.6725ZM18.6091 17.8221L19.8813 17.2924L20.4089 17.8845L21.1916 17.5587L18.4877 14.7458L17.6577 15.0913L17.9179 18.9211L18.677 18.6053L18.6101 17.8211L18.6091 17.8221Z" fill="var(--fill-0, black)"/>
<path id="Vector_22" d="M21.5978 15.4874L21.3211 14.4587L21.9238 14.3082C22.3949 14.1913 22.6304 14.2834 22.7219 14.624C22.7641 14.7804 22.869 15.1696 22.3023 15.3111L21.5988 15.4864L21.5978 15.4874ZM21.7603 16.0914L22.6314 15.8745C23.6084 15.631 23.5755 14.7864 23.4902 14.4695C23.305 13.7824 22.763 13.4547 22.0596 13.6299L20.3986 14.0438L21.3407 17.5429L22.0997 17.3538L21.7603 16.0914Z" fill="var(--fill-0, black)"/>
<path id="Vector_23" d="M26.8039 13.5775L24.822 13.7804L24.9053 14.5369L26.7257 14.3507L26.7957 14.9864L24.9753 15.1725L25.0781 16.1032L27.1474 15.8914L27.2184 16.527L24.3839 16.8171L23.9869 13.223L26.7329 12.9418L26.8039 13.5775Z" fill="var(--fill-0, black)"/>
<path id="Vector_24" d="M30.06 14.2002C30.0086 13.9814 29.9078 13.5685 29.2609 13.5378C28.8845 13.521 28.3188 13.7369 28.2684 14.7577C28.2355 15.4062 28.4741 16.0022 29.1365 16.0329C29.5705 16.0527 29.8852 15.831 30.0014 15.3923L30.7851 15.429C30.5886 16.2062 30.0292 16.73 29.0891 16.6864C28.0915 16.6409 27.4076 15.9587 27.4703 14.7111C27.5331 13.4487 28.3229 12.8398 29.2887 12.8844C30.4118 12.9368 30.8293 13.7012 30.8447 14.2369L30.061 14.2002H30.06Z" fill="var(--fill-0, black)"/>
<path id="Vector_25" d="M31.9565 15.0587C32.1797 14.0705 32.8184 13.9468 33.2328 14.0329C33.6473 14.12 34.1739 14.4884 33.9497 15.4765C33.7255 16.4656 33.0878 16.5884 32.6734 16.5023C32.2589 16.4151 31.7333 16.0468 31.9565 15.0587ZM31.1903 14.8983C30.8149 16.5557 32.047 17.026 32.5325 17.128C33.0179 17.23 34.3415 17.2963 34.7159 15.6389C35.0913 13.9814 33.8592 13.5111 33.3737 13.4091C32.8883 13.3072 31.5657 13.2408 31.1903 14.8983Z" fill="var(--fill-0, black)"/>
<path id="Vector_26" d="M38.2631 15.7201L36.4098 15.0161L36.1197 15.723L37.8219 16.3696L37.5781 16.9646L35.875 16.3181L35.5181 17.1894L37.4547 17.9241L37.2109 18.5191L34.5596 17.5122L35.9367 14.1497L38.5058 15.125L38.262 15.7201H38.2631Z" fill="var(--fill-0, black)"/>
<path id="Vector_27" d="M41.3413 16.6339L41.9727 16.9894L40.0763 20.1092L39.3995 19.728L39.4294 16.7577L39.4201 16.7528L38.0677 18.9775L37.4362 18.6211L39.3327 15.5012L40.0454 15.9032L40.0115 18.8003L40.0207 18.8053L41.3413 16.6329V16.6339Z" fill="var(--fill-0, black)"/>
<path id="Vector_28" d="M41.5593 19.8162C41.4318 19.9756 41.2621 20.336 41.7938 20.7518C42.0818 20.9776 42.4592 21.1617 42.7091 20.8647C42.8932 20.6459 42.7235 20.4162 42.4746 20.1043L42.2216 19.7894C41.8401 19.3162 41.4709 18.8587 41.9913 18.2409C42.2546 17.928 42.8943 17.5132 43.8404 18.2528C44.7332 18.9508 44.4987 19.7003 44.2128 20.0479L43.6286 19.5914C43.7181 19.4538 43.9196 19.1181 43.3879 18.7023C43.1565 18.5211 42.8109 18.3874 42.597 18.6419C42.4119 18.8607 42.56 19.0538 42.6577 19.1766L43.2264 19.9003C43.5453 20.3053 43.7787 20.7469 43.353 21.2508C42.6402 22.0954 41.6848 21.4707 41.4297 21.2716C40.3663 20.4399 40.681 19.7073 40.9741 19.3597L41.5593 19.8162Z" fill="var(--fill-0, black)"/>
<path id="Vector_29" d="M46.9577 22.2142L45.6094 20.8023L45.0283 21.3172L46.2666 22.6142L45.7781 23.0469L44.5398 21.7499L43.823 22.3835L45.2309 23.8588L44.7424 24.2915L42.814 22.2717L45.5785 19.8261L47.4473 21.7835L46.9587 22.2162L46.9577 22.2142Z" fill="var(--fill-0, black)"/>
<path id="Vector_30" d="M48.6886 24.5459L49.0733 25.1697C49.244 25.447 49.4374 25.9281 48.4829 26.4727C47.9523 26.7757 47.2889 26.9143 46.9639 26.3856L46.5751 25.7539L48.6886 24.5469V24.5459ZM45.6248 25.4351L46.4538 26.7816C47.0863 27.8084 48.2474 27.5014 48.9396 27.1064C49.5515 26.7579 50.3445 26.0113 49.6996 24.9638L48.8542 23.5905L45.6248 25.4341V25.4351Z" fill="var(--fill-0, black)"/>
<path id="Vector_31" d="M51.2269 29.646L50.4843 27.8658L49.7521 28.149L50.4339 29.7846L49.8179 30.0223L49.136 28.3866L48.233 28.7351L49.0085 30.5946L48.3924 30.8322L47.3311 28.2856L50.8155 26.9391L51.844 29.4064L51.2279 29.645L51.2269 29.646Z" fill="var(--fill-0, black)"/>
<path id="Vector_32" d="M48.9221 32.958L48.7781 32.2154L52.4693 31.554L52.9588 34.0827L52.3057 34.2006L51.9602 32.4134L51.1271 32.5629L51.4295 34.1273L50.7764 34.2451L50.474 32.6807L48.9211 32.959L48.9221 32.958Z" fill="var(--fill-0, black)"/>
<path id="Vector_33" d="M50.7127 37.7581C49.7253 37.7937 49.28 37.2353 49.244 36.3244C49.2317 35.9917 49.2954 35.4956 49.6544 35.161C49.8765 34.956 50.1768 34.8699 50.5532 34.8461L53.0411 34.756L53.0709 35.5263L50.6355 35.6145C50.1131 35.6333 49.894 35.9333 49.9074 36.2858C49.9279 36.8046 50.1974 37.0066 50.652 36.9897L53.1244 36.8996L53.1542 37.6699L50.7137 37.7581H50.7127Z" fill="var(--fill-0, black)"/>
<path id="Vector_34" d="M49.1916 39.7383L49.2759 38.9878L52.3489 39.3086L52.4713 38.2224L53.1316 38.2907L52.8025 41.2135L52.1422 41.1452L52.2646 40.0581L49.1926 39.7383H49.1916Z" fill="var(--fill-0, black)"/>
<path id="Vector_35" d="M51.3482 44.2512L51.8398 42.3928L51.0736 42.2056L50.6221 43.9126L49.9783 43.7552L50.4298 42.0472L49.4877 41.8165L48.9735 43.7581L48.3297 43.6007L49.0332 40.9423L52.6719 41.8334L51.991 44.4096L51.3472 44.2512H51.3482Z" fill="var(--fill-0, black)"/>
<path id="Vector_36" d="M49.461 45.1512L49.0692 46.0364C48.9581 46.2859 48.7318 46.4889 48.4284 46.3631C48.0777 46.2186 48.0098 45.9612 48.16 45.6235L48.5375 44.772L49.461 45.1512ZM48.2371 43.8601L47.6129 45.2671C47.3105 45.9473 47.3506 46.178 47.4586 46.4473C47.5584 46.6958 47.7692 46.9146 48.0428 47.0265C48.3842 47.1671 48.7678 47.1988 49.1072 46.8572C49.1175 47.0265 49.1381 47.3513 49.6338 47.5552C49.9896 47.7028 50.6119 47.7107 50.9729 46.8968L51.6897 45.2809L48.2371 43.8611V43.8601ZM50.798 45.7017L50.4442 46.4988C50.3044 46.8127 50.1316 46.9721 49.8477 46.8552C49.5731 46.7424 49.5597 46.479 49.6811 46.2057L50.0431 45.3909L50.798 45.7008V45.7017Z" fill="var(--fill-0, black)"/>
<path id="Vector_37" d="M48.123 48.3473C49.0075 48.8939 48.9056 49.5127 48.6773 49.8563C48.449 50.1989 47.907 50.5464 47.0215 49.9998C46.137 49.4533 46.2388 48.8345 46.4671 48.4919C46.6955 48.1483 47.2375 47.8008 48.123 48.3473ZM48.5467 47.7117C47.0637 46.7958 46.1771 47.7434 45.9087 48.1463C45.6403 48.5493 45.1147 49.7196 46.5988 50.6365C48.0829 51.5523 48.9684 50.6038 49.2368 50.2018C49.5052 49.7998 50.0308 48.6285 48.5467 47.7127V47.7117Z" fill="var(--fill-0, black)"/>
<path id="Vector_38" d="M44.8082 50.8414L43.573 52.189L43.0629 51.7563L44.8165 49.8414L47.6334 52.2316L47.1151 52.7979L44.8082 50.8395V50.8414Z" fill="var(--fill-0, black)"/>
<path id="Vector_39" d="M18.6368 54.1524C18.6728 54.0177 18.7397 53.7623 18.391 53.5692C18.1895 53.4573 17.8141 53.4217 17.485 53.9702C17.2762 54.3187 17.232 54.7118 17.5888 54.9088C17.8213 55.0385 18.0609 55.0019 18.2532 54.791L18.6739 55.0247C18.3376 55.3999 17.8747 55.5356 17.3698 55.2544C16.8339 54.9573 16.6581 54.3959 17.0592 53.7256C17.4654 53.0464 18.0794 52.9266 18.5988 53.2147C19.2025 53.5494 19.2076 54.086 19.0575 54.3841L18.6368 54.1504V54.1524Z" fill="var(--fill-0, black)"/>
<path id="Vector_40" d="M19.5727 55.1583L19.1603 56.0811L18.714 55.896L19.6345 53.8395L20.0808 54.0237L19.7322 54.8029L20.5652 55.1484L20.9139 54.3692L21.3602 54.5534L20.4397 56.6108L19.9934 56.4257L20.4058 55.5029L19.5727 55.1573V55.1583Z" fill="var(--fill-0, black)"/>
<path id="Vector_41" d="M22.4093 55.4029L22.4154 55.4049L22.4278 56.3326L21.8601 56.1702L22.4093 55.4039V55.4029ZM21.6215 56.5049L22.4442 56.7405L22.4504 57.2247L22.9564 57.3703L22.8371 54.9989L22.3002 54.8445L20.8398 56.7623L21.3304 56.9029L21.6225 56.5049H21.6215Z" fill="var(--fill-0, black)"/>
<path id="Vector_42" d="M24.0836 56.3603L24.205 55.7118L24.5845 55.7781C24.8807 55.8296 24.9887 55.9395 24.9485 56.1554C24.93 56.2534 24.8837 56.499 24.5269 56.4376L24.0836 56.3613V56.3603ZM24.0126 56.7405L24.5608 56.8356C25.1758 56.9425 25.3846 56.4584 25.4227 56.2593C25.5039 55.8257 25.2869 55.5069 24.8436 55.4296L23.7977 55.2484L23.3853 57.4514L23.8635 57.5336L24.0126 56.7395V56.7405Z" fill="var(--fill-0, black)"/>
<path id="Vector_43" d="M27.4765 56.0881L26.2454 56.0039L26.2105 56.4742L27.3418 56.5514L27.313 56.9465L26.1817 56.8693L26.1395 57.4475L27.4251 57.5356L27.3963 57.9307L25.6345 57.8109L25.8001 55.5772L27.5063 55.694L27.4765 56.089V56.0881Z" fill="var(--fill-0, black)"/>
<path id="Vector_44" d="M29.3432 56.3782C29.299 56.2455 29.2146 55.996 28.8125 56.0108C28.5801 56.0197 28.2427 56.1821 28.2684 56.8148C28.2849 57.2168 28.4649 57.5722 28.8752 57.5564C29.1437 57.5465 29.3257 57.393 29.373 57.1168L29.8584 57.099C29.7803 57.5881 29.4645 57.9406 28.8814 57.9623C28.2633 57.9861 27.8036 57.6 27.7717 56.8277C27.7398 56.0455 28.1934 55.6286 28.7919 55.6069C29.4882 55.5801 29.7885 56.0306 29.8276 56.3603L29.3421 56.3782H29.3432Z" fill="var(--fill-0, black)"/>
<path id="Vector_45" d="M30.5866 56.6514C30.4837 56.0326 30.8221 55.8217 31.0823 55.7821C31.3415 55.7425 31.7313 55.8395 31.8352 56.4593C31.938 57.0782 31.5996 57.2891 31.3394 57.3287C31.0803 57.3683 30.6905 57.2703 30.5866 56.6514ZM30.1073 56.7257C30.2801 57.7643 31.1008 57.7663 31.4053 57.7198C31.7087 57.6732 32.4872 57.4227 32.3144 56.3861C32.1416 55.3474 31.3209 55.3455 31.0165 55.392C30.7131 55.4385 29.9335 55.689 30.1073 56.7257Z" fill="var(--fill-0, black)"/>
<path id="Vector_46" d="M35.6857 55.8079C35.7402 55.9217 35.8966 56.1148 36.2864 55.9534C36.4982 55.8653 36.7111 55.7197 36.6144 55.5019C36.5424 55.3415 36.3625 55.3653 36.1136 55.4069L35.8616 55.4504C35.4821 55.5168 35.1149 55.5801 34.9134 55.1276C34.8115 54.8979 34.7581 54.4415 35.4523 54.1544C36.1064 53.8831 36.4674 54.2227 36.5826 54.4742L36.1537 54.6514C36.1012 54.5643 35.9675 54.3613 35.5777 54.5237C35.408 54.594 35.2332 54.7375 35.3165 54.9237C35.3885 55.0841 35.5407 55.0623 35.6384 55.0445L36.2144 54.9524C36.5363 54.8999 36.8561 54.9039 37.0207 55.2732C37.2973 55.892 36.6669 56.2178 36.4797 56.296C35.7001 56.6188 35.3731 56.2415 35.2589 55.9861L35.6878 55.8088L35.6857 55.8079Z" fill="var(--fill-0, black)"/>
<path id="Vector_47" d="M38.2517 53.6623C38.1489 53.5652 37.9545 53.3801 37.6048 53.5722C37.4022 53.6831 37.1811 53.9771 37.5061 54.5276C37.7128 54.8762 38.043 55.1128 38.3998 54.9168C38.6333 54.788 38.7218 54.5712 38.6313 54.3049L39.0529 54.0732C39.2185 54.5425 39.1064 54.996 38.5994 55.2732C38.0615 55.5683 37.4691 55.4296 37.0711 54.7583C36.6689 54.0781 36.8715 53.5068 37.392 53.2217C37.9967 52.89 38.479 53.1563 38.6724 53.4316L38.2507 53.6633L38.2517 53.6623Z" fill="var(--fill-0, black)"/>
<path id="Vector_48" d="M27.5927 42.6076C27.2266 42.6076 26.301 40.1947 25.8382 39.7492C25.3754 39.3036 25.5492 38.8581 25.5492 38.6729C25.5492 38.4878 26.0315 38.3194 25.9153 37.763C25.8001 37.2066 25.0668 37.3927 24.7583 36.8165C24.4497 36.2412 23.8327 35.8699 23.4758 35.3036C23.1189 34.7382 23.1189 33.754 22.8299 33.2342C22.5409 32.7144 22.0585 32.1025 22.0585 31.5451C22.0585 30.9876 22.2324 30.7461 22.579 30.5609C22.9255 30.3758 23.2063 30.45 23.2063 30.1064C23.2063 29.7629 22.6561 29.5035 22.3095 29.5035C21.9629 29.5035 21.8662 29.7639 21.5186 29.7639C21.171 29.7639 21.2296 29.3183 20.2649 29.3183C19.7826 29.3183 19.0503 30.154 18.6841 30.154C18.318 30.154 17.5456 29.95 17.45 30.2649C17.3533 30.5807 17.9519 30.3758 17.9519 30.8213C17.9519 31.2669 17.6433 31.9164 17.2772 32.5659C16.9111 33.2164 17.1332 34.2827 16.9111 34.4966C16.6889 34.7095 16.4102 34.9788 16.3135 35.2946C16.2169 35.6105 16.1881 36.1759 16.005 36.3531C15.8219 36.5293 15.5237 36.6689 15.4455 36.9838C15.3684 37.2996 15.5998 37.5967 15.4836 37.9858C15.3673 38.3749 15.3488 38.8026 15.1946 38.9521C15.0403 39.0997 14.6937 39.4155 14.6937 39.6383C14.6937 39.8611 14.6742 40.567 14.559 40.8819C14.4438 41.1977 13.9419 41.9215 13.6334 42.3859C13.3248 42.8502 13.0739 43.073 12.862 43.073C12.6501 43.073 11.994 43.7413 12.6882 43.7413H16.5059C16.872 43.7413 17.3348 43.0542 16.8339 43.0542C16.3331 43.0542 15.8888 42.7948 15.6965 42.4611C15.5041 42.1274 15.9474 41.9047 15.9474 41.7373C15.9474 41.57 16.005 40.9007 16.294 40.8086H22.0411C22.4648 40.8086 22.8124 41.0314 22.8895 41.3096C22.9667 41.5878 22.9667 41.9225 22.9667 42.2185C22.9667 42.5146 22.6962 42.4789 22.4843 42.6829C22.2725 42.8869 21.462 43.4987 22.4843 43.4987H25.4155C25.6273 43.4987 25.9163 43.2017 26.2835 43.2017C26.6507 43.2017 26.8039 43.4799 27.3243 43.4799C27.8447 43.4799 28.4618 43.4799 28.578 42.9047C28.6479 42.5581 27.9609 42.6066 27.5948 42.6066L27.5927 42.6076ZM16.403 37.567C16.0996 37.567 16.0996 37.2184 16.0996 37.1491C16.0996 37.0798 16.2004 36.8363 16.403 36.8363C16.6056 36.8363 16.6632 36.5234 16.8082 36.5234C16.982 36.5234 16.8247 36.7858 16.982 36.8996C17.1013 36.9858 17.0612 37.2264 16.8812 37.2481C16.7002 37.2689 16.7074 37.568 16.404 37.568L16.403 37.567ZM21.7109 39.4521H16.9676C16.7362 39.4521 17.0828 38.6531 17.0828 38.4501C17.0828 38.2472 17.3235 37.7353 17.6228 37.4481C17.921 37.16 17.7575 36.6491 17.8542 36.2966C17.9509 35.9432 18.1144 35.6382 18.2789 35.4798C18.4435 35.3224 18.5011 34.4125 18.7798 33.8283C19.0595 33.2441 19.763 33.1966 19.763 33.6233C19.763 34.0501 20.592 35.6283 20.7277 36.0362C20.8624 36.4452 20.7277 37.3363 20.9015 37.8006C21.0753 38.265 21.3355 38.4036 21.7109 38.766C22.0873 39.1284 21.7109 39.4531 21.7109 39.4531V39.4521ZM23.302 37.7066C23.1868 37.7066 23.0418 37.867 22.7528 37.8036C22.4638 37.7402 22.5502 37.4838 22.5502 37.3095C22.5502 37.1353 22.3691 37.0244 22.5286 36.7105C22.688 36.3966 22.907 36.6501 23.049 36.7868C23.2187 36.9501 23.266 36.8075 23.4182 36.8976C23.5118 36.9531 23.4717 37.0244 23.5046 37.165C23.5251 37.2541 23.6599 37.4323 23.6599 37.5066C23.6599 37.7016 23.4172 37.7046 23.302 37.7046V37.7066Z" fill="var(--fill-0, black)"/>
<path id="Vector_49" d="M43.5021 31.2649C43.5021 30.6342 43.6173 30.4292 43.715 30.0767C43.8116 29.7243 43.3869 29.5945 43.2738 29.8936C43.1606 30.1926 42.8469 30.3045 42.6299 30.3045C42.4129 30.3045 42.4613 30.1421 41.9501 30.1421C41.439 30.1421 41.44 29.65 39.9734 29.65C38.5068 29.65 38.7588 30.151 38.0841 30.151C37.4094 30.151 37.3128 29.6866 36.6957 29.6866C36.0786 29.6866 35.9634 30.1322 35.3844 30.1322C34.8054 30.1322 34.8064 29.6777 34.4876 29.6777C34.1687 29.6777 34.285 29.8728 33.8221 30.0025C33.3593 30.1322 33.2431 30.4292 33.4365 30.6154C33.6298 30.8015 34.0731 30.9866 34.0731 31.6362C34.0731 32.2857 34.3621 33.455 34.3621 33.9946C34.3621 34.5342 34.2078 34.8669 34.2078 35.461C34.2078 36.055 33.8026 36.3897 33.8026 36.7234C33.8026 37.057 34.1687 37.3363 34.1687 37.6511C34.1687 37.966 34.1111 40.9561 34.1111 41.3462C34.1111 41.8472 34.034 41.9957 33.8797 42.2363C33.7481 42.4413 33.8993 42.4779 33.5712 42.7938C33.2431 43.1086 33.0405 42.8958 32.8091 43.1185C32.5777 43.3423 33.1372 43.4344 33.2246 43.5175C33.311 43.6007 33.2246 43.8146 33.6679 43.8146C34.1111 43.8146 34.7673 43.2581 35.1715 43.2581C35.5757 43.2581 35.6343 43.6661 36.1167 43.6661C36.599 43.6661 36.5023 43.4809 37.3704 43.4809C38.2384 43.4809 38.5469 43.871 38.9717 43.871C39.3964 43.871 39.6268 43.8334 39.994 43.2027C40.3601 42.571 39.7914 42.5621 39.705 42.8314C39.6186 43.1007 39.2802 43.0542 39.0488 43.0542C38.8174 43.0542 38.4513 42.9799 38.3546 42.9799C38.2579 42.9799 37.9113 42.7571 37.9113 42.6086C37.9113 42.4601 37.7087 42.1908 37.5257 42.0155C37.3426 41.8393 37.3714 41.4591 37.3714 40.9017C37.3714 40.3442 37.1976 40.1779 37.1976 39.8432C37.1976 39.5086 37.3714 39.2868 37.3714 38.8214C37.3714 38.3561 37.2562 38.06 37.4866 37.8382C37.718 37.6155 37.7756 37.3373 38.0265 37.3373C38.2775 37.3373 38.4801 37.5323 38.6241 37.6709C38.7691 37.8105 39.0961 37.8838 39.2792 38.061C39.4623 38.2373 39.0673 38.3392 39.3944 38.9521C39.7225 39.565 40.0886 39.0997 40.0886 38.8036C40.0886 38.5076 40.2819 38.3402 40.2819 38.1353C40.2819 37.9303 40.1277 37.968 40.1277 37.467C40.1277 36.966 40.4362 36.9105 40.4362 36.6135C40.4362 36.3164 40.1081 36.2422 40.1081 35.963C40.1081 35.6838 40.1277 35.8145 40.1277 35.3501C40.1277 34.8857 40.0979 34.4867 39.8767 34.2738C39.6556 34.06 39.1825 34.0322 39.1825 34.4035C39.1825 34.7748 39.3172 35.054 39.3172 35.2768C39.3172 35.4996 39.1825 35.7224 38.7968 35.9263C38.4112 36.1313 38.5654 36.3353 38.0635 36.3353C37.5617 36.3353 37.5236 36.2046 37.4084 35.8897C37.2932 35.5739 37.3313 34.7006 37.3313 33.6431C37.3313 32.5857 37.5051 32.1391 37.5051 31.7867C37.5051 31.4342 37.8136 31.248 38.2188 31.156C38.6241 31.0629 38.7197 30.7282 39.2216 30.7282C39.7235 30.7282 40.0701 30.8579 40.4558 31.0065C40.8414 31.155 41.2754 31.4055 41.2754 31.4055L41.3814 31.5075C41.4873 31.6094 41.8637 31.9718 41.8637 32.2867C41.8637 32.6015 42.0756 32.955 42.2103 33.4936C42.3451 34.0322 42.0653 34.0966 41.6704 34.4768C41.2754 34.857 41.5737 35.0531 41.8246 35.0531C42.0756 35.0531 41.8246 35.2937 42.6731 34.8481C43.5216 34.4025 43.8878 33.5303 43.8878 32.8986C43.8878 32.2669 43.5021 31.8966 43.5021 31.2649ZM35.8945 36.9085C35.7495 36.9085 35.5963 36.8907 35.5479 36.7412C35.4996 36.5927 35.3556 36.5739 35.3556 36.2026C35.3556 36.0551 35.4307 35.959 35.4728 35.8392C35.5356 35.66 35.587 35.4877 35.7032 35.4877C35.8071 35.4877 35.875 35.6382 35.9696 35.7442C36.0498 35.8343 36.1784 35.8679 36.1784 36.0501C36.1784 36.4303 36.3275 36.3986 36.4458 36.5828C36.6196 36.8521 36.0405 36.9075 35.8966 36.9075L35.8945 36.9085Z" fill="var(--fill-0, black)"/>
<path id="Vector_50" d="M32.3658 43.675C32.2836 43.5908 32.2177 43.4859 32.1889 43.3512C32.1797 43.3076 32.1756 43.2651 32.1756 43.2225C32.1386 43.0443 32.1468 42.8304 32.2352 42.5146C32.3185 42.2185 31.8362 42.0888 31.8362 41.9215C31.8362 41.7542 31.6151 41.1324 31.1615 40.6967C30.708 40.2601 30.9054 40.2185 30.708 40.0284C30.5105 39.8383 29.6959 39.8432 30.2163 40.3442C30.7368 40.8452 30.3511 40.9561 30.602 41.1977C30.853 41.4383 30.9106 41.7353 30.9106 42.0888C30.9106 42.4423 31.0844 42.4967 31.0844 43.0542C31.0844 43.6859 30.891 44.0205 30.7378 44.3542C30.5835 44.6879 30.3716 45.3007 30.1012 45.3007C29.8307 45.3007 29.7731 45.6909 29.0789 45.6909C28.3846 45.6909 28.037 45.5423 27.6514 44.9849C27.3438 44.5403 26.6136 44.2809 26.3287 43.771C26.3102 43.7651 26.2938 43.7601 26.2825 43.7601C26.2218 43.7601 26.1035 43.8215 26.0089 43.871L25.4144 44.0572H23.699C23.6475 44.1077 23.5941 44.1591 23.5447 44.2057C23.3616 44.3819 23.1395 44.5393 23.1395 44.8364C23.1395 45.1334 23.5251 45.1899 23.6403 45.5047C23.7555 45.8206 24.9897 47.38 25.5307 47.5285C26.0706 47.676 25.8197 47.9364 27.3048 47.9364C28.7899 47.9364 29.1169 47.4354 29.7926 47.4354C30.4683 47.4354 30.8334 47.4176 30.9116 47.6958C30.9887 47.9741 31.3353 48.1028 31.3353 48.3077C31.3353 48.5127 31.4505 49.0137 31.8372 48.6424C32.2229 48.2711 32.2609 47.9364 32.5314 47.676C32.8019 47.4156 32.6764 45.0334 32.8019 44.5393C32.9274 44.0443 32.5448 43.9987 32.3669 43.675H32.3658Z" fill="var(--fill-0, black)"/>
<path id="Vector_51" d="M32.2404 27.1806C32.2404 26.7351 31.9123 26.3638 31.7776 26.0301C31.6428 25.6965 31.903 24.6093 31.72 24.4331C31.5359 24.2568 31.2376 24.0251 31.2376 23.8024C31.2376 23.5796 30.6401 23.0964 30.4663 24.0063C30.2925 24.9163 30.5619 24.6568 30.1958 24.8044C29.8296 24.9529 29.733 25.3796 29.4049 25.3796C29.0768 25.3796 28.7487 25.2321 28.2859 25.3618C27.8231 25.4915 27.3212 25.6777 26.8399 25.6777C26.3586 25.6777 25.3939 25.9747 24.9886 26.3648C24.5834 26.7549 24.5834 27.2559 24.2749 27.5529C23.9664 27.85 23.9283 28.0351 23.8316 28.1282C23.7349 28.2213 23.5035 28.3143 23.5035 28.6846C23.5035 28.8143 23.4953 29.0827 23.448 29.3955C23.6475 29.5827 23.7843 29.8213 23.7843 30.1045C23.7843 30.7421 23.2608 30.9065 23.0644 30.9678L22.8597 31.0461C22.7209 31.1203 22.6365 31.1649 22.6365 31.5431C22.6365 31.8174 22.8844 32.2184 23.1024 32.5728L23.339 32.9689C23.5138 33.2827 23.5971 33.6778 23.6774 34.06C23.7535 34.4204 23.8316 34.7936 23.9705 35.0125C24.1042 35.2243 24.2996 35.4184 24.5073 35.6244C24.7644 35.8798 25.0277 36.1452 25.2262 36.4858C25.6572 36.4056 26.0737 36.2353 26.1652 36.0353C26.3195 35.7016 26.5509 35.4788 26.5509 35.2372C26.5509 34.9956 26.1261 34.5689 25.9914 34.1788C25.8567 33.7887 25.7405 32.5263 25.7405 31.357C25.7405 30.1876 26.0295 28.9064 26.1837 28.5539C26.338 28.2015 27.4755 26.6232 28.5554 26.6232C29.6353 26.6232 29.481 27.3094 29.8667 27.4955C30.2523 27.6816 30.8118 28.1272 30.8118 28.8698C30.8118 29.6124 30.3871 30.7817 29.6733 31.0233C28.9606 31.2649 28.7672 31.7847 29.6548 31.8778C30.5413 31.9708 30.9075 31.2837 31.467 30.8936C32.0264 30.5035 31.8043 30.049 32.0069 29.854C32.2095 29.6589 32.2383 29.2599 32.2383 28.944C32.2383 28.6282 31.9689 28.3876 31.9689 28.1084C31.9689 27.8292 32.2383 27.6262 32.2383 27.1806H32.2404Z" fill="var(--fill-0, black)"/>
</g>
</svg>
