<svg preserveAspectRatio="none" width="100%" height="100%" overflow="visible" style="display: block;" viewBox="0 0 73 15.8696" fill="none" xmlns="http://www.w3.org/2000/svg">
<g id="acordo-certo" clip-path="url(#clip0_192_2107)">
<path id="Vector" d="M12.4434 2.99823L8.65594 6.71563L6.9418 5.03376C6.25976 4.35733 5.34214 3.96906 4.37998 3.94979C3.4146 3.92984 2.47956 4.27928 1.77266 4.92494C1.4203 5.25524 1.13804 5.65261 0.94259 6.09355C0.747815 6.53366 0.644056 7.00703 0.637988 7.48644C0.632166 7.96654 0.724018 8.44283 0.908004 8.88659C1.09186 9.33094 1.3643 9.73478 1.70956 10.0745L6.06379 14.3487C6.40419 14.6831 6.80831 14.9479 7.25307 15.1286C8.15234 15.4942 9.15955 15.4942 10.0588 15.1286C10.5036 14.9479 10.9077 14.6825 11.2481 14.3487L12.1813 13.4328L17.6763 8.039C18.0207 7.70052 18.2932 7.29654 18.4778 6.85105C18.6618 6.40729 18.7537 5.931 18.7479 5.4509C18.7418 4.97149 18.6386 4.49752 18.4439 4.05801C18.2482 3.61703 17.9658 3.21964 17.6132 2.88941C16.9057 2.24435 15.9706 1.89491 15.0053 1.91486C14.0433 1.93381 13.1257 2.32163 12.4434 2.99762V2.99823Z" fill="var(--fill-0, #F7F5F2)"/>
<path id="Vector_2" d="M7.20024 11.1874L7.20995 11.1964C7.48361 11.4655 7.85496 11.616 8.24269 11.616C8.63042 11.616 9.00116 11.4649 9.27542 11.1964L9.59095 10.8869C9.72747 10.7529 9.8891 10.6469 10.0667 10.575C10.2449 10.5027 10.4355 10.4657 10.6279 10.4661C10.8785 10.4655 11.1251 10.529 11.3439 10.6505C11.4616 10.714 11.5696 10.7932 11.6643 10.8863C11.9392 11.1565 12.0933 11.5223 12.0933 11.9044C12.0933 12.2865 11.9392 12.6522 11.6643 12.9218L10.7311 13.8378C10.1783 14.3801 9.43356 14.6841 8.65772 14.6841C7.88189 14.6841 7.13717 14.3801 6.58436 13.8378L2.23013 9.56355C1.68039 9.02368 1.37154 8.29156 1.37154 7.52801C1.37154 6.76446 1.68039 6.03234 2.23013 5.49247C2.78352 4.95143 3.52817 4.64876 4.30349 4.64972C5.07881 4.64876 5.82345 4.95143 6.37685 5.49247L8.65772 7.73114L7.20206 9.1597C7.06615 9.29271 6.95814 9.45049 6.88472 9.62461C6.8113 9.79872 6.77307 9.98492 6.77307 10.1735C6.77301 10.3621 6.81076 10.5487 6.88411 10.7225C6.95753 10.8966 7.06493 11.0544 7.20085 11.1874H7.20024Z" fill="var(--fill-0, black)"/>
<path id="Vector_3" d="M17.1582 3.45814C17.7079 3.99801 18.0168 4.73013 18.0168 5.49368C18.0168 6.25723 17.7079 6.98935 17.1582 7.52921L11.6638 12.9231C11.7997 12.7899 11.9077 12.6313 11.9818 12.4563C12.0554 12.282 12.0933 12.0947 12.0933 11.9056C12.0933 11.7164 12.0554 11.5292 11.9818 11.3548C11.9077 11.1799 11.7997 11.0213 11.6638 10.8881C11.5686 10.795 11.4612 10.7158 11.3434 10.6523C11.1246 10.5308 10.878 10.4673 10.6274 10.468C10.435 10.4675 10.2444 10.5045 10.0662 10.5768C9.88861 10.6487 9.72698 10.7547 9.59046 10.8887L9.27554 11.1983C9.13945 11.3317 8.97846 11.4372 8.80165 11.509C8.62447 11.5809 8.43455 11.6178 8.24281 11.6178C8.05121 11.6179 7.86142 11.581 7.68396 11.509C7.50716 11.4372 7.34616 11.3317 7.21007 11.1983L7.20097 11.1892C7.06563 11.0566 6.95798 10.8986 6.88423 10.7243C6.81097 10.5507 6.77323 10.3643 6.77323 10.176C6.77323 9.98764 6.81097 9.80122 6.88423 9.62762C6.95798 9.45335 7.06563 9.29534 7.20097 9.16272L13.0109 3.45935C13.2833 3.19153 13.6061 2.97933 13.9623 2.83424C14.3185 2.68915 14.6995 2.61479 15.0848 2.61479C15.4701 2.61479 15.8518 2.68915 16.2074 2.83424C16.5629 2.97933 16.8864 3.19153 17.1588 3.45875L17.1582 3.45814Z" fill="var(--fill-0, black)"/>
<path id="Vector_4" d="M21.0394 11.289C21.0163 11.0348 21.0695 10.7796 21.1923 10.5556C21.3161 10.3306 21.5035 10.1467 21.7311 10.0267C22.3638 9.75556 23.0507 9.6335 23.7384 9.66997H24.2456V9.4614C24.2532 9.14458 24.1539 8.8344 23.9635 8.58056C23.8616 8.45434 23.7304 8.35474 23.5812 8.29037C23.4312 8.22572 23.2679 8.19794 23.1049 8.20936C22.804 8.2029 22.5057 8.26688 22.2342 8.39617C22.1027 8.46901 21.9658 8.53147 21.8246 8.58298C21.7597 8.58245 21.6961 8.56494 21.6401 8.53219C21.5843 8.49964 21.5384 8.45264 21.5072 8.39617C21.427 8.27339 21.385 8.12974 21.3865 7.98326C21.3865 7.78678 21.5728 7.6169 21.9459 7.47362C22.3232 7.32963 22.724 7.25665 23.1279 7.2584C23.4498 7.23232 23.7735 7.27498 24.0775 7.38354C24.3804 7.49149 24.6565 7.66303 24.887 7.88653C25.2721 8.31701 25.4765 8.87841 25.458 9.45475V12.2962C25.4555 12.3524 25.4392 12.4068 25.41 12.4552C25.3809 12.5035 25.3402 12.544 25.2911 12.573C25.1668 12.6559 25.0194 12.6976 24.87 12.6921C24.7292 12.6964 24.5915 12.654 24.478 12.573C24.4304 12.5433 24.3909 12.5024 24.3627 12.4539C24.3347 12.4057 24.3191 12.3513 24.3172 12.2955V11.8996C24.112 12.1661 23.8496 12.3834 23.549 12.5356C23.2469 12.6884 22.9145 12.7726 22.5758 12.7822C22.173 12.7978 21.7794 12.6603 21.4745 12.3977C21.3253 12.2549 21.2092 12.0814 21.1341 11.8893C21.0595 11.6979 21.0278 11.4926 21.0412 11.2878L21.0394 11.289ZM22.2615 11.1421C22.2545 11.2429 22.2693 11.3441 22.3049 11.4388C22.3404 11.5335 22.396 11.6195 22.4678 11.691C22.6179 11.8198 22.8117 11.8867 23.0096 11.8778C23.3248 11.8685 23.6242 11.7386 23.8458 11.5151C23.9635 11.4221 24.0601 11.3052 24.1291 11.1723C24.1976 11.0398 24.2367 10.8943 24.2438 10.7455V10.3265H23.9556C23.6722 10.3229 23.3888 10.338 23.1079 10.3719C22.895 10.3993 22.6926 10.4805 22.5199 10.6076C22.4363 10.6691 22.369 10.7501 22.324 10.8434C22.2793 10.9362 22.2585 11.0386 22.2633 11.1415H22.2621L22.2615 11.1421ZM26.3906 10.5309V9.51218C26.3775 9.21451 26.4237 8.91722 26.5266 8.63746C26.6295 8.35771 26.787 8.10104 26.9901 7.8823C27.2282 7.66177 27.5096 7.49278 27.8165 7.38596C28.1244 7.27871 28.4511 7.2357 28.7764 7.25961C29.2097 7.24559 29.6402 7.33275 30.0337 7.51412C30.3716 7.684 30.5409 7.87504 30.5409 8.08724C30.5366 8.22765 30.4861 8.36274 30.3971 8.47174C30.3607 8.52917 30.311 8.57633 30.2515 8.61018C30.192 8.64404 30.1253 8.66217 30.0567 8.66459C29.9143 8.62444 29.777 8.56783 29.6478 8.49592C29.4046 8.38114 29.1383 8.32344 28.8693 8.32725C28.0234 8.32725 27.6005 8.72444 27.6005 9.51943V10.5309C27.6005 11.3258 28.0271 11.723 28.8808 11.723C29.1551 11.7273 29.4269 11.665 29.6708 11.5417C29.8019 11.4625 29.9439 11.4014 30.0919 11.3603C30.1646 11.3589 30.2365 11.3747 30.3019 11.4062C30.3669 11.4377 30.4235 11.4841 30.4669 11.5417C30.5585 11.6499 30.6089 11.7859 30.6107 11.9262C30.6107 12.1378 30.4341 12.3336 30.0804 12.5144C29.6777 12.7065 29.2348 12.7998 28.7886 12.7864C28.4617 12.8112 28.1332 12.7692 27.8232 12.6631C27.5143 12.5573 27.2305 12.3894 26.9895 12.1698C26.7854 11.9491 26.627 11.6905 26.5235 11.4087C26.4208 11.1276 26.3756 10.8296 26.3906 10.5309ZM31.0961 10.5309V9.48739C31.0958 9.19293 31.1583 8.90176 31.2794 8.63315C31.4012 8.36343 31.5786 8.12223 31.8 7.92522C32.0218 7.70877 32.2846 7.53841 32.573 7.42405C32.8624 7.30929 33.1717 7.25258 33.4832 7.25719C34.1062 7.25131 34.7067 7.48923 35.1555 7.91978C35.3808 8.11556 35.5614 8.35716 35.6852 8.62832C35.8082 8.8983 35.8716 9.19149 35.8709 9.488V10.529C35.8683 10.8256 35.8029 11.1184 35.6791 11.3881C35.5553 11.6583 35.3745 11.8996 35.1494 12.0973C34.9303 12.3143 34.6706 12.4862 34.3849 12.6033C33.8059 12.8407 33.1564 12.8418 32.5767 12.6063C32.2897 12.4896 32.0294 12.3185 31.8103 12.1033C31.5868 11.9052 31.4076 11.6626 31.2842 11.3911C31.1613 11.1208 31.0972 10.8276 31.0961 10.5309ZM32.3073 10.5278C32.3083 10.838 32.4327 11.1352 32.6531 11.3543C32.7573 11.4694 32.8846 11.5612 33.0269 11.6239C33.1699 11.6869 33.3245 11.7194 33.4808 11.7194C33.6371 11.7194 33.7917 11.6869 33.9346 11.6239C34.0769 11.5612 34.2043 11.4694 34.3084 11.3543C34.5323 11.1354 34.6591 10.838 34.6603 10.5278V9.49344C34.6592 9.34216 34.6274 9.19267 34.5669 9.05393C34.5063 8.91472 34.4184 8.78894 34.3084 8.68394C34.2033 8.57028 34.0756 8.47969 33.9334 8.41793C33.7907 8.35567 33.6366 8.32353 33.4808 8.32353C33.325 8.32353 33.1708 8.35567 33.0281 8.41793C32.8859 8.47969 32.7582 8.57028 32.6531 8.68394C32.5446 8.7894 32.4582 8.91525 32.3989 9.05419C32.3395 9.19314 32.3084 9.34243 32.3073 9.49344V10.5278ZM36.8162 12.2968V7.71C36.8169 7.65333 36.8326 7.59784 36.8617 7.54919C36.8914 7.50033 36.9335 7.4601 36.9837 7.43251C37.1099 7.35694 37.2561 7.31946 37.4042 7.3249C37.5431 7.32067 37.6803 7.35875 37.7962 7.43372C37.8453 7.46274 37.886 7.50385 37.9145 7.55342C37.943 7.60299 37.9576 7.65801 37.9576 7.71423V8.21783C38.0942 7.94425 38.2987 7.70995 38.5516 7.5371C38.804 7.35452 39.1092 7.25658 39.4223 7.25658H39.7913C39.8533 7.2573 39.9144 7.27154 39.9702 7.2983C40.026 7.32494 40.0751 7.36355 40.1141 7.41135C40.2056 7.51315 40.2549 7.64587 40.2518 7.78255C40.2542 7.9211 40.2051 8.05566 40.1141 8.16039C40.0764 8.20936 40.0273 8.24926 39.9715 8.27707C39.9156 8.30488 39.8537 8.31939 39.7913 8.3206H39.4229C39.2361 8.3228 39.0521 8.3655 38.8835 8.44574C38.7154 8.52615 38.5668 8.64101 38.4491 8.78369C38.1596 9.11619 38.0091 9.54361 38.028 9.98071V12.2955C38.0225 12.3521 38.0029 12.4063 37.9709 12.4533C37.9386 12.5005 37.895 12.5389 37.8441 12.5652C37.7141 12.6499 37.5613 12.6931 37.406 12.6891C37.2555 12.6946 37.1075 12.651 36.9855 12.5646C36.9379 12.5364 36.8977 12.4972 36.8684 12.4503C36.8393 12.4038 36.8217 12.3506 36.8174 12.2962L36.8162 12.2968ZM40.5073 10.5302V9.4886C40.4961 8.90556 40.7133 8.34112 41.1128 7.91494C41.2924 7.70758 41.5163 7.54133 41.7681 7.42767C42.0205 7.31408 42.2946 7.25614 42.5715 7.25779C42.8897 7.25209 43.2026 7.33953 43.4714 7.50929C43.7191 7.66309 43.925 7.87528 44.0709 8.12714V4.53004C44.0716 4.47295 44.088 4.41715 44.1182 4.36863C44.1485 4.31971 44.1915 4.27983 44.2426 4.25316C44.3755 4.17682 44.5274 4.13952 44.6807 4.14554C44.8324 4.13889 44.9828 4.17638 45.1127 4.25255C45.1627 4.2799 45.2045 4.32001 45.2338 4.36878C45.2632 4.41754 45.2789 4.4732 45.2796 4.53004V12.298C45.2752 12.3532 45.2573 12.4066 45.2274 12.4533C45.1976 12.4999 45.1564 12.5398 45.1078 12.5676C44.9827 12.6535 44.8332 12.6972 44.6813 12.6921C44.5417 12.6946 44.4052 12.6498 44.2948 12.5664C44.247 12.5368 44.2068 12.4964 44.1776 12.4485C44.1485 12.4009 44.1315 12.3469 44.1279 12.2913V11.8905C43.9847 12.1553 43.7663 12.3741 43.4993 12.5204C43.1177 12.7497 42.6655 12.833 42.2269 12.755C41.7882 12.677 41.3931 12.4437 41.1183 12.0985C40.7227 11.6721 40.5043 11.1121 40.5073 10.5315V10.5302ZM41.7184 10.5266C41.7194 10.8371 41.844 11.1345 42.0648 11.3537C42.167 11.469 42.2928 11.5611 42.4338 11.6239C42.5753 11.6868 42.7284 11.7193 42.8834 11.7194C43.1907 11.716 43.4845 11.593 43.7019 11.3766C43.8974 11.2351 44.0297 11.0232 44.0709 10.786V9.49283C44.0763 9.33536 44.0473 9.17859 43.9859 9.03337C43.924 8.88762 43.8313 8.75688 43.7141 8.65008C43.495 8.4403 43.2007 8.32362 42.8949 8.32423C42.7395 8.324 42.5858 8.35591 42.4435 8.41793C42.3018 8.47959 42.1746 8.57022 42.0703 8.68394C41.9603 8.78894 41.8725 8.91472 41.8118 9.05393C41.7513 9.19267 41.7195 9.34216 41.7184 9.49344V10.5278V10.5266ZM46.2273 10.5309V9.48739C46.2269 9.19291 46.2893 8.90171 46.4106 8.63315C46.5322 8.36348 46.7094 8.12229 46.9306 7.92522C47.3802 7.4978 47.9815 7.2584 48.6071 7.25719C49.2314 7.25559 49.8325 7.49251 50.2867 7.91918C50.5117 8.11521 50.6923 8.35675 50.8164 8.62771C50.9398 8.89756 51.0029 9.19087 51.0015 9.48739V10.529C50.9992 10.8257 50.9339 11.1185 50.8097 11.3881C50.6849 11.6588 50.5044 11.9004 50.28 12.0973C50.0609 12.3143 49.8012 12.4862 49.5155 12.6033C49.2288 12.7207 48.9219 12.7815 48.612 12.7822C48.302 12.7827 47.9949 12.7229 47.7079 12.6063C47.4217 12.4902 47.1613 12.319 46.9415 12.1027C46.717 11.9038 46.538 11.6614 46.4148 11.3911C46.292 11.1208 46.2281 10.8276 46.2273 10.5309ZM47.4385 10.5272C47.4395 10.8374 47.5639 11.1346 47.7843 11.3537C47.8884 11.469 48.0158 11.5611 48.1581 11.6239C48.3011 11.6869 48.4557 11.7194 48.612 11.7194C48.7683 11.7194 48.9229 11.6869 49.0658 11.6239C49.2082 11.5611 49.3355 11.469 49.4396 11.3537C49.6635 11.1348 49.7903 10.8374 49.7915 10.5272V9.49283C49.7904 9.34156 49.7586 9.19207 49.6981 9.05332C49.6375 8.91411 49.5496 8.78834 49.4396 8.68333C49.3345 8.56968 49.2068 8.47908 49.0646 8.41733C48.922 8.35566 48.7679 8.32362 48.612 8.32362C48.456 8.32362 48.3019 8.35566 48.1593 8.41733C48.0171 8.47908 47.8894 8.56968 47.7843 8.68333C47.6758 8.7888 47.5894 8.91464 47.5301 9.05359C47.4707 9.19253 47.4396 9.34182 47.4385 9.49283V10.5272ZM51.8443 10.6209V9.4094C51.8194 8.84173 52.0227 8.28675 52.4092 7.86416C52.6276 7.65619 52.8885 7.49538 53.1749 7.39261C53.4614 7.28998 53.7662 7.24797 54.0699 7.26928C54.4703 7.2561 54.868 7.3397 55.2289 7.51292C55.5402 7.67494 55.6961 7.83937 55.6961 8.00502C55.6931 8.09615 55.6564 8.18294 55.5929 8.24866C55.5662 8.28433 55.5317 8.31335 55.4916 8.3339C55.4516 8.35462 55.4074 8.36618 55.3624 8.36776C55.2837 8.35396 55.21 8.31977 55.1488 8.26861C55.0201 8.18644 54.8827 8.11853 54.7392 8.06608C54.5364 7.99163 54.3212 7.95614 54.1051 7.96149C53.9007 7.94707 53.6954 7.97359 53.5014 8.03948C53.308 8.10508 53.1299 8.20892 52.9777 8.34478C52.8438 8.4881 52.7404 8.65693 52.6737 8.84112C52.6074 9.02458 52.5793 9.2196 52.5912 9.41424V10.6185C52.5787 10.8149 52.6063 11.0117 52.6725 11.1971C52.739 11.3831 52.8426 11.5538 52.9771 11.6989C53.131 11.8349 53.3107 11.9387 53.5056 12.0042C53.7011 12.0699 53.9078 12.0962 54.1136 12.0815C54.3393 12.0875 54.5641 12.0521 54.7768 11.9769C54.9234 11.9247 55.0628 11.8544 55.1919 11.7678C55.2554 11.7122 55.3335 11.6759 55.417 11.6632C55.4642 11.6623 55.5111 11.672 55.5541 11.6916C55.597 11.7109 55.6348 11.7399 55.6645 11.7762C55.7267 11.8445 55.7615 11.9331 55.7622 12.0253C55.7622 12.1988 55.6008 12.3669 55.278 12.5289C54.9036 12.7024 54.4922 12.7858 54.0784 12.7725C53.7734 12.7946 53.467 12.7537 53.1786 12.6522C52.8912 12.5513 52.6281 12.3917 52.4062 12.1837C52.2136 11.9728 52.0648 11.726 51.9683 11.4576C51.8718 11.1892 51.8294 10.9045 51.8437 10.6197L51.8443 10.6209ZM56.3987 10.6209V9.35318C56.3963 9.07811 56.4527 8.80606 56.5638 8.55335C56.6755 8.30024 56.8392 8.07328 57.0444 7.88713C57.4551 7.49599 58.0031 7.27532 58.5753 7.27049C59.1474 7.26565 59.6996 7.47604 60.1177 7.85993C60.3252 8.04674 60.4896 8.27465 60.6001 8.52857C60.7105 8.78225 60.7643 9.05679 60.7578 9.33323C60.7638 9.50585 60.7384 9.67812 60.6826 9.84166C60.6413 9.95955 60.554 10.0563 60.4405 10.1113C60.344 10.1591 60.2415 10.1929 60.1353 10.2123C60.009 10.2294 59.8816 10.2369 59.7542 10.2346H57.1463V10.6536C57.1387 10.8571 57.179 11.0596 57.264 11.2448C57.349 11.4304 57.4764 11.5943 57.636 11.7236C57.9959 12.0026 58.4436 12.1451 58.8993 12.1257C59.1335 12.1305 59.3665 12.0918 59.5861 12.0126C59.7451 11.9563 59.8961 11.8802 60.0358 11.7859C60.1057 11.7251 60.192 11.6858 60.2839 11.6729C60.3282 11.6742 60.3716 11.6856 60.4108 11.7061C60.4499 11.7266 60.4836 11.756 60.5091 11.792C60.5679 11.8555 60.6025 11.9377 60.6067 12.0241C60.6067 12.1825 60.4417 12.3469 60.111 12.5168C59.7258 12.6984 59.3027 12.7856 58.8768 12.7713C58.227 12.7979 57.5898 12.5863 57.0905 12.1771C56.8646 11.9857 56.6848 11.7463 56.5644 11.4764C56.4443 11.2078 56.3872 10.9154 56.3975 10.6215L56.3987 10.6209ZM57.1481 9.69234H59.4545C59.6119 9.70619 59.7703 9.68106 59.9156 9.61918C59.9595 9.58134 59.9931 9.5331 60.0133 9.47893C60.0333 9.42512 60.0394 9.36708 60.0309 9.30965C60.0317 9.12581 59.996 8.94363 59.9257 8.77365C59.8554 8.60368 59.7519 8.44928 59.6213 8.31939C59.4898 8.18003 59.3302 8.07 59.1529 7.99656C58.9751 7.9228 58.7834 7.88713 58.5904 7.89197C58.4017 7.88788 58.2142 7.92162 58.0388 7.99121C57.8635 8.06079 57.704 8.16479 57.5698 8.29702C57.4356 8.42036 57.3288 8.57027 57.2561 8.73714C57.1839 8.90347 57.1475 9.08307 57.1493 9.26431L57.1481 9.69234ZM61.773 12.3983V7.60964C61.7733 7.57159 61.7828 7.53417 61.8008 7.50059C61.8187 7.46701 61.8446 7.43826 61.8761 7.41679C61.9532 7.36163 62.0465 7.33375 62.1413 7.33759C62.2326 7.3348 62.322 7.36317 62.3949 7.418C62.4264 7.44006 62.4522 7.46928 62.4702 7.50324C62.4878 7.5371 62.4981 7.57458 62.4981 7.61267V8.17611C62.6443 7.91615 62.8549 7.69549 63.1097 7.53528C63.387 7.35694 63.7122 7.26505 64.0435 7.2717H64.447C64.4871 7.27291 64.5259 7.28318 64.5617 7.30132C64.5975 7.31946 64.6285 7.34485 64.6533 7.37568C64.7128 7.44279 64.7456 7.52863 64.7456 7.6175C64.7456 7.70637 64.7128 7.79222 64.6533 7.85932C64.6285 7.89016 64.5975 7.91555 64.5617 7.93369C64.5259 7.95182 64.4871 7.96149 64.447 7.9627H64.0435C63.8444 7.96328 63.6474 8.00421 63.4647 8.08301C63.2824 8.16138 63.1182 8.27619 62.9823 8.42035C62.8275 8.57814 62.7068 8.76495 62.6273 8.96989C62.548 9.17437 62.5119 9.39292 62.5211 9.61193V12.4013C62.5195 12.4411 62.5089 12.4799 62.4902 12.515C62.4708 12.5501 62.4441 12.5803 62.4113 12.6039C62.3355 12.6655 62.239 12.6976 62.1407 12.6939C62.0463 12.6958 61.9543 12.6638 61.8816 12.6039C61.8488 12.5802 61.8218 12.5494 61.8027 12.5138C61.7839 12.4781 61.7736 12.4388 61.773 12.3989V12.3983ZM65.4519 11.0308V5.07354C65.4529 5.03444 65.4642 4.99629 65.4846 4.9629C65.5047 4.92905 65.5332 4.90124 65.5671 4.88129C65.6416 4.82916 65.7304 4.80148 65.8214 4.80209C65.916 4.80088 66.0089 4.82809 66.0865 4.88129C66.1205 4.90124 66.149 4.92905 66.1691 4.9623C66.1894 4.99551 66.2007 5.03344 66.2018 5.07233V7.33759H67.689C67.726 7.33704 67.7626 7.34511 67.7958 7.36117C67.8292 7.37749 67.8577 7.40107 67.8802 7.43009C67.9287 7.49296 67.9548 7.57035 67.9548 7.64954C67.9547 7.72886 67.9285 7.80594 67.8802 7.869C67.8579 7.89814 67.829 7.92156 67.7958 7.93731C67.7626 7.95337 67.726 7.96145 67.689 7.96089H66.2018V11.0145C66.1867 11.1517 66.2 11.2908 66.2407 11.4226C66.2813 11.5549 66.3484 11.6776 66.4379 11.7835C66.6809 11.9547 66.9779 12.0324 67.274 12.0023H67.5974C67.6435 12.0012 67.6894 12.0095 67.7321 12.0269C67.7748 12.0443 67.8135 12.0703 67.8456 12.1033C67.8771 12.1348 67.902 12.1722 67.919 12.2133C67.936 12.2544 67.9439 12.2986 67.9433 12.3427C67.9442 12.4343 67.9092 12.5226 67.8456 12.5888C67.8141 12.6226 67.7759 12.6496 67.7333 12.668C67.6904 12.6862 67.6441 12.695 67.5974 12.6939H67.274C66.0592 12.6921 65.4519 12.1378 65.4519 11.0296V11.0308ZM68.4621 10.6209V9.38643C68.4597 9.10834 68.5161 8.83205 68.6271 8.57633C68.7387 8.31967 68.9023 8.08874 69.1077 7.89802C69.3074 7.69616 69.546 7.53659 69.8091 7.42888C70.0731 7.32067 70.3558 7.26686 70.6416 7.26988C70.9285 7.26739 71.213 7.32121 71.479 7.42828C71.7438 7.53471 71.9847 7.69254 72.1877 7.89258C72.3972 8.08207 72.5642 8.31339 72.678 8.57149C72.7914 8.82903 72.8479 9.10652 72.8448 9.38704V10.6215C72.8376 11.1874 72.6039 11.7273 72.1938 12.1251C71.7815 12.5246 71.229 12.7482 70.6538 12.7482C70.0786 12.7482 69.5261 12.5246 69.1138 12.1251C68.9112 11.9295 68.7495 11.696 68.6377 11.438C68.526 11.18 68.4665 10.9025 68.4627 10.6215L68.4621 10.6209ZM69.2115 10.6173C69.2111 10.9992 69.3625 11.3656 69.6326 11.6366C69.7582 11.7774 69.9135 11.8899 70.0876 11.9667C70.2621 12.0434 70.4509 12.0823 70.6416 12.0809C70.8348 12.0827 71.0263 12.044 71.2035 11.9673C71.3807 11.8905 71.539 11.778 71.6683 11.6366C71.8035 11.5032 71.9109 11.3445 71.9841 11.1695C72.0573 10.9946 72.095 10.8069 72.0949 10.6173V9.39006C72.0936 9.20482 72.0546 9.02175 71.9802 8.852C71.9059 8.68145 71.7977 8.52762 71.6622 8.3998C71.533 8.26075 71.3752 8.15012 71.1993 8.07455C71.0232 7.99877 70.8334 7.96027 70.6416 7.96149C70.4515 7.96004 70.2632 7.99835 70.0889 8.07394C69.9153 8.14951 69.7594 8.26075 69.6326 8.3998C69.3644 8.66278 69.2133 9.01886 69.2115 9.39066V10.6173Z" fill="var(--fill-0, #F7F5F2)"/>
</g>
<defs>
<clipPath id="clip0_192_2107">
<rect width="73" height="15.8696" fill="white"/>
</clipPath>
</defs>
</svg>
