<svg width="252" height="351" viewBox="0 0 252 351" fill="none" xmlns="http://www.w3.org/2000/svg">
<path d="M17.7954 241.259C-5.5013 227.724 -5.41006 194.045 17.9597 180.637L198.95 76.7946C222.319 63.3865 251.44 80.3054 251.367 107.248L241.367 107.221C241.42 87.9763 220.619 75.892 203.926 85.4693L22.9362 189.31C6.24353 198.888 6.17836 222.944 22.8189 232.612L203.244 337.433C219.884 347.101 240.75 335.128 240.802 315.884L250.802 315.911L250.795 316.54C250.274 343.114 221.335 359.509 198.22 346.08L17.7954 241.259ZM241.367 107.221L251.367 107.248L250.802 315.911L240.802 315.884L241.367 107.221Z" fill="#70FC70"/>
<path d="M17.7954 169.742C-5.5013 156.207 -5.41006 122.528 17.9597 109.12L198.95 5.27816C222.319 -8.12994 251.44 8.78896 251.367 35.7318L241.367 35.7047C241.42 16.4598 220.619 4.3755 203.926 13.9528L22.9362 117.794C6.24353 127.371 6.17836 151.428 22.8189 161.095L203.244 265.917C219.884 275.584 240.75 263.612 240.802 244.367L250.802 244.394L250.795 245.024C250.274 271.597 221.335 287.992 198.22 274.563L17.7954 169.742ZM241.367 35.7047L251.367 35.7318L250.802 244.394L240.802 244.367L241.367 35.7047Z" fill="#F7F5F2"/>
</svg>
