<svg preserveAspectRatio="none" width="100%" height="100%" overflow="visible" style="display: block;" viewBox="0 0 100.862 140.772" fill="none" xmlns="http://www.w3.org/2000/svg">
<g id="hero-assets">
<path id="Polygon 2 (Stroke)" d="M7.13777 96.7691C-2.20658 91.3403 -2.16998 77.8316 7.20365 72.4536L79.7989 30.8024C89.1726 25.4244 100.853 32.2106 100.824 43.0174L96.8127 43.0065C96.8336 35.2874 88.4905 30.4404 81.795 34.2818L9.19974 75.9326C2.50429 79.7741 2.47815 89.4232 9.15268 93.3009L81.5212 135.345C88.1957 139.222 96.5651 134.42 96.586 126.701L100.597 126.712L100.594 126.965C100.385 137.623 88.7777 144.199 79.5063 138.813L7.13777 96.7691ZM96.8127 43.0065L100.824 43.0174L100.597 126.712L96.586 126.701L96.8127 43.0065Z" fill="var(--fill-0, #70FC70)"/>
<path id="Polygon 3 (Stroke)" d="M7.13777 68.0837C-2.20658 62.655 -2.16998 49.1463 7.20365 43.7682L79.7989 2.11707C89.1726 -3.26093 100.853 3.52526 100.824 14.3321L96.8127 14.3212C96.8336 6.60204 88.4905 1.75501 81.795 5.59648L9.19974 47.2473C2.50429 51.0887 2.47815 60.7379 9.15268 64.6156L81.5212 106.659C88.1957 110.537 96.5651 105.735 96.586 98.0159L100.597 98.0267L100.594 98.2794C100.385 108.938 88.7777 115.514 79.5063 110.128L7.13777 68.0837ZM96.8127 14.3212L100.824 14.3321L100.597 98.0267L96.586 98.0159L96.8127 14.3212Z" fill="var(--fill-0, #F7F5F2)"/>
</g>
</svg>
