<svg preserveAspectRatio="none" width="100%" height="100%" overflow="visible" style="display: block;" viewBox="0 0 11.7807 11.7993" fill="none" xmlns="http://www.w3.org/2000/svg">
<path id="path34" d="M9.66709 5.90059C9.68485 6.42347 9.59781 6.94463 9.41112 7.43325C9.22442 7.92188 8.94185 8.36808 8.5801 8.7455C8.21835 9.12292 7.78475 9.42394 7.30492 9.63071C6.82509 9.83748 6.30875 9.94584 5.7864 9.9494C5.26192 9.95228 4.74234 9.84832 4.25922 9.64386C3.7761 9.43939 3.33952 9.13865 2.97602 8.75997C2.61252 8.3813 2.32968 7.93261 2.1447 7.44106C1.95971 6.94951 1.87643 6.42537 1.89993 5.90059C1.88042 5.37846 1.9667 4.85782 2.15356 4.36999C2.34041 3.88216 2.62398 3.43724 2.98715 3.06215C3.35032 2.68706 3.78558 2.38952 4.26667 2.18748C4.74777 1.98543 5.26473 1.88311 5.7864 1.8866C6.30574 1.89028 6.81914 1.99754 7.29663 2.20215C7.77412 2.40677 8.20612 2.7046 8.56739 3.0783C8.92867 3.45199 9.21199 3.89402 9.40081 4.3786C9.58962 4.86318 9.68014 5.38058 9.66709 5.90059ZM5.7864 0.00102484C4.62604 0.0215371 3.4976 0.384883 2.54271 1.04548C1.58781 1.70608 0.849035 2.63448 0.419106 3.71414C-0.010823 4.79379 -0.112745 5.97663 0.126138 7.1141C0.365022 8.25157 0.934065 9.29295 1.76183 10.1076C2.5896 10.9223 3.6392 11.474 4.77889 11.6933C5.91858 11.9127 7.09756 11.7899 8.16783 11.3405C9.23811 10.8911 10.152 10.135 10.7947 9.16719C11.4375 8.19939 11.7805 7.06295 11.7807 5.90059C11.7816 5.11678 11.6264 4.34067 11.3242 3.61767C11.0219 2.89467 10.5788 2.2393 10.0206 1.68993C9.4624 1.14056 8.80042 0.708253 8.07337 0.418248C7.34633 0.128243 6.56884 -0.0135904 5.7864 0.00102484Z" fill="var(--fill-0, #F7F5F2)"/>
</svg>
