<svg preserveAspectRatio="none" width="100%" height="100%" overflow="visible" style="display: block;" viewBox="0 0 70.0002 13.4507" fill="none" xmlns="http://www.w3.org/2000/svg">
<g id="agibank">
<path id="Vector" d="M12.039 4.59159L7.28783 9.34425C6.95967 9.67217 6.51473 9.85637 6.0508 9.85637C5.58688 9.85637 5.14194 9.67217 4.81377 9.34425L0.0314619 4.55547L0.00683594 8.82384L2.6582 11.4916C3.55621 12.389 4.77383 12.8931 6.04342 12.8931C7.313 12.8931 8.53062 12.389 9.42863 11.4916L12.0324 8.88787L12.039 4.59159Z" fill="var(--fill-0, #F7F5F2)"/>
<path id="Vector_2" d="M9.40534 1.95532C8.5067 1.05908 7.28931 0.555785 6.02013 0.555785C4.75095 0.555785 3.53356 1.05908 2.63492 1.95532L0.00817871 4.59022L2.17524 6.70634L4.78392 4.10428C5.11209 3.77636 5.55703 3.59216 6.02095 3.59216C6.48488 3.59216 6.92982 3.77636 7.25798 4.10428L12.0419 8.88813V4.59022L9.40534 1.95532Z" fill="var(--fill-0, #F7F5F2)"/>
<path id="Vector_3" d="M12.0393 8.8849V4.59191L9.89356 6.73923L12.0393 8.8849Z" fill="var(--fill-0, black)"/>
<path id="Vector_4" d="M0 8.82702L0.0295509 8.85821L2.17855 6.70925L0.0295509 4.56029L0 4.59149V8.82702Z" fill="var(--fill-0, black)"/>
<path id="Vector_5" d="M69.4613 3.64926C69.6752 3.74065 69.8441 3.9131 69.931 4.12882C69.9766 4.23865 70.0001 4.35642 70 4.47535C70.0004 4.59378 69.977 4.71109 69.931 4.82024C69.887 4.92723 69.8229 5.0248 69.7421 5.10765C69.6594 5.19181 69.5607 5.25867 69.4519 5.30435C69.3431 5.35002 69.2262 5.3736 69.1082 5.3737C68.9884 5.37402 68.8698 5.34941 68.76 5.30144C68.6535 5.25654 68.5569 5.19108 68.4757 5.10878C68.3946 5.02649 68.3304 4.929 68.287 4.82188C68.2408 4.71223 68.2173 4.59434 68.218 4.47535C68.2177 4.35676 68.2417 4.23936 68.2887 4.13046C68.3329 4.02407 68.397 3.92709 68.4775 3.8447C68.5591 3.76194 68.6562 3.69608 68.7633 3.6509C68.8737 3.60289 68.9928 3.57812 69.1131 3.57812C69.2335 3.57812 69.3526 3.60289 69.4629 3.6509M69.3923 5.14706C69.4785 5.11072 69.5566 5.05769 69.6223 4.99104C69.687 4.92366 69.7383 4.8445 69.7734 4.75783C69.8276 4.625 69.8423 4.47936 69.8158 4.33836C69.7893 4.19737 69.7226 4.06702 69.6239 3.96295C69.56 3.893 69.4822 3.83708 69.3956 3.79871C69.307 3.76042 69.2113 3.74085 69.1148 3.74123C68.987 3.74218 68.8617 3.77724 68.752 3.84278C68.6423 3.90832 68.5521 4.00196 68.4907 4.11404C68.428 4.22466 68.3957 4.34987 68.3971 4.47699C68.3954 4.57231 68.4131 4.66697 68.4489 4.7553C68.4847 4.84363 68.538 4.92382 68.6056 4.99104C68.7068 5.09384 68.8368 5.16361 68.9783 5.19117C69.1199 5.21872 69.2665 5.20277 69.3989 5.14542M69.4137 4.48849C69.3743 4.53696 69.32 4.57103 69.2593 4.58539L69.5122 4.95163H69.3332L69.0951 4.60181H68.9571V4.95163H68.8076V3.99415H69.1476C69.1908 3.99074 69.2343 3.99627 69.2752 4.0104C69.3162 4.02453 69.3538 4.04695 69.3858 4.07627C69.4125 4.10543 69.4333 4.13959 69.4468 4.1768C69.4603 4.214 69.4664 4.25351 69.4646 4.29305C69.468 4.35926 69.4489 4.42465 69.4104 4.47864M68.9571 4.454H69.1131C69.1522 4.45519 69.191 4.44732 69.2264 4.43101C69.2533 4.41907 69.2757 4.39896 69.2905 4.37353C69.3035 4.34819 69.3098 4.31989 69.3086 4.29141C69.3096 4.26952 69.3057 4.24768 69.2972 4.2275C69.2887 4.20731 69.2757 4.18931 69.2593 4.17481C69.2211 4.14469 69.1732 4.12952 69.1246 4.13211H68.9604L68.9571 4.454Z" fill="var(--fill-0, #F7F5F2)"/>
<path id="Vector_6" d="M23.1794 10.4378H21.3439V9.67282C21.0944 9.98203 20.7761 10.2287 20.4144 10.3932C20.0527 10.5576 19.6576 10.6353 19.2606 10.6201C17.3431 10.6201 15.8934 9.04734 15.8934 6.95748C15.8934 4.86762 17.3447 3.29489 19.2606 3.29489C19.6582 3.28017 20.0537 3.35877 20.4155 3.52441C20.7773 3.69004 21.0953 3.9381 21.3439 4.24871V3.48204H23.1794V10.4378ZM17.811 6.95912C17.811 8.02129 18.507 8.8766 19.6053 8.8766C20.6757 8.8766 21.3997 8.05576 21.3997 6.95912C21.3997 5.86248 20.6741 5.04164 19.6053 5.04164C18.507 5.04164 17.811 5.89695 17.811 6.95912Z" fill="var(--fill-0, #F7F5F2)"/>
<path id="Vector_7" d="M29.7628 4.25895V3.48408H31.6015V9.86693C31.6015 12.0996 30.1437 13.4507 27.8453 13.4507C26.747 13.4507 25.5846 13.1634 24.8016 12.6102L25.4697 11.0818C26.148 11.5423 26.9483 11.7898 27.7681 11.7926C28.9255 11.7926 29.7464 11.1458 29.7464 9.94574V9.45323C29.2719 10.0344 28.5693 10.3939 27.6122 10.3939C25.9179 10.3939 24.4092 8.97879 24.4092 6.84624C24.4092 4.7137 25.9146 3.29693 27.6122 3.29693C28.5824 3.29693 29.2933 3.66959 29.7677 4.2606M26.33 6.85117C26.33 7.85588 27.0129 8.67508 28.0817 8.67508C29.1225 8.67508 29.8268 7.88543 29.8268 6.85117C29.8268 5.81691 29.1242 5.02069 28.0817 5.02069C27.0113 5.02069 26.33 5.84153 26.33 6.85117Z" fill="var(--fill-0, #F7F5F2)"/>
<path id="Vector_8" d="M35.3633 1.20668C35.361 1.44234 35.2891 1.67207 35.1567 1.86699C35.0242 2.06191 34.837 2.2133 34.6187 2.30215C34.4004 2.39099 34.1608 2.41331 33.9298 2.3663C33.6989 2.3193 33.487 2.20506 33.3208 2.03796C33.1546 1.87086 33.0415 1.65835 32.9958 1.42716C32.95 1.19597 32.9736 0.956408 33.0637 0.738607C33.1537 0.520807 33.3061 0.334487 33.5018 0.203075C33.6974 0.0716621 33.9275 0.00102381 34.1632 4.17106e-05C34.3217 -0.00128538 34.4789 0.0290677 34.6256 0.0893192C34.7722 0.149571 34.9053 0.238507 35.0171 0.350906C35.1289 0.463306 35.2171 0.596905 35.2766 0.74386C35.336 0.890816 35.3655 1.04817 35.3633 1.20668ZM35.1121 10.4378H33.2373V3.48205H35.1121V10.4378Z" fill="var(--fill-0, #F7F5F2)"/>
<path id="Vector_9" d="M43.6515 7.09497C43.6515 9.06499 42.174 10.5212 40.2483 10.5212C39.6692 10.5304 39.0985 10.3827 38.5967 10.0936C38.0949 9.80455 37.6808 9.38499 37.3982 8.87948V10.4374H36.8959V0.0948484H37.3982V5.30718C37.6801 4.80108 38.0941 4.38103 38.596 4.09189C39.098 3.80275 39.6691 3.65537 40.2483 3.6655C42.1723 3.6655 43.6515 5.13153 43.6515 7.09826M37.3605 7.09826C37.3605 8.77934 38.5885 10.0533 40.2466 10.0533C41.9047 10.0533 43.1327 8.76785 43.1327 7.09826C43.1327 5.42867 41.913 4.14323 40.2466 4.14323C38.5803 4.14323 37.3605 5.41389 37.3605 7.09826Z" fill="var(--fill-0, #F7F5F2)"/>
<path id="Vector_10" d="M51.6525 10.4379H51.1599V8.87499C50.8767 9.38262 50.4608 9.80377 49.9569 10.0935C49.4529 10.3832 48.8797 10.5306 48.2984 10.52C46.3744 10.52 44.9017 9.06214 44.9017 7.09377C44.9017 5.1254 46.3793 3.66102 48.2984 3.66102C48.8799 3.65071 49.4533 3.79901 49.9568 4.08998C50.4604 4.38095 50.8752 4.80361 51.1567 5.31255V3.74146H51.6492L51.6525 10.4379ZM45.414 7.09049C45.414 8.75679 46.6337 10.0455 48.3001 10.0455C49.9664 10.0455 51.1862 8.77485 51.1862 7.09049C51.1862 5.40612 49.9582 4.13546 48.3001 4.13546C46.642 4.13546 45.414 5.4209 45.414 7.09049Z" fill="var(--fill-0, #F7F5F2)"/>
<path id="Vector_11" d="M59.7695 6.5127V10.438H59.277V6.5127C59.277 5.09758 58.4151 4.13555 56.8144 4.13555C55.3632 4.13555 54.3519 5.19772 54.3519 6.5636V10.438H53.8495V3.74155H54.342V5.02042C54.8165 4.20779 55.6915 3.65618 56.8473 3.65618C58.6531 3.65618 59.7629 4.76267 59.7629 6.50778" fill="var(--fill-0, #F7F5F2)"/>
<path id="Vector_12" d="M62.412 6.69321H63.6548L66.7774 3.74147H67.4176L64.0423 6.90827L67.4882 10.4412H66.8496L63.6482 7.15288H62.412V10.4412H61.9097V0.101867H62.412V6.69321Z" fill="var(--fill-0, #F7F5F2)"/>
</g>
</svg>
