<svg preserveAspectRatio="none" width="100%" height="100%" overflow="visible" style="display: block;" viewBox="0 0 60.9767 17.4199" fill="none" xmlns="http://www.w3.org/2000/svg">
<g id="Group">
<path id="Vector" d="M21.4104 0.435849H17.2722C16.3651 0.435849 15.6555 0.831119 15.2213 1.57841L13.2981 4.88101L10.708 0.435849H5.18852L10.4274 8.58952L5.22709 17.0699H10.706L13.3041 12.65L15.9388 17.0699H21.3732L16.1716 8.58952L21.4104 0.435849Z" fill="var(--fill-0, #F7F5F2)"/>
<path id="Vector_2" d="M0.694503 1.13066C0.471936 1.34999 0.29577 1.61191 0.176494 1.9008C0.0572202 2.1897 -0.00271937 2.49967 0.000247291 2.81223V17.07H4.70909V0.433942H2.37694C2.06425 0.430702 1.75411 0.490555 1.46504 0.609918C1.17598 0.729281 0.91392 0.905709 0.694503 1.12866" fill="var(--fill-0, #F7F5F2)"/>
<path id="Vector_3" d="M29.6214 10.8806C29.4341 11.6625 29.1355 12.2149 28.7337 12.5276C28.2735 12.885 27.6785 13.06 26.915 13.06C25.8397 13.06 25.085 12.7273 24.5403 12.0219C23.9571 11.2626 23.6612 10.1647 23.6612 8.75655C23.6612 7.24866 23.9518 6.12804 24.5257 5.42466C25.0836 4.74195 25.8929 4.40923 27.0008 4.40923C27.832 4.40923 28.4332 4.56361 28.7877 4.8697C28.9871 5.04204 29.1688 5.29026 29.3403 5.627C29.7925 6.51467 30.5531 6.98383 31.5401 6.98383H34.2925L34.2194 6.10676C34.0551 4.19894 33.3448 2.69437 32.1086 1.63566C30.8404 0.549659 29.122 9.75445e-08 27.0008 9.75445e-08C24.4359 9.75445e-08 22.4163 0.777904 20.9986 2.31241C19.6407 3.78104 18.9517 5.94906 18.9517 8.75456C18.9517 11.4829 19.622 13.6163 20.9467 15.0976C22.3219 16.6387 24.2717 17.4199 26.7427 17.4199C28.9061 17.4199 30.6663 16.873 31.9703 15.793C33.3004 14.6943 34.0572 13.1272 34.222 11.1349L34.2925 10.2651H29.7706L29.6214 10.8806Z" fill="var(--fill-0, #F7F5F2)"/>
<path id="Vector_4" d="M58.4799 17.1146C57.7378 17.1564 56.9934 17.1458 56.2527 17.0826C55.4546 17.0214 55.0556 16.511 55.0556 15.5561V6.39629H56.177C56.3114 6.39638 56.4444 6.42407 56.5678 6.47761C56.6911 6.5312 56.8021 6.60947 56.8943 6.70774C56.9948 6.80429 57.0736 6.92037 57.1273 7.04877C57.181 7.17717 57.2076 7.31521 57.2057 7.45432V8.85574H58.4808V9.29161C58.4854 9.43427 58.4597 9.57615 58.4051 9.70815C58.3514 9.84011 58.2698 9.95918 58.1666 10.0575C58.0675 10.1535 57.9506 10.229 57.8226 10.2798C57.6946 10.3304 57.5575 10.3554 57.4199 10.353H57.2021V14.9659C57.2021 15.3199 57.4089 15.4982 57.824 15.4982H58.4776L58.4799 17.1146ZM50.9475 17.1146V8.57692C50.9475 7.82964 51.1433 7.26869 51.5401 6.89337C51.9116 6.54001 52.5252 6.36103 53.3751 6.36103C53.5425 6.35821 53.7095 6.36892 53.875 6.39297C54.0521 6.39029 54.2287 6.40012 54.4039 6.42223V8.13707H53.8439C53.554 8.13707 53.3444 8.17967 53.2224 8.2622C53.1183 8.34472 53.0651 8.5124 53.0651 8.75927V9.32023H54.4048V9.78606C54.4084 9.92369 54.3846 10.0606 54.3351 10.189C54.2851 10.3173 54.2103 10.4344 54.1149 10.5335C54.0191 10.6326 53.9049 10.7116 53.7783 10.766C53.6521 10.8203 53.5159 10.8489 53.3788 10.8501H53.0683V17.1146H50.9475ZM45.4366 10.882C45.0007 11.3603 44.8041 12.0718 44.8468 13.0168C44.8865 13.961 45.0648 14.6205 45.3754 14.9952C45.5004 15.1628 45.7185 15.3013 46.029 15.415C46.3335 15.5293 46.6665 15.5405 46.9779 15.447C47.2994 15.3545 47.5865 15.1202 47.836 14.7456C48.0851 14.3709 48.2186 13.7694 48.2401 12.9396C48.2401 12.1903 48.1204 11.6293 47.881 11.2567C47.6416 10.884 47.3682 10.6447 47.0609 10.5387C46.7582 10.4357 46.4312 10.4301 46.1253 10.5227C45.8152 10.6185 45.5865 10.7383 45.4397 10.882H45.4366ZM43.9435 16.3673C43.5074 15.9929 43.1955 15.4885 43.008 14.8541C42.8206 14.2117 42.7268 13.5456 42.7294 12.8763C42.7297 12.3071 42.8082 11.7407 42.9627 11.1928C43.0953 10.6756 43.3456 10.1961 43.6942 9.79206C44.2336 9.17097 44.9292 8.80211 45.7803 8.68538C46.6316 8.56875 47.4003 8.63526 48.0865 8.88504C48.8552 9.18001 49.4794 9.76114 49.8293 10.5067C50.1843 11.1904 50.3614 11.99 50.3614 12.9056C50.3614 13.5711 50.2889 14.1418 50.1435 14.6178C50.0197 15.05 49.8307 15.4607 49.5826 15.8356C49.0863 16.519 48.4525 16.9442 47.6829 17.1119C47.0077 17.2974 46.2968 17.3138 45.6133 17.1598C44.9173 17.0028 44.3631 16.7377 43.951 16.3646L43.9435 16.3673ZM34.9861 14.3683H37.1034C37.122 14.7829 37.2791 15.1003 37.569 15.3046C37.8821 15.5115 38.2966 15.6153 38.8151 15.6153C39.1497 15.6249 39.4814 15.5501 39.7794 15.3977C40.0295 15.2513 40.1537 15.0544 40.1537 14.8041C40.1537 14.4322 39.7181 14.1507 38.8472 13.9644C38.5619 13.9219 38.2806 13.8587 38.0046 13.7754C36.9047 13.5092 36.1676 13.1876 35.7935 12.8105C35.379 12.4352 35.1716 11.9381 35.1716 11.3132C35.1643 10.939 35.2418 10.568 35.3981 10.2282C35.5547 9.88824 35.7863 9.58829 36.0753 9.35083C36.7001 8.87217 37.5096 8.63281 38.504 8.63281C39.5853 8.63281 40.447 8.87129 41.0895 9.3482C41.6923 9.86946 42.0137 10.5449 42.0538 11.3745H40.7072C40.3139 11.3745 40.0137 11.197 39.8067 10.8421C39.7215 10.7596 39.6391 10.6771 39.5566 10.5919C39.3076 10.4065 38.9647 10.3135 38.5286 10.3131C38.1142 10.3131 37.8031 10.3743 37.593 10.4987C37.5018 10.5602 37.4282 10.6443 37.3794 10.7427C37.3305 10.8412 37.308 10.9506 37.3142 11.0604C37.3142 11.3926 37.8535 11.6735 38.9322 11.9028C39.0572 11.9427 39.1662 11.9747 39.2593 11.996C39.3466 12.0166 39.4357 12.0273 39.5254 12.0279C40.5834 12.2941 41.3208 12.6102 41.7339 12.9596C42.1297 13.3349 42.3271 13.8339 42.3264 14.4568C42.3264 15.372 41.9938 16.0785 41.3288 16.5762C40.7082 17.0336 39.7747 17.2623 38.5286 17.2623C37.3434 17.2623 36.4613 17.023 35.8818 16.5443C35.279 16.0678 34.9778 15.372 34.9788 14.4568L34.9861 14.3683Z" fill="var(--fill-0, #F7F5F2)"/>
<path id="Vector_5" d="M60.0498 6.45006C59.8668 6.45006 59.6879 6.50443 59.5352 6.60629C59.3829 6.70811 59.2641 6.85289 59.1944 7.02228C59.1243 7.19166 59.1059 7.37803 59.1417 7.55785C59.1775 7.73766 59.2655 7.9028 59.3949 8.03249C59.5247 8.16214 59.6898 8.25038 59.8696 8.28615C60.0489 8.32192 60.2351 8.30355 60.4043 8.2334C60.574 8.16325 60.7185 8.04445 60.8203 7.892C60.9222 7.73955 60.9767 7.56034 60.9767 7.37702C60.9758 7.13129 60.8781 6.89572 60.7048 6.72191C60.5309 6.54818 60.2956 6.45043 60.0498 6.45006ZM60.0498 8.099C59.9072 8.099 59.7677 8.05668 59.6494 7.97734C59.5306 7.898 59.438 7.78525 59.3834 7.65329C59.3288 7.52138 59.3146 7.37623 59.3421 7.23615C59.3701 7.09608 59.4389 6.96745 59.5398 6.86651C59.6407 6.76552 59.7696 6.69675 59.9095 6.66888C60.0494 6.641 60.1943 6.65531 60.3264 6.70995C60.458 6.7646 60.5708 6.85714 60.6497 6.97589C60.7291 7.0946 60.7717 7.23422 60.7717 7.37702C60.7713 7.56837 60.6951 7.75183 60.5598 7.88715C60.4245 8.02248 60.2415 8.09863 60.0498 8.099Z" fill="var(--fill-0, #F7F5F2)"/>
<path id="Vector_6" d="M60.4589 7.24538C60.4608 7.20426 60.4539 7.16327 60.4383 7.12515C60.4227 7.08698 60.3993 7.05255 60.3695 7.02417C60.3397 6.99574 60.3044 6.9739 60.2658 6.9602C60.2269 6.94649 60.1856 6.94118 60.1448 6.9446H59.6953V7.84824H59.9278V7.54483H60.0475L60.1993 7.84824H60.4654L60.281 7.51557C60.336 7.49558 60.3833 7.45852 60.4158 7.40978C60.4479 7.36104 60.464 7.30321 60.4612 7.24469L60.4589 7.24538ZM60.1122 7.34055H59.9274V7.14689H60.1122C60.126 7.1449 60.1402 7.14592 60.1535 7.14984C60.1668 7.15381 60.1792 7.1606 60.1897 7.16978C60.2007 7.17897 60.209 7.19032 60.2149 7.20306C60.2209 7.2158 60.2237 7.22969 60.2237 7.24372C60.2237 7.25775 60.2209 7.2716 60.2149 7.28434C60.209 7.29707 60.2007 7.30847 60.1897 7.31761C60.1792 7.32684 60.1668 7.33363 60.1535 7.3376C60.1402 7.34152 60.126 7.34254 60.1122 7.34055Z" fill="var(--fill-0, #F7F5F2)"/>
</g>
</svg>
